M48
;Layer_Color=9474304
;FILE_FORMAT=4:4
METRIC,LZ
;TYPE=PLATED
T01F00S00C0.3000
T02F00S00C1.1500
T03F00S00C1.3000
;TYPE=NON_PLATED
T04F00S00C3.1500
%
T01
X005636Y001444
X006136
X006386Y001944
X007136Y001444
X0078486Y0014732
X0079502
Y0015748
X0078486
X007886Y000944
X007386
X007636Y000444
Y003444
X007136
X006886Y003944
X006386
X006136Y003444
X005636Y002444
X004886Y002944
Y003944
X005386
X004386
X003886
X003386
X0025146Y0039116
X003386Y002944
X004386Y001944
X003386Y000944
X0029337Y0010033
X002386Y000944
X001886
X002636Y001444
X002386Y001944
X002636Y000444
X003136
X003636
X000386Y000944
X000636Y001444
Y002444
X000136
Y003444
X000886Y002944
X001386Y003944
Y004944
X001136Y005444
X000636
X000136
Y006444
X000636
X000886Y005944
X001386
X000636Y004444
X000136
X001636
Y005444
X001886Y005944
X003386Y004944
X003886
X004386
X004886
X005386
X005136Y004444
X004636
X004136
X003636
X003136
X006136
X006636
X006386Y004944
X007386
X007636Y005444
X008136
X007886Y005944
X007386
X006886
X007136Y006444
X007636
X007136Y005444
X005636
Y006444
X008136Y004444
T02
X003246Y00015
X004646
X00568918Y0003175
X00613918
X00679048
X00724048
X0069342Y0010414
X0066802
X0064262
X0061722
X0059182
X0056642
Y0028194
X0059182
X0061722
X0064262
X0066802
X0069342
X0079502Y003429
Y003683
Y003937
Y004191
X0056642
Y003937
Y003683
Y003429
X0046228Y0032766
X0043688
X0041148
X0038608
X0036068
X0033528
X0036068Y0028956
X0038608
X003596Y0024
X003246
X004296
X004646
X00508Y00182302
X005334Y0018288
Y0012954
Y0010414
X00508
Y0012954
X002174Y0013792
Y0016332
Y0018872
Y0021412
Y0023952
Y0026492
Y0029032
Y0031572
Y0034112
Y0036652
Y0039192
Y0041732
X0027878Y0041656
Y0039116
Y0036576
X002147Y000508
X001897
X001647
X001397
X001147
X000897
X000647
X000397
X000396Y0013792
Y0016332
Y0018872
Y0021412
Y0023952
Y0026492
Y0029032
Y0031572
Y0034112
Y0036652
Y0039192
Y0041732
Y0044272
Y0046812
Y0049352
Y0051892
Y0054432
Y0056972
Y0059512
Y0062052
X002174
Y0059512
Y0056972
Y0054432
Y0051892
Y0049352
Y0046812
Y0044272
X0027878Y0044196
Y0046736
Y0049276
X0056642Y004953
Y004699
Y004445
Y005207
X0058928Y0063246
X0061468
X0064008
X0066548
X0079502Y005207
Y004953
Y004699
Y004445
T03
X00556368Y0005665
X00626468
X00666498
X00736598
T04
X008Y0005
X0027Y00115
X0028Y005708
X008Y00635
M30
