G04*
G04 #@! TF.GenerationSoftware,Altium Limited,Altium Designer,24.1.2 (44)*
G04*
G04 Layer_Color=2752767*
%FSLAX44Y44*%
%MOMM*%
G71*
G04*
G04 #@! TF.SameCoordinates,937086DB-3430-4752-8DE8-575BD122750B*
G04*
G04*
G04 #@! TF.FilePolarity,Positive*
G04*
G01*
G75*
%ADD15C,0.1270*%
%ADD36C,0.1693*%
D15*
X273700Y365760D02*
X278780Y370840D01*
X283860Y365760D01*
X278780Y360680D01*
X273700Y365760D01*
Y391160D02*
X278780Y396240D01*
X283860Y391160D01*
X278780Y386080D01*
X273700Y391160D01*
Y416560D02*
X278780Y421640D01*
X283860Y416560D01*
X278780Y411480D01*
X273700Y416560D01*
Y441960D02*
X278780Y447040D01*
X283860Y441960D01*
X278780Y436880D01*
X273700Y441960D01*
Y467360D02*
X278780Y472440D01*
X283860Y467360D01*
X278780Y462280D01*
X273700Y467360D01*
Y492760D02*
X278780Y497840D01*
X283860Y492760D01*
X278780Y487680D01*
X273700Y492760D01*
X355600Y327660D02*
X360680Y332740D01*
X365760Y327660D01*
X360680Y322580D01*
X355600Y327660D01*
X381000D02*
X386080Y332740D01*
X391160Y327660D01*
X386080Y322580D01*
X381000Y327660D01*
X406400D02*
X411480Y332740D01*
X416560Y327660D01*
X411480Y322580D01*
X406400Y327660D01*
X431800D02*
X436880Y332740D01*
X441960Y327660D01*
X436880Y322580D01*
X431800Y327660D01*
X457200D02*
X462280Y332740D01*
X467360Y327660D01*
X462280Y322580D01*
X457200Y327660D01*
X330200D02*
X335280Y332740D01*
X340360Y327660D01*
X335280Y322580D01*
X330200Y327660D01*
X264920Y109920D02*
Y120080D01*
X275080D01*
Y109920D01*
X264920D01*
X635000Y632460D02*
X640080Y637540D01*
X645160Y632460D01*
X640080Y627380D01*
X635000Y632460D01*
X660400D02*
X665480Y637540D01*
X670560Y632460D01*
X665480Y627380D01*
X660400Y632460D01*
X609600D02*
X614680Y637540D01*
X619760Y632460D01*
X614680Y627380D01*
X609600Y632460D01*
X584200D02*
X589280Y637540D01*
X594360Y632460D01*
X589280Y627380D01*
X584200Y632460D01*
X84620Y50800D02*
X89700Y55880D01*
X94780Y50800D01*
X89700Y45720D01*
X84620Y50800D01*
X109620D02*
X114700Y55880D01*
X119780Y50800D01*
X114700Y45720D01*
X109620Y50800D01*
X59620D02*
X64700Y55880D01*
X69780Y50800D01*
X64700Y45720D01*
X59620Y50800D01*
X34620D02*
X39700Y55880D01*
X44780Y50800D01*
X39700Y45720D01*
X34620Y50800D01*
X134620D02*
X139700Y55880D01*
X144780Y50800D01*
X139700Y45720D01*
X134620Y50800D01*
X159620D02*
X164700Y55880D01*
X169780Y50800D01*
X164700Y45720D01*
X159620Y50800D01*
X184620D02*
X189700Y55880D01*
X194780Y50800D01*
X189700Y45720D01*
X184620Y50800D01*
X209620D02*
X214700Y55880D01*
X219780Y50800D01*
X214700Y45720D01*
X209620Y50800D01*
X274920Y565720D02*
Y575880D01*
X285080D01*
Y565720D01*
X274920D01*
X794920Y629920D02*
Y640080D01*
X805080D01*
Y629920D01*
X794920D01*
X789940Y520700D02*
X795020Y525780D01*
X800100Y520700D01*
X795020Y515620D01*
X789940Y520700D01*
Y495300D02*
X795020Y500380D01*
X800100Y495300D01*
X795020Y490220D01*
X789940Y495300D01*
Y469900D02*
X795020Y474980D01*
X800100Y469900D01*
X795020Y464820D01*
X789940Y469900D01*
Y444500D02*
X795020Y449580D01*
X800100Y444500D01*
X795020Y439420D01*
X789940Y444500D01*
Y419100D02*
X795020Y424180D01*
X800100Y419100D01*
X795020Y414020D01*
X789940Y419100D01*
Y393700D02*
X795020Y398780D01*
X800100Y393700D01*
X795020Y388620D01*
X789940Y393700D01*
Y368300D02*
X795020Y373380D01*
X800100Y368300D01*
X795020Y363220D01*
X789940Y368300D01*
Y342900D02*
X795020Y347980D01*
X800100Y342900D01*
X795020Y337820D01*
X789940Y342900D01*
X561340D02*
X566420Y347980D01*
X571500Y342900D01*
X566420Y337820D01*
X561340Y342900D01*
Y368300D02*
X566420Y373380D01*
X571500Y368300D01*
X566420Y363220D01*
X561340Y368300D01*
Y393700D02*
X566420Y398780D01*
X571500Y393700D01*
X566420Y388620D01*
X561340Y393700D01*
Y419100D02*
X566420Y424180D01*
X571500Y419100D01*
X566420Y414020D01*
X561340Y419100D01*
Y444500D02*
X566420Y449580D01*
X571500Y444500D01*
X566420Y439420D01*
X561340Y444500D01*
Y469900D02*
X566420Y474980D01*
X571500Y469900D01*
X566420Y464820D01*
X561340Y469900D01*
Y495300D02*
X566420Y500380D01*
X571500Y495300D01*
X566420Y490220D01*
X561340Y495300D01*
Y520700D02*
X566420Y525780D01*
X571500Y520700D01*
X566420Y515620D01*
X561340Y520700D01*
X794920Y44920D02*
Y55080D01*
X805080D01*
Y44920D01*
X794920D01*
X673968Y31750D02*
X679048Y36830D01*
X684128Y31750D01*
X679048Y26670D01*
X673968Y31750D01*
X718968D02*
X724048Y36830D01*
X729128Y31750D01*
X724048Y26670D01*
X718968Y31750D01*
X661418Y51570D02*
X663958Y56650D01*
X661418Y61730D01*
X666498Y59190D01*
X671578Y61730D01*
X669038Y56650D01*
X671578Y51570D01*
X666498Y54110D01*
X661418Y51570D01*
X731518D02*
X734058Y56650D01*
X731518Y61730D01*
X736598Y59190D01*
X741678Y61730D01*
X739138Y56650D01*
X741678Y51570D01*
X736598Y54110D01*
X731518Y51570D01*
X563838Y31750D02*
X568918Y36830D01*
X573998Y31750D01*
X568918Y26670D01*
X563838Y31750D01*
X608838D02*
X613918Y36830D01*
X618998Y31750D01*
X613918Y26670D01*
X608838Y31750D01*
X551288Y51570D02*
X553828Y56650D01*
X551288Y61730D01*
X556368Y59190D01*
X561448Y61730D01*
X558908Y56650D01*
X561448Y51570D01*
X556368Y54110D01*
X551288Y51570D01*
X621388D02*
X623928Y56650D01*
X621388Y61730D01*
X626468Y59190D01*
X631548Y61730D01*
X629008Y56650D01*
X631548Y51570D01*
X626468Y54110D01*
X621388Y51570D01*
X34520Y137920D02*
X39600Y143000D01*
X44680Y137920D01*
X39600Y132840D01*
X34520Y137920D01*
X212320D02*
X217400Y143000D01*
X222480Y137920D01*
X217400Y132840D01*
X212320Y137920D01*
X34520Y620520D02*
X39600Y625600D01*
X44680Y620520D01*
X39600Y615440D01*
X34520Y620520D01*
Y595120D02*
X39600Y600200D01*
X44680Y595120D01*
X39600Y590040D01*
X34520Y595120D01*
Y544320D02*
X39600Y549400D01*
X44680Y544320D01*
X39600Y539240D01*
X34520Y544320D01*
Y518920D02*
X39600Y524000D01*
X44680Y518920D01*
X39600Y513840D01*
X34520Y518920D01*
Y493520D02*
X39600Y498600D01*
X44680Y493520D01*
X39600Y488440D01*
X34520Y493520D01*
Y468120D02*
X39600Y473200D01*
X44680Y468120D01*
X39600Y463040D01*
X34520Y468120D01*
Y417320D02*
X39600Y422400D01*
X44680Y417320D01*
X39600Y412240D01*
X34520Y417320D01*
Y391920D02*
X39600Y397000D01*
X44680Y391920D01*
X39600Y386840D01*
X34520Y391920D01*
Y366520D02*
X39600Y371600D01*
X44680Y366520D01*
X39600Y361440D01*
X34520Y366520D01*
Y341120D02*
X39600Y346200D01*
X44680Y341120D01*
X39600Y336040D01*
X34520Y341120D01*
Y290320D02*
X39600Y295400D01*
X44680Y290320D01*
X39600Y285240D01*
X34520Y290320D01*
Y264920D02*
X39600Y270000D01*
X44680Y264920D01*
X39600Y259840D01*
X34520Y264920D01*
Y239520D02*
X39600Y244600D01*
X44680Y239520D01*
X39600Y234440D01*
X34520Y239520D01*
Y214120D02*
X39600Y219200D01*
X44680Y214120D01*
X39600Y209040D01*
X34520Y214120D01*
Y163320D02*
X39600Y168400D01*
X44680Y163320D01*
X39600Y158240D01*
X34520Y163320D01*
Y569720D02*
X39600Y574800D01*
X44680Y569720D01*
X39600Y564640D01*
X34520Y569720D01*
Y442720D02*
X39600Y447800D01*
X44680Y442720D01*
X39600Y437640D01*
X34520Y442720D01*
Y315720D02*
X39600Y320800D01*
X44680Y315720D01*
X39600Y310640D01*
X34520Y315720D01*
Y188720D02*
X39600Y193800D01*
X44680Y188720D01*
X39600Y183640D01*
X34520Y188720D01*
X212320Y620520D02*
X217400Y625600D01*
X222480Y620520D01*
X217400Y615440D01*
X212320Y620520D01*
Y569720D02*
X217400Y574800D01*
X222480Y569720D01*
X217400Y564640D01*
X212320Y569720D01*
Y595120D02*
X217400Y600200D01*
X222480Y595120D01*
X217400Y590040D01*
X212320Y595120D01*
Y544320D02*
X217400Y549400D01*
X222480Y544320D01*
X217400Y539240D01*
X212320Y544320D01*
Y518920D02*
X217400Y524000D01*
X222480Y518920D01*
X217400Y513840D01*
X212320Y518920D01*
Y493520D02*
X217400Y498600D01*
X222480Y493520D01*
X217400Y488440D01*
X212320Y493520D01*
Y468120D02*
X217400Y473200D01*
X222480Y468120D01*
X217400Y463040D01*
X212320Y468120D01*
Y417320D02*
X217400Y422400D01*
X222480Y417320D01*
X217400Y412240D01*
X212320Y417320D01*
Y391920D02*
X217400Y397000D01*
X222480Y391920D01*
X217400Y386840D01*
X212320Y391920D01*
Y366520D02*
X217400Y371600D01*
X222480Y366520D01*
X217400Y361440D01*
X212320Y366520D01*
Y341120D02*
X217400Y346200D01*
X222480Y341120D01*
X217400Y336040D01*
X212320Y341120D01*
Y290320D02*
X217400Y295400D01*
X222480Y290320D01*
X217400Y285240D01*
X212320Y290320D01*
Y264920D02*
X217400Y270000D01*
X222480Y264920D01*
X217400Y259840D01*
X212320Y264920D01*
Y239520D02*
X217400Y244600D01*
X222480Y239520D01*
X217400Y234440D01*
X212320Y239520D01*
Y214120D02*
X217400Y219200D01*
X222480Y214120D01*
X217400Y209040D01*
X212320Y214120D01*
Y163320D02*
X217400Y168400D01*
X222480Y163320D01*
X217400Y158240D01*
X212320Y163320D01*
Y442720D02*
X217400Y447800D01*
X222480Y442720D01*
X217400Y437640D01*
X212320Y442720D01*
Y315720D02*
X217400Y320800D01*
X222480Y315720D01*
X217400Y310640D01*
X212320Y315720D01*
Y188720D02*
X217400Y193800D01*
X222480Y188720D01*
X217400Y183640D01*
X212320Y188720D01*
X355600Y289560D02*
X360680Y294640D01*
X365760Y289560D01*
X360680Y284480D01*
X355600Y289560D01*
X528320Y182880D02*
X533400Y187960D01*
X538480Y182880D01*
X533400Y177800D01*
X528320Y182880D01*
Y129540D02*
X533400Y134620D01*
X538480Y129540D01*
X533400Y124460D01*
X528320Y129540D01*
X502920Y104140D02*
X508000Y109220D01*
X513080Y104140D01*
X508000Y99060D01*
X502920Y104140D01*
X528320D02*
X533400Y109220D01*
X538480Y104140D01*
X533400Y99060D01*
X528320Y104140D01*
X502920Y129540D02*
X508000Y134620D01*
X513080Y129540D01*
X508000Y124460D01*
X502920Y129540D01*
X688340Y281940D02*
X693420Y287020D01*
X698500Y281940D01*
X693420Y276860D01*
X688340Y281940D01*
X662940D02*
X668020Y287020D01*
X673100Y281940D01*
X668020Y276860D01*
X662940Y281940D01*
X637540D02*
X642620Y287020D01*
X647700Y281940D01*
X642620Y276860D01*
X637540Y281940D01*
X612140D02*
X617220Y287020D01*
X622300Y281940D01*
X617220Y276860D01*
X612140Y281940D01*
X586740D02*
X591820Y287020D01*
X596900Y281940D01*
X591820Y276860D01*
X586740Y281940D01*
X561340D02*
X566420Y287020D01*
X571500Y281940D01*
X566420Y276860D01*
X561340Y281940D01*
Y104140D02*
X566420Y109220D01*
X571500Y104140D01*
X566420Y99060D01*
X561340Y104140D01*
X586740D02*
X591820Y109220D01*
X596900Y104140D01*
X591820Y99060D01*
X586740Y104140D01*
X612140D02*
X617220Y109220D01*
X622300Y104140D01*
X617220Y99060D01*
X612140Y104140D01*
X637540D02*
X642620Y109220D01*
X647700Y104140D01*
X642620Y99060D01*
X637540Y104140D01*
X662940D02*
X668020Y109220D01*
X673100Y104140D01*
X668020Y99060D01*
X662940Y104140D01*
X688340D02*
X693420Y109220D01*
X698500Y104140D01*
X693420Y99060D01*
X688340Y104140D01*
X459520Y240000D02*
X464600Y245080D01*
X469680Y240000D01*
X464600Y234920D01*
X459520Y240000D01*
X424520D02*
X429600Y245080D01*
X434680Y240000D01*
X429600Y234920D01*
X424520Y240000D01*
X319520D02*
X324600Y245080D01*
X329680Y240000D01*
X324600Y234920D01*
X319520Y240000D01*
X354520D02*
X359600Y245080D01*
X364680Y240000D01*
X359600Y234920D01*
X354520Y240000D01*
X459520Y15000D02*
X464600Y20080D01*
X469680Y15000D01*
X464600Y9920D01*
X459520Y15000D01*
X319520D02*
X324600Y20080D01*
X329680Y15000D01*
X324600Y9920D01*
X319520Y15000D01*
X502920Y182302D02*
X508000Y187382D01*
X513080Y182302D01*
X508000Y177222D01*
X502920Y182302D01*
X381000Y289560D02*
X386080Y294640D01*
X391160Y289560D01*
X386080Y284480D01*
X381000Y289560D01*
D36*
X298450Y100330D02*
G03*
X298450Y100330I-5080J0D01*
G01*
X818680Y544400D02*
G03*
X818680Y544400I-5080J0D01*
G01*
Y444400D02*
G03*
X818680Y444400I-5080J0D01*
G01*
X768680Y644400D02*
G03*
X768680Y644400I-5080J0D01*
G01*
X793680Y594400D02*
G03*
X793680Y594400I-5080J0D01*
G01*
X768680Y544400D02*
G03*
X768680Y544400I-5080J0D01*
G01*
Y344400D02*
G03*
X768680Y344400I-5080J0D01*
G01*
X793680Y94400D02*
G03*
X793680Y94400I-5080J0D01*
G01*
X768680Y44400D02*
G03*
X768680Y44400I-5080J0D01*
G01*
X718680Y644400D02*
G03*
X718680Y644400I-5080J0D01*
G01*
X743680Y594400D02*
G03*
X743680Y594400I-5080J0D01*
G01*
X718680Y544400D02*
G03*
X718680Y544400I-5080J0D01*
G01*
X743680Y494400D02*
G03*
X743680Y494400I-5080J0D01*
G01*
X718680Y344400D02*
G03*
X718680Y344400I-5080J0D01*
G01*
Y144400D02*
G03*
X718680Y144400I-5080J0D01*
G01*
X743680Y94400D02*
G03*
X743680Y94400I-5080J0D01*
G01*
X693680Y594400D02*
G03*
X693680Y594400I-5080J0D01*
G01*
X668680Y444400D02*
G03*
X668680Y444400I-5080J0D01*
G01*
X693680Y394400D02*
G03*
X693680Y394400I-5080J0D01*
G01*
X643680Y494400D02*
G03*
X643680Y494400I-5080J0D01*
G01*
X618680Y444400D02*
G03*
X618680Y444400I-5080J0D01*
G01*
X643680Y394400D02*
G03*
X643680Y394400I-5080J0D01*
G01*
X618680Y344400D02*
G03*
X618680Y344400I-5080J0D01*
G01*
X643680Y194400D02*
G03*
X643680Y194400I-5080J0D01*
G01*
X618680Y144400D02*
G03*
X618680Y144400I-5080J0D01*
G01*
X568680Y644400D02*
G03*
X568680Y644400I-5080J0D01*
G01*
Y544400D02*
G03*
X568680Y544400I-5080J0D01*
G01*
Y244400D02*
G03*
X568680Y244400I-5080J0D01*
G01*
Y144400D02*
G03*
X568680Y144400I-5080J0D01*
G01*
X543680Y494400D02*
G03*
X543680Y494400I-5080J0D01*
G01*
X518680Y444400D02*
G03*
X518680Y444400I-5080J0D01*
G01*
X543680Y394400D02*
G03*
X543680Y394400I-5080J0D01*
G01*
X493680Y494400D02*
G03*
X493680Y494400I-5080J0D01*
G01*
X468680Y444400D02*
G03*
X468680Y444400I-5080J0D01*
G01*
X493680Y394400D02*
G03*
X493680Y394400I-5080J0D01*
G01*
Y294400D02*
G03*
X493680Y294400I-5080J0D01*
G01*
X443680Y494400D02*
G03*
X443680Y494400I-5080J0D01*
G01*
X418680Y444400D02*
G03*
X418680Y444400I-5080J0D01*
G01*
X443680Y394400D02*
G03*
X443680Y394400I-5080J0D01*
G01*
Y194400D02*
G03*
X443680Y194400I-5080J0D01*
G01*
X393680Y494400D02*
G03*
X393680Y494400I-5080J0D01*
G01*
X368680Y444400D02*
G03*
X368680Y444400I-5080J0D01*
G01*
X393680Y394400D02*
G03*
X393680Y394400I-5080J0D01*
G01*
X368680Y44400D02*
G03*
X368680Y44400I-5080J0D01*
G01*
X343680Y494400D02*
G03*
X343680Y494400I-5080J0D01*
G01*
X318680Y444400D02*
G03*
X318680Y444400I-5080J0D01*
G01*
X343680Y394400D02*
G03*
X343680Y394400I-5080J0D01*
G01*
Y294400D02*
G03*
X343680Y294400I-5080J0D01*
G01*
Y94400D02*
G03*
X343680Y94400I-5080J0D01*
G01*
X318680Y44400D02*
G03*
X318680Y44400I-5080J0D01*
G01*
X268680Y144400D02*
G03*
X268680Y144400I-5080J0D01*
G01*
Y44400D02*
G03*
X268680Y44400I-5080J0D01*
G01*
X243680Y194400D02*
G03*
X243680Y194400I-5080J0D01*
G01*
Y94400D02*
G03*
X243680Y94400I-5080J0D01*
G01*
X193680Y594400D02*
G03*
X193680Y594400I-5080J0D01*
G01*
X168680Y544400D02*
G03*
X168680Y544400I-5080J0D01*
G01*
Y444400D02*
G03*
X168680Y444400I-5080J0D01*
G01*
X193680Y94400D02*
G03*
X193680Y94400I-5080J0D01*
G01*
X143680Y594400D02*
G03*
X143680Y594400I-5080J0D01*
G01*
X118680Y544400D02*
G03*
X118680Y544400I-5080J0D01*
G01*
X143680Y494400D02*
G03*
X143680Y494400I-5080J0D01*
G01*
Y394400D02*
G03*
X143680Y394400I-5080J0D01*
G01*
X68680Y644400D02*
G03*
X68680Y644400I-5080J0D01*
G01*
X93680Y594400D02*
G03*
X93680Y594400I-5080J0D01*
G01*
X68680Y544400D02*
G03*
X68680Y544400I-5080J0D01*
G01*
Y444400D02*
G03*
X68680Y444400I-5080J0D01*
G01*
X93680Y294400D02*
G03*
X93680Y294400I-5080J0D01*
G01*
X68680Y244400D02*
G03*
X68680Y244400I-5080J0D01*
G01*
Y144400D02*
G03*
X68680Y144400I-5080J0D01*
G01*
X18680Y644400D02*
G03*
X18680Y644400I-5080J0D01*
G01*
Y544400D02*
G03*
X18680Y544400I-5080J0D01*
G01*
Y444400D02*
G03*
X18680Y444400I-5080J0D01*
G01*
Y344400D02*
G03*
X18680Y344400I-5080J0D01*
G01*
Y244400D02*
G03*
X18680Y244400I-5080J0D01*
G01*
X43680Y94400D02*
G03*
X43680Y94400I-5080J0D01*
G01*
X800100Y147320D02*
G03*
X800100Y147320I-5080J0D01*
G01*
Y157480D02*
G03*
X800100Y157480I-5080J0D01*
G01*
X789940Y147320D02*
G03*
X789940Y147320I-5080J0D01*
G01*
Y157480D02*
G03*
X789940Y157480I-5080J0D01*
G01*
X256540Y391160D02*
G03*
X256540Y391160I-5080J0D01*
G01*
M02*
