G04*
G04 #@! TF.GenerationSoftware,Altium Limited,Altium Designer,24.1.2 (44)*
G04*
G04 Layer_Physical_Order=2*
G04 Layer_Color=16711680*
%FSLAX44Y44*%
%MOMM*%
G71*
G04*
G04 #@! TF.SameCoordinates,937086DB-3430-4752-8DE8-575BD122750B*
G04*
G04*
G04 #@! TF.FilePolarity,Positive*
G04*
G01*
G75*
%ADD14C,0.7000*%
%ADD20C,2.1500*%
%ADD21C,0.7500*%
%ADD22O,2.5000X1.6000*%
%ADD23C,0.7000*%
%ADD24R,1.1000X1.7000*%
%ADD25R,2.4130X5.3340*%
%ADD26R,0.7010X1.0000*%
%ADD27R,1.2100X0.5800*%
%ADD28R,1.7000X1.1000*%
%ADD29C,0.6000*%
G36*
X838926Y4354D02*
X475307Y4354D01*
X474950Y5624D01*
X476945Y7155D01*
X478709Y9453D01*
X479817Y12129D01*
X480195Y15000D01*
X479817Y17872D01*
X478709Y20548D01*
X476945Y22845D01*
X476781Y22971D01*
X477190Y24174D01*
X557415D01*
X557915Y23307D01*
X560475Y20747D01*
X563611Y18937D01*
X567108Y18000D01*
X570728D01*
X574225Y18937D01*
X577361Y20747D01*
X579921Y23307D01*
X581731Y26443D01*
X582668Y29940D01*
Y33560D01*
X581731Y37057D01*
X579921Y40193D01*
X577361Y42753D01*
X574225Y44563D01*
X570728Y45500D01*
X567108D01*
X566222Y45263D01*
X565565Y46401D01*
X567371Y48207D01*
X569181Y51343D01*
X570118Y54840D01*
Y58460D01*
X569181Y61957D01*
X567371Y65093D01*
X564811Y67653D01*
X563562Y68374D01*
X563902Y69644D01*
X618934D01*
X619274Y68374D01*
X618025Y67653D01*
X615465Y65093D01*
X613655Y61957D01*
X612718Y58460D01*
Y54840D01*
X613655Y51343D01*
X615465Y48207D01*
X617084Y46589D01*
X617043Y44845D01*
X616918Y44730D01*
Y34750D01*
X626873D01*
X626302Y36880D01*
X624553Y39910D01*
X623091Y41372D01*
X623222Y43037D01*
X623471Y43218D01*
X624658Y42900D01*
X628278D01*
X631775Y43837D01*
X634911Y45647D01*
X637471Y48207D01*
X639281Y51343D01*
X640218Y54840D01*
Y58460D01*
X639281Y61957D01*
X637471Y65093D01*
X634911Y67653D01*
X633661Y68374D01*
X634002Y69644D01*
X658964D01*
X659305Y68374D01*
X658055Y67653D01*
X655495Y65093D01*
X653685Y61957D01*
X652748Y58460D01*
Y54840D01*
X653685Y51343D01*
X655495Y48207D01*
X658055Y45647D01*
X661191Y43837D01*
X664688Y42900D01*
X668308D01*
X669194Y43137D01*
X669851Y41999D01*
X668045Y40193D01*
X666235Y37057D01*
X665298Y33560D01*
Y29940D01*
X666235Y26443D01*
X668045Y23307D01*
X670605Y20747D01*
X673741Y18937D01*
X677238Y18000D01*
X680858D01*
X684355Y18937D01*
X687491Y20747D01*
X690051Y23307D01*
X691861Y26443D01*
X692798Y29940D01*
Y33560D01*
X691861Y37057D01*
X691259Y38101D01*
X695516Y42358D01*
X696558Y43716D01*
X697213Y45297D01*
X697436Y46994D01*
Y66040D01*
X697213Y67737D01*
X696558Y69318D01*
X695516Y70676D01*
X685356Y80836D01*
X683998Y81878D01*
X682417Y82533D01*
X680720Y82756D01*
X401496D01*
X240096Y244156D01*
X238738Y245198D01*
X237157Y245853D01*
X235460Y246076D01*
X229492D01*
X228403Y247963D01*
X225843Y250523D01*
X224003Y251585D01*
Y252855D01*
X225843Y253917D01*
X228403Y256477D01*
X229492Y258364D01*
X232744D01*
X389064Y102044D01*
X390422Y101002D01*
X392003Y100347D01*
X393700Y100124D01*
X430120D01*
Y92640D01*
X447120D01*
Y115640D01*
X430120D01*
Y113236D01*
X396416D01*
X240096Y269556D01*
X238738Y270598D01*
X237157Y271253D01*
X235460Y271476D01*
X229492D01*
X228403Y273363D01*
X225843Y275923D01*
X224003Y276985D01*
Y278255D01*
X225843Y279317D01*
X228403Y281877D01*
X229492Y283764D01*
X232744D01*
X391604Y124904D01*
X392962Y123862D01*
X394543Y123207D01*
X396240Y122984D01*
X430120D01*
Y118040D01*
X447120D01*
Y141040D01*
X430120D01*
Y136096D01*
X398956D01*
X388308Y146743D01*
X389147Y147700D01*
X390422Y146722D01*
X392003Y146067D01*
X393700Y145844D01*
X529300D01*
X530996Y146067D01*
X532578Y146722D01*
X533935Y147764D01*
X538036Y151865D01*
X539078Y153223D01*
X539733Y154804D01*
X539956Y156501D01*
Y170788D01*
X541843Y171877D01*
X544403Y174437D01*
X546213Y177573D01*
X547150Y181070D01*
Y184690D01*
X546213Y188187D01*
X544403Y191323D01*
X541843Y193883D01*
X538707Y195693D01*
X535210Y196630D01*
X531590D01*
X528093Y195693D01*
X524957Y193883D01*
X522397Y191323D01*
X521266Y189364D01*
X519800D01*
X519003Y190744D01*
X516443Y193305D01*
X513307Y195115D01*
X509810Y196052D01*
X508676D01*
Y201860D01*
X510620D01*
Y224584D01*
X525780D01*
X527477Y224807D01*
X529058Y225462D01*
X530416Y226504D01*
X537937Y234025D01*
X538978Y235383D01*
X539633Y236964D01*
X539857Y238661D01*
Y247060D01*
X539862Y247099D01*
X539811Y247485D01*
Y255099D01*
X529360D01*
Y271094D01*
X529270Y271546D01*
X529221Y272005D01*
X529154Y272127D01*
X529127Y272265D01*
X528871Y272648D01*
X528650Y273053D01*
X524358Y278201D01*
Y280518D01*
X524633Y280930D01*
X524866Y282100D01*
Y292100D01*
X524850Y292180D01*
Y298316D01*
X524627Y300012D01*
X523972Y301594D01*
X522930Y302952D01*
X521526Y304356D01*
X520168Y305398D01*
X518587Y306053D01*
X516890Y306276D01*
X515193Y306053D01*
X514430Y305737D01*
X513160Y306585D01*
Y323920D01*
X511216D01*
Y331400D01*
X513160D01*
Y345128D01*
X529776Y361744D01*
X554328D01*
X555417Y359857D01*
X557977Y357297D01*
X560107Y356068D01*
Y354601D01*
X558260Y353535D01*
X555785Y351060D01*
X554036Y348030D01*
X553465Y345900D01*
X579375D01*
X578804Y348030D01*
X577055Y351060D01*
X574580Y353535D01*
X572733Y354601D01*
Y356068D01*
X574863Y357297D01*
X577423Y359857D01*
X578512Y361744D01*
X627204D01*
X686864Y302084D01*
Y294032D01*
X684977Y292943D01*
X682417Y290383D01*
X681355Y288543D01*
X680085D01*
X679023Y290383D01*
X676463Y292943D01*
X673327Y294753D01*
X669830Y295690D01*
X666210D01*
X662713Y294753D01*
X659577Y292943D01*
X657017Y290383D01*
X655955Y288543D01*
X654685D01*
X653623Y290383D01*
X651063Y292943D01*
X647927Y294753D01*
X644430Y295690D01*
X640810D01*
X637313Y294753D01*
X634177Y292943D01*
X631617Y290383D01*
X630555Y288543D01*
X629285D01*
X628223Y290383D01*
X625663Y292943D01*
X622527Y294753D01*
X619030Y295690D01*
X615410D01*
X611913Y294753D01*
X608777Y292943D01*
X606217Y290383D01*
X605155Y288543D01*
X603885D01*
X602823Y290383D01*
X600263Y292943D01*
X597127Y294753D01*
X593630Y295690D01*
X590010D01*
X586513Y294753D01*
X583377Y292943D01*
X580817Y290383D01*
X579755Y288543D01*
X578485D01*
X577423Y290383D01*
X574863Y292943D01*
X571727Y294753D01*
X568230Y295690D01*
X564610D01*
X561113Y294753D01*
X557977Y292943D01*
X555417Y290383D01*
X553607Y287247D01*
X552670Y283750D01*
Y280130D01*
X553607Y276633D01*
X555417Y273497D01*
X557977Y270937D01*
X561113Y269127D01*
X564610Y268190D01*
X568230D01*
X571727Y269127D01*
X574863Y270937D01*
X577423Y273497D01*
X578485Y275337D01*
X579755D01*
X580817Y273497D01*
X583377Y270937D01*
X586513Y269127D01*
X590010Y268190D01*
X593630D01*
X597127Y269127D01*
X600263Y270937D01*
X602823Y273497D01*
X603885Y275337D01*
X605155D01*
X606217Y273497D01*
X608777Y270937D01*
X611913Y269127D01*
X615410Y268190D01*
X619030D01*
X622527Y269127D01*
X625663Y270937D01*
X628223Y273497D01*
X629285Y275337D01*
X630555D01*
X631617Y273497D01*
X634177Y270937D01*
X637313Y269127D01*
X640810Y268190D01*
X644430D01*
X647927Y269127D01*
X651063Y270937D01*
X653623Y273497D01*
X654685Y275337D01*
X655955D01*
X657017Y273497D01*
X659577Y270937D01*
X662713Y269127D01*
X666210Y268190D01*
X669830D01*
X673327Y269127D01*
X676463Y270937D01*
X679023Y273497D01*
X680085Y275337D01*
X681355D01*
X682417Y273497D01*
X684977Y270937D01*
X687264Y269617D01*
Y262960D01*
X685720D01*
Y239960D01*
X702720D01*
Y244904D01*
X708901D01*
X709589Y244120D01*
X709642Y244011D01*
X709704Y243931D01*
X709726Y243867D01*
X709724Y243840D01*
X709895Y242542D01*
X710023Y242164D01*
X710101Y241771D01*
X710316Y241254D01*
X710354Y241060D01*
X710382Y240994D01*
X710317Y240962D01*
X710161Y240842D01*
X710117Y240821D01*
X709961Y240701D01*
X709886Y240664D01*
X709803Y240600D01*
X709608Y240504D01*
X709452Y240384D01*
X709347Y240264D01*
X709076Y240083D01*
X709019Y239999D01*
X708939Y239937D01*
X708723Y239564D01*
X708695Y239536D01*
X708684Y239509D01*
X708665Y239487D01*
X708652Y239449D01*
X708413Y239091D01*
X708393Y238992D01*
X708342Y238904D01*
X708299Y238580D01*
X708239Y238433D01*
X708200Y238240D01*
Y238022D01*
X708180Y237920D01*
Y237836D01*
X708141Y237643D01*
Y196850D01*
X707810Y196446D01*
X702720D01*
Y202000D01*
X685720D01*
Y179000D01*
X687264D01*
Y174060D01*
X685720D01*
Y151060D01*
X687264D01*
Y146120D01*
X685720D01*
Y123120D01*
X687264D01*
Y116463D01*
X684977Y115143D01*
X682417Y112583D01*
X681355Y110743D01*
X680085D01*
X679023Y112583D01*
X676463Y115143D01*
X673327Y116953D01*
X669830Y117890D01*
X666210D01*
X662713Y116953D01*
X659577Y115143D01*
X657017Y112583D01*
X655955Y110743D01*
X654685D01*
X653623Y112583D01*
X651063Y115143D01*
X647927Y116953D01*
X644430Y117890D01*
X640810D01*
X637313Y116953D01*
X634177Y115143D01*
X631617Y112583D01*
X630555Y110743D01*
X629285D01*
X628223Y112583D01*
X625663Y115143D01*
X622527Y116953D01*
X619030Y117890D01*
X615410D01*
X611913Y116953D01*
X608777Y115143D01*
X606217Y112583D01*
X604988Y110453D01*
X603521D01*
X602455Y112300D01*
X599980Y114775D01*
X596950Y116524D01*
X594820Y117095D01*
Y104140D01*
Y91185D01*
X596950Y91756D01*
X599980Y93505D01*
X602455Y95980D01*
X603521Y97827D01*
X604988D01*
X606217Y95697D01*
X608777Y93137D01*
X611913Y91327D01*
X615410Y90390D01*
X619030D01*
X622527Y91327D01*
X625663Y93137D01*
X628223Y95697D01*
X629285Y97537D01*
X630555D01*
X631617Y95697D01*
X634177Y93137D01*
X637313Y91327D01*
X640810Y90390D01*
X644430D01*
X647927Y91327D01*
X651063Y93137D01*
X653623Y95697D01*
X654685Y97537D01*
X655955D01*
X657017Y95697D01*
X659577Y93137D01*
X662713Y91327D01*
X666210Y90390D01*
X669830D01*
X673327Y91327D01*
X676463Y93137D01*
X679023Y95697D01*
X680085Y97537D01*
X681355D01*
X682417Y95697D01*
X684977Y93137D01*
X688113Y91327D01*
X691610Y90390D01*
X695230D01*
X698727Y91327D01*
X701863Y93137D01*
X704423Y95697D01*
X706233Y98833D01*
X707170Y102330D01*
Y105950D01*
X706233Y109447D01*
X704423Y112583D01*
X701863Y115143D01*
X700376Y116001D01*
Y123120D01*
X702720D01*
Y146120D01*
X700376D01*
Y151060D01*
X702720D01*
Y174060D01*
X700376D01*
Y179000D01*
X702720D01*
Y183334D01*
X736344D01*
Y162630D01*
X736190D01*
Y139630D01*
X750673D01*
X750888Y138003D01*
X751543Y136422D01*
X752584Y135064D01*
X758934Y128714D01*
X760292Y127672D01*
X761873Y127017D01*
X763570Y126794D01*
X800100D01*
X801797Y127017D01*
X803378Y127672D01*
X804736Y128714D01*
X813626Y137604D01*
X814668Y138962D01*
X815323Y140543D01*
X815546Y142240D01*
Y167640D01*
X815323Y169337D01*
X814668Y170918D01*
X813626Y172276D01*
X805562Y180340D01*
X832676Y207454D01*
X833718Y208812D01*
X834373Y210393D01*
X834596Y212090D01*
Y298450D01*
X834373Y300147D01*
X833718Y301728D01*
X832676Y303086D01*
X823786Y311976D01*
X822428Y313018D01*
X820847Y313673D01*
X819150Y313896D01*
X774700D01*
X773003Y313673D01*
X771422Y313018D01*
X770064Y311976D01*
X757322Y299233D01*
X757185Y299152D01*
X757134Y299106D01*
X757066D01*
X756910Y299075D01*
X755672Y299137D01*
X755576Y299156D01*
X755487Y299198D01*
X755199Y299391D01*
X755199Y299391D01*
X755085Y299467D01*
X755085Y299467D01*
X755084Y299467D01*
X754940Y299527D01*
X754868Y299583D01*
X754762Y299612D01*
X754670Y299673D01*
X754510Y299705D01*
X754292Y299795D01*
X754277Y299805D01*
X754260Y299808D01*
X753982Y299924D01*
X753982D01*
X753982Y299924D01*
X753704Y299979D01*
X753402Y299979D01*
X753107Y300038D01*
X748495D01*
Y300180D01*
X718365D01*
Y300180D01*
X718286Y300102D01*
X712453Y300215D01*
X712170Y300164D01*
X712163Y300166D01*
X712161Y300166D01*
X712128Y300159D01*
X711826Y300162D01*
X711563Y300113D01*
X711310Y300011D01*
X711278Y300005D01*
X711273Y300002D01*
X711011Y299954D01*
X711000Y299948D01*
X710988Y299945D01*
X710765Y299800D01*
X710759Y299799D01*
X710733Y299782D01*
X710478Y299682D01*
X710252Y299537D01*
X710034Y299328D01*
X710006Y299310D01*
X710005Y299308D01*
X710001Y299303D01*
X709760Y299145D01*
X709263Y298658D01*
X709101Y298420D01*
X709094Y298415D01*
X709092Y298413D01*
X709073Y298384D01*
X708862Y298174D01*
X708714Y297952D01*
X708609Y297699D01*
X708591Y297672D01*
X708589Y297666D01*
X708439Y297446D01*
X708437Y297432D01*
X708429Y297421D01*
X708377Y297161D01*
X708374Y297157D01*
X708368Y297125D01*
X708261Y296873D01*
X708206Y296612D01*
X708203Y296311D01*
X708196Y296278D01*
X708196Y296275D01*
X708197Y296268D01*
X708141Y295986D01*
Y285032D01*
X706871Y284865D01*
X706233Y287247D01*
X704423Y290383D01*
X701863Y292943D01*
X699976Y294032D01*
Y304800D01*
X699753Y306497D01*
X699098Y308078D01*
X698056Y309436D01*
X634556Y372936D01*
X633198Y373978D01*
X631617Y374633D01*
X629920Y374856D01*
X596197D01*
X595349Y376126D01*
X595613Y376763D01*
X595836Y378460D01*
Y590880D01*
X598980D01*
Y613880D01*
X595836D01*
Y620368D01*
X597723Y621457D01*
X600283Y624017D01*
X601345Y625857D01*
X602615D01*
X603677Y624017D01*
X606237Y621457D01*
X608124Y620368D01*
Y551180D01*
X608347Y549483D01*
X609002Y547902D01*
X610044Y546544D01*
X767524Y389064D01*
X768882Y388022D01*
X770463Y387367D01*
X772160Y387144D01*
X782928D01*
X784017Y385257D01*
X786577Y382697D01*
X788417Y381635D01*
Y380365D01*
X786577Y379303D01*
X784017Y376743D01*
X782207Y373607D01*
X781270Y370110D01*
Y366490D01*
X782207Y362993D01*
X784017Y359857D01*
X786577Y357297D01*
X788707Y356068D01*
Y354601D01*
X786860Y353535D01*
X784385Y351060D01*
X782636Y348030D01*
X782065Y345900D01*
X807975D01*
X807404Y348030D01*
X805655Y351060D01*
X803180Y353535D01*
X801333Y354601D01*
Y356068D01*
X803463Y357297D01*
X806023Y359857D01*
X807833Y362993D01*
X808770Y366490D01*
Y370110D01*
X807833Y373607D01*
X806023Y376743D01*
X803463Y379303D01*
X801623Y380365D01*
Y381635D01*
X803463Y382697D01*
X806023Y385257D01*
X807833Y388393D01*
X808770Y391890D01*
Y395510D01*
X807833Y399007D01*
X806023Y402143D01*
X803463Y404703D01*
X801623Y405765D01*
Y407035D01*
X803463Y408097D01*
X806023Y410657D01*
X807833Y413793D01*
X808770Y417290D01*
Y420910D01*
X807833Y424407D01*
X806023Y427543D01*
X803463Y430103D01*
X801623Y431165D01*
Y432435D01*
X803463Y433497D01*
X806023Y436057D01*
X807833Y439193D01*
X808770Y442690D01*
Y446310D01*
X807833Y449807D01*
X806023Y452943D01*
X803463Y455503D01*
X801623Y456565D01*
Y457835D01*
X803463Y458897D01*
X806023Y461457D01*
X807833Y464593D01*
X808770Y468090D01*
Y471710D01*
X807833Y475207D01*
X806023Y478343D01*
X803463Y480903D01*
X801623Y481965D01*
Y483235D01*
X803463Y484297D01*
X806023Y486857D01*
X807833Y489993D01*
X808770Y493490D01*
Y497110D01*
X807833Y500607D01*
X806023Y503743D01*
X803463Y506303D01*
X801623Y507365D01*
Y508635D01*
X803463Y509697D01*
X806023Y512257D01*
X807833Y515393D01*
X808770Y518890D01*
Y522510D01*
X807833Y526007D01*
X806023Y529143D01*
X803463Y531703D01*
X800327Y533513D01*
X796830Y534450D01*
X793210D01*
X789713Y533513D01*
X786577Y531703D01*
X784017Y529143D01*
X782207Y526007D01*
X781270Y522510D01*
Y518890D01*
X782207Y515393D01*
X784017Y512257D01*
X786577Y509697D01*
X788417Y508635D01*
Y507365D01*
X786577Y506303D01*
X784017Y503743D01*
X782207Y500607D01*
X781270Y497110D01*
Y493490D01*
X782207Y489993D01*
X784017Y486857D01*
X786577Y484297D01*
X788417Y483235D01*
Y481965D01*
X786577Y480903D01*
X784017Y478343D01*
X782207Y475207D01*
X781270Y471710D01*
Y468090D01*
X782207Y464593D01*
X784017Y461457D01*
X786577Y458897D01*
X788417Y457835D01*
Y456565D01*
X786577Y455503D01*
X784017Y452943D01*
X782207Y449807D01*
X781270Y446310D01*
Y442690D01*
X782207Y439193D01*
X784017Y436057D01*
X786577Y433497D01*
X788417Y432435D01*
Y431165D01*
X786577Y430103D01*
X784017Y427543D01*
X782928Y425656D01*
X777416D01*
X646636Y556436D01*
Y620368D01*
X648523Y621457D01*
X651083Y624017D01*
X652312Y626147D01*
X653779D01*
X654845Y624300D01*
X657320Y621825D01*
X660350Y620076D01*
X662480Y619505D01*
Y632460D01*
Y645415D01*
X660350Y644844D01*
X657320Y643095D01*
X654845Y640620D01*
X653779Y638773D01*
X652312D01*
X651083Y640903D01*
X648523Y643463D01*
X645387Y645273D01*
X641890Y646210D01*
X638270D01*
X634773Y645273D01*
X631637Y643463D01*
X629077Y640903D01*
X628015Y639063D01*
X626745D01*
X625683Y640903D01*
X623123Y643463D01*
X619987Y645273D01*
X616490Y646210D01*
X612870D01*
X609373Y645273D01*
X606237Y643463D01*
X603677Y640903D01*
X602615Y639063D01*
X601345D01*
X600283Y640903D01*
X597723Y643463D01*
X594587Y645273D01*
X591090Y646210D01*
X587470D01*
X583973Y645273D01*
X580837Y643463D01*
X578277Y640903D01*
X576467Y637767D01*
X575530Y634270D01*
Y630650D01*
X576467Y627153D01*
X578277Y624017D01*
X580837Y621457D01*
X582724Y620368D01*
Y613880D01*
X581980D01*
Y590880D01*
X582724D01*
Y381176D01*
X578575Y377027D01*
X576959Y377207D01*
X574863Y379303D01*
X573023Y380365D01*
Y381635D01*
X574863Y382697D01*
X577423Y385257D01*
X579233Y388393D01*
X580170Y391890D01*
Y395510D01*
X579233Y399007D01*
X577423Y402143D01*
X574863Y404703D01*
X573023Y405765D01*
Y407035D01*
X574863Y408097D01*
X577423Y410657D01*
X579233Y413793D01*
X580170Y417290D01*
Y420910D01*
X579233Y424407D01*
X577423Y427543D01*
X574863Y430103D01*
X573023Y431165D01*
Y432435D01*
X574863Y433497D01*
X577423Y436057D01*
X579233Y439193D01*
X580170Y442690D01*
Y446310D01*
X579233Y449807D01*
X577423Y452943D01*
X574863Y455503D01*
X573023Y456565D01*
Y457835D01*
X574863Y458897D01*
X577423Y461457D01*
X579233Y464593D01*
X580170Y468090D01*
Y471710D01*
X579233Y475207D01*
X577423Y478343D01*
X574863Y480903D01*
X573023Y481965D01*
Y483235D01*
X574863Y484297D01*
X577423Y486857D01*
X579233Y489993D01*
X580170Y493490D01*
Y497110D01*
X579233Y500607D01*
X577423Y503743D01*
X574863Y506303D01*
X573023Y507365D01*
Y508635D01*
X574863Y509697D01*
X577423Y512257D01*
X579233Y515393D01*
X580170Y518890D01*
Y522510D01*
X579233Y526007D01*
X577423Y529143D01*
X574863Y531703D01*
X571727Y533513D01*
X568230Y534450D01*
X564610D01*
X561113Y533513D01*
X557977Y531703D01*
X555417Y529143D01*
X553607Y526007D01*
X552670Y522510D01*
Y518890D01*
X553607Y515393D01*
X555417Y512257D01*
X557977Y509697D01*
X559817Y508635D01*
Y507365D01*
X557977Y506303D01*
X555417Y503743D01*
X553607Y500607D01*
X552670Y497110D01*
Y493490D01*
X553607Y489993D01*
X555417Y486857D01*
X557977Y484297D01*
X559817Y483235D01*
Y481965D01*
X557977Y480903D01*
X555417Y478343D01*
X553607Y475207D01*
X552670Y471710D01*
Y468090D01*
X553607Y464593D01*
X555417Y461457D01*
X557977Y458897D01*
X559817Y457835D01*
Y456565D01*
X557977Y455503D01*
X555417Y452943D01*
X553607Y449807D01*
X552670Y446310D01*
Y442690D01*
X553607Y439193D01*
X555417Y436057D01*
X557977Y433497D01*
X559817Y432435D01*
Y431165D01*
X557977Y430103D01*
X555417Y427543D01*
X553607Y424407D01*
X552670Y420910D01*
Y417290D01*
X553607Y413793D01*
X555417Y410657D01*
X557977Y408097D01*
X559817Y407035D01*
Y405765D01*
X557977Y404703D01*
X555417Y402143D01*
X553607Y399007D01*
X552670Y395510D01*
Y391890D01*
X553607Y388393D01*
X555417Y385257D01*
X557977Y382697D01*
X559817Y381635D01*
Y380365D01*
X557977Y379303D01*
X555417Y376743D01*
X554328Y374856D01*
X527060D01*
X525363Y374633D01*
X523782Y373978D01*
X522424Y372936D01*
X503888Y354400D01*
X496160D01*
Y349456D01*
X464996D01*
X449136Y365316D01*
X447778Y366358D01*
X446197Y367013D01*
X444500Y367236D01*
X320216D01*
X306276Y381176D01*
Y500380D01*
X306053Y502077D01*
X305398Y503658D01*
X304356Y505016D01*
X285816Y523556D01*
X284572Y524510D01*
X284574Y524894D01*
X284923Y525780D01*
X538480D01*
Y681446D01*
X838926D01*
X838926Y4354D01*
D02*
G37*
G36*
X259080Y586054D02*
X258048Y585364D01*
X255436Y582752D01*
X253384Y579681D01*
X251971Y576269D01*
X251250Y572647D01*
Y568953D01*
X251971Y565331D01*
X253384Y561919D01*
X255436Y558848D01*
X258048Y556236D01*
X259080Y555546D01*
Y525780D01*
X257936Y525476D01*
X229492D01*
X228403Y527363D01*
X225843Y529923D01*
X224003Y530985D01*
Y532255D01*
X225843Y533317D01*
X228403Y535877D01*
X230213Y539013D01*
X231150Y542510D01*
Y546130D01*
X230213Y549627D01*
X228403Y552763D01*
X225843Y555323D01*
X223713Y556552D01*
Y558019D01*
X225560Y559085D01*
X228035Y561560D01*
X229784Y564590D01*
X230355Y566720D01*
X204445D01*
X205016Y564590D01*
X206765Y561560D01*
X209240Y559085D01*
X211087Y558019D01*
Y556552D01*
X208957Y555323D01*
X206397Y552763D01*
X204587Y549627D01*
X203650Y546130D01*
Y542510D01*
X204587Y539013D01*
X206397Y535877D01*
X208957Y533317D01*
X210797Y532255D01*
Y530985D01*
X208957Y529923D01*
X206397Y527363D01*
X204587Y524227D01*
X203650Y520730D01*
Y517110D01*
X204587Y513613D01*
X206397Y510477D01*
X208957Y507917D01*
X210797Y506855D01*
Y505585D01*
X208957Y504523D01*
X206397Y501963D01*
X204587Y498827D01*
X203650Y495330D01*
Y491710D01*
X204587Y488213D01*
X206397Y485077D01*
X208957Y482517D01*
X210797Y481455D01*
Y480185D01*
X208957Y479123D01*
X206397Y476563D01*
X204587Y473427D01*
X203650Y469930D01*
Y466310D01*
X204587Y462813D01*
X206397Y459677D01*
X208957Y457117D01*
X211087Y455888D01*
Y454421D01*
X209240Y453355D01*
X206765Y450880D01*
X205016Y447850D01*
X204445Y445720D01*
X230355D01*
X229784Y447850D01*
X228035Y450880D01*
X225560Y453355D01*
X223713Y454421D01*
Y455888D01*
X225843Y457117D01*
X228403Y459677D01*
X230213Y462813D01*
X231150Y466310D01*
Y469930D01*
X230213Y473427D01*
X228403Y476563D01*
X225843Y479123D01*
X224003Y480185D01*
Y481455D01*
X225843Y482517D01*
X228403Y485077D01*
X230213Y488213D01*
X231150Y491710D01*
Y495330D01*
X230213Y498827D01*
X228403Y501963D01*
X225843Y504523D01*
X224003Y505585D01*
Y506855D01*
X225843Y507917D01*
X228403Y510477D01*
X229492Y512364D01*
X278464D01*
X283887Y506942D01*
X283229Y505803D01*
X280590Y506510D01*
X276970D01*
X273473Y505573D01*
X270338Y503763D01*
X267778Y501203D01*
X265967Y498067D01*
X265030Y494570D01*
Y490950D01*
X265967Y487453D01*
X267778Y484317D01*
X270338Y481757D01*
X272177Y480695D01*
Y479425D01*
X270338Y478363D01*
X267778Y475803D01*
X265967Y472667D01*
X265030Y469170D01*
Y465550D01*
X265967Y462053D01*
X267778Y458917D01*
X270338Y456357D01*
X272177Y455295D01*
Y454025D01*
X270338Y452963D01*
X267778Y450403D01*
X265967Y447267D01*
X265030Y443770D01*
Y440150D01*
X265967Y436653D01*
X267778Y433517D01*
X270338Y430957D01*
X272177Y429895D01*
Y428625D01*
X270338Y427563D01*
X267778Y425003D01*
X265967Y421867D01*
X265030Y418370D01*
Y414750D01*
X265967Y411253D01*
X267778Y408117D01*
X270338Y405557D01*
X272177Y404495D01*
Y403225D01*
X270338Y402163D01*
X267778Y399603D01*
X265967Y396467D01*
X265030Y392970D01*
Y389350D01*
X265967Y385853D01*
X267778Y382717D01*
X270338Y380157D01*
X272177Y379095D01*
Y377825D01*
X270338Y376763D01*
X267778Y374203D01*
X265967Y371067D01*
X265030Y367570D01*
Y363950D01*
X265967Y360453D01*
X267778Y357317D01*
X269289Y355806D01*
X268763Y354536D01*
X264336D01*
X258016Y360856D01*
Y391160D01*
X257960Y391586D01*
Y392016D01*
X257849Y392431D01*
X257793Y392857D01*
X257628Y393254D01*
X257517Y393669D01*
X257302Y394041D01*
X257138Y394438D01*
X256876Y394779D01*
X256661Y395151D01*
X256357Y395455D01*
X256096Y395796D01*
X255755Y396057D01*
X255451Y396361D01*
X255079Y396576D01*
X254738Y396838D01*
X254341Y397002D01*
X253969Y397217D01*
X253554Y397328D01*
X253157Y397493D01*
X252731Y397549D01*
X252316Y397660D01*
X251886D01*
X251460Y397716D01*
X251034Y397660D01*
X250604D01*
X250189Y397549D01*
X249763Y397493D01*
X249366Y397328D01*
X248951Y397217D01*
X248579Y397002D01*
X248182Y396838D01*
X247841Y396576D01*
X247469Y396361D01*
X247165Y396057D01*
X246824Y395796D01*
X246563Y395455D01*
X246259Y395151D01*
X246044Y394779D01*
X245782Y394438D01*
X245618Y394041D01*
X245403Y393669D01*
X245292Y393254D01*
X245127Y392857D01*
X245071Y392431D01*
X245057Y392377D01*
X244065Y392042D01*
X243705Y392052D01*
X243396Y392455D01*
X239295Y396556D01*
X237938Y397598D01*
X236356Y398253D01*
X234660Y398476D01*
X229492D01*
X228403Y400363D01*
X225843Y402923D01*
X224003Y403985D01*
Y405255D01*
X225843Y406317D01*
X228403Y408877D01*
X230213Y412013D01*
X231150Y415510D01*
Y419130D01*
X230213Y422627D01*
X228403Y425763D01*
X225843Y428323D01*
X223713Y429552D01*
Y431019D01*
X225560Y432085D01*
X228035Y434560D01*
X229784Y437590D01*
X230355Y439720D01*
X204445D01*
X205016Y437590D01*
X206765Y434560D01*
X209240Y432085D01*
X211087Y431019D01*
Y429552D01*
X208957Y428323D01*
X206397Y425763D01*
X204587Y422627D01*
X203650Y419130D01*
Y415510D01*
X204587Y412013D01*
X206397Y408877D01*
X208957Y406317D01*
X210797Y405255D01*
Y403985D01*
X208957Y402923D01*
X206397Y400363D01*
X204587Y397227D01*
X203650Y393730D01*
Y390110D01*
X204587Y386613D01*
X206397Y383477D01*
X208957Y380917D01*
X210797Y379855D01*
Y378585D01*
X208957Y377523D01*
X206397Y374963D01*
X204587Y371827D01*
X203650Y368330D01*
Y364710D01*
X204587Y361213D01*
X206397Y358077D01*
X208957Y355517D01*
X210797Y354455D01*
Y353185D01*
X208957Y352123D01*
X206397Y349563D01*
X204587Y346427D01*
X203650Y342930D01*
Y339310D01*
X204587Y335813D01*
X206397Y332677D01*
X208957Y330117D01*
X211087Y328888D01*
Y327421D01*
X209240Y326355D01*
X206765Y323880D01*
X205016Y320850D01*
X204445Y318720D01*
X230355D01*
X229784Y320850D01*
X228035Y323880D01*
X225560Y326355D01*
X223713Y327421D01*
Y328888D01*
X225843Y330117D01*
X228403Y332677D01*
X230213Y335813D01*
X231150Y339310D01*
Y342930D01*
X230213Y346427D01*
X228403Y349563D01*
X225843Y352123D01*
X224003Y353185D01*
Y354455D01*
X225843Y355517D01*
X228403Y358077D01*
X230213Y361213D01*
X230934Y363903D01*
X232204Y363736D01*
Y353060D01*
X232427Y351363D01*
X233082Y349782D01*
X234124Y348424D01*
X327938Y254611D01*
X327303Y253511D01*
X326410Y253750D01*
X322790D01*
X319293Y252813D01*
X316157Y251003D01*
X313597Y248443D01*
X311787Y245307D01*
X310850Y241810D01*
Y238190D01*
X311787Y234693D01*
X313597Y231557D01*
X316157Y228997D01*
X316234Y228953D01*
Y223310D01*
X316457Y221613D01*
X317112Y220032D01*
X318090Y218758D01*
X317133Y217918D01*
X240096Y294956D01*
X238738Y295998D01*
X237157Y296653D01*
X235460Y296876D01*
X229492D01*
X228403Y298763D01*
X225843Y301323D01*
X223713Y302552D01*
Y304019D01*
X225560Y305085D01*
X228035Y307560D01*
X229784Y310590D01*
X230355Y312720D01*
X204445D01*
X205016Y310590D01*
X206765Y307560D01*
X209240Y305085D01*
X211087Y304019D01*
Y302552D01*
X208957Y301323D01*
X206397Y298763D01*
X204587Y295627D01*
X203650Y292130D01*
Y288510D01*
X204587Y285013D01*
X206397Y281877D01*
X208957Y279317D01*
X210797Y278255D01*
Y276985D01*
X208957Y275923D01*
X206397Y273363D01*
X204587Y270227D01*
X203650Y266730D01*
Y263110D01*
X204587Y259613D01*
X206397Y256477D01*
X208957Y253917D01*
X210797Y252855D01*
Y251585D01*
X208957Y250523D01*
X206397Y247963D01*
X204587Y244827D01*
X203650Y241330D01*
Y237710D01*
X204587Y234213D01*
X206397Y231077D01*
X208957Y228517D01*
X210797Y227455D01*
Y226185D01*
X208957Y225123D01*
X206397Y222563D01*
X204587Y219427D01*
X203650Y215930D01*
Y212310D01*
X204587Y208813D01*
X206397Y205677D01*
X208957Y203117D01*
X211087Y201888D01*
Y200421D01*
X209240Y199355D01*
X206765Y196880D01*
X205016Y193850D01*
X204445Y191720D01*
X230355D01*
X229784Y193850D01*
X228035Y196880D01*
X225560Y199355D01*
X223713Y200421D01*
Y201888D01*
X225843Y203117D01*
X228403Y205677D01*
X229492Y207564D01*
X232744D01*
X414214Y26094D01*
X415572Y25052D01*
X417153Y24397D01*
X418850Y24174D01*
X452011D01*
X452419Y22971D01*
X452255Y22845D01*
X450492Y20548D01*
X449383Y17872D01*
X449005Y15000D01*
X449383Y12129D01*
X450492Y9453D01*
X452255Y7155D01*
X454250Y5624D01*
X453893Y4354D01*
X335307Y4354D01*
X334950Y5624D01*
X336945Y7155D01*
X338708Y9453D01*
X339817Y12129D01*
X340195Y15000D01*
X339817Y17872D01*
X338708Y20548D01*
X336945Y22845D01*
X334647Y24609D01*
X331972Y25717D01*
X329100Y26095D01*
X320100D01*
X317228Y25717D01*
X314552Y24609D01*
X312255Y22845D01*
X310492Y20548D01*
X309383Y17872D01*
X309005Y15000D01*
X309383Y12129D01*
X310492Y9453D01*
X312255Y7155D01*
X314250Y5624D01*
X313893Y4354D01*
X53100Y4354D01*
X4354D01*
X4354Y681446D01*
X259080D01*
Y586054D01*
D02*
G37*
G36*
X455068Y340840D02*
X454879Y339264D01*
X453837Y338663D01*
X451277Y336103D01*
X449467Y332967D01*
X448530Y329470D01*
Y325850D01*
X449467Y322353D01*
X451277Y319217D01*
X453837Y316657D01*
X456973Y314847D01*
X460470Y313910D01*
X464090D01*
X467587Y314847D01*
X470723Y316657D01*
X473283Y319217D01*
X475093Y322353D01*
X476030Y325850D01*
Y329470D01*
X475093Y332967D01*
X473877Y335074D01*
X474610Y336344D01*
X496160D01*
Y331400D01*
X498104D01*
Y323920D01*
X496160D01*
Y300920D01*
X496747D01*
Y287138D01*
X496742Y287099D01*
X496793Y286712D01*
Y279099D01*
X509804D01*
Y286678D01*
X509860Y287104D01*
Y295797D01*
X511129Y296253D01*
X511738Y295637D01*
Y287105D01*
X511746Y287047D01*
Y282100D01*
X511979Y280930D01*
X512241Y280537D01*
Y278201D01*
X507949Y273053D01*
X507729Y272648D01*
X507473Y272265D01*
X507445Y272127D01*
X507379Y272005D01*
X507330Y271546D01*
X507240Y271094D01*
Y255099D01*
X503687D01*
X503301Y255150D01*
X502914Y255099D01*
X496796D01*
Y248980D01*
X496745Y248594D01*
Y247133D01*
X496740Y247094D01*
Y231140D01*
Y224860D01*
X493620D01*
Y201860D01*
X495564D01*
Y192105D01*
X495788Y190408D01*
X496212Y189384D01*
X495187Y187609D01*
X494250Y184112D01*
Y180492D01*
X495187Y176994D01*
X496997Y173859D01*
X499557Y171299D01*
X502693Y169489D01*
X506190Y168552D01*
X509810D01*
X513307Y169489D01*
X516443Y171299D01*
X519003Y173859D01*
X520134Y175818D01*
X521600D01*
X522397Y174437D01*
X524957Y171877D01*
X526844Y170788D01*
Y159216D01*
X526584Y158956D01*
X396416D01*
X329545Y225827D01*
X329726Y227138D01*
X329907Y227187D01*
X333043Y228997D01*
X334121Y230075D01*
X335294Y229589D01*
Y227110D01*
X335517Y225413D01*
X336172Y223832D01*
X337214Y222474D01*
X383310Y176379D01*
X384668Y175337D01*
X386249Y174682D01*
X387946Y174458D01*
X389820D01*
Y171040D01*
X412820D01*
Y172984D01*
X417760D01*
Y171040D01*
X440760D01*
Y188040D01*
X417760D01*
Y186096D01*
X412820D01*
Y188040D01*
X390192D01*
X349288Y228943D01*
X349309Y229049D01*
X350687Y229467D01*
X351157Y228997D01*
X354293Y227187D01*
X357790Y226250D01*
X361410D01*
X363515Y226814D01*
X386424Y203904D01*
X387782Y202862D01*
X389363Y202207D01*
X389820Y202147D01*
Y198040D01*
X412820D01*
Y215040D01*
X399746D01*
X399320Y215096D01*
X393776D01*
X372786Y236085D01*
X373350Y238190D01*
Y241810D01*
X372413Y245307D01*
X370603Y248443D01*
X368043Y251003D01*
X366696Y251780D01*
Y277156D01*
X369123Y278557D01*
X371683Y281117D01*
X372745Y282957D01*
X374015D01*
X375077Y281117D01*
X377637Y278557D01*
X379524Y277468D01*
Y271780D01*
X379747Y270083D01*
X380402Y268502D01*
X381444Y267144D01*
X411068Y237520D01*
X412426Y236478D01*
X414007Y235823D01*
X415704Y235600D01*
X416544D01*
X416787Y234693D01*
X418597Y231557D01*
X421157Y228997D01*
X422874Y228006D01*
Y215040D01*
X417760D01*
Y198040D01*
X440760D01*
Y215040D01*
X435986D01*
Y227810D01*
X438043Y228997D01*
X440603Y231557D01*
X442413Y234693D01*
X443350Y238190D01*
Y241810D01*
X442413Y245307D01*
X440603Y248443D01*
X438043Y251003D01*
X434907Y252813D01*
X431410Y253750D01*
X427790D01*
X424293Y252813D01*
X421157Y251003D01*
X418867Y248712D01*
X418420D01*
X392636Y274496D01*
Y277468D01*
X394523Y278557D01*
X397083Y281117D01*
X398893Y284253D01*
X399830Y287750D01*
Y291370D01*
X398893Y294867D01*
X397083Y298003D01*
X394523Y300563D01*
X391387Y302373D01*
X387890Y303310D01*
X384270D01*
X380773Y302373D01*
X377637Y300563D01*
X375077Y298003D01*
X374015Y296163D01*
X372745D01*
X371683Y298003D01*
X369123Y300563D01*
X365987Y302373D01*
X362490Y303310D01*
X358870D01*
X355373Y302373D01*
X352237Y300563D01*
X349677Y298003D01*
X347867Y294867D01*
X346930Y291370D01*
Y287750D01*
X347867Y284253D01*
X349677Y281117D01*
X352237Y278557D01*
X353584Y277780D01*
Y252404D01*
X351157Y251003D01*
X349676Y249521D01*
X348571Y249912D01*
X348397Y250038D01*
X348183Y251667D01*
X347528Y253248D01*
X346486Y254606D01*
X260847Y340245D01*
X261440Y341448D01*
X261620Y341424D01*
X329080D01*
X329420Y340154D01*
X326837Y338663D01*
X324277Y336103D01*
X322467Y332967D01*
X321530Y329470D01*
Y325850D01*
X322467Y322353D01*
X324277Y319217D01*
X326837Y316657D01*
X329973Y314847D01*
X333470Y313910D01*
X337090D01*
X340587Y314847D01*
X343723Y316657D01*
X346283Y319217D01*
X347345Y321057D01*
X348615D01*
X349677Y319217D01*
X352237Y316657D01*
X355373Y314847D01*
X358870Y313910D01*
X362490D01*
X365987Y314847D01*
X369123Y316657D01*
X371683Y319217D01*
X372745Y321057D01*
X374015D01*
X375077Y319217D01*
X377637Y316657D01*
X380773Y314847D01*
X384270Y313910D01*
X387890D01*
X391387Y314847D01*
X394523Y316657D01*
X397083Y319217D01*
X398145Y321057D01*
X399415D01*
X400477Y319217D01*
X403037Y316657D01*
X406173Y314847D01*
X409670Y313910D01*
X413290D01*
X416787Y314847D01*
X419923Y316657D01*
X422483Y319217D01*
X424293Y322353D01*
X425230Y325850D01*
Y329470D01*
X424293Y332967D01*
X422483Y336103D01*
X419923Y338663D01*
X416787Y340473D01*
X413290Y341410D01*
X409670D01*
X406173Y340473D01*
X403037Y338663D01*
X400477Y336103D01*
X399415Y334263D01*
X398145D01*
X397083Y336103D01*
X394523Y338663D01*
X392636Y339752D01*
Y343880D01*
X392413Y345576D01*
X391758Y347158D01*
X390716Y348515D01*
X386615Y352616D01*
X386305Y352854D01*
X386736Y354124D01*
X441784D01*
X455068Y340840D01*
D02*
G37*
G36*
X721561Y296979D02*
X753107D01*
X753385Y296924D01*
X753500Y296847D01*
X753500Y296847D01*
D01*
X753872Y296599D01*
X754080Y296513D01*
X754261Y296378D01*
X754626Y296286D01*
X754974Y296142D01*
X755200D01*
X755418Y296087D01*
X756998Y296008D01*
X757075Y296019D01*
X757151Y296004D01*
X757663Y296106D01*
X758179Y296182D01*
X758246Y296222D01*
X758322Y296237D01*
X758755Y296527D01*
X759203Y296795D01*
X759250Y296857D01*
X759314Y296900D01*
X759393Y296979D01*
X763270D01*
Y196850D01*
X711200D01*
Y237643D01*
X711238Y237836D01*
Y237920D01*
X711314Y237957D01*
X711470Y238077D01*
X711784Y238232D01*
X712179Y238535D01*
X712594Y238813D01*
X712650Y238897D01*
X712731Y238959D01*
X712980Y239390D01*
X713257Y239805D01*
X713277Y239904D01*
X713327Y239992D01*
X713393Y240487D01*
X713490Y240975D01*
X713470Y241075D01*
X713483Y241175D01*
X713354Y241657D01*
X713257Y242146D01*
X712927Y242942D01*
X712757Y244239D01*
X712718Y244352D01*
X712693Y244741D01*
X712648Y244832D01*
X712635Y244932D01*
X712385Y245364D01*
X712165Y245811D01*
X712089Y245878D01*
X712038Y245966D01*
X711201Y246921D01*
X711200Y246921D01*
Y295986D01*
X711255Y296247D01*
X711255Y296250D01*
X711257Y296252D01*
X711405Y296474D01*
X711902Y296961D01*
X712128Y297106D01*
X712129Y297107D01*
X712131Y297107D01*
X712394Y297157D01*
X721561Y296979D01*
D02*
G37*
G36*
X521807Y282100D02*
X521299D01*
Y277094D01*
X526301Y271094D01*
Y246093D01*
X510299D01*
Y271094D01*
X515300Y277094D01*
Y282100D01*
X514805D01*
Y292100D01*
X521807D01*
Y282100D01*
D02*
G37*
G36*
X820875Y240840D02*
X821484Y239822D01*
Y214806D01*
X793136Y186458D01*
X788555D01*
X788354Y186834D01*
X788007Y187728D01*
X788438Y189890D01*
X788017Y192002D01*
X788687Y193272D01*
X792480D01*
X794821Y193738D01*
X796806Y195064D01*
X810136Y208394D01*
X811462Y210379D01*
X811928Y212720D01*
Y240840D01*
X820875D01*
D02*
G37*
G36*
X782370Y174223D02*
X793136D01*
X802434Y164924D01*
Y144956D01*
X797384Y139906D01*
X766286D01*
X763776Y142416D01*
Y148860D01*
X765046Y149246D01*
X765294Y148875D01*
X767279Y147548D01*
X769620Y147083D01*
X771961Y147548D01*
X773946Y148875D01*
X775272Y150859D01*
X775738Y153200D01*
Y174490D01*
X781026D01*
X782370Y174223D01*
D02*
G37*
%LPC*%
G36*
X668480Y645415D02*
Y635460D01*
X678435D01*
X677864Y637590D01*
X676115Y640620D01*
X673640Y643095D01*
X670610Y644844D01*
X668480Y645415D01*
D02*
G37*
G36*
X678435Y629460D02*
X668480D01*
Y619505D01*
X670610Y620076D01*
X673640Y621825D01*
X676115Y624300D01*
X677864Y627330D01*
X678435Y629460D01*
D02*
G37*
G36*
X801847Y653750D02*
X798153D01*
X794531Y653029D01*
X791119Y651616D01*
X788048Y649564D01*
X785436Y646952D01*
X783384Y643881D01*
X781971Y640469D01*
X781250Y636847D01*
Y633153D01*
X781971Y629531D01*
X783384Y626119D01*
X785436Y623048D01*
X788048Y620436D01*
X791119Y618384D01*
X794531Y616971D01*
X798153Y616250D01*
X801847D01*
X805469Y616971D01*
X808881Y618384D01*
X811952Y620436D01*
X814564Y623048D01*
X816616Y626119D01*
X818029Y629531D01*
X818750Y633153D01*
Y636847D01*
X818029Y640469D01*
X816616Y643881D01*
X814564Y646952D01*
X811952Y649564D01*
X808881Y651616D01*
X805469Y653029D01*
X801847Y653750D01*
D02*
G37*
G36*
X807975Y339900D02*
X798020D01*
Y329945D01*
X800150Y330516D01*
X803180Y332265D01*
X805655Y334740D01*
X807404Y337770D01*
X807975Y339900D01*
D02*
G37*
G36*
X792020D02*
X782065D01*
X782636Y337770D01*
X784385Y334740D01*
X786860Y332265D01*
X789890Y330516D01*
X792020Y329945D01*
Y339900D01*
D02*
G37*
G36*
X579375D02*
X569420D01*
Y329945D01*
X571550Y330516D01*
X574580Y332265D01*
X577055Y334740D01*
X578804Y337770D01*
X579375Y339900D01*
D02*
G37*
G36*
X563420D02*
X553465D01*
X554036Y337770D01*
X555785Y334740D01*
X558260Y332265D01*
X561290Y330516D01*
X563420Y329945D01*
Y339900D01*
D02*
G37*
G36*
X539791Y295100D02*
X526780D01*
Y279100D01*
X539791D01*
Y295100D01*
D02*
G37*
G36*
X509810Y143290D02*
X506190D01*
X502693Y142353D01*
X499557Y140543D01*
X496997Y137983D01*
X495908Y136096D01*
X474120D01*
Y141040D01*
X457120D01*
Y118040D01*
X474120D01*
Y122984D01*
X495908D01*
X496997Y121097D01*
X499557Y118537D01*
X501397Y117475D01*
Y116205D01*
X499557Y115143D01*
X496997Y112583D01*
X495908Y110696D01*
X474120D01*
Y115640D01*
X457120D01*
Y92640D01*
X474120D01*
Y97584D01*
X495908D01*
X496997Y95697D01*
X499557Y93137D01*
X502693Y91327D01*
X506190Y90390D01*
X509810D01*
X513307Y91327D01*
X516443Y93137D01*
X519003Y95697D01*
X520232Y97827D01*
X521699D01*
X522765Y95980D01*
X525240Y93505D01*
X528270Y91756D01*
X530400Y91185D01*
Y104140D01*
X533400D01*
Y107140D01*
X546355D01*
X545784Y109270D01*
X544035Y112300D01*
X541560Y114775D01*
X539253Y116107D01*
Y117573D01*
X541560Y118905D01*
X544035Y121380D01*
X545784Y124410D01*
X546355Y126540D01*
X533400D01*
Y129540D01*
X530400D01*
Y142495D01*
X528270Y141924D01*
X525240Y140175D01*
X522765Y137700D01*
X521699Y135853D01*
X520232D01*
X519003Y137983D01*
X516443Y140543D01*
X513307Y142353D01*
X509810Y143290D01*
D02*
G37*
G36*
X536400Y142495D02*
Y132540D01*
X546355D01*
X545784Y134670D01*
X544035Y137700D01*
X541560Y140175D01*
X538530Y141924D01*
X536400Y142495D01*
D02*
G37*
G36*
X546355Y101140D02*
X536400D01*
Y91185D01*
X538530Y91756D01*
X541560Y93505D01*
X544035Y95980D01*
X545784Y99010D01*
X546355Y101140D01*
D02*
G37*
G36*
X568230Y117890D02*
X564610D01*
X561113Y116953D01*
X557977Y115143D01*
X555417Y112583D01*
X553607Y109447D01*
X552670Y105950D01*
Y102330D01*
X553607Y98833D01*
X555417Y95697D01*
X557977Y93137D01*
X561113Y91327D01*
X564610Y90390D01*
X568230D01*
X571727Y91327D01*
X574863Y93137D01*
X577423Y95697D01*
X578652Y97827D01*
X580119D01*
X581185Y95980D01*
X583660Y93505D01*
X586690Y91756D01*
X588820Y91185D01*
Y104140D01*
Y117095D01*
X586690Y116524D01*
X583660Y114775D01*
X581185Y112300D01*
X580119Y110453D01*
X578652D01*
X577423Y112583D01*
X574863Y115143D01*
X571727Y116953D01*
X568230Y117890D01*
D02*
G37*
G36*
X738408Y70400D02*
X734788D01*
X731291Y69463D01*
X728155Y67653D01*
X725595Y65093D01*
X723785Y61957D01*
X722848Y58460D01*
Y54840D01*
X723785Y51343D01*
X725595Y48207D01*
X727214Y46589D01*
X727173Y44845D01*
X727048Y44730D01*
Y34750D01*
X737003D01*
X736432Y36880D01*
X734683Y39910D01*
X733221Y41372D01*
X733352Y43037D01*
X733601Y43218D01*
X734788Y42900D01*
X738408D01*
X741905Y43837D01*
X745041Y45647D01*
X747601Y48207D01*
X749411Y51343D01*
X750348Y54840D01*
Y58460D01*
X749411Y61957D01*
X747601Y65093D01*
X745041Y67653D01*
X741905Y69463D01*
X738408Y70400D01*
D02*
G37*
G36*
X721048Y44705D02*
X718918Y44134D01*
X715888Y42385D01*
X713413Y39910D01*
X711664Y36880D01*
X711093Y34750D01*
X721048D01*
Y44705D01*
D02*
G37*
G36*
X610918D02*
X608788Y44134D01*
X605758Y42385D01*
X603283Y39910D01*
X601534Y36880D01*
X600963Y34750D01*
X610918D01*
Y44705D01*
D02*
G37*
G36*
X801847Y68750D02*
X798153D01*
X794531Y68029D01*
X791119Y66616D01*
X788048Y64564D01*
X785436Y61952D01*
X783384Y58881D01*
X781971Y55469D01*
X781250Y51847D01*
Y48153D01*
X781971Y44531D01*
X783384Y41119D01*
X785436Y38048D01*
X788048Y35436D01*
X791119Y33384D01*
X794531Y31971D01*
X798153Y31250D01*
X801847D01*
X805469Y31971D01*
X808881Y33384D01*
X811952Y35436D01*
X814564Y38048D01*
X816616Y41119D01*
X818029Y44531D01*
X818750Y48153D01*
Y51847D01*
X818029Y55469D01*
X816616Y58881D01*
X814564Y61952D01*
X811952Y64564D01*
X808881Y66616D01*
X805469Y68029D01*
X801847Y68750D01*
D02*
G37*
G36*
X737003Y28750D02*
X727048D01*
Y18795D01*
X729178Y19366D01*
X732208Y21115D01*
X734683Y23590D01*
X736432Y26620D01*
X737003Y28750D01*
D02*
G37*
G36*
X721048D02*
X711093D01*
X711664Y26620D01*
X713413Y23590D01*
X715888Y21115D01*
X718918Y19366D01*
X721048Y18795D01*
Y28750D01*
D02*
G37*
G36*
X626873D02*
X616918D01*
Y18795D01*
X619048Y19366D01*
X622078Y21115D01*
X624553Y23590D01*
X626302Y26620D01*
X626873Y28750D01*
D02*
G37*
G36*
X610918D02*
X600963D01*
X601534Y26620D01*
X603283Y23590D01*
X605758Y21115D01*
X608788Y19366D01*
X610918Y18795D01*
Y28750D01*
D02*
G37*
G36*
X219210Y634270D02*
X215590D01*
X212093Y633333D01*
X208957Y631523D01*
X206397Y628963D01*
X204587Y625827D01*
X203650Y622330D01*
Y618710D01*
X204587Y615213D01*
X206397Y612077D01*
X208957Y609517D01*
X210797Y608455D01*
Y607185D01*
X208957Y606123D01*
X206397Y603563D01*
X204587Y600427D01*
X203650Y596930D01*
Y593310D01*
X204587Y589813D01*
X206397Y586677D01*
X208957Y584117D01*
X211087Y582888D01*
Y581421D01*
X209240Y580355D01*
X206765Y577880D01*
X205016Y574850D01*
X204445Y572720D01*
X230355D01*
X229784Y574850D01*
X228035Y577880D01*
X225560Y580355D01*
X223713Y581421D01*
Y582888D01*
X225843Y584117D01*
X228403Y586677D01*
X230213Y589813D01*
X231150Y593310D01*
Y596930D01*
X230213Y600427D01*
X228403Y603563D01*
X225843Y606123D01*
X224003Y607185D01*
Y608455D01*
X225843Y609517D01*
X228403Y612077D01*
X230213Y615213D01*
X231150Y618710D01*
Y622330D01*
X230213Y625827D01*
X228403Y628963D01*
X225843Y631523D01*
X222707Y633333D01*
X219210Y634270D01*
D02*
G37*
G36*
X41410D02*
X37790D01*
X34293Y633333D01*
X31157Y631523D01*
X28597Y628963D01*
X26787Y625827D01*
X25850Y622330D01*
Y618710D01*
X26787Y615213D01*
X28597Y612077D01*
X31157Y609517D01*
X32997Y608455D01*
Y607185D01*
X31157Y606123D01*
X28597Y603563D01*
X26787Y600427D01*
X25850Y596930D01*
Y593310D01*
X26787Y589813D01*
X28597Y586677D01*
X31157Y584117D01*
X33287Y582888D01*
Y581421D01*
X31440Y580355D01*
X28965Y577880D01*
X27216Y574850D01*
X26645Y572720D01*
X52555D01*
X51984Y574850D01*
X50235Y577880D01*
X47760Y580355D01*
X45913Y581421D01*
Y582888D01*
X48043Y584117D01*
X50603Y586677D01*
X52413Y589813D01*
X53350Y593310D01*
Y596930D01*
X52413Y600427D01*
X50603Y603563D01*
X48043Y606123D01*
X46203Y607185D01*
Y608455D01*
X48043Y609517D01*
X50603Y612077D01*
X52413Y615213D01*
X53350Y618710D01*
Y622330D01*
X52413Y625827D01*
X50603Y628963D01*
X48043Y631523D01*
X44907Y633333D01*
X41410Y634270D01*
D02*
G37*
G36*
X52555Y566720D02*
X26645D01*
X27216Y564590D01*
X28965Y561560D01*
X31440Y559085D01*
X33287Y558019D01*
Y556552D01*
X31157Y555323D01*
X28597Y552763D01*
X26787Y549627D01*
X25850Y546130D01*
Y542510D01*
X26787Y539013D01*
X28597Y535877D01*
X31157Y533317D01*
X32997Y532255D01*
Y530985D01*
X31157Y529923D01*
X28597Y527363D01*
X26787Y524227D01*
X25850Y520730D01*
Y517110D01*
X26787Y513613D01*
X28597Y510477D01*
X31157Y507917D01*
X32997Y506855D01*
Y505585D01*
X31157Y504523D01*
X28597Y501963D01*
X26787Y498827D01*
X25850Y495330D01*
Y491710D01*
X26787Y488213D01*
X28597Y485077D01*
X31157Y482517D01*
X32997Y481455D01*
Y480185D01*
X31157Y479123D01*
X28597Y476563D01*
X26787Y473427D01*
X25850Y469930D01*
Y466310D01*
X26787Y462813D01*
X28597Y459677D01*
X31157Y457117D01*
X33287Y455888D01*
Y454421D01*
X31440Y453355D01*
X28965Y450880D01*
X27216Y447850D01*
X26645Y445720D01*
X52555D01*
X51984Y447850D01*
X50235Y450880D01*
X47760Y453355D01*
X45913Y454421D01*
Y455888D01*
X48043Y457117D01*
X50603Y459677D01*
X52413Y462813D01*
X53350Y466310D01*
Y469930D01*
X52413Y473427D01*
X50603Y476563D01*
X48043Y479123D01*
X46203Y480185D01*
Y481455D01*
X48043Y482517D01*
X50603Y485077D01*
X52413Y488213D01*
X53350Y491710D01*
Y495330D01*
X52413Y498827D01*
X50603Y501963D01*
X48043Y504523D01*
X46203Y505585D01*
Y506855D01*
X48043Y507917D01*
X50603Y510477D01*
X52413Y513613D01*
X53350Y517110D01*
Y520730D01*
X52413Y524227D01*
X50603Y527363D01*
X48043Y529923D01*
X46203Y530985D01*
Y532255D01*
X48043Y533317D01*
X50603Y535877D01*
X52413Y539013D01*
X53350Y542510D01*
Y546130D01*
X52413Y549627D01*
X50603Y552763D01*
X48043Y555323D01*
X45913Y556552D01*
Y558019D01*
X47760Y559085D01*
X50235Y561560D01*
X51984Y564590D01*
X52555Y566720D01*
D02*
G37*
G36*
X230355Y185720D02*
X204445D01*
X205016Y183590D01*
X206765Y180560D01*
X209240Y178085D01*
X211087Y177019D01*
Y175552D01*
X208957Y174323D01*
X206397Y171763D01*
X204587Y168627D01*
X203650Y165130D01*
Y161510D01*
X204587Y158013D01*
X206397Y154877D01*
X208957Y152317D01*
X210797Y151255D01*
Y149985D01*
X208957Y148923D01*
X206397Y146363D01*
X204587Y143227D01*
X203650Y139730D01*
Y136110D01*
X204587Y132613D01*
X206397Y129477D01*
X208957Y126917D01*
X212093Y125107D01*
X215590Y124170D01*
X219210D01*
X222707Y125107D01*
X225843Y126917D01*
X228403Y129477D01*
X230213Y132613D01*
X231150Y136110D01*
Y139730D01*
X230213Y143227D01*
X228403Y146363D01*
X225843Y148923D01*
X224003Y149985D01*
Y151255D01*
X225843Y152317D01*
X228403Y154877D01*
X230213Y158013D01*
X231150Y161510D01*
Y165130D01*
X230213Y168627D01*
X228403Y171763D01*
X225843Y174323D01*
X223713Y175552D01*
Y177019D01*
X225560Y178085D01*
X228035Y180560D01*
X229784Y183590D01*
X230355Y185720D01*
D02*
G37*
G36*
X52555D02*
X26645D01*
X27216Y183590D01*
X28965Y180560D01*
X31440Y178085D01*
X33287Y177019D01*
Y175552D01*
X31157Y174323D01*
X28597Y171763D01*
X26787Y168627D01*
X25850Y165130D01*
Y161510D01*
X26787Y158013D01*
X28597Y154877D01*
X31157Y152317D01*
X32997Y151255D01*
Y149985D01*
X31157Y148923D01*
X28597Y146363D01*
X26787Y143227D01*
X25850Y139730D01*
Y136110D01*
X26787Y132613D01*
X28597Y129477D01*
X31157Y126917D01*
X34293Y125107D01*
X37790Y124170D01*
X41410D01*
X44907Y125107D01*
X48043Y126917D01*
X50603Y129477D01*
X52413Y132613D01*
X53350Y136110D01*
Y139730D01*
X52413Y143227D01*
X50603Y146363D01*
X48043Y148923D01*
X46203Y149985D01*
Y151255D01*
X48043Y152317D01*
X50603Y154877D01*
X52413Y158013D01*
X53350Y161510D01*
Y165130D01*
X52413Y168627D01*
X50603Y171763D01*
X48043Y174323D01*
X45913Y175552D01*
Y177019D01*
X47760Y178085D01*
X50235Y180560D01*
X51984Y183590D01*
X52555Y185720D01*
D02*
G37*
G36*
X271847Y133750D02*
X268153D01*
X264531Y133029D01*
X261119Y131616D01*
X258048Y129564D01*
X255436Y126952D01*
X253384Y123881D01*
X251971Y120469D01*
X251250Y116847D01*
Y113153D01*
X251971Y109531D01*
X253384Y106119D01*
X255436Y103048D01*
X258048Y100436D01*
X261119Y98384D01*
X264531Y96971D01*
X268153Y96250D01*
X271847D01*
X275469Y96971D01*
X278881Y98384D01*
X281952Y100436D01*
X284564Y103048D01*
X286616Y106119D01*
X288029Y109531D01*
X288750Y113153D01*
Y116847D01*
X288029Y120469D01*
X286616Y123881D01*
X284564Y126952D01*
X281952Y129564D01*
X278881Y131616D01*
X275469Y133029D01*
X271847Y133750D01*
D02*
G37*
G36*
X52555Y439720D02*
X26645D01*
X27216Y437590D01*
X28965Y434560D01*
X31440Y432085D01*
X33287Y431019D01*
Y429552D01*
X31157Y428323D01*
X28597Y425763D01*
X26787Y422627D01*
X25850Y419130D01*
Y415510D01*
X26787Y412013D01*
X28597Y408877D01*
X31157Y406317D01*
X32997Y405255D01*
Y403985D01*
X31157Y402923D01*
X28597Y400363D01*
X26787Y397227D01*
X25850Y393730D01*
Y390110D01*
X26787Y386613D01*
X28597Y383477D01*
X31157Y380917D01*
X32997Y379855D01*
Y378585D01*
X31157Y377523D01*
X28597Y374963D01*
X26787Y371827D01*
X25850Y368330D01*
Y364710D01*
X26787Y361213D01*
X28597Y358077D01*
X31157Y355517D01*
X32997Y354455D01*
Y353185D01*
X31157Y352123D01*
X28597Y349563D01*
X26787Y346427D01*
X25850Y342930D01*
Y339310D01*
X26787Y335813D01*
X28597Y332677D01*
X31157Y330117D01*
X33287Y328888D01*
Y327421D01*
X31440Y326355D01*
X28965Y323880D01*
X27216Y320850D01*
X26645Y318720D01*
X52555D01*
X51984Y320850D01*
X50235Y323880D01*
X47760Y326355D01*
X45913Y327421D01*
Y328888D01*
X48043Y330117D01*
X50603Y332677D01*
X51692Y334564D01*
X69884D01*
X133044Y271405D01*
Y62834D01*
X131257Y61803D01*
X128697Y59243D01*
X127835Y57750D01*
X126565D01*
X125703Y59243D01*
X123143Y61803D01*
X121256Y62892D01*
Y249020D01*
X121033Y250717D01*
X120378Y252298D01*
X119336Y253656D01*
X78036Y294956D01*
X76678Y295998D01*
X75097Y296653D01*
X73400Y296876D01*
X51692D01*
X50603Y298763D01*
X48043Y301323D01*
X45913Y302552D01*
Y304019D01*
X47760Y305085D01*
X50235Y307560D01*
X51984Y310590D01*
X52555Y312720D01*
X26645D01*
X27216Y310590D01*
X28965Y307560D01*
X31440Y305085D01*
X33287Y304019D01*
Y302552D01*
X31157Y301323D01*
X28597Y298763D01*
X26787Y295627D01*
X25850Y292130D01*
Y288510D01*
X26787Y285013D01*
X28597Y281877D01*
X31157Y279317D01*
X32997Y278255D01*
Y276985D01*
X31157Y275923D01*
X28597Y273363D01*
X26787Y270227D01*
X25850Y266730D01*
Y263110D01*
X26787Y259613D01*
X28597Y256477D01*
X31157Y253917D01*
X32997Y252855D01*
Y251585D01*
X31157Y250523D01*
X28597Y247963D01*
X26787Y244827D01*
X25850Y241330D01*
Y237710D01*
X26787Y234213D01*
X28597Y231077D01*
X31157Y228517D01*
X32997Y227455D01*
Y226185D01*
X31157Y225123D01*
X28597Y222563D01*
X26787Y219427D01*
X25850Y215930D01*
Y212310D01*
X26787Y208813D01*
X28597Y205677D01*
X31157Y203117D01*
X33287Y201888D01*
Y200421D01*
X31440Y199355D01*
X28965Y196880D01*
X27216Y193850D01*
X26645Y191720D01*
X52555D01*
X51984Y193850D01*
X50235Y196880D01*
X47760Y199355D01*
X45913Y200421D01*
Y201888D01*
X48043Y203117D01*
X50603Y205677D01*
X52413Y208813D01*
X53350Y212310D01*
Y215930D01*
X52413Y219427D01*
X50603Y222563D01*
X48043Y225123D01*
X46203Y226185D01*
Y227455D01*
X48043Y228517D01*
X50603Y231077D01*
X52413Y234213D01*
X53350Y237710D01*
Y241330D01*
X52413Y244827D01*
X50603Y247963D01*
X48043Y250523D01*
X46203Y251585D01*
Y252855D01*
X48043Y253917D01*
X50603Y256477D01*
X51692Y258364D01*
X71699D01*
X83044Y247019D01*
Y62834D01*
X81257Y61803D01*
X78697Y59243D01*
X77570Y57290D01*
X76300Y57290D01*
X75335Y58960D01*
X72861Y61435D01*
X69830Y63184D01*
X67700Y63755D01*
Y50800D01*
Y37845D01*
X69830Y38416D01*
X72861Y40165D01*
X75335Y42640D01*
X76300Y44310D01*
X77570Y44310D01*
X78697Y42357D01*
X81257Y39797D01*
X84393Y37987D01*
X87890Y37050D01*
X91510D01*
X95007Y37987D01*
X98143Y39797D01*
X100703Y42357D01*
X101565Y43851D01*
X102835D01*
X103698Y42357D01*
X106258Y39797D01*
X109393Y37987D01*
X112890Y37050D01*
X116510D01*
X120008Y37987D01*
X123143Y39797D01*
X125703Y42357D01*
X126565Y43850D01*
X127835D01*
X128697Y42357D01*
X131257Y39797D01*
X134393Y37987D01*
X137890Y37050D01*
X141510D01*
X145007Y37987D01*
X148143Y39797D01*
X150703Y42357D01*
X151565Y43851D01*
X152835D01*
X153698Y42357D01*
X156257Y39797D01*
X159393Y37987D01*
X162890Y37050D01*
X166510D01*
X170007Y37987D01*
X173143Y39797D01*
X175703Y42357D01*
X176565Y43851D01*
X177835D01*
X178698Y42357D01*
X181258Y39797D01*
X184393Y37987D01*
X187890Y37050D01*
X191511D01*
X195008Y37987D01*
X198143Y39797D01*
X200703Y42357D01*
X201565Y43850D01*
X202835D01*
X203697Y42357D01*
X206257Y39797D01*
X209393Y37987D01*
X212890Y37050D01*
X216510D01*
X220007Y37987D01*
X220673Y36905D01*
X213184Y29416D01*
X48436D01*
X46256Y31595D01*
Y38708D01*
X48143Y39797D01*
X50703Y42357D01*
X51831Y44311D01*
X53101D01*
X54066Y42640D01*
X56540Y40165D01*
X59571Y38416D01*
X61700Y37845D01*
Y50800D01*
Y63755D01*
X59571Y63184D01*
X56540Y61435D01*
X54066Y58960D01*
X53101Y57289D01*
X51831D01*
X50703Y59243D01*
X48143Y61803D01*
X45008Y63613D01*
X41510Y64550D01*
X37890D01*
X34393Y63613D01*
X31258Y61803D01*
X28698Y59243D01*
X26887Y56107D01*
X25950Y52610D01*
Y48990D01*
X26887Y45493D01*
X28698Y42357D01*
X31258Y39797D01*
X33144Y38708D01*
Y28880D01*
X33368Y27183D01*
X34023Y25602D01*
X35064Y24244D01*
X41084Y18224D01*
X42442Y17182D01*
X44023Y16527D01*
X45720Y16304D01*
X215900D01*
X217597Y16527D01*
X219178Y17182D01*
X220536Y18224D01*
X298006Y95694D01*
X298267Y96035D01*
X298571Y96339D01*
X298786Y96711D01*
X299048Y97052D01*
X299212Y97449D01*
X299427Y97821D01*
X299538Y98236D01*
X299703Y98633D01*
X299759Y99059D01*
X299870Y99474D01*
Y99904D01*
X299926Y100330D01*
X299870Y100756D01*
Y101186D01*
X299759Y101601D01*
X299703Y102027D01*
X299538Y102424D01*
X299427Y102839D01*
X299212Y103211D01*
X299048Y103608D01*
X298786Y103949D01*
X298571Y104321D01*
X298267Y104625D01*
X298006Y104966D01*
X297665Y105227D01*
X297361Y105531D01*
X296989Y105746D01*
X296648Y106008D01*
X296251Y106172D01*
X295879Y106387D01*
X295464Y106498D01*
X295067Y106663D01*
X294641Y106719D01*
X294226Y106830D01*
X293796D01*
X293370Y106886D01*
X292944Y106830D01*
X292514D01*
X292099Y106719D01*
X291673Y106663D01*
X291276Y106498D01*
X290861Y106387D01*
X290489Y106172D01*
X290092Y106008D01*
X289751Y105746D01*
X289379Y105531D01*
X289075Y105227D01*
X288734Y104966D01*
X228595Y44827D01*
X227513Y45493D01*
X228450Y48990D01*
Y52610D01*
X227513Y56107D01*
X225703Y59243D01*
X223143Y61803D01*
X220007Y63613D01*
X216510Y64550D01*
X212890D01*
X209393Y63613D01*
X206257Y61803D01*
X203697Y59243D01*
X202835Y57750D01*
X201565D01*
X200703Y59243D01*
X198143Y61803D01*
X195008Y63613D01*
X191511Y64550D01*
X187890D01*
X184393Y63613D01*
X181258Y61803D01*
X178698Y59243D01*
X177835Y57749D01*
X176565D01*
X175703Y59243D01*
X173143Y61803D01*
X171256Y62892D01*
Y329020D01*
X171033Y330717D01*
X170378Y332298D01*
X169336Y333656D01*
X81036Y421956D01*
X79678Y422998D01*
X78097Y423653D01*
X76400Y423876D01*
X51692D01*
X50603Y425763D01*
X48043Y428323D01*
X45913Y429552D01*
Y431019D01*
X47760Y432085D01*
X50235Y434560D01*
X51984Y437590D01*
X52555Y439720D01*
D02*
G37*
G36*
X467600Y252955D02*
Y243000D01*
X477555D01*
X476984Y245130D01*
X475235Y248160D01*
X472760Y250635D01*
X469730Y252384D01*
X467600Y252955D01*
D02*
G37*
G36*
X461600D02*
X459470Y252384D01*
X456440Y250635D01*
X453965Y248160D01*
X452216Y245130D01*
X451645Y243000D01*
X461600D01*
Y252955D01*
D02*
G37*
G36*
X477555Y237000D02*
X467600D01*
Y227045D01*
X469730Y227616D01*
X472760Y229365D01*
X475235Y231840D01*
X476984Y234870D01*
X477555Y237000D01*
D02*
G37*
G36*
X461600D02*
X451645D01*
X452216Y234870D01*
X453965Y231840D01*
X456440Y229365D01*
X459470Y227616D01*
X461600Y227045D01*
Y237000D01*
D02*
G37*
G36*
X733430Y277066D02*
X731733Y276842D01*
X730152Y276188D01*
X728794Y275146D01*
X727753Y273788D01*
X727097Y272207D01*
X726874Y270510D01*
Y255905D01*
X727097Y254208D01*
X727753Y252627D01*
X728794Y251269D01*
X730152Y250227D01*
X731733Y249572D01*
X733430Y249349D01*
X735127Y249572D01*
X736708Y250227D01*
X738066Y251269D01*
X739108Y252627D01*
X739763Y254208D01*
X739986Y255905D01*
Y270510D01*
X739763Y272207D01*
X739108Y273788D01*
X738066Y275146D01*
X736708Y276188D01*
X735127Y276842D01*
X733430Y277066D01*
D02*
G37*
%LPD*%
D14*
X518160Y309880D02*
X518294Y309746D01*
Y287105D02*
Y309746D01*
X215900Y22860D02*
X293370Y100330D01*
X518294Y287105D02*
X518299Y287100D01*
X503296Y231140D02*
X525780D01*
X503296D02*
Y247094D01*
X525780Y231140D02*
X533301Y238661D01*
X503296Y214536D02*
Y231140D01*
X418850Y30730D02*
X567898D01*
X568918Y31750D01*
X679048D02*
Y35162D01*
X690880Y46994D01*
X718820Y251460D02*
X718820Y251460D01*
X694220Y251460D02*
X718820D01*
X749300Y281940D02*
X774700Y307340D01*
X748030Y281940D02*
X749300D01*
X690880Y46994D02*
Y66040D01*
X398780Y76200D02*
X680720D01*
X690880Y66040D01*
X733430Y255905D02*
Y270510D01*
X533400Y156501D02*
Y182880D01*
X502120Y192105D02*
Y213360D01*
Y192105D02*
X508000Y186225D01*
Y182302D02*
Y186225D01*
X529300Y152400D02*
X533400Y156501D01*
X393700Y152400D02*
X529300D01*
X322790Y223310D02*
Y238190D01*
X324600Y240000D01*
X322790Y223310D02*
X393700Y152400D01*
X508000Y179184D02*
Y182302D01*
X640080Y553720D02*
X774700Y419100D01*
X640080Y553720D02*
Y632460D01*
X614680Y551180D02*
X772160Y393700D01*
X614680Y551180D02*
Y632460D01*
X589280Y378460D02*
Y632460D01*
X438620Y104140D02*
Y104680D01*
X393700Y106680D02*
X436620D01*
X235460Y264920D02*
X393700Y106680D01*
X436620D02*
X438620Y104680D01*
X533301Y238661D02*
Y247094D01*
X533306Y247099D01*
X503296Y247094D02*
X503301Y247099D01*
X502120Y213360D02*
X503296Y214536D01*
X503301Y247099D02*
Y248594D01*
X503298Y287099D02*
X503303Y287104D01*
Y311063D01*
X504660Y312420D01*
X235460Y214120D02*
X418850Y30730D01*
X693420Y281940D02*
X693820Y281540D01*
Y251860D02*
X694220Y251460D01*
X693820Y251860D02*
Y281540D01*
X693820Y104540D02*
Y190100D01*
X694220Y190500D02*
X694830Y189890D01*
X743560D01*
X774700Y307340D02*
X819150D01*
X693420Y281940D02*
Y304800D01*
X693820Y190100D02*
X694220Y190500D01*
X693420Y104140D02*
X693820Y104540D01*
X742900Y152920D02*
Y189230D01*
X465620Y104140D02*
X508000D01*
X465620Y104140D02*
X465620Y104140D01*
X508000D02*
X508000Y104140D01*
X235460Y239520D02*
X398780Y76200D01*
X444500Y360680D02*
X462280Y342900D01*
X504660D01*
X772160Y393700D02*
X795020D01*
X774700Y419100D02*
X795020D01*
X579120Y368300D02*
X629920D01*
X566420D02*
X579120D01*
X589280Y378460D01*
X261620Y347980D02*
X381979D01*
X386080Y327660D02*
Y343880D01*
X381979Y347980D02*
X386080Y343880D01*
X251460Y358140D02*
X261620Y347980D01*
X251460Y358140D02*
Y391160D01*
X462280Y327660D02*
Y342900D01*
X504660D02*
Y345900D01*
X527060Y368300D02*
X566420D01*
X504660Y345900D02*
X527060Y368300D01*
X387946Y181014D02*
X399845D01*
X341850Y227110D02*
Y249970D01*
Y227110D02*
X387946Y181014D01*
X399845D02*
X401320Y179540D01*
X429260D01*
X504660Y312420D02*
Y342900D01*
X629920Y368300D02*
X693420Y304800D01*
X698500Y104140D02*
X698900Y104540D01*
X819150Y307340D02*
X828040Y298450D01*
Y212090D02*
Y298450D01*
X808990Y142240D02*
Y167640D01*
X757220Y139700D02*
Y180390D01*
X763570Y133350D02*
X800100D01*
X808990Y142240D01*
X796290Y180340D02*
X828040Y212090D01*
X796290Y180340D02*
X808990Y167640D01*
X742900Y152920D02*
X744690Y151130D01*
X757220Y139700D02*
X763570Y133350D01*
X386080Y271780D02*
Y289560D01*
X427444Y242156D02*
X429600Y240000D01*
X386080Y271780D02*
X415704Y242156D01*
X427444D01*
X360140Y289020D02*
X360680Y289560D01*
X359600Y240000D02*
X360140Y240540D01*
Y289020D01*
X465620Y129540D02*
X508000D01*
X508000Y129540D01*
X465620Y129540D02*
X465620Y129540D01*
X235460Y290320D02*
X396240Y129540D01*
X438620D01*
X317500Y360680D02*
X444500D01*
X299720Y378460D02*
X317500Y360680D01*
X461874Y328066D02*
X462280Y327660D01*
X299720Y378460D02*
Y500380D01*
X281180Y518920D02*
X299720Y500380D01*
X217400Y518920D02*
X281180D01*
X383306Y330434D02*
X386080Y327660D01*
X238760Y353060D02*
X341850Y249970D01*
X217400Y391920D02*
X234660D01*
X238760Y387820D01*
Y353060D02*
Y387820D01*
X359600Y240000D02*
X391060Y208540D01*
X399320D02*
X401320Y206540D01*
X391060Y208540D02*
X399320D01*
X429260Y206540D02*
X429430Y206710D01*
Y239830D02*
X429600Y240000D01*
X429430Y206710D02*
Y239830D01*
X217400Y290320D02*
X235460D01*
X217400Y264920D02*
X235460D01*
X217400Y239520D02*
X235460D01*
X217400Y214120D02*
X235460D01*
X89600Y50900D02*
X89700Y50800D01*
X89600Y50900D02*
Y249734D01*
X114700Y50800D02*
Y249020D01*
X73400Y290320D02*
X114700Y249020D01*
X139600Y50900D02*
X139700Y50800D01*
X139600Y50900D02*
Y274120D01*
X76400Y417320D02*
X164700Y329020D01*
Y50800D02*
Y329020D01*
X164600Y50900D02*
X164700Y50800D01*
X39700Y28880D02*
Y50800D01*
Y28880D02*
X45720Y22860D01*
X215900D01*
X114600Y50900D02*
X114700Y50800D01*
X39600Y417320D02*
X76400D01*
X72600Y341120D02*
X139600Y274120D01*
X39600Y341120D02*
X72600D01*
X39600Y290320D02*
X73400D01*
X74414Y264920D02*
X89600Y249734D01*
X39600Y264920D02*
X74414D01*
D20*
X278780Y365760D02*
D03*
Y391160D02*
D03*
Y416560D02*
D03*
Y441960D02*
D03*
Y467360D02*
D03*
Y492760D02*
D03*
X360680Y327660D02*
D03*
X386080D02*
D03*
X411480D02*
D03*
X436880D02*
D03*
X462280D02*
D03*
X335280D02*
D03*
X640080Y632460D02*
D03*
X665480D02*
D03*
X614680D02*
D03*
X589280D02*
D03*
X89700Y50800D02*
D03*
X114700D02*
D03*
X64700D02*
D03*
X39700D02*
D03*
X139700D02*
D03*
X164700D02*
D03*
X189700D02*
D03*
X214700D02*
D03*
X795020Y520700D02*
D03*
Y495300D02*
D03*
Y469900D02*
D03*
Y444500D02*
D03*
Y419100D02*
D03*
Y393700D02*
D03*
Y368300D02*
D03*
Y342900D02*
D03*
X566420D02*
D03*
Y368300D02*
D03*
Y393700D02*
D03*
Y419100D02*
D03*
Y444500D02*
D03*
Y469900D02*
D03*
Y495300D02*
D03*
Y520700D02*
D03*
X679048Y31750D02*
D03*
X724048D02*
D03*
X666498Y56650D02*
D03*
X736598D02*
D03*
X568918Y31750D02*
D03*
X613918D02*
D03*
X556368Y56650D02*
D03*
X626468D02*
D03*
X39600Y137920D02*
D03*
X217400D02*
D03*
X39600Y620520D02*
D03*
Y595120D02*
D03*
Y544320D02*
D03*
Y518920D02*
D03*
Y493520D02*
D03*
Y468120D02*
D03*
Y417320D02*
D03*
Y391920D02*
D03*
Y366520D02*
D03*
Y341120D02*
D03*
Y290320D02*
D03*
Y264920D02*
D03*
Y239520D02*
D03*
Y214120D02*
D03*
Y163320D02*
D03*
Y569720D02*
D03*
Y442720D02*
D03*
Y315720D02*
D03*
Y188720D02*
D03*
X217400Y620520D02*
D03*
Y569720D02*
D03*
Y595120D02*
D03*
Y544320D02*
D03*
Y518920D02*
D03*
Y493520D02*
D03*
Y468120D02*
D03*
Y417320D02*
D03*
Y391920D02*
D03*
Y366520D02*
D03*
Y341120D02*
D03*
Y290320D02*
D03*
Y264920D02*
D03*
Y239520D02*
D03*
Y214120D02*
D03*
Y163320D02*
D03*
Y442720D02*
D03*
Y315720D02*
D03*
Y188720D02*
D03*
X360680Y289560D02*
D03*
X533400Y182880D02*
D03*
Y129540D02*
D03*
X508000Y104140D02*
D03*
X533400D02*
D03*
X508000Y129540D02*
D03*
X693420Y281940D02*
D03*
X668020D02*
D03*
X642620D02*
D03*
X617220D02*
D03*
X591820D02*
D03*
X566420D02*
D03*
Y104140D02*
D03*
X591820D02*
D03*
X617220D02*
D03*
X642620D02*
D03*
X668020D02*
D03*
X693420D02*
D03*
X464600Y240000D02*
D03*
X429600D02*
D03*
X324600D02*
D03*
X359600D02*
D03*
X508000Y182302D02*
D03*
X386080Y289560D02*
D03*
D21*
X270000Y115000D02*
D03*
X280000Y570800D02*
D03*
X800000Y635000D02*
D03*
Y50000D02*
D03*
D22*
X464600Y15000D02*
D03*
X324600D02*
D03*
D23*
X293370Y100330D02*
D03*
X813600Y544400D02*
D03*
Y444400D02*
D03*
X763600Y644400D02*
D03*
X788600Y594400D02*
D03*
X763600Y544400D02*
D03*
Y344400D02*
D03*
X788600Y94400D02*
D03*
X763600Y44400D02*
D03*
X713600Y644400D02*
D03*
X738600Y594400D02*
D03*
X713600Y544400D02*
D03*
X738600Y494400D02*
D03*
X713600Y344400D02*
D03*
Y144400D02*
D03*
X738600Y94400D02*
D03*
X688600Y594400D02*
D03*
X663600Y444400D02*
D03*
X688600Y394400D02*
D03*
X638600Y494400D02*
D03*
X613600Y444400D02*
D03*
X638600Y394400D02*
D03*
X613600Y344400D02*
D03*
X638600Y194400D02*
D03*
X613600Y144400D02*
D03*
X563600Y644400D02*
D03*
Y544400D02*
D03*
Y244400D02*
D03*
Y144400D02*
D03*
X538600Y494400D02*
D03*
X513600Y444400D02*
D03*
X538600Y394400D02*
D03*
X488600Y494400D02*
D03*
X463600Y444400D02*
D03*
X488600Y394400D02*
D03*
Y294400D02*
D03*
X438600Y494400D02*
D03*
X413600Y444400D02*
D03*
X438600Y394400D02*
D03*
Y194400D02*
D03*
X388600Y494400D02*
D03*
X363600Y444400D02*
D03*
X388600Y394400D02*
D03*
X363600Y44400D02*
D03*
X338600Y494400D02*
D03*
X313600Y444400D02*
D03*
X338600Y394400D02*
D03*
Y294400D02*
D03*
Y94400D02*
D03*
X313600Y44400D02*
D03*
X263600Y144400D02*
D03*
Y44400D02*
D03*
X238600Y194400D02*
D03*
Y94400D02*
D03*
X188600Y594400D02*
D03*
X163600Y544400D02*
D03*
Y444400D02*
D03*
X188600Y94400D02*
D03*
X138600Y594400D02*
D03*
X113600Y544400D02*
D03*
X138600Y494400D02*
D03*
Y394400D02*
D03*
X63600Y644400D02*
D03*
X88600Y594400D02*
D03*
X63600Y544400D02*
D03*
Y444400D02*
D03*
X88600Y294400D02*
D03*
X63600Y244400D02*
D03*
Y144400D02*
D03*
X13600Y644400D02*
D03*
Y544400D02*
D03*
Y444400D02*
D03*
Y344400D02*
D03*
Y244400D02*
D03*
X38600Y94400D02*
D03*
X795020Y147320D02*
D03*
Y157480D02*
D03*
X784860Y147320D02*
D03*
Y157480D02*
D03*
X251460Y391160D02*
D03*
D24*
X529120Y213360D02*
D03*
X502120D02*
D03*
X744690Y151130D02*
D03*
X771690D02*
D03*
X438620Y104140D02*
D03*
X465620D02*
D03*
X438620Y129540D02*
D03*
X465620D02*
D03*
X563480Y602380D02*
D03*
X590480D02*
D03*
X531660Y342900D02*
D03*
X504660D02*
D03*
Y312420D02*
D03*
X531660D02*
D03*
X694220Y251460D02*
D03*
X667220D02*
D03*
X694220Y134620D02*
D03*
X667220D02*
D03*
X694220Y162560D02*
D03*
X667220D02*
D03*
X694220Y190500D02*
D03*
X667220D02*
D03*
D25*
X733430Y270510D02*
D03*
X805810D02*
D03*
D26*
X518044Y247100D02*
D03*
X503301Y247099D02*
D03*
X533306D02*
D03*
X503298Y287099D02*
D03*
X533285Y287100D02*
D03*
X518299D02*
D03*
D27*
X782320Y199390D02*
D03*
Y189890D02*
D03*
Y180390D02*
D03*
X757220D02*
D03*
Y189890D02*
D03*
Y199390D02*
D03*
D28*
X720090Y202730D02*
D03*
Y175730D02*
D03*
X401320Y179540D02*
D03*
Y206540D02*
D03*
X429260D02*
D03*
Y179540D02*
D03*
D29*
X743560Y189890D02*
X757220D01*
X782320Y199390D02*
X792480D01*
X805810Y212720D01*
Y270510D01*
X769620Y189230D02*
X770180Y189790D01*
X782220D01*
X782320Y189890D01*
X769620Y153200D02*
Y189230D01*
X782370Y180340D02*
X796290D01*
M02*
