<?xml version="1.0" encoding="UTF-8"?>
<svg viewBox="0 0 22 22" xmlns="http://www.w3.org/2000/svg">
  <style type="text/css">.ColorScheme-Text {
    color:#31363b;
    }
    .ColorScheme-Background {
    color:#eff0f1;
    }
    .ColorScheme-Accent {
    color:#3498db;
    }
    .ColorScheme-ButtonText {
    color:#31363b;
    }
    .ColorScheme-NegativeText{
    color:#e74c3c;
    }</style>
  <g transform="translate(-22,-22)">
    <rect x="22" y="22" width="22" height="22" fill="none" opacity=".55"/>
    <path class="ColorScheme-Text" d="m33 25c-4.155 0-7.9059 1.6716-10.617 4.3828l0.70899 0.70899c2.5305-2.5305 6.0302-4.0918 9.9082-4.0918s7.3777 1.5613 9.9082 4.0918l0.70899-0.70899c-2.7112-2.7112-6.4622-4.3828-10.617-4.3828z" fill="currentColor" opacity=".35"/>
    <path class="ColorScheme-Text" d="m33 29c-3.047 0-5.7969 1.2266-7.7852 3.2148l0.70704 0.70704c1.8075-1.8075 4.3081-2.9219 7.0781-2.9219s5.2706 1.1144 7.0781 2.9219l0.70703-0.70704c-1.9882-1.9882-4.7382-3.2148-7.7852-3.2148z" fill="currentColor" opacity=".35"/>
    <path class="ColorScheme-Text" d="m33 33c-1.939 0-3.6898 0.77967-4.9551 2.0449l0.70899 0.70899c1.0845-1.0845 2.5841-1.7539 4.2461-1.7539s3.1616 0.66941 4.2461 1.7539l0.70899-0.70899c-1.2652-1.2652-3.0161-2.0449-4.9551-2.0449z" fill="currentColor"/>
    <path class="ColorScheme-Text" d="m33 37c-1.108 0-2 0.892-2 2s0.892 2 2 2 2-0.892 2-2-0.892-2-2-2zm0 1c0.554 0 1 0.446 1 1s-0.446 1-1 1-1-0.446-1-1 0.446-1 1-1z" fill="currentColor"/>
  </g>
</svg>
