<?xml version="1.0" encoding="UTF-8"?>
<svg viewBox="0 0 22 22" xmlns="http://www.w3.org/2000/svg">
  <style type="text/css">.ColorScheme-Text {
    color:#31363b;
    }
    .ColorScheme-Background {
    color:#eff0f1;
    }
    .ColorScheme-Accent {
    color:#3498db;
    }
    .ColorScheme-ButtonText {
    color:#31363b;
    }
    .ColorScheme-NegativeText{
    color:#e74c3c;
    }</style>
  <g transform="translate(-234 -44)">
    <g transform="matrix(-1,0,0,1,498,-23.75)">
      <rect x="242" y="67.75" width="22" height="22" fill="none" opacity=".2"/>
      <path class="ColorScheme-Text" d="m253 70.75c-4.155 0-7.9059 1.6716-10.617 4.3828l0.70899 0.70898c2.5305-2.5305 6.0302-4.0918 9.9082-4.0918 1.6962 0 3.3125 0.3135 4.8144 0.86133l0.78125-0.7793c-1.7291-0.69208-3.6138-1.082-5.5957-1.082zm7.9883 2.3066-0.72851 0.72852c0.96232 0.5835 1.8575 1.2657 2.6484 2.0566l0.70899-0.70898c-0.79015-0.79015-1.6779-1.4783-2.6289-2.0762z" fill="currentColor" opacity=".35"/>
      <path class="ColorScheme-Text" d="m253 74.75c-3.047 0-5.7969 1.2266-7.7852 3.2148l0.70703 0.70703c1.8075-1.8075 4.3081-2.9219 7.0781-2.9219 0.52789 0 1.0415 0.05283 1.5469 0.13086l0.85937-0.86133c-0.77484-0.17184-1.5782-0.26953-2.4062-0.26953zm5.0625 1.2324-0.74805 0.75c1.0299 0.49132 1.9669 1.1427 2.7637 1.9395l0.70704-0.70703c-0.79457-0.79457-1.7145-1.4608-2.7227-1.9824z" fill="currentColor" opacity=".35"/>
      <path class="ColorScheme-Text" d="m251.52 78.908c-1.3423 0.28686-2.5413 0.95345-3.4746 1.8867l0.70899 0.70898c0.28116-0.28116 0.59127-0.53298 0.92382-0.75391zm3.4844 0.13281-0.82422 0.82422c1.187 0.23493 2.2455 0.81774 3.0664 1.6387l0.70899-0.70898c-0.81012-0.81012-1.821-1.4191-2.9512-1.7539z" fill="currentColor" opacity=".35"/>
      <path class="ColorScheme-Text" d="m253 82.75c-1.108 0-2 0.892-2 2s0.892 2 2 2 2-0.892 2-2-0.892-2-2-2zm0 1c0.554 0 1 0.446 1 1s-0.446 1-1 1-1-0.446-1-1 0.446-1 1-1z" fill="currentColor" opacity=".35"/>
      <rect class="ColorScheme-NegativeText" transform="rotate(-45)" x="113.28" y="234.43" width="22.764" height="1.0021" fill="currentColor"/>
    </g>
  </g>
</svg>
