<?xml version="1.0" encoding="UTF-8"?>
<svg id="Ebene_2" data-name="Ebene 2" xmlns="http://www.w3.org/2000/svg" viewBox="0 0 943.62 190.37">
  <defs>
    <style>
      .cls-1 {
        fill: #1d1d1b;
      }
    </style>
  </defs>
  <g id="Ebene_1-2" data-name="Ebene 1">
    <g>
      <g>
        <g>
          <path class="cls-1" d="M282.89,123.45h-38.68l-7.38,17.85h-19.75l37.13-83.3h19.04l37.25,83.3h-20.23l-7.38-17.85ZM276.82,108.81l-13.21-31.89-13.21,31.89h26.42Z"/>
          <path class="cls-1" d="M315.61,58c0-5.83,4.64-10.35,11.54-10.35s11.54,4.28,11.54,10c0,6.19-4.64,10.71-11.54,10.71s-11.54-4.52-11.54-10.35ZM317.87,77.28h18.56v64.02h-18.56v-64.02Z"/>
          <path class="cls-1" d="M393.44,76.32v17.14c-1.55-.12-2.74-.24-4.17-.24-10.23,0-17.02,5.59-17.02,17.85v30.23h-18.56v-64.02h17.73v8.45c4.52-6.19,12.14-9.4,22.02-9.4Z"/>
          <path class="cls-1" d="M398.79,133.09l6.54-14.52c7.02,5.12,17.49,8.69,27.49,8.69,11.42,0,16.07-3.81,16.07-8.92,0-15.59-48.43-4.88-48.43-35.82,0-14.16,11.42-25.94,35.11-25.94,10.47,0,21.18,2.5,28.92,7.38l-5.95,14.64c-7.73-4.4-15.71-6.54-23.09-6.54-11.42,0-15.83,4.29-15.83,9.52,0,15.35,48.43,4.76,48.43,35.34,0,13.92-11.54,25.82-35.34,25.82-13.21,0-26.54-3.93-33.92-9.64Z"/>
          <path class="cls-1" d="M475.19,109.29c0-19.28,14.88-32.96,35.7-32.96,13.45,0,24.04,5.83,28.68,16.3l-14.4,7.74c-3.45-6.07-8.57-8.81-14.4-8.81-9.4,0-16.78,6.54-16.78,17.73s7.38,17.73,16.78,17.73c5.83,0,10.95-2.62,14.4-8.81l14.4,7.85c-4.64,10.23-15.23,16.19-28.68,16.19-20.83,0-35.7-13.69-35.7-32.96Z"/>
          <path class="cls-1" d="M544.69,109.29c0-19.28,14.88-32.96,35.22-32.96s35.11,13.68,35.11,32.96-14.76,32.96-35.11,32.96-35.22-13.69-35.22-32.96ZM596.21,109.29c0-11.07-7.02-17.73-16.3-17.73s-16.42,6.66-16.42,17.73,7.14,17.73,16.42,17.73,16.3-6.66,16.3-17.73Z"/>
          <path class="cls-1" d="M691.89,77.28v64.02h-17.61v-7.62c-4.88,5.59-12.02,8.57-19.87,8.57-16.07,0-27.37-9.04-27.37-28.8v-36.18h18.56v33.44c0,10.71,4.76,15.47,12.97,15.47s14.76-5.47,14.76-17.26v-31.65h18.56Z"/>
          <path class="cls-1" d="M750.44,138.2c-3.81,2.74-9.4,4.05-15.11,4.05-15.11,0-23.92-7.74-23.92-22.97v-26.3h-9.88v-14.28h9.88v-15.59h18.56v15.59h15.95v14.28h-15.95v26.06c0,5.47,2.98,8.45,7.97,8.45,2.74,0,5.47-.83,7.5-2.38l5,13.09Z"/>
        </g>
        <g>
          <path class="cls-1" d="M830,77.27l-41.16,64.03h-6.59l-15.64-64.03h6.95l13.45,55.53,35.86-55.53h7.13Z"/>
          <path class="cls-1" d="M832.38,135.44h34.76l-1.19,5.85h-45.01l1.01-4.67,32.02-25.98c9.24-7.41,11.89-12.08,11.89-17.75,0-6.31-4.3-10.34-13.81-10.34-6.68,0-13.17,2.65-17.66,7.32l-4.57-3.93c5.21-5.76,13.81-9.24,23.14-9.24,12.81,0,19.67,6.22,19.67,15.37,0,7.23-3.2,13.63-14.09,22.41l-26.16,20.95Z"/>
          <path class="cls-1" d="M876.02,137c0-3.02,2.38-5.21,5.12-5.21s4.67,2.01,4.67,4.76c0,3.02-2.38,5.21-5.03,5.21s-4.76-2.1-4.76-4.76Z"/>
          <path class="cls-1" d="M890.75,118.7c0-21.77,12.26-41.99,32.02-41.99,13.08,0,20.86,8.6,20.86,23.14,0,21.77-12.26,41.99-32.02,41.99-13.08,0-20.86-8.6-20.86-23.14ZM936.94,99.95c0-11.16-5.49-17.2-14.73-17.2-15.83,0-24.79,19.39-24.79,35.86,0,11.16,5.49,17.2,14.73,17.2,15.83,0,24.79-19.39,24.79-35.86Z"/>
        </g>
      </g>
      <g>
        <path class="cls-1" d="M96.49,145.6c-2.84-6.43-5.79-12.8-8.82-19.13-3.94,3.74-6.42,9.02-6.42,14.88,0,11.33,9.21,20.54,20.54,20.54s20.54-9.21,20.54-20.54-9.21-20.54-20.54-20.54c-.99,0-1.96.09-2.91.23,2.88,6.04,5.7,12.12,8.41,18.25,3.22,7.3-7.55,13.65-10.79,6.31Z"/>
        <path class="cls-1" d="M95.19,0C42.62,0,0,42.62,0,95.19c0,1.65.04,3.3.13,4.93,2.31.53,4.61,1.19,6.86,1.93,14.62,4.78,29.6,8.86,44.76,3.54,6.86-2.41,12.83-6.86,19.36-9.99.21-.1.42-.19.63-.29-1.54-2.83-3.1-5.64-4.67-8.44-3.71,1.5-7.38,3.06-10.98,4.61-3.08,1.32-6.71.98-8.55-2.24-1.52-2.67-.88-7.21,2.24-8.55,3.67-1.58,7.36-3.14,11.07-4.65-2.85-4.86-5.73-9.69-8.7-14.48-4.25-6.86,6.56-13.13,10.79-6.31,3.34,5.38,6.57,10.82,9.76,16.29,9.32-3.24,18.87-5.73,28.79-6.61,8.83-.78,17.65.13,26.15,2.6,6.59,1.92,13.37,3.93,15.83-4.24,4.51-14.95-18.08-25.18-29.03-28.3-3.73-1.06-16.67-4.31-17.63,2.17-1.2,8.05,12.79,8.9,17.64,9.23,8,.55,8.03,13.05,0,12.5-9.64-.66-20.02-2-26.21-10.32-5.09-6.84-5.43-16.58,1.19-22.6,12.66-11.5,34.88-2.09,47.12,5.27,12.97,7.8,24.48,21.85,18.14,37.69-2.69,6.72-8.2,11.88-15.52,12.86-9.18,1.23-17.97-3.94-27.09-4.53-11.29-.73-22.4,1.63-33.15,5.21,1.55,2.78,3.08,5.57,4.58,8.36,3.26-.97,6.58-1.74,9.95-2.28,15.27-2.44,30.94-.82,45.24,5.12,3.1,1.29,5.39,4.11,4.37,7.69-.85,2.95-4.55,5.67-7.69,4.37-13.35-5.55-27.99-7.39-42.23-4.47-1.24.25-2.46.55-3.68.87,1.33,2.59,2.65,5.18,3.95,7.78,2.67-.71,5.46-1.09,8.35-1.09,17.94,0,32.54,14.6,32.54,32.54s-14.6,32.54-32.54,32.54-32.54-14.6-32.54-32.54c0-10.61,5.1-20.04,12.98-25.98-1.51-3.01-3.05-6.01-4.61-9-1.64.75-3.25,1.57-4.84,2.44-5.8,3.18-11.42,6.65-17.7,8.83-13.11,4.55-28.37,3.67-41.51-.26-3.54-1.06-7.6-2.66-11.83-4.02,8.48,43.88,47.09,77.02,93.45,77.02,52.57,0,95.19-42.62,95.19-95.19S147.75,0,95.19,0Z"/>
      </g>
    </g>
  </g>
</svg>