<?xml version="1.0" encoding="UTF-8"?>
<svg id="Ebene_2" data-name="Ebene 2" xmlns="http://www.w3.org/2000/svg" viewBox="0 0 943.62 190.37">
  <defs>
    <style>
      .cls-1 {
        fill: #fff;
      }
    </style>
  </defs>
  <g id="Ebene_1-2" data-name="Ebene 1">
    <g>
      <g>
        <g>
          <path class="cls-1" d="M282.89,123.45h-38.68l-7.38,17.85h-19.75l37.13-83.3h19.04l37.25,83.3h-20.23l-7.38-17.85ZM276.82,108.81l-13.21-31.89-13.21,31.89h26.42Z"/>
          <path class="cls-1" d="M315.61,58c0-5.83,4.64-10.35,11.54-10.35s11.54,4.28,11.54,10c0,6.19-4.64,10.71-11.54,10.71s-11.54-4.52-11.54-10.35ZM317.87,77.28h18.56v64.02h-18.56v-64.02Z"/>
          <path class="cls-1" d="M393.44,76.32v17.14c-1.55-.12-2.74-.24-4.17-.24-10.23,0-17.02,5.59-17.02,17.85v30.23h-18.56v-64.02h17.73v8.45c4.52-6.19,12.14-9.4,22.02-9.4Z"/>
          <path class="cls-1" d="M398.79,133.09l6.54-14.52c7.02,5.12,17.49,8.69,27.49,8.69,11.42,0,16.07-3.81,16.07-8.92,0-15.59-48.43-4.88-48.43-35.82,0-14.16,11.42-25.94,35.11-25.94,10.47,0,21.18,2.5,28.92,7.38l-5.95,14.64c-7.73-4.4-15.71-6.54-23.09-6.54-11.42,0-15.83,4.29-15.83,9.52,0,15.35,48.43,4.76,48.43,35.34,0,13.92-11.54,25.82-35.34,25.82-13.21,0-26.54-3.93-33.92-9.64Z"/>
          <path class="cls-1" d="M475.19,109.29c0-19.28,14.88-32.96,35.7-32.96,13.45,0,24.04,5.83,28.68,16.3l-14.4,7.74c-3.45-6.07-8.57-8.81-14.4-8.81-9.4,0-16.78,6.54-16.78,17.73s7.38,17.73,16.78,17.73c5.83,0,10.95-2.62,14.4-8.81l14.4,7.85c-4.64,10.23-15.23,16.19-28.68,16.19-20.83,0-35.7-13.69-35.7-32.96Z"/>
          <path class="cls-1" d="M544.69,109.29c0-19.28,14.88-32.96,35.22-32.96s35.11,13.68,35.11,32.96-14.76,32.96-35.11,32.96-35.22-13.69-35.22-32.96ZM596.21,109.29c0-11.07-7.02-17.73-16.3-17.73s-16.42,6.66-16.42,17.73,7.14,17.73,16.42,17.73,16.3-6.66,16.3-17.73Z"/>
          <path class="cls-1" d="M691.89,77.28v64.02h-17.61v-7.62c-4.88,5.59-12.02,8.57-19.87,8.57-16.07,0-27.37-9.04-27.37-28.8v-36.18h18.56v33.44c0,10.71,4.76,15.47,12.97,15.47s14.76-5.47,14.76-17.26v-31.65h18.56Z"/>
          <path class="cls-1" d="M750.44,138.2c-3.81,2.74-9.4,4.05-15.11,4.05-15.11,0-23.92-7.74-23.92-22.97v-26.3h-9.88v-14.28h9.88v-15.59h18.56v15.59h15.95v14.28h-15.95v26.06c0,5.47,2.98,8.45,7.97,8.45,2.74,0,5.47-.83,7.5-2.38l5,13.09Z"/>
        </g>
        <g>
          <path class="cls-1" d="M830,77.27l-41.16,64.03h-6.59l-15.64-64.03h6.95l13.45,55.53,35.86-55.53h7.13Z"/>
          <path class="cls-1" d="M832.38,135.45h34.76l-1.19,5.85h-45.01l1.01-4.67,32.02-25.98c9.24-7.41,11.89-12.08,11.89-17.75,0-6.31-4.3-10.34-13.81-10.34-6.68,0-13.17,2.65-17.66,7.32l-4.57-3.93c5.21-5.76,13.81-9.24,23.14-9.24,12.81,0,19.67,6.22,19.67,15.37,0,7.23-3.2,13.63-14.09,22.41l-26.16,20.95Z"/>
          <path class="cls-1" d="M876.02,137c0-3.02,2.38-5.21,5.12-5.21s4.67,2.01,4.67,4.76c0,3.02-2.38,5.21-5.03,5.21s-4.76-2.1-4.76-4.76Z"/>
          <path class="cls-1" d="M890.75,118.7c0-21.77,12.26-41.99,32.02-41.99,13.08,0,20.86,8.6,20.86,23.14,0,21.77-12.26,41.99-32.02,41.99-13.08,0-20.86-8.6-20.86-23.14ZM936.94,99.95c0-11.16-5.49-17.2-14.73-17.2-15.83,0-24.79,19.39-24.79,35.86,0,11.16,5.49,17.2,14.73,17.2,15.83,0,24.79-19.39,24.79-35.86Z"/>
        </g>
      </g>
      <g>
        <path class="cls-1" d="M101.78,161.01c10.84,0,19.66-8.82,19.66-19.66s-8.82-19.66-19.66-19.66c-.51,0-1.03.03-1.6.08,2.92,6.15,5.51,11.78,7.89,17.17,1.93,4.37-.6,8.61-4.16,10.18-2.85,1.26-6.5.77-8.24-3.16-2.55-5.77-5.26-11.66-8.28-17.99-3.42,3.66-5.29,8.36-5.29,13.38,0,10.84,8.82,19.66,19.66,19.66Z"/>
        <path class="cls-1" d="M95.19,0C42.62,0,0,42.62,0,95.19c0,1.35.04,2.69.09,4.02l.23.05c2.22.51,4.56,1.17,6.94,1.95,14.82,4.85,29.35,8.76,44.2,3.54,4.09-1.44,7.95-3.67,11.68-5.82,2.39-1.38,4.86-2.81,7.39-4.03-1.21-2.21-2.47-4.49-3.84-6.94-3.63,1.47-7.18,2.99-10.25,4.31-3.27,1.4-7.52,1.14-9.66-2.61-1-1.75-1.19-4.12-.5-6.18.57-1.7,1.69-2.98,3.16-3.6,3.03-1.3,6.57-2.81,10.15-4.28-3.04-5.17-5.65-9.51-8.17-13.59-1.34-2.17-1.47-4.51-.35-6.59,1.24-2.31,3.88-3.91,6.57-4,2.5-.08,4.67,1.11,6.06,3.36,2.94,4.74,6.02,9.88,9.41,15.69,10.48-3.59,19.5-5.64,28.31-6.42,8.86-.79,17.77.1,26.47,2.63,7.84,2.28,12.7,3.16,14.75-3.65,1-3.31.62-6.61-1.12-9.79-4.93-9.01-19.49-15.19-27.31-17.42-2.64-.75-11.55-3.03-15.13-.72-.8.51-1.26,1.23-1.4,2.17-.21,1.39.09,2.57.92,3.6,3.02,3.75,11.91,4.36,15.71,4.62h.2c4.76.34,7.06,4.43,6.81,8.11-.22,3.17-2.46,6.43-6.92,6.15-10.08-.69-20.46-2.08-26.85-10.67-6.58-8.85-4.33-18.66,1.3-23.77,14.61-13.28,40.55.6,48.16,5.17,7.25,4.36,13.15,10.09,16.62,16.14,4.21,7.35,4.86,15.18,1.88,22.62-2.97,7.43-9.04,12.44-16.21,13.4-5.52.74-10.92-.76-16.13-2.22-3.64-1.02-7.41-2.07-11.13-2.31-9.6-.62-19.74.91-31.82,4.83,1.23,2.21,2.48,4.5,3.74,6.83,3.15-.91,6.3-1.61,9.38-2.1,15.71-2.51,31.51-.72,45.71,5.18,4.01,1.66,5.92,5.09,4.87,8.74-.55,1.91-2.15,3.75-4.08,4.68-1.61.78-3.31.87-4.78.25-13.68-5.68-28.1-7.21-41.71-4.42-.8.16-1.63.35-2.57.59,1.06,2.06,2.1,4.12,3.14,6.18,2.58-.63,5.23-.94,7.88-.94,18.42,0,33.41,14.99,33.41,33.41s-14.99,33.41-33.41,33.41-33.41-14.99-33.41-33.41c0-10.32,4.64-19.84,12.75-26.24-1.17-2.32-2.45-4.82-3.89-7.6-1.35.64-2.71,1.33-4.03,2.06-1.1.6-2.19,1.21-3.28,1.83-4.62,2.59-9.39,5.27-14.56,7.07h0c-12.13,4.21-27.45,4.12-42.04-.25-1.95-.58-4.04-1.32-6.25-2.1-1.66-.59-3.37-1.19-5.11-1.76,8.87,43.38,47.23,76.02,93.23,76.02,52.57,0,95.18-42.62,95.18-95.19S147.75,0,95.19,0Z"/>
      </g>
    </g>
  </g>
</svg>