G04*
G04 #@! TF.GenerationSoftware,Altium Limited,Altium Designer,26.1.1 (7)*
G04*
G04 Layer_Physical_Order=4*
G04 Layer_Color=16711680*
%FSLAX25Y25*%
%MOIN*%
G70*
G04*
G04 #@! TF.SameCoordinates,E7F4FAF2-1386-437A-9EE8-D3B0163B0EA7*
G04*
G04*
G04 #@! TF.FilePolarity,Positive*
G04*
G01*
G75*
%ADD12C,0.02000*%
%ADD13C,0.01000*%
%ADD18R,0.07087X0.05140*%
%ADD22R,0.05140X0.07087*%
%ADD23R,0.03819X0.06811*%
%ADD24R,0.04724X0.07874*%
%ADD29R,0.06811X0.03819*%
%ADD32C,0.04921*%
%ADD53C,0.01575*%
%ADD54C,0.02500*%
%ADD55C,0.01500*%
%ADD56O,0.06890X0.05709*%
%ADD57O,0.05118X0.03937*%
%ADD58C,0.11811*%
%ADD59C,0.02362*%
%ADD60C,0.02953*%
%ADD61C,0.03937*%
%ADD62C,0.05118*%
%ADD63R,0.02200X0.05600*%
%ADD64R,0.02000X0.04715*%
G36*
X274386Y22000D02*
X253000D01*
Y2256D01*
X23500D01*
Y21500D01*
X1204D01*
Y292917D01*
X51000D01*
Y275756D01*
X98500D01*
Y292917D01*
X245678D01*
Y287331D01*
Y198210D01*
X245581Y198113D01*
X245236Y197281D01*
Y196380D01*
X245526Y195681D01*
D01*
X245581Y195548D01*
X246218Y194912D01*
X247050Y194567D01*
X247950D01*
X248782Y194912D01*
X249419Y195548D01*
X249474Y195681D01*
X249764Y196380D01*
Y197281D01*
X249419Y198113D01*
X249322Y198210D01*
Y292917D01*
X274386D01*
Y22000D01*
D02*
G37*
%LPC*%
G36*
X256090Y290531D02*
X254909D01*
X253959Y290406D01*
X253073Y290039D01*
X252312Y289456D01*
X251728Y288695D01*
X251361Y287809D01*
X251236Y286858D01*
X251361Y285908D01*
X251728Y285022D01*
X252312Y284261D01*
X253073Y283677D01*
X253959Y283310D01*
X254909Y283185D01*
X256090D01*
X257041Y283310D01*
X257927Y283677D01*
X258688Y284261D01*
X259272Y285022D01*
X259639Y285908D01*
X259764Y286858D01*
X259639Y287809D01*
X259272Y288695D01*
X258688Y289456D01*
X257927Y290039D01*
X257041Y290406D01*
X256090Y290531D01*
D02*
G37*
G36*
X160332Y279350D02*
X159432D01*
X158599Y279006D01*
X157963Y278369D01*
X157618Y277537D01*
Y276636D01*
X157963Y275804D01*
X158599Y275167D01*
X159432Y274823D01*
X160332D01*
X161164Y275167D01*
X161801Y275804D01*
X162146Y276636D01*
Y277537D01*
X161801Y278369D01*
X161164Y279006D01*
X160332Y279350D01*
D02*
G37*
G36*
X256090Y280531D02*
X254909D01*
X253959Y280406D01*
X253073Y280039D01*
X252312Y279456D01*
X251728Y278695D01*
X251361Y277809D01*
X251236Y276858D01*
X251361Y275908D01*
X251728Y275022D01*
X252312Y274261D01*
X253073Y273677D01*
X253959Y273310D01*
X254909Y273185D01*
X256090D01*
X257041Y273310D01*
X257927Y273677D01*
X258688Y274261D01*
X259272Y275022D01*
X259639Y275908D01*
X259764Y276858D01*
X259639Y277809D01*
X259272Y278695D01*
X258688Y279456D01*
X257927Y280039D01*
X257041Y280406D01*
X256090Y280531D01*
D02*
G37*
G36*
X142868Y269350D02*
X141967D01*
X141135Y269006D01*
X140498Y268369D01*
X140154Y267537D01*
Y266636D01*
X140498Y265804D01*
X141135Y265167D01*
X141967Y264823D01*
X142868D01*
X143700Y265167D01*
X144336Y265804D01*
X144681Y266636D01*
Y267537D01*
X144336Y268369D01*
X143700Y269006D01*
X142868Y269350D01*
D02*
G37*
G36*
X255950Y262764D02*
X255050D01*
X254218Y262419D01*
X253581Y261782D01*
X253236Y260950D01*
Y260050D01*
X253581Y259218D01*
X254218Y258581D01*
X255050Y258236D01*
X255950D01*
X256782Y258581D01*
X257419Y259218D01*
X257764Y260050D01*
Y260950D01*
X257419Y261782D01*
X256782Y262419D01*
X255950Y262764D01*
D02*
G37*
G36*
X160332Y259350D02*
X159432D01*
X158599Y259006D01*
X157963Y258369D01*
X157618Y257537D01*
Y256636D01*
X157963Y255804D01*
X158599Y255168D01*
X159432Y254823D01*
X160332D01*
X161164Y255168D01*
X161801Y255804D01*
X162146Y256636D01*
Y257537D01*
X161801Y258369D01*
X161164Y259006D01*
X160332Y259350D01*
D02*
G37*
G36*
X33450Y253764D02*
X32550D01*
X31718Y253419D01*
X31081Y252782D01*
X30736Y251950D01*
Y251050D01*
X31081Y250218D01*
X31718Y249581D01*
X32550Y249236D01*
X33450D01*
X34282Y249581D01*
X34919Y250218D01*
X35264Y251050D01*
Y251950D01*
X34919Y252782D01*
X34282Y253419D01*
X33450Y253764D01*
D02*
G37*
G36*
X237950Y279122D02*
X237050D01*
X236218Y278777D01*
X235581Y278141D01*
X235245Y277331D01*
X235236Y277309D01*
Y276408D01*
X235581Y275576D01*
X235678Y275479D01*
Y248909D01*
X215245D01*
X215148Y249006D01*
X214316Y249350D01*
X213416D01*
X212584Y249006D01*
X211947Y248369D01*
X211602Y247537D01*
Y246636D01*
X211947Y245804D01*
X212584Y245167D01*
X213416Y244823D01*
X214316D01*
X215148Y245167D01*
X215245Y245264D01*
X235678D01*
Y188210D01*
X235581Y188113D01*
X235236Y187281D01*
Y186380D01*
X235581Y185548D01*
X236218Y184912D01*
X236420Y184828D01*
X236803Y184572D01*
X237500Y184433D01*
X238197Y184572D01*
X238580Y184828D01*
X238782Y184912D01*
X239419Y185548D01*
X239764Y186380D01*
Y187281D01*
X239419Y188113D01*
X239322Y188210D01*
Y195331D01*
Y247376D01*
X239322Y247376D01*
X239322Y247376D01*
Y275479D01*
X239419Y275576D01*
X239764Y276408D01*
Y277309D01*
X239419Y278141D01*
X238782Y278777D01*
X237950Y279122D01*
D02*
G37*
G36*
X61950Y250264D02*
X61050D01*
X60218Y249919D01*
X59581Y249282D01*
X59236Y248450D01*
Y247550D01*
X59581Y246718D01*
X60218Y246081D01*
X61050Y245736D01*
X61950D01*
X62782Y246081D01*
X63419Y246718D01*
X63764Y247550D01*
Y248450D01*
X63419Y249282D01*
X62782Y249919D01*
X61950Y250264D01*
D02*
G37*
G36*
X42950D02*
X42050D01*
X41218Y249919D01*
X40581Y249282D01*
X40236Y248450D01*
Y247550D01*
X40581Y246718D01*
X41218Y246081D01*
X42050Y245736D01*
X42950D01*
X43782Y246081D01*
X44419Y246718D01*
X44764Y247550D01*
Y248450D01*
X44419Y249282D01*
X43782Y249919D01*
X42950Y250264D01*
D02*
G37*
G36*
X256090Y250504D02*
X254909D01*
X253959Y250379D01*
X253073Y250012D01*
X252312Y249428D01*
X251728Y248667D01*
X251361Y247781D01*
X251236Y246831D01*
X251361Y245880D01*
X251728Y244994D01*
X252312Y244233D01*
X253073Y243650D01*
X253959Y243283D01*
X254909Y243158D01*
X256090D01*
X257041Y243283D01*
X257927Y243650D01*
X258688Y244233D01*
X259272Y244994D01*
X259639Y245880D01*
X259764Y246831D01*
X259639Y247781D01*
X259272Y248667D01*
X258688Y249428D01*
X257927Y250012D01*
X257041Y250379D01*
X256090Y250504D01*
D02*
G37*
G36*
X256500Y240664D02*
Y237831D01*
X259846D01*
X259846Y237837D01*
X259457Y238774D01*
X258840Y239580D01*
X258034Y240197D01*
X257097Y240586D01*
X256500Y240664D01*
D02*
G37*
G36*
X254500D02*
X253903Y240586D01*
X252966Y240197D01*
X252161Y239580D01*
X251543Y238774D01*
X251154Y237837D01*
X251153Y237831D01*
X254500D01*
Y240664D01*
D02*
G37*
G36*
X114450Y239595D02*
X113550D01*
X112718Y239250D01*
X112081Y238613D01*
X111736Y237781D01*
Y236880D01*
X112081Y236048D01*
X112718Y235412D01*
X113550Y235067D01*
X114450D01*
X115282Y235412D01*
X115919Y236048D01*
X116264Y236880D01*
Y237781D01*
X115919Y238613D01*
X115282Y239250D01*
X114450Y239595D01*
D02*
G37*
G36*
X93450D02*
X92550D01*
X91718Y239250D01*
X91081Y238613D01*
X90736Y237781D01*
Y236880D01*
X91081Y236048D01*
X91718Y235412D01*
X92550Y235067D01*
X93450D01*
X94282Y235412D01*
X94919Y236048D01*
X95264Y236880D01*
Y237781D01*
X94919Y238613D01*
X94282Y239250D01*
X93450Y239595D01*
D02*
G37*
G36*
X72450D02*
X71550D01*
X70718Y239250D01*
X70081Y238613D01*
X69736Y237781D01*
Y236880D01*
X70081Y236048D01*
X70718Y235412D01*
X71550Y235067D01*
X72450D01*
X73282Y235412D01*
X73919Y236048D01*
X74264Y236880D01*
Y237781D01*
X73919Y238613D01*
X73282Y239250D01*
X72450Y239595D01*
D02*
G37*
G36*
X259846Y235831D02*
X256500D01*
Y232997D01*
X257097Y233076D01*
X258034Y233464D01*
X258840Y234082D01*
X259457Y234887D01*
X259846Y235824D01*
X259846Y235831D01*
D02*
G37*
G36*
X254500D02*
X251153D01*
X251154Y235824D01*
X251543Y234887D01*
X252161Y234082D01*
X252966Y233464D01*
X253903Y233076D01*
X254500Y232997D01*
Y235831D01*
D02*
G37*
G36*
X201466Y229106D02*
X200566D01*
X199733Y228762D01*
X199097Y228125D01*
X198752Y227293D01*
Y226392D01*
X199097Y225560D01*
X199733Y224923D01*
X200566Y224579D01*
X201466D01*
X202298Y224923D01*
X202935Y225560D01*
X203279Y226392D01*
Y227293D01*
X202935Y228125D01*
X202298Y228762D01*
X201466Y229106D01*
D02*
G37*
G36*
X187466D02*
X186565D01*
X185733Y228762D01*
X185097Y228125D01*
X184752Y227293D01*
Y226392D01*
X185097Y225560D01*
X185733Y224923D01*
X186565Y224579D01*
X187466D01*
X188298Y224923D01*
X188935Y225560D01*
X189279Y226392D01*
Y227293D01*
X188935Y228125D01*
X188298Y228762D01*
X187466Y229106D01*
D02*
G37*
G36*
X173466D02*
X172565D01*
X171733Y228762D01*
X171097Y228125D01*
X170752Y227293D01*
Y226392D01*
X171097Y225560D01*
X171733Y224923D01*
X172565Y224579D01*
X173466D01*
X174298Y224923D01*
X174935Y225560D01*
X175279Y226392D01*
Y227293D01*
X174935Y228125D01*
X174298Y228762D01*
X173466Y229106D01*
D02*
G37*
G36*
X256090Y230504D02*
X254909D01*
X253959Y230379D01*
X253073Y230012D01*
X252312Y229428D01*
X251728Y228667D01*
X251361Y227781D01*
X251236Y226831D01*
X251361Y225880D01*
X251728Y224994D01*
X252312Y224233D01*
X253073Y223650D01*
X253959Y223283D01*
X254909Y223158D01*
X256090D01*
X257041Y223283D01*
X257927Y223650D01*
X258688Y224233D01*
X259272Y224994D01*
X259639Y225880D01*
X259764Y226831D01*
X259639Y227781D01*
X259272Y228667D01*
X258688Y229428D01*
X257927Y230012D01*
X257041Y230379D01*
X256090Y230504D01*
D02*
G37*
G36*
X135450Y219270D02*
X134550D01*
X133718Y218925D01*
X133081Y218288D01*
X132736Y217456D01*
Y216556D01*
X133081Y215724D01*
X133718Y215087D01*
X134550Y214742D01*
X135450D01*
X136282Y215087D01*
X136919Y215724D01*
X137264Y216556D01*
Y217456D01*
X136919Y218288D01*
X136282Y218925D01*
X135450Y219270D01*
D02*
G37*
G36*
X114450D02*
X113550D01*
X112718Y218925D01*
X112081Y218288D01*
X111736Y217456D01*
Y216556D01*
X112081Y215724D01*
X112718Y215087D01*
X113550Y214742D01*
X114450D01*
X115282Y215087D01*
X115919Y215724D01*
X116264Y216556D01*
Y217456D01*
X115919Y218288D01*
X115282Y218925D01*
X114450Y219270D01*
D02*
G37*
G36*
X93450D02*
X92550D01*
X91718Y218925D01*
X91081Y218288D01*
X90736Y217456D01*
Y216556D01*
X91081Y215724D01*
X91718Y215087D01*
X92550Y214742D01*
X93450D01*
X94282Y215087D01*
X94919Y215724D01*
X95264Y216556D01*
Y217456D01*
X94919Y218288D01*
X94282Y218925D01*
X93450Y219270D01*
D02*
G37*
G36*
X72450D02*
X71550D01*
X70718Y218925D01*
X70081Y218288D01*
X69736Y217456D01*
Y216556D01*
X70081Y215724D01*
X70718Y215087D01*
X71550Y214742D01*
X72450D01*
X73282Y215087D01*
X73919Y215724D01*
X74264Y216556D01*
Y217456D01*
X73919Y218288D01*
X73282Y218925D01*
X72450Y219270D01*
D02*
G37*
G36*
X256090Y220504D02*
X254909D01*
X253959Y220379D01*
X253073Y220012D01*
X252312Y219428D01*
X251728Y218667D01*
X251361Y217781D01*
X251236Y216831D01*
X251361Y215880D01*
X251728Y214994D01*
X252312Y214233D01*
X253073Y213650D01*
X253959Y213283D01*
X254909Y213158D01*
X256090D01*
X257041Y213283D01*
X257927Y213650D01*
X258688Y214233D01*
X259272Y214994D01*
X259639Y215880D01*
X259764Y216831D01*
X259639Y217781D01*
X259272Y218667D01*
X258688Y219428D01*
X257927Y220012D01*
X257041Y220379D01*
X256090Y220504D01*
D02*
G37*
G36*
Y210504D02*
X254909D01*
X253959Y210379D01*
X253073Y210012D01*
X252312Y209428D01*
X251728Y208667D01*
X251361Y207781D01*
X251236Y206831D01*
X251361Y205880D01*
X251728Y204994D01*
X252312Y204233D01*
X253073Y203650D01*
X253959Y203283D01*
X254909Y203158D01*
X256090D01*
X257041Y203283D01*
X257927Y203650D01*
X258688Y204233D01*
X259272Y204994D01*
X259639Y205880D01*
X259764Y206831D01*
X259639Y207781D01*
X259272Y208667D01*
X258688Y209428D01*
X257927Y210012D01*
X257041Y210379D01*
X256090Y210504D01*
D02*
G37*
G36*
X191523Y204937D02*
X188953D01*
Y204762D01*
X182440D01*
Y204724D01*
X178120D01*
Y202434D01*
X175479D01*
X174994Y202918D01*
X174254Y203346D01*
X173428Y203567D01*
X172572D01*
X171746Y203346D01*
X171006Y202918D01*
X170401Y202313D01*
X169973Y201573D01*
X169752Y200746D01*
Y199891D01*
X169973Y199065D01*
X170401Y198325D01*
X171006Y197720D01*
X171746Y197292D01*
X172572Y197071D01*
X173428D01*
X174254Y197292D01*
X174994Y197720D01*
X175554Y198279D01*
X178120D01*
Y196063D01*
X180387D01*
Y193790D01*
X180387Y193790D01*
X180526Y193093D01*
X180921Y192501D01*
X181437Y191985D01*
Y191424D01*
X181372D01*
Y184249D01*
X181500D01*
Y182413D01*
X181372D01*
Y175238D01*
X181372Y175238D01*
X181372D01*
X181329Y174906D01*
X180189Y173766D01*
X179794Y173175D01*
X179655Y172477D01*
X179655Y172477D01*
Y171661D01*
X178120D01*
Y169333D01*
X175516D01*
X174994Y169855D01*
X174254Y170283D01*
X173428Y170504D01*
X172572D01*
X171746Y170283D01*
X171006Y169855D01*
X170401Y169250D01*
X169973Y168510D01*
X169752Y167683D01*
Y166828D01*
X169973Y166002D01*
X170401Y165262D01*
X171006Y164657D01*
X171746Y164229D01*
X172572Y164008D01*
X173428D01*
X174254Y164229D01*
X174994Y164657D01*
X175516Y165179D01*
X178120D01*
Y163000D01*
X182477D01*
Y162925D01*
X188953D01*
Y162787D01*
X191523D01*
Y162925D01*
X191706D01*
Y167331D01*
Y171736D01*
X191523D01*
Y171874D01*
X188953D01*
Y171736D01*
X183771D01*
X183637Y172060D01*
X184548Y172971D01*
X184548Y172971D01*
X184943Y173562D01*
X185082Y174260D01*
Y175238D01*
X185147D01*
Y175466D01*
X185471Y175600D01*
X185718Y175353D01*
X186550Y175008D01*
X187450D01*
X188282Y175353D01*
X188529Y175600D01*
X188853Y175466D01*
Y175238D01*
X192628D01*
Y182413D01*
X192000D01*
Y184249D01*
X192628D01*
Y186269D01*
X206014D01*
X212299Y179985D01*
Y168721D01*
X211947Y168369D01*
X211602Y167537D01*
Y166636D01*
X211947Y165804D01*
X212584Y165167D01*
X213416Y164823D01*
X214316D01*
X215148Y165167D01*
X215785Y165804D01*
X216130Y166636D01*
Y167537D01*
X215785Y168369D01*
X215434Y168721D01*
Y180634D01*
X215314Y181234D01*
X214974Y181742D01*
X207772Y188945D01*
X207264Y189284D01*
X206664Y189404D01*
X192628D01*
Y191424D01*
X189100D01*
Y191636D01*
X188000D01*
Y187836D01*
X186000D01*
Y191636D01*
X185082D01*
Y192740D01*
X185082Y192740D01*
X184943Y193438D01*
X184548Y194029D01*
X184032Y194545D01*
Y195951D01*
X188953D01*
Y195850D01*
X191523D01*
Y195951D01*
X191668D01*
Y200394D01*
Y204762D01*
X191523D01*
Y204937D01*
D02*
G37*
G36*
X196093D02*
X193523D01*
Y201394D01*
X196093D01*
Y204937D01*
D02*
G37*
G36*
X74892Y198969D02*
X74108D01*
X73756Y198822D01*
X62500D01*
X62500Y198822D01*
X61803Y198684D01*
X61211Y198289D01*
X61211Y198289D01*
X37238Y174315D01*
X36885Y174169D01*
X36331Y173615D01*
X36031Y172892D01*
Y172108D01*
X36331Y171385D01*
X36885Y170831D01*
X37608Y170531D01*
X38392D01*
X39115Y170831D01*
X39669Y171385D01*
X39815Y171738D01*
X63255Y195178D01*
X73756D01*
X74108Y195031D01*
X74892D01*
X75615Y195331D01*
X76169Y195885D01*
X76468Y196608D01*
Y197392D01*
X76169Y198115D01*
X75615Y198669D01*
X74892Y198969D01*
D02*
G37*
G36*
X230950Y202764D02*
X230050D01*
X229218Y202419D01*
X228581Y201782D01*
X228236Y200950D01*
Y200050D01*
X228581Y199218D01*
X229218Y198581D01*
X230050Y198236D01*
X230950D01*
X231782Y198581D01*
X232419Y199218D01*
X232764Y200050D01*
Y200950D01*
X232419Y201782D01*
X231782Y202419D01*
X230950Y202764D01*
D02*
G37*
G36*
X196093Y199394D02*
X193523D01*
Y195850D01*
X196093D01*
Y199394D01*
D02*
G37*
G36*
X53149Y214221D02*
X52268D01*
X51417Y213993D01*
X50654Y213552D01*
X50030Y212929D01*
X49590Y212166D01*
X49362Y211315D01*
Y210434D01*
X49590Y209583D01*
X50030Y208820D01*
X50654Y208196D01*
X51417Y207756D01*
X52268Y207528D01*
X53149D01*
X54000Y207756D01*
X54763Y208196D01*
X55386Y208820D01*
X55446Y208923D01*
X59530D01*
X59636Y208573D01*
X59211Y208289D01*
X59211Y208289D01*
X25238Y174315D01*
X24885Y174169D01*
X24331Y173615D01*
X24032Y172892D01*
Y172108D01*
X24331Y171385D01*
X24885Y170831D01*
X25608Y170531D01*
X26392D01*
X27115Y170831D01*
X27669Y171385D01*
X27815Y171738D01*
X61255Y205178D01*
X73756D01*
X74108Y205031D01*
X74892D01*
X75615Y205331D01*
X76169Y205885D01*
X76468Y206608D01*
Y207392D01*
X76169Y208115D01*
X75711Y208573D01*
X75847Y208923D01*
X91653D01*
X98926Y201649D01*
Y196201D01*
X104320D01*
Y196982D01*
X109678D01*
X109719Y196928D01*
X109840Y196593D01*
X109472Y196273D01*
X109455Y196251D01*
X109432Y196236D01*
X109360Y196128D01*
X109281Y196025D01*
X109274Y195998D01*
X109258Y195975D01*
X109233Y195848D01*
X109199Y195723D01*
X109203Y195695D01*
X109197Y195668D01*
Y194830D01*
X108847Y194724D01*
X108635Y195041D01*
X108115Y195389D01*
X107500Y195511D01*
X106886Y195389D01*
X106365Y195041D01*
X106017Y194520D01*
X105894Y193905D01*
Y192396D01*
X105500D01*
Y192183D01*
X102724D01*
X102580Y192398D01*
X102320Y192572D01*
X102013Y192633D01*
X96093D01*
X95880Y192808D01*
Y193661D01*
X91706D01*
Y193736D01*
X85047D01*
Y193874D01*
X82477D01*
Y189331D01*
Y184787D01*
X85047D01*
Y184925D01*
X86197D01*
Y163756D01*
X86258Y163449D01*
X86432Y163188D01*
X86693Y163014D01*
X87000Y162953D01*
X98764D01*
X99071Y163014D01*
X99256Y163138D01*
X104370D01*
Y163919D01*
X110630D01*
Y163138D01*
X115744D01*
X115929Y163014D01*
X116236Y162953D01*
X119264D01*
X119571Y163014D01*
X119756Y163138D01*
X124870D01*
Y163919D01*
X130917D01*
Y162925D01*
X132827D01*
Y167331D01*
Y171736D01*
X130917D01*
Y170693D01*
X126803D01*
Y173919D01*
X131130D01*
Y173138D01*
X136524D01*
Y175688D01*
X158248D01*
X158599Y175337D01*
X159432Y174992D01*
X160332D01*
X161164Y175337D01*
X161801Y175974D01*
X162146Y176806D01*
Y177706D01*
X161801Y178538D01*
X161164Y179175D01*
X160332Y179520D01*
X159432D01*
X158599Y179175D01*
X158248Y178823D01*
X136524D01*
Y181524D01*
X132986D01*
X130072Y184437D01*
X130217Y184787D01*
X132523D01*
Y184925D01*
X132705D01*
Y189331D01*
Y193736D01*
X132523D01*
Y193874D01*
X129953D01*
Y193736D01*
X126916D01*
X126803Y193874D01*
Y203756D01*
X126742Y204063D01*
X126568Y204324D01*
X126307Y204498D01*
X126000Y204559D01*
X116186D01*
X116042Y204530D01*
X115974Y204587D01*
Y204587D01*
X110580D01*
Y203756D01*
X104320D01*
Y204587D01*
X101864D01*
X93982Y212469D01*
X93308Y212919D01*
X92513Y213077D01*
X55238D01*
X54763Y213552D01*
X54000Y213993D01*
X53149Y214221D01*
D02*
G37*
G36*
X256090Y200504D02*
X254909D01*
X253959Y200379D01*
X253073Y200012D01*
X252312Y199428D01*
X251728Y198667D01*
X251361Y197781D01*
X251236Y196831D01*
X251361Y195880D01*
X251728Y194994D01*
X252312Y194233D01*
X253073Y193650D01*
X253959Y193283D01*
X254909Y193158D01*
X256090D01*
X257041Y193283D01*
X257927Y193650D01*
X258688Y194233D01*
X259272Y194994D01*
X259639Y195880D01*
X259764Y196831D01*
X259639Y197781D01*
X259272Y198667D01*
X258688Y199428D01*
X257927Y200012D01*
X257041Y200379D01*
X256090Y200504D01*
D02*
G37*
G36*
X137093Y193874D02*
X134523D01*
Y190331D01*
X137093D01*
Y193874D01*
D02*
G37*
G36*
X80477D02*
X77907D01*
Y190331D01*
X80477D01*
Y193874D01*
D02*
G37*
G36*
X137093Y188331D02*
X134523D01*
Y184787D01*
X137093D01*
Y188331D01*
D02*
G37*
G36*
X80477D02*
X77907D01*
Y184787D01*
X80477D01*
Y188331D01*
D02*
G37*
G36*
X256090Y190504D02*
X254909D01*
X253959Y190379D01*
X253073Y190012D01*
X252312Y189428D01*
X251728Y188667D01*
X251361Y187781D01*
X251236Y186831D01*
X251361Y185880D01*
X251728Y184994D01*
X252312Y184233D01*
X253073Y183650D01*
X253959Y183283D01*
X254909Y183158D01*
X256090D01*
X257041Y183283D01*
X257927Y183650D01*
X258688Y184233D01*
X259272Y184994D01*
X259639Y185880D01*
X259764Y186831D01*
X259639Y187781D01*
X259272Y188667D01*
X258688Y189428D01*
X257927Y190012D01*
X257041Y190379D01*
X256090Y190504D01*
D02*
G37*
G36*
X198950Y179264D02*
X198050D01*
X197218Y178919D01*
X196581Y178282D01*
X196236Y177450D01*
Y176550D01*
X196581Y175718D01*
X197218Y175081D01*
X198050Y174736D01*
X198950D01*
X199782Y175081D01*
X200419Y175718D01*
X200764Y176550D01*
Y177450D01*
X200419Y178282D01*
X199782Y178919D01*
X198950Y179264D01*
D02*
G37*
G36*
X256090Y180504D02*
X254909D01*
X253959Y180379D01*
X253073Y180012D01*
X252312Y179428D01*
X251728Y178667D01*
X251361Y177781D01*
X251236Y176831D01*
X251361Y175880D01*
X251728Y174994D01*
X252312Y174233D01*
X253073Y173650D01*
X253959Y173283D01*
X254909Y173158D01*
X256090D01*
X257041Y173283D01*
X257927Y173650D01*
X258688Y174233D01*
X259272Y174994D01*
X259639Y175880D01*
X259764Y176831D01*
X259639Y177781D01*
X259272Y178667D01*
X258688Y179428D01*
X257927Y180012D01*
X257041Y180379D01*
X256090Y180504D01*
D02*
G37*
G36*
X136736Y171736D02*
X134827D01*
Y168331D01*
X136736D01*
Y171736D01*
D02*
G37*
G36*
X196093Y171874D02*
X193523D01*
Y168331D01*
X196093D01*
Y171874D01*
D02*
G37*
G36*
X242950Y289595D02*
X242050D01*
X241218Y289250D01*
X241121Y289153D01*
X221831D01*
X221133Y289014D01*
X220542Y288619D01*
X220542Y288619D01*
X212578Y280655D01*
X212182Y280064D01*
X212044Y279366D01*
X212044Y279366D01*
Y268952D01*
X207906D01*
Y277827D01*
X207693D01*
Y281524D01*
X199307D01*
Y280904D01*
X196297D01*
X196282Y280919D01*
X195450Y281264D01*
X194550D01*
X193718Y280919D01*
X193081Y280282D01*
X192736Y279450D01*
Y278550D01*
X193081Y277718D01*
X193718Y277081D01*
X194550Y276736D01*
X195450D01*
X195482Y276749D01*
X199094D01*
Y268598D01*
X199307D01*
Y264476D01*
X207693D01*
Y265307D01*
X212444D01*
X212584Y265167D01*
X213416Y264823D01*
X214316D01*
X215148Y265167D01*
X215441Y265460D01*
X215785Y265804D01*
X216130Y266636D01*
Y267537D01*
X215785Y268369D01*
X215689Y268466D01*
Y278611D01*
X222586Y285508D01*
X240678D01*
Y195331D01*
Y168210D01*
X240581Y168113D01*
X240236Y167281D01*
Y166380D01*
X240581Y165548D01*
X241218Y164912D01*
X242050Y164567D01*
X242950D01*
X243782Y164912D01*
X244419Y165548D01*
X244764Y166380D01*
Y167281D01*
X244419Y168113D01*
X244322Y168210D01*
Y195331D01*
Y285952D01*
X244419Y286048D01*
X244764Y286880D01*
Y287331D01*
Y287781D01*
X244419Y288613D01*
X243782Y289250D01*
X242950Y289595D01*
D02*
G37*
G36*
X256090Y170504D02*
X254909D01*
X253959Y170379D01*
X253073Y170012D01*
X252312Y169428D01*
X251728Y168667D01*
X251361Y167781D01*
X251236Y166831D01*
X251361Y165880D01*
X251728Y164994D01*
X252312Y164233D01*
X253073Y163650D01*
X253959Y163283D01*
X254909Y163158D01*
X256090D01*
X257041Y163283D01*
X257927Y163650D01*
X258688Y164233D01*
X259272Y164994D01*
X259639Y165880D01*
X259764Y166831D01*
X259639Y167781D01*
X259272Y168667D01*
X258688Y169428D01*
X257927Y170012D01*
X257041Y170379D01*
X256090Y170504D01*
D02*
G37*
G36*
X136736Y166331D02*
X134827D01*
Y162925D01*
X136736D01*
Y166331D01*
D02*
G37*
G36*
X196093D02*
X193523D01*
Y162787D01*
X196093D01*
Y166331D01*
D02*
G37*
G36*
X224450Y159264D02*
X223550D01*
X222718Y158919D01*
X222081Y158282D01*
X221736Y157450D01*
Y156550D01*
X222081Y155718D01*
X222718Y155081D01*
X223550Y154736D01*
X224450D01*
X225282Y155081D01*
X225919Y155718D01*
X226264Y156550D01*
Y157450D01*
X225919Y158282D01*
X225282Y158919D01*
X224450Y159264D01*
D02*
G37*
G36*
X242950Y159095D02*
X242050D01*
X241218Y158750D01*
X240581Y158113D01*
X240236Y157281D01*
Y156380D01*
X240581Y155548D01*
X241218Y154912D01*
X242050Y154567D01*
X242950D01*
X243782Y154912D01*
X244419Y155548D01*
X244764Y156380D01*
Y157281D01*
X244419Y158113D01*
X243782Y158750D01*
X242950Y159095D01*
D02*
G37*
G36*
X198950D02*
X198050D01*
X197218Y158750D01*
X196581Y158113D01*
X196236Y157281D01*
Y156380D01*
X196581Y155548D01*
X197218Y154912D01*
X198050Y154567D01*
X198950D01*
X199782Y154912D01*
X200419Y155548D01*
X200764Y156380D01*
Y157281D01*
X200419Y158113D01*
X199782Y158750D01*
X198950Y159095D01*
D02*
G37*
G36*
X187450D02*
X186550D01*
X185718Y158750D01*
X185081Y158113D01*
X184736Y157281D01*
Y156380D01*
X185081Y155548D01*
X185718Y154912D01*
X186550Y154567D01*
X187450D01*
X188282Y154912D01*
X188919Y155548D01*
X189264Y156380D01*
Y157281D01*
X188919Y158113D01*
X188282Y158750D01*
X187450Y159095D01*
D02*
G37*
G36*
X38392Y157968D02*
X37608D01*
X36885Y157669D01*
X36331Y157115D01*
X36031Y156392D01*
Y155608D01*
X36331Y154885D01*
X36885Y154331D01*
X37608Y154032D01*
X38392D01*
X39115Y154331D01*
X39669Y154885D01*
X39968Y155608D01*
Y156392D01*
X39669Y157115D01*
X39115Y157669D01*
X38392Y157968D01*
D02*
G37*
G36*
X256090Y160504D02*
X254909D01*
X253959Y160379D01*
X253073Y160012D01*
X252312Y159428D01*
X251728Y158667D01*
X251361Y157781D01*
X251236Y156831D01*
X251361Y155880D01*
X251728Y154994D01*
X252312Y154233D01*
X253073Y153650D01*
X253959Y153283D01*
X254909Y153158D01*
X256090D01*
X257041Y153283D01*
X257927Y153650D01*
X258688Y154233D01*
X259272Y154994D01*
X259639Y155880D01*
X259764Y156831D01*
X259639Y157781D01*
X259272Y158667D01*
X258688Y159428D01*
X257927Y160012D01*
X257041Y160379D01*
X256090Y160504D01*
D02*
G37*
G36*
X101169Y155520D02*
X100268D01*
X99436Y155175D01*
X98799Y154538D01*
X98455Y153706D01*
Y152806D01*
X98799Y151974D01*
X99436Y151337D01*
X100268Y150992D01*
X101169D01*
X102001Y151337D01*
X102638Y151974D01*
X102982Y152806D01*
Y153706D01*
X102638Y154538D01*
X102001Y155175D01*
X101169Y155520D01*
D02*
G37*
G36*
X88950D02*
X88050D01*
X87218Y155175D01*
X86581Y154538D01*
X86236Y153706D01*
Y152806D01*
X86581Y151974D01*
X87218Y151337D01*
X88050Y150992D01*
X88950D01*
X89782Y151337D01*
X90419Y151974D01*
X90764Y152806D01*
Y153706D01*
X90419Y154538D01*
X89782Y155175D01*
X88950Y155520D01*
D02*
G37*
G36*
X237950Y149264D02*
X237050D01*
X236218Y148919D01*
X235581Y148282D01*
X235236Y147450D01*
Y146550D01*
X235581Y145718D01*
X236218Y145081D01*
X237050Y144736D01*
X237950D01*
X238782Y145081D01*
X239419Y145718D01*
X239764Y146550D01*
Y147450D01*
X239419Y148282D01*
X238782Y148919D01*
X237950Y149264D01*
D02*
G37*
G36*
X256090Y150504D02*
X254909D01*
X253959Y150379D01*
X253073Y150012D01*
X252312Y149428D01*
X251728Y148667D01*
X251361Y147781D01*
X251236Y146831D01*
X251361Y145880D01*
X251728Y144994D01*
X252312Y144233D01*
X253073Y143650D01*
X253959Y143283D01*
X254909Y143158D01*
X256090D01*
X257041Y143283D01*
X257927Y143650D01*
X258688Y144233D01*
X259272Y144994D01*
X259639Y145880D01*
X259764Y146831D01*
X259639Y147781D01*
X259272Y148667D01*
X258688Y149428D01*
X257927Y150012D01*
X257041Y150379D01*
X256090Y150504D01*
D02*
G37*
G36*
X101169Y144595D02*
X100268D01*
X99436Y144250D01*
X98799Y143613D01*
X98455Y142781D01*
Y141880D01*
X98799Y141048D01*
X99436Y140412D01*
X100268Y140067D01*
X101169D01*
X102001Y140412D01*
X102638Y141048D01*
X102982Y141880D01*
Y142781D01*
X102638Y143613D01*
X102001Y144250D01*
X101169Y144595D01*
D02*
G37*
G36*
X88950D02*
X88050D01*
X87218Y144250D01*
X86581Y143613D01*
X86236Y142781D01*
Y141880D01*
X86581Y141048D01*
X87218Y140412D01*
X88050Y140067D01*
X88950D01*
X89782Y140412D01*
X90419Y141048D01*
X90764Y141880D01*
Y142781D01*
X90419Y143613D01*
X89782Y144250D01*
X88950Y144595D01*
D02*
G37*
G36*
X124950Y144020D02*
X124050D01*
X123218Y143675D01*
X122581Y143038D01*
X122236Y142206D01*
Y141306D01*
X122581Y140474D01*
X123218Y139837D01*
X124050Y139492D01*
X124950D01*
X125782Y139837D01*
X126419Y140474D01*
X126764Y141306D01*
Y142206D01*
X126419Y143038D01*
X125782Y143675D01*
X124950Y144020D01*
D02*
G37*
G36*
X29950Y139764D02*
X29050D01*
X28218Y139419D01*
X27581Y138782D01*
X27236Y137950D01*
Y137050D01*
X27581Y136218D01*
X28218Y135581D01*
X29050Y135236D01*
X29950D01*
X30782Y135581D01*
X31419Y136218D01*
X31764Y137050D01*
Y137950D01*
X31419Y138782D01*
X30782Y139419D01*
X29950Y139764D01*
D02*
G37*
G36*
X256090Y140504D02*
X254909D01*
X253959Y140379D01*
X253073Y140012D01*
X252312Y139428D01*
X251728Y138667D01*
X251361Y137781D01*
X251236Y136831D01*
X251361Y135880D01*
X251728Y134994D01*
X252312Y134233D01*
X253073Y133650D01*
X253959Y133283D01*
X254909Y133158D01*
X256090D01*
X257041Y133283D01*
X257927Y133650D01*
X258688Y134233D01*
X259272Y134994D01*
X259639Y135880D01*
X259764Y136831D01*
X259639Y137781D01*
X259272Y138667D01*
X258688Y139428D01*
X257927Y140012D01*
X257041Y140379D01*
X256090Y140504D01*
D02*
G37*
G36*
X36869Y135307D02*
X36013D01*
X35187Y135086D01*
X34447Y134658D01*
X33842Y134053D01*
X33414Y133313D01*
X33193Y132487D01*
Y131631D01*
X33414Y130805D01*
X33842Y130065D01*
X34447Y129460D01*
X35187Y129032D01*
X35392Y128978D01*
X35346Y128628D01*
X22247D01*
X22247Y128628D01*
X22150Y128608D01*
X21980Y128738D01*
X21310Y129016D01*
X20591Y129110D01*
Y129456D01*
X21310Y129551D01*
X21980Y129829D01*
X22556Y130271D01*
X22998Y130846D01*
X23276Y131517D01*
X23370Y132236D01*
X23276Y132956D01*
X22998Y133626D01*
X22556Y134202D01*
X21980Y134643D01*
X21310Y134921D01*
X20591Y135016D01*
X19410D01*
X18690Y134921D01*
X18020Y134643D01*
X17444Y134202D01*
X17002Y133626D01*
X16725Y132956D01*
X16630Y132236D01*
X16725Y131517D01*
X17002Y130846D01*
X17444Y130271D01*
X18020Y129829D01*
X18690Y129551D01*
X19409Y129456D01*
Y129110D01*
X18690Y129016D01*
X18020Y128738D01*
X17444Y128296D01*
X17002Y127721D01*
X16725Y127050D01*
X16630Y126331D01*
X16725Y125611D01*
X17002Y124941D01*
X17444Y124365D01*
X18020Y123923D01*
X18690Y123646D01*
X19409Y123551D01*
Y123205D01*
X18690Y123110D01*
X18020Y122833D01*
X17444Y122391D01*
X17002Y121815D01*
X16725Y121145D01*
X16630Y120425D01*
X16725Y119706D01*
X17002Y119035D01*
X17444Y118460D01*
X18020Y118018D01*
X18632Y117764D01*
X18657Y117548D01*
X18647Y117483D01*
X18621Y117406D01*
X17912Y117113D01*
X17292Y116637D01*
X16816Y116017D01*
X16611Y115520D01*
X20000D01*
X23389D01*
X23183Y116017D01*
X22708Y116637D01*
X22088Y117113D01*
X21378Y117406D01*
X21353Y117483D01*
X21342Y117548D01*
X21368Y117764D01*
X21980Y118018D01*
X22125Y118129D01*
X22247Y118105D01*
X22247Y118105D01*
X98836D01*
X99006Y117755D01*
X98750Y117138D01*
Y116355D01*
X99050Y115631D01*
X99603Y115077D01*
X100327Y114778D01*
X101110D01*
X101834Y115077D01*
X102387Y115631D01*
X102687Y116355D01*
Y117138D01*
X102431Y117755D01*
X102601Y118105D01*
X111055D01*
X111224Y117755D01*
X110968Y117138D01*
Y116355D01*
X111268Y115631D01*
X111822Y115077D01*
X112545Y114778D01*
X113329D01*
X114052Y115077D01*
X114606Y115631D01*
X114906Y116355D01*
Y117138D01*
X114650Y117755D01*
X114820Y118105D01*
X122617D01*
X122787Y117755D01*
X122531Y117138D01*
Y116355D01*
X122831Y115631D01*
X123385Y115077D01*
X124108Y114778D01*
X124892D01*
X125615Y115077D01*
X126169Y115631D01*
X126469Y116355D01*
Y117138D01*
X126213Y117755D01*
X126383Y118105D01*
X128818D01*
X130973Y115950D01*
Y59724D01*
X129646D01*
Y50276D01*
X135945D01*
Y59724D01*
X134618D01*
Y68617D01*
X134968Y68787D01*
X135585Y68532D01*
X136368D01*
X137092Y68831D01*
X137645Y69385D01*
X137945Y70108D01*
Y70892D01*
X137645Y71615D01*
X137092Y72169D01*
X136368Y72469D01*
X135585D01*
X134968Y72213D01*
X134618Y72382D01*
Y116705D01*
X134479Y117402D01*
X134084Y117993D01*
X134084Y117993D01*
X130861Y121216D01*
X130270Y121611D01*
X129573Y121750D01*
X129573Y121750D01*
X23025D01*
X22998Y121815D01*
X22556Y122391D01*
X21980Y122833D01*
X21310Y123110D01*
X20591Y123205D01*
Y123551D01*
X21310Y123646D01*
X21980Y123923D01*
X22556Y124365D01*
X22998Y124941D01*
X23015Y124983D01*
X131940D01*
X140973Y115950D01*
Y72924D01*
X139646D01*
Y63476D01*
X145945D01*
Y72924D01*
X144618D01*
Y116705D01*
X144479Y117402D01*
X144084Y117993D01*
X144084Y117993D01*
X133984Y128094D01*
X133392Y128489D01*
X132695Y128628D01*
X132695Y128628D01*
X37536D01*
X37490Y128978D01*
X37695Y129032D01*
X38435Y129460D01*
X39040Y130065D01*
X39468Y130805D01*
X39689Y131631D01*
Y132487D01*
X39468Y133313D01*
X39040Y134053D01*
X38435Y134658D01*
X37695Y135086D01*
X36869Y135307D01*
D02*
G37*
G36*
X150892Y128969D02*
X150108D01*
X149385Y128669D01*
X148831Y128115D01*
X148531Y127392D01*
Y126608D01*
X148831Y125885D01*
X149385Y125331D01*
X150108Y125031D01*
X150892D01*
X151615Y125331D01*
X152169Y125885D01*
X152469Y126608D01*
Y127392D01*
X152169Y128115D01*
X151615Y128669D01*
X150892Y128969D01*
D02*
G37*
G36*
X173392Y128724D02*
X172608D01*
X171885Y128425D01*
X171331Y127871D01*
X171031Y127147D01*
Y126364D01*
X171331Y125641D01*
X171885Y125087D01*
X172608Y124787D01*
X173392D01*
X174115Y125087D01*
X174669Y125641D01*
X174969Y126364D01*
Y127147D01*
X174669Y127871D01*
X174115Y128425D01*
X173392Y128724D01*
D02*
G37*
G36*
X201941Y130102D02*
X201059D01*
X200208Y129874D01*
X199445Y129434D01*
X198822Y128811D01*
X198382Y128048D01*
X198153Y127197D01*
Y126315D01*
X198382Y125464D01*
X198822Y124701D01*
X199445Y124078D01*
X200208Y123637D01*
X201059Y123409D01*
X201941D01*
X202792Y123637D01*
X203555Y124078D01*
X204178Y124701D01*
X204618Y125464D01*
X204846Y126315D01*
Y127197D01*
X204618Y128048D01*
X204178Y128811D01*
X203555Y129434D01*
X202792Y129874D01*
X201941Y130102D01*
D02*
G37*
G36*
X256090Y130504D02*
X254909D01*
X253959Y130379D01*
X253073Y130012D01*
X252312Y129428D01*
X251728Y128667D01*
X251361Y127781D01*
X251236Y126831D01*
X251361Y125880D01*
X251728Y124994D01*
X252312Y124233D01*
X253073Y123650D01*
X253959Y123283D01*
X254909Y123158D01*
X256090D01*
X257041Y123283D01*
X257927Y123650D01*
X258688Y124233D01*
X259272Y124994D01*
X259639Y125880D01*
X259764Y126831D01*
X259639Y127781D01*
X259272Y128667D01*
X258688Y129428D01*
X257927Y130012D01*
X257041Y130379D01*
X256090Y130504D01*
D02*
G37*
G36*
X173392Y121968D02*
X172608D01*
X171885Y121669D01*
X171331Y121115D01*
X171031Y120392D01*
Y119608D01*
X171331Y118885D01*
X171885Y118331D01*
X172608Y118032D01*
X173392D01*
X174115Y118331D01*
X174669Y118885D01*
X174969Y119608D01*
Y120392D01*
X174669Y121115D01*
X174115Y121669D01*
X173392Y121968D01*
D02*
G37*
G36*
X201950Y121264D02*
X201050D01*
X200218Y120919D01*
X199581Y120282D01*
X199236Y119450D01*
Y118550D01*
X199581Y117718D01*
X200218Y117081D01*
X201050Y116736D01*
X201950D01*
X202782Y117081D01*
X203419Y117718D01*
X203764Y118550D01*
Y119450D01*
X203419Y120282D01*
X202782Y120919D01*
X201950Y121264D01*
D02*
G37*
G36*
X160273Y119968D02*
X159490D01*
X158767Y119669D01*
X158213Y119115D01*
X157913Y118392D01*
Y117608D01*
X158213Y116885D01*
X158767Y116331D01*
X159490Y116032D01*
X160273D01*
X160997Y116331D01*
X161551Y116885D01*
X161850Y117608D01*
Y118392D01*
X161551Y119115D01*
X160997Y119669D01*
X160273Y119968D01*
D02*
G37*
G36*
X256090Y120504D02*
X254909D01*
X253959Y120379D01*
X253073Y120012D01*
X252312Y119428D01*
X251728Y118667D01*
X251361Y117781D01*
X251236Y116831D01*
X251361Y115880D01*
X251728Y114994D01*
X252312Y114233D01*
X253073Y113650D01*
X253959Y113283D01*
X254909Y113158D01*
X256090D01*
X257041Y113283D01*
X257927Y113650D01*
X258688Y114233D01*
X259272Y114994D01*
X259639Y115880D01*
X259764Y116831D01*
X259639Y117781D01*
X259272Y118667D01*
X258688Y119428D01*
X257927Y120012D01*
X257041Y120379D01*
X256090Y120504D01*
D02*
G37*
G36*
X23389Y113520D02*
X20000D01*
X16611D01*
X16816Y113023D01*
X17292Y112402D01*
X17912Y111927D01*
X18324Y111756D01*
Y111378D01*
X17912Y111207D01*
X17292Y110731D01*
X16816Y110111D01*
X16611Y109614D01*
X20000D01*
X23389D01*
X23183Y110111D01*
X22708Y110731D01*
X22088Y111207D01*
X21676Y111378D01*
Y111756D01*
X22088Y111927D01*
X22708Y112402D01*
X23183Y113023D01*
X23389Y113520D01*
D02*
G37*
G36*
X44950Y113264D02*
X44050D01*
X43218Y112919D01*
X42581Y112282D01*
X42236Y111450D01*
Y110550D01*
X42581Y109718D01*
X43218Y109081D01*
X44050Y108736D01*
X44950D01*
X45782Y109081D01*
X46419Y109718D01*
X46764Y110550D01*
Y111450D01*
X46419Y112282D01*
X45782Y112919D01*
X44950Y113264D01*
D02*
G37*
G36*
X255950Y110594D02*
X255050D01*
X254218Y110250D01*
X253581Y109613D01*
X253236Y108781D01*
Y107880D01*
X253581Y107048D01*
X254218Y106412D01*
X255050Y106067D01*
X255950D01*
X256782Y106412D01*
X257419Y107048D01*
X257764Y107880D01*
Y108781D01*
X257419Y109613D01*
X256782Y110250D01*
X255950Y110594D01*
D02*
G37*
G36*
X23389Y107614D02*
X21000D01*
Y105674D01*
X21365Y105722D01*
X22088Y106021D01*
X22708Y106497D01*
X23183Y107117D01*
X23389Y107614D01*
D02*
G37*
G36*
X19000D02*
X16611D01*
X16816Y107117D01*
X17292Y106497D01*
X17912Y106021D01*
X18634Y105722D01*
X19000Y105674D01*
Y107614D01*
D02*
G37*
G36*
X220950Y129414D02*
X220050D01*
X219218Y129069D01*
X218581Y128432D01*
X218236Y127600D01*
Y126700D01*
X218581Y125868D01*
X218678Y125771D01*
Y109755D01*
X214738Y105815D01*
X214385Y105669D01*
X213831Y105115D01*
X213531Y104392D01*
Y103608D01*
X213831Y102885D01*
X214385Y102331D01*
X215108Y102032D01*
X215892D01*
X216615Y102331D01*
X217169Y102885D01*
X217315Y103238D01*
X221789Y107711D01*
X221789Y107711D01*
X222184Y108303D01*
X222322Y109000D01*
X222322Y109000D01*
Y125771D01*
X222419Y125868D01*
X222764Y126700D01*
Y127600D01*
X222419Y128432D01*
X221782Y129069D01*
X220950Y129414D01*
D02*
G37*
G36*
X35392Y102969D02*
X34608D01*
X33885Y102669D01*
X33331Y102115D01*
X33031Y101392D01*
Y100608D01*
X33331Y99885D01*
X33885Y99331D01*
X34608Y99032D01*
X35392D01*
X36115Y99331D01*
X36669Y99885D01*
X36968Y100608D01*
Y101392D01*
X36669Y102115D01*
X36115Y102669D01*
X35392Y102969D01*
D02*
G37*
G36*
X65450Y103264D02*
X64550D01*
X63718Y102919D01*
X63081Y102282D01*
X62736Y101450D01*
Y100550D01*
X63081Y99718D01*
X63718Y99081D01*
X64550Y98736D01*
X65450D01*
X66282Y99081D01*
X66919Y99718D01*
X67264Y100550D01*
Y101450D01*
X66919Y102282D01*
X66282Y102919D01*
X65450Y103264D01*
D02*
G37*
G36*
X187450Y100520D02*
X186550D01*
X185718Y100175D01*
X185081Y99538D01*
X184736Y98706D01*
Y97806D01*
X185081Y96974D01*
X185718Y96337D01*
X186550Y95992D01*
X187450D01*
X188282Y96337D01*
X188919Y96974D01*
X189264Y97806D01*
Y98706D01*
X188919Y99538D01*
X188282Y100175D01*
X187450Y100520D01*
D02*
G37*
G36*
X124789Y100008D02*
X123889D01*
X123057Y99664D01*
X122420Y99027D01*
X122075Y98195D01*
Y97294D01*
X122420Y96462D01*
X123057Y95825D01*
X123889Y95481D01*
X124789D01*
X125621Y95825D01*
X126258Y96462D01*
X126603Y97294D01*
Y98195D01*
X126258Y99027D01*
X125621Y99664D01*
X124789Y100008D01*
D02*
G37*
G36*
X113387D02*
X112487D01*
X111655Y99664D01*
X111018Y99027D01*
X110673Y98195D01*
Y97294D01*
X111018Y96462D01*
X111655Y95825D01*
X112487Y95481D01*
X113387D01*
X114219Y95825D01*
X114856Y96462D01*
X115201Y97294D01*
Y98195D01*
X114856Y99027D01*
X114219Y99664D01*
X113387Y100008D01*
D02*
G37*
G36*
X20591Y97504D02*
X19410D01*
X18459Y97379D01*
X17573Y97012D01*
X16812Y96428D01*
X16228Y95667D01*
X15861Y94781D01*
X15736Y93831D01*
X15861Y92880D01*
X16228Y91994D01*
X16812Y91233D01*
X17573Y90650D01*
X18459Y90283D01*
X19410Y90158D01*
X20591D01*
X21541Y90283D01*
X22427Y90650D01*
X23188Y91233D01*
X23772Y91994D01*
X24138Y92880D01*
X24264Y93831D01*
X24138Y94781D01*
X23772Y95667D01*
X23188Y96428D01*
X22427Y97012D01*
X21541Y97379D01*
X20591Y97504D01*
D02*
G37*
G36*
X256500Y92164D02*
Y89331D01*
X259846D01*
X259846Y89337D01*
X259457Y90275D01*
X258840Y91080D01*
X258034Y91698D01*
X257097Y92086D01*
X256500Y92164D01*
D02*
G37*
G36*
X254500D02*
X253903Y92086D01*
X252966Y91698D01*
X252161Y91080D01*
X251543Y90275D01*
X251154Y89337D01*
X251153Y89331D01*
X254500D01*
Y92164D01*
D02*
G37*
G36*
X187450Y93764D02*
X186550D01*
X185718Y93419D01*
X185081Y92782D01*
X184736Y91950D01*
Y91050D01*
X185081Y90218D01*
X185718Y89581D01*
X186550Y89236D01*
X187450D01*
X188282Y89581D01*
X188919Y90218D01*
X189264Y91050D01*
Y91950D01*
X188919Y92782D01*
X188282Y93419D01*
X187450Y93764D01*
D02*
G37*
G36*
X80950Y92264D02*
X80050D01*
X79218Y91919D01*
X78581Y91282D01*
X78236Y90450D01*
Y89550D01*
X78581Y88718D01*
X79218Y88081D01*
X80050Y87736D01*
X80950D01*
X81782Y88081D01*
X82419Y88718D01*
X82764Y89550D01*
Y90450D01*
X82419Y91282D01*
X81782Y91919D01*
X80950Y92264D01*
D02*
G37*
G36*
X38331Y89961D02*
X29669D01*
Y88323D01*
X24562D01*
X23962Y88204D01*
X23454Y87864D01*
X22526Y86936D01*
X22427Y87012D01*
X21541Y87379D01*
X20591Y87504D01*
X19410D01*
X18459Y87379D01*
X17573Y87012D01*
X16812Y86428D01*
X16228Y85667D01*
X15861Y84781D01*
X15736Y83831D01*
X15861Y82880D01*
X16228Y81994D01*
X16812Y81233D01*
X17573Y80650D01*
X18459Y80283D01*
X19410Y80158D01*
X20591D01*
X21541Y80283D01*
X22427Y80650D01*
X23188Y81233D01*
X23772Y81994D01*
X24138Y82880D01*
X24264Y83831D01*
X24216Y84193D01*
X25212Y85188D01*
X29594D01*
Y79128D01*
X29457D01*
Y76558D01*
X29594D01*
Y76375D01*
X34000D01*
X38405D01*
Y76558D01*
X38543D01*
Y79128D01*
X38405D01*
Y85188D01*
X43595D01*
Y76679D01*
X43807D01*
Y72557D01*
X52193D01*
Y73648D01*
X68906D01*
X69218Y73337D01*
X70050Y72992D01*
X70950D01*
X71782Y73337D01*
X72419Y73974D01*
X72764Y74806D01*
Y75706D01*
X72419Y76538D01*
X71782Y77175D01*
X70950Y77520D01*
X70050D01*
X69218Y77175D01*
X68902Y76860D01*
X52406D01*
Y85908D01*
X52193D01*
Y89604D01*
X43807D01*
Y88323D01*
X38331D01*
Y89961D01*
D02*
G37*
G36*
X259846Y87331D02*
X256500D01*
Y84497D01*
X257097Y84576D01*
X258034Y84964D01*
X258840Y85582D01*
X259457Y86387D01*
X259846Y87325D01*
X259846Y87331D01*
D02*
G37*
G36*
X254500D02*
X251153D01*
X251154Y87325D01*
X251543Y86387D01*
X252161Y85582D01*
X252966Y84964D01*
X253903Y84576D01*
X254500Y84497D01*
Y87331D01*
D02*
G37*
G36*
X216420Y86253D02*
X215637D01*
X214913Y85953D01*
X214359Y85399D01*
X214060Y84676D01*
Y83893D01*
X214359Y83169D01*
X214913Y82615D01*
X215637Y82316D01*
X216420D01*
X217143Y82615D01*
X217697Y83169D01*
X217997Y83893D01*
Y84676D01*
X217697Y85399D01*
X217143Y85953D01*
X216420Y86253D01*
D02*
G37*
G36*
X123392Y80468D02*
X122608D01*
X121885Y80169D01*
X121331Y79615D01*
X121031Y78892D01*
Y78108D01*
X121331Y77385D01*
X121885Y76831D01*
X122608Y76531D01*
X123392D01*
X124115Y76831D01*
X124669Y77385D01*
X124969Y78108D01*
Y78892D01*
X124669Y79615D01*
X124115Y80169D01*
X123392Y80468D01*
D02*
G37*
G36*
X108223Y80405D02*
X107440D01*
X106716Y80106D01*
X106162Y79552D01*
X105863Y78829D01*
Y78045D01*
X106162Y77322D01*
X106716Y76768D01*
X107440Y76468D01*
X108223D01*
X108946Y76768D01*
X109500Y77322D01*
X109800Y78045D01*
Y78829D01*
X109500Y79552D01*
X108946Y80106D01*
X108223Y80405D01*
D02*
G37*
G36*
X21000Y77664D02*
Y74831D01*
X24347D01*
X24346Y74837D01*
X23957Y75775D01*
X23339Y76580D01*
X22534Y77197D01*
X21597Y77586D01*
X21000Y77664D01*
D02*
G37*
G36*
X19000D02*
X18403Y77586D01*
X17466Y77197D01*
X16660Y76580D01*
X16043Y75775D01*
X15654Y74837D01*
X15653Y74831D01*
X19000D01*
Y77664D01*
D02*
G37*
G36*
X208950Y100594D02*
X208050D01*
X207218Y100250D01*
X206581Y99613D01*
X206236Y98781D01*
Y97880D01*
X206581Y97048D01*
X206932Y96697D01*
Y81331D01*
X207052Y80731D01*
X207392Y80222D01*
X213468Y74146D01*
X213977Y73806D01*
X214577Y73686D01*
X221959D01*
Y72557D01*
X230345D01*
Y76679D01*
X230557D01*
Y85036D01*
X235595D01*
Y79128D01*
X235457D01*
Y76558D01*
X235595D01*
Y76375D01*
X240000D01*
X244406D01*
Y76558D01*
X244543D01*
Y79128D01*
X244406D01*
Y85036D01*
X245495D01*
X251348Y79183D01*
X251236Y78331D01*
X251361Y77380D01*
X251728Y76494D01*
X252312Y75733D01*
X253073Y75150D01*
X253959Y74783D01*
X254909Y74658D01*
X256090D01*
X257041Y74783D01*
X257927Y75150D01*
X258688Y75733D01*
X259272Y76494D01*
X259639Y77380D01*
X259764Y78331D01*
X259639Y79281D01*
X259272Y80167D01*
X258688Y80928D01*
X257927Y81512D01*
X257041Y81879D01*
X256090Y82004D01*
X254909D01*
X253959Y81879D01*
X253342Y81623D01*
X247253Y87712D01*
X246744Y88052D01*
X246145Y88171D01*
X244331D01*
Y89961D01*
X235669D01*
Y88171D01*
X230345D01*
Y89604D01*
X221959D01*
Y85908D01*
X221746D01*
Y76822D01*
X215226D01*
X210068Y81980D01*
Y96697D01*
X210419Y97048D01*
X210764Y97880D01*
Y98781D01*
X210419Y99613D01*
X209782Y100250D01*
X208950Y100594D01*
D02*
G37*
G36*
X244543Y74558D02*
X241000D01*
Y71988D01*
X244543D01*
Y74558D01*
D02*
G37*
G36*
X239000D02*
X235457D01*
Y71988D01*
X239000D01*
Y74558D01*
D02*
G37*
G36*
X38543D02*
X35000D01*
Y71988D01*
X38543D01*
Y74558D01*
D02*
G37*
G36*
X33000D02*
X29457D01*
Y71988D01*
X33000D01*
Y74558D01*
D02*
G37*
G36*
X24347Y72831D02*
X21000D01*
Y69997D01*
X21597Y70076D01*
X22534Y70464D01*
X23339Y71082D01*
X23957Y71887D01*
X24346Y72825D01*
X24347Y72831D01*
D02*
G37*
G36*
X19000D02*
X15653D01*
X15654Y72825D01*
X16043Y71887D01*
X16660Y71082D01*
X17466Y70464D01*
X18403Y70076D01*
X19000Y69997D01*
Y72831D01*
D02*
G37*
G36*
X126157Y73137D02*
X123795D01*
Y69200D01*
X126157D01*
Y73137D01*
D02*
G37*
G36*
X121795D02*
X119433D01*
Y69200D01*
X121795D01*
Y73137D01*
D02*
G37*
G36*
X152863Y73256D02*
X152137D01*
X151436Y73068D01*
X150808Y72705D01*
X150295Y72192D01*
X149932Y71564D01*
X149744Y70863D01*
Y70137D01*
X149932Y69436D01*
X150295Y68808D01*
X150808Y68295D01*
X151436Y67932D01*
X152137Y67744D01*
X152863D01*
X153564Y67932D01*
X154192Y68295D01*
X154705Y68808D01*
X155068Y69436D01*
X155256Y70137D01*
Y70863D01*
X155068Y71564D01*
X154705Y72192D01*
X154192Y72705D01*
X153564Y73068D01*
X152863Y73256D01*
D02*
G37*
G36*
X201863Y72256D02*
X201137D01*
X200436Y72068D01*
X199808Y71705D01*
X199295Y71192D01*
X198932Y70564D01*
X198744Y69863D01*
Y69137D01*
X198932Y68436D01*
X199295Y67808D01*
X199808Y67295D01*
X200436Y66932D01*
X201137Y66744D01*
X201863D01*
X202564Y66932D01*
X203192Y67295D01*
X203705Y67808D01*
X204068Y68436D01*
X204256Y69137D01*
Y69863D01*
X204068Y70564D01*
X203705Y71192D01*
X203192Y71705D01*
X202564Y72068D01*
X201863Y72256D01*
D02*
G37*
G36*
X256090Y72004D02*
X254909D01*
X253959Y71879D01*
X253073Y71512D01*
X252312Y70928D01*
X251728Y70167D01*
X251361Y69281D01*
X251236Y68331D01*
X251361Y67380D01*
X251728Y66494D01*
X252312Y65733D01*
X253073Y65150D01*
X253959Y64783D01*
X254909Y64658D01*
X256090D01*
X257041Y64783D01*
X257927Y65150D01*
X258688Y65733D01*
X259272Y66494D01*
X259639Y67380D01*
X259764Y68331D01*
X259639Y69281D01*
X259272Y70167D01*
X258688Y70928D01*
X257927Y71512D01*
X257041Y71879D01*
X256090Y72004D01*
D02*
G37*
G36*
X165945Y72924D02*
X159646D01*
Y63476D01*
X165945D01*
Y72924D01*
D02*
G37*
G36*
X126157Y67200D02*
X123795D01*
Y63263D01*
X126157D01*
Y67200D01*
D02*
G37*
G36*
X121795D02*
X119433D01*
Y63263D01*
X121795D01*
Y67200D01*
D02*
G37*
G36*
X36363Y64756D02*
X35637D01*
X34936Y64568D01*
X34308Y64205D01*
X33795Y63692D01*
X33432Y63064D01*
X33244Y62363D01*
Y61637D01*
X33432Y60936D01*
X33795Y60308D01*
X34308Y59795D01*
X34936Y59432D01*
X35637Y59244D01*
X36363D01*
X37064Y59432D01*
X37692Y59795D01*
X38205Y60308D01*
X38568Y60936D01*
X38756Y61637D01*
Y62363D01*
X38568Y63064D01*
X38205Y63692D01*
X37692Y64205D01*
X37064Y64568D01*
X36363Y64756D01*
D02*
G37*
G36*
X202863Y62756D02*
X202137D01*
X201436Y62568D01*
X200808Y62205D01*
X200295Y61692D01*
X199932Y61064D01*
X199744Y60363D01*
Y59637D01*
X199932Y58936D01*
X200295Y58308D01*
X200808Y57795D01*
X201436Y57432D01*
X202137Y57244D01*
X202863D01*
X203564Y57432D01*
X204192Y57795D01*
X204705Y58308D01*
X205068Y58936D01*
X205256Y59637D01*
Y60363D01*
X205068Y61064D01*
X204705Y61692D01*
X204192Y62205D01*
X203564Y62568D01*
X202863Y62756D01*
D02*
G37*
G36*
X112941Y93347D02*
X112059D01*
X111208Y93118D01*
X110445Y92678D01*
X109822Y92055D01*
X109382Y91292D01*
X109153Y90441D01*
Y89559D01*
X109382Y88708D01*
X109822Y87945D01*
X110445Y87322D01*
X110570Y87250D01*
Y59724D01*
X109646D01*
Y57077D01*
X103880D01*
Y59331D01*
X99705D01*
Y59405D01*
X93047D01*
Y59543D01*
X90477D01*
Y55000D01*
Y50457D01*
X93047D01*
Y50595D01*
X99705D01*
Y50669D01*
X103880D01*
Y52923D01*
X109646D01*
Y50276D01*
X115945D01*
Y59724D01*
X114725D01*
Y87492D01*
X115178Y87945D01*
X115618Y88708D01*
X115847Y89559D01*
Y90441D01*
X115618Y91292D01*
X115178Y92055D01*
X114555Y92678D01*
X113792Y93118D01*
X112941Y93347D01*
D02*
G37*
G36*
X88477Y59543D02*
X85907D01*
Y56000D01*
X88477D01*
Y59543D01*
D02*
G37*
G36*
X242941Y58846D02*
X242059D01*
X241208Y58618D01*
X240445Y58178D01*
X239822Y57555D01*
X239382Y56792D01*
X239154Y55941D01*
Y55059D01*
X239382Y54208D01*
X239822Y53445D01*
X240445Y52822D01*
X241208Y52382D01*
X242059Y52153D01*
X242941D01*
X243792Y52382D01*
X244555Y52822D01*
X245178Y53445D01*
X245618Y54208D01*
X245847Y55059D01*
Y55941D01*
X245618Y56792D01*
X245178Y57555D01*
X244555Y58178D01*
X243792Y58618D01*
X242941Y58846D01*
D02*
G37*
G36*
X155945Y59724D02*
X149646D01*
Y50276D01*
X155945D01*
Y51814D01*
X156268Y51948D01*
X156385Y51831D01*
X157108Y51531D01*
X157892D01*
X158615Y51831D01*
X159169Y52385D01*
X159468Y53108D01*
Y53892D01*
X159169Y54615D01*
X158615Y55169D01*
X157892Y55468D01*
X157108D01*
X156385Y55169D01*
X156268Y55052D01*
X155945Y55186D01*
Y59724D01*
D02*
G37*
G36*
X88477Y54000D02*
X85907D01*
Y50457D01*
X88477D01*
Y54000D01*
D02*
G37*
G36*
X20591Y57079D02*
X19410D01*
X18459Y56953D01*
X17573Y56586D01*
X16812Y56003D01*
X16228Y55242D01*
X15861Y54356D01*
X15736Y53405D01*
X15861Y52455D01*
X16228Y51569D01*
X16812Y50808D01*
X17573Y50224D01*
X18459Y49858D01*
X19410Y49732D01*
X20591D01*
X21541Y49858D01*
X22427Y50224D01*
X23188Y50808D01*
X23772Y51569D01*
X24138Y52455D01*
X24264Y53405D01*
X24138Y54356D01*
X23772Y55242D01*
X23188Y56003D01*
X22427Y56586D01*
X21541Y56953D01*
X20591Y57079D01*
D02*
G37*
G36*
X256500Y51739D02*
Y48906D01*
X259846D01*
X259846Y48912D01*
X259457Y49849D01*
X258840Y50654D01*
X258034Y51272D01*
X257097Y51661D01*
X256500Y51739D01*
D02*
G37*
G36*
X254500D02*
X253903Y51661D01*
X252966Y51272D01*
X252161Y50654D01*
X251543Y49849D01*
X251154Y48912D01*
X251153Y48906D01*
X254500D01*
Y51739D01*
D02*
G37*
G36*
X38331Y49536D02*
X29669D01*
Y47746D01*
X23855D01*
X23256Y47627D01*
X22747Y47287D01*
X22158Y46698D01*
X21541Y46953D01*
X20591Y47079D01*
X19410D01*
X18459Y46953D01*
X17573Y46586D01*
X16812Y46003D01*
X16228Y45242D01*
X15861Y44356D01*
X15736Y43406D01*
X15861Y42455D01*
X16228Y41569D01*
X16812Y40808D01*
X17573Y40224D01*
X18459Y39858D01*
X19410Y39732D01*
X20591D01*
X21541Y39858D01*
X22427Y40224D01*
X23188Y40808D01*
X23772Y41569D01*
X24138Y42455D01*
X24264Y43406D01*
X24151Y44258D01*
X24505Y44611D01*
X29594D01*
Y38703D01*
X29457D01*
Y36133D01*
X29594D01*
Y35950D01*
X34000D01*
X38405D01*
Y36133D01*
X38543D01*
Y38703D01*
X38405D01*
Y44611D01*
X43595D01*
Y36254D01*
X43807D01*
Y32132D01*
X52193D01*
Y33225D01*
X129830D01*
X130218Y32837D01*
X131050Y32492D01*
X131950D01*
X132782Y32837D01*
X133419Y33474D01*
X133764Y34306D01*
Y35206D01*
X133419Y36038D01*
X132782Y36675D01*
X131950Y37020D01*
X131050D01*
X130218Y36675D01*
X129902Y36360D01*
X52406D01*
Y45482D01*
X52193D01*
Y49179D01*
X43807D01*
Y47746D01*
X38331D01*
Y49536D01*
D02*
G37*
G36*
X211941Y52846D02*
X211059D01*
X210208Y52618D01*
X209445Y52178D01*
X208822Y51555D01*
X208382Y50792D01*
X208154Y49941D01*
Y49059D01*
X208382Y48208D01*
X208822Y47445D01*
X209445Y46822D01*
X210208Y46382D01*
X211059Y46154D01*
X211941D01*
X212792Y46382D01*
X213555Y46822D01*
X214178Y47445D01*
X214618Y48208D01*
X214846Y49059D01*
Y49941D01*
X214618Y50792D01*
X214178Y51555D01*
X213555Y52178D01*
X212792Y52618D01*
X211941Y52846D01*
D02*
G37*
G36*
X259846Y46905D02*
X256500D01*
Y44072D01*
X257097Y44150D01*
X258034Y44539D01*
X258840Y45156D01*
X259457Y45962D01*
X259846Y46899D01*
X259846Y46905D01*
D02*
G37*
G36*
X254500D02*
X251153D01*
X251154Y46899D01*
X251543Y45962D01*
X252161Y45156D01*
X252966Y44539D01*
X253903Y44150D01*
X254500Y44072D01*
Y46905D01*
D02*
G37*
G36*
X114892Y44724D02*
X114108D01*
X113385Y44425D01*
X112831Y43871D01*
X112531Y43148D01*
Y42364D01*
X112831Y41641D01*
X113385Y41087D01*
X114108Y40787D01*
X114892D01*
X115615Y41087D01*
X116169Y41641D01*
X116469Y42364D01*
Y43148D01*
X116169Y43871D01*
X115615Y44425D01*
X114892Y44724D01*
D02*
G37*
G36*
X21000Y37239D02*
Y34405D01*
X24347D01*
X24346Y34412D01*
X23957Y35349D01*
X23339Y36154D01*
X22534Y36772D01*
X21597Y37161D01*
X21000Y37239D01*
D02*
G37*
G36*
X19000D02*
X18403Y37161D01*
X17466Y36772D01*
X16660Y36154D01*
X16043Y35349D01*
X15654Y34412D01*
X15653Y34405D01*
X19000D01*
Y37239D01*
D02*
G37*
G36*
X193950Y100520D02*
X193050D01*
X192218Y100175D01*
X191581Y99538D01*
X191236Y98706D01*
Y97806D01*
X191581Y96974D01*
X191932Y96622D01*
Y51756D01*
X192052Y51156D01*
X192392Y50647D01*
X209319Y33720D01*
X209827Y33380D01*
X210427Y33261D01*
X221959D01*
Y32132D01*
X230345D01*
Y36254D01*
X230557D01*
Y44763D01*
X235442D01*
Y36102D01*
X235457D01*
D01*
X240000D01*
X244253D01*
Y36133D01*
X244543D01*
Y38703D01*
X244253D01*
Y42821D01*
X244331D01*
Y44763D01*
X244851D01*
X251291Y38323D01*
X251236Y37905D01*
X251361Y36955D01*
X251728Y36069D01*
X252312Y35308D01*
X253073Y34724D01*
X253959Y34358D01*
X254909Y34232D01*
X256090D01*
X257041Y34358D01*
X257927Y34724D01*
X258688Y35308D01*
X259272Y36069D01*
X259639Y36955D01*
X259764Y37905D01*
X259639Y38856D01*
X259272Y39742D01*
X258688Y40503D01*
X257927Y41087D01*
X257041Y41453D01*
X256090Y41579D01*
X254909D01*
X253959Y41453D01*
X253073Y41087D01*
X253010Y41038D01*
X246608Y47439D01*
X246100Y47779D01*
X245500Y47898D01*
X244331D01*
Y49536D01*
X235669D01*
Y47898D01*
X230345D01*
Y49179D01*
X221959D01*
Y45482D01*
X221746D01*
Y36396D01*
X211076D01*
X195068Y52405D01*
Y96622D01*
X195419Y96974D01*
X195764Y97806D01*
Y98706D01*
X195419Y99538D01*
X194782Y100175D01*
X193950Y100520D01*
D02*
G37*
G36*
X244543Y34133D02*
X241000D01*
Y31563D01*
X244543D01*
Y34133D01*
D02*
G37*
G36*
X239000D02*
X235457D01*
Y31563D01*
X239000D01*
Y34133D01*
D02*
G37*
G36*
X38543D02*
X35000D01*
Y31563D01*
X38543D01*
Y34133D01*
D02*
G37*
G36*
X33000D02*
X29457D01*
Y31563D01*
X33000D01*
Y34133D01*
D02*
G37*
G36*
X24347Y32405D02*
X21000D01*
Y29572D01*
X21597Y29650D01*
X22534Y30039D01*
X23339Y30656D01*
X23957Y31462D01*
X24346Y32399D01*
X24347Y32405D01*
D02*
G37*
G36*
X19000D02*
X15653D01*
X15654Y32399D01*
X16043Y31462D01*
X16660Y30656D01*
X17466Y30039D01*
X18403Y29650D01*
X19000Y29572D01*
Y32405D01*
D02*
G37*
G36*
X187863Y65756D02*
X187137D01*
X186436Y65568D01*
X185808Y65205D01*
X185295Y64692D01*
X184932Y64064D01*
X184744Y63363D01*
Y62637D01*
X184932Y61936D01*
X185295Y61308D01*
X185423Y61180D01*
Y34008D01*
X178223Y26809D01*
X177926Y27007D01*
X177969Y27108D01*
Y27892D01*
X177669Y28615D01*
X177606Y28678D01*
Y41322D01*
X177669Y41385D01*
X177969Y42108D01*
Y42892D01*
X177669Y43615D01*
X177115Y44169D01*
X176392Y44469D01*
X175608D01*
X174885Y44169D01*
X174331Y43615D01*
X174031Y42892D01*
Y42108D01*
X174331Y41385D01*
X174394Y41322D01*
Y28678D01*
X174331Y28615D01*
X174031Y27892D01*
Y27108D01*
X174285Y26496D01*
X174113Y26146D01*
X147534D01*
X145606Y28074D01*
X145419Y28525D01*
X144782Y29161D01*
X143950Y29506D01*
X143050D01*
X142218Y29161D01*
X141581Y28525D01*
X141236Y27692D01*
Y26792D01*
X141581Y25960D01*
X142218Y25323D01*
X142668Y25137D01*
X145204Y22600D01*
X145204Y22600D01*
X145878Y22150D01*
X146673Y21992D01*
X146673Y21992D01*
X178421D01*
X179216Y22150D01*
X179890Y22600D01*
X188969Y31679D01*
X189419Y32353D01*
X189577Y33148D01*
Y61180D01*
X189705Y61308D01*
X190068Y61936D01*
X190256Y62637D01*
Y63363D01*
X190068Y64064D01*
X189705Y64692D01*
X189192Y65205D01*
X188564Y65568D01*
X187863Y65756D01*
D02*
G37*
G36*
X256090Y31579D02*
X254909D01*
X253959Y31453D01*
X253073Y31087D01*
X252312Y30503D01*
X251728Y29742D01*
X251361Y28856D01*
X251236Y27905D01*
X251361Y26955D01*
X251728Y26069D01*
X252312Y25308D01*
X253073Y24724D01*
X253959Y24358D01*
X254909Y24232D01*
X256090D01*
X257041Y24358D01*
X257927Y24724D01*
X258688Y25308D01*
X259272Y26069D01*
X259639Y26955D01*
X259764Y27905D01*
X259639Y28856D01*
X259272Y29742D01*
X258688Y30503D01*
X257927Y31087D01*
X257041Y31453D01*
X256090Y31579D01*
D02*
G37*
G36*
X175659Y20693D02*
X174341D01*
X173048Y20436D01*
X171830Y19931D01*
X170733Y19199D01*
X169801Y18267D01*
X169069Y17170D01*
X168564Y15952D01*
X168307Y14659D01*
Y13341D01*
X168564Y12048D01*
X169069Y10830D01*
X169801Y9734D01*
X170733Y8801D01*
X171830Y8069D01*
X173048Y7564D01*
X174341Y7307D01*
X175659D01*
X176952Y7564D01*
X178170Y8069D01*
X179267Y8801D01*
X180199Y9734D01*
X180931Y10830D01*
X181436Y12048D01*
X181693Y13341D01*
Y14659D01*
X181436Y15952D01*
X180931Y17170D01*
X180199Y18267D01*
X179267Y19199D01*
X178170Y19931D01*
X176952Y20436D01*
X175659Y20693D01*
D02*
G37*
G36*
X161159D02*
X159841D01*
X158548Y20436D01*
X157330Y19931D01*
X156234Y19199D01*
X155301Y18267D01*
X154569Y17170D01*
X154064Y15952D01*
X153807Y14659D01*
Y13341D01*
X154064Y12048D01*
X154569Y10830D01*
X155301Y9734D01*
X156234Y8801D01*
X157330Y8069D01*
X158548Y7564D01*
X159841Y7307D01*
X161159D01*
X162452Y7564D01*
X163670Y8069D01*
X164767Y8801D01*
X165699Y9734D01*
X166431Y10830D01*
X166936Y12048D01*
X167193Y13341D01*
Y14659D01*
X166936Y15952D01*
X166431Y17170D01*
X165699Y18267D01*
X164767Y19199D01*
X163670Y19931D01*
X162452Y20436D01*
X161159Y20693D01*
D02*
G37*
G36*
X110159D02*
X108841D01*
X107548Y20436D01*
X106330Y19931D01*
X105234Y19199D01*
X104301Y18267D01*
X103569Y17170D01*
X103064Y15952D01*
X102807Y14659D01*
Y13341D01*
X103064Y12048D01*
X103569Y10830D01*
X104301Y9734D01*
X105234Y8801D01*
X106330Y8069D01*
X107548Y7564D01*
X108841Y7307D01*
X110159D01*
X111452Y7564D01*
X112670Y8069D01*
X113767Y8801D01*
X114699Y9734D01*
X115431Y10830D01*
X115936Y12048D01*
X116193Y13341D01*
Y14659D01*
X115936Y15952D01*
X115431Y17170D01*
X114699Y18267D01*
X113767Y19199D01*
X112670Y19931D01*
X111452Y20436D01*
X110159Y20693D01*
D02*
G37*
G36*
X95659D02*
X94341D01*
X93048Y20436D01*
X91830Y19931D01*
X90733Y19199D01*
X89801Y18267D01*
X89069Y17170D01*
X88564Y15952D01*
X88307Y14659D01*
Y13341D01*
X88564Y12048D01*
X89069Y10830D01*
X89801Y9734D01*
X90733Y8801D01*
X91830Y8069D01*
X93048Y7564D01*
X94341Y7307D01*
X95659D01*
X96952Y7564D01*
X98170Y8069D01*
X99266Y8801D01*
X100199Y9734D01*
X100931Y10830D01*
X101436Y12048D01*
X101693Y13341D01*
Y14659D01*
X101436Y15952D01*
X100931Y17170D01*
X100199Y18267D01*
X99266Y19199D01*
X98170Y19931D01*
X96952Y20436D01*
X95659Y20693D01*
D02*
G37*
%LPD*%
G36*
X126000Y193874D02*
X123477D01*
Y189331D01*
X122477D01*
Y188331D01*
X118907D01*
Y185643D01*
X113684D01*
X113200Y185681D01*
Y188038D01*
X111200D01*
Y189038D01*
X110200D01*
Y192396D01*
X110000D01*
Y195668D01*
X110367Y195988D01*
X112277D01*
Y200394D01*
X113277D01*
Y201394D01*
X116186D01*
Y203756D01*
X126000D01*
Y193874D01*
D02*
G37*
G36*
X102013Y185893D02*
X103581D01*
X106072Y183403D01*
X106498Y183118D01*
X107000Y183018D01*
X109543D01*
X109697Y182831D01*
Y180981D01*
X109523Y180768D01*
X109463D01*
Y174478D01*
X109523D01*
X109697Y174265D01*
Y171815D01*
X109713Y171738D01*
Y171659D01*
X109727Y171586D01*
X109727Y171585D01*
Y171585D01*
X109757Y171512D01*
X109758Y171508D01*
X109761Y171504D01*
X109763Y171499D01*
X109777Y171429D01*
X109817Y171369D01*
X109847Y171296D01*
X109847Y171296D01*
X109847Y171296D01*
X109851Y171290D01*
X109907Y171234D01*
X109935Y171193D01*
X109831Y170693D01*
X104583D01*
Y171736D01*
X102673D01*
Y167331D01*
X101673D01*
Y166331D01*
X98764D01*
Y163756D01*
X87000D01*
Y184925D01*
X88953D01*
Y184787D01*
X91523D01*
Y184925D01*
X91706D01*
Y189331D01*
X92523D01*
Y190331D01*
X96093D01*
Y191831D01*
X102013D01*
Y185893D01*
D02*
G37*
G36*
X126000Y180693D02*
X125083D01*
Y181736D01*
X123173D01*
Y177331D01*
Y172925D01*
X125083D01*
Y173919D01*
X126000D01*
Y170693D01*
X125083D01*
Y171736D01*
X123173D01*
Y167331D01*
X122173D01*
Y166331D01*
X119264D01*
Y163756D01*
X116236D01*
Y166331D01*
X113327D01*
Y167331D01*
X112327D01*
Y171736D01*
X110519D01*
X110514Y171742D01*
X110500Y171815D01*
Y174265D01*
Y174265D01*
X113250D01*
Y176623D01*
X111250D01*
Y178623D01*
X113250D01*
Y180981D01*
X110500D01*
Y182831D01*
X126000D01*
Y180693D01*
D02*
G37*
%LPC*%
G36*
X116186Y199394D02*
X114277D01*
Y195988D01*
X116186D01*
Y199394D01*
D02*
G37*
G36*
X121477Y193874D02*
X118907D01*
Y190331D01*
X121477D01*
Y193874D01*
D02*
G37*
G36*
X113200Y192396D02*
X112200D01*
Y190038D01*
X113200D01*
Y192396D01*
D02*
G37*
G36*
X96093Y188331D02*
X93523D01*
Y184787D01*
X96093D01*
Y188331D01*
D02*
G37*
G36*
X105750Y180981D02*
X104750D01*
Y178623D01*
X105750D01*
Y180981D01*
D02*
G37*
G36*
X102750D02*
X101750D01*
Y178623D01*
X102750D01*
Y180981D01*
D02*
G37*
G36*
X105750Y176623D02*
X104750D01*
Y174265D01*
X105750D01*
Y176623D01*
D02*
G37*
G36*
X102750D02*
X101750D01*
Y174265D01*
X102750D01*
Y176623D01*
D02*
G37*
G36*
X100673Y171736D02*
X98764D01*
Y168331D01*
X100673D01*
Y171736D01*
D02*
G37*
G36*
X121173Y181736D02*
X119264D01*
Y178331D01*
X121173D01*
Y181736D01*
D02*
G37*
G36*
Y176331D02*
X119264D01*
Y172925D01*
X121173D01*
Y176331D01*
D02*
G37*
G36*
X116236Y171736D02*
X114327D01*
Y168331D01*
X116236D01*
Y171736D01*
D02*
G37*
G36*
X121173D02*
X119264D01*
Y168331D01*
X121173D01*
Y171736D01*
D02*
G37*
%LPD*%
D12*
X22247Y126805D02*
X132695D01*
X142795Y116705D01*
X20000Y126331D02*
X20371Y126701D01*
X22143D01*
X22247Y126805D01*
X20371Y120055D02*
X22120D01*
X22247Y119927D02*
X129573D01*
X132795Y116705D01*
X20000Y120425D02*
X20371Y120055D01*
X22120D02*
X22247Y119927D01*
X213866Y267087D02*
Y279366D01*
X221831Y287331D02*
X242500D01*
X213866Y279366D02*
X221831Y287331D01*
X182210Y193790D02*
X183260Y192740D01*
Y186000D02*
Y192740D01*
X182210Y193790D02*
Y199661D01*
X220500Y109000D02*
Y127150D01*
X215500Y104000D02*
X220500Y109000D01*
X142795Y68200D02*
Y116705D01*
X132795Y55472D02*
Y116705D01*
X181477Y167331D02*
Y172477D01*
X183260Y174260D01*
Y178825D01*
X38069Y172569D02*
X62500Y197000D01*
X74500D01*
X26000Y172500D02*
X60500Y207000D01*
X74500D01*
X242500Y166831D02*
Y287331D01*
X203500Y267173D02*
X203543Y267130D01*
X213823D01*
X213866Y267087D01*
X237210Y247087D02*
X237500Y247376D01*
X213866Y247087D02*
X237210D01*
X237500Y247376D02*
Y276858D01*
X237222Y276580D02*
X237500Y276858D01*
X247500Y196831D02*
Y296756D01*
X237500Y186256D02*
Y247376D01*
D13*
X128323Y184331D02*
X134827Y177827D01*
X107000Y184331D02*
X128323D01*
X104300Y187031D02*
X107000Y184331D01*
X134827Y177331D02*
Y177827D01*
X103800Y189038D02*
X104300Y188538D01*
Y187031D02*
Y188538D01*
D18*
X240000Y75558D02*
D03*
Y35133D02*
D03*
X34000Y75558D02*
D03*
Y35133D02*
D03*
Y86603D02*
D03*
Y46178D02*
D03*
X240000D02*
D03*
Y86603D02*
D03*
D22*
X192523Y200394D02*
D03*
Y167331D02*
D03*
X133523Y189331D02*
D03*
X81477D02*
D03*
X89477Y55000D02*
D03*
X100523D02*
D03*
X92523Y189331D02*
D03*
X181477Y200394D02*
D03*
Y167331D02*
D03*
X122477Y189331D02*
D03*
D23*
X133827Y167331D02*
D03*
X101623Y200394D02*
D03*
X101673Y167331D02*
D03*
X122173D02*
D03*
X113327D02*
D03*
X122173Y177331D02*
D03*
X133827D02*
D03*
X113277Y200394D02*
D03*
D24*
X122795Y68200D02*
D03*
X112795Y55000D02*
D03*
X162795Y68200D02*
D03*
X152795Y55000D02*
D03*
X142795Y68200D02*
D03*
X132795Y55000D02*
D03*
D29*
X48000Y34829D02*
D03*
Y46482D02*
D03*
X203500Y278827D02*
D03*
X226152Y75254D02*
D03*
X48000D02*
D03*
Y86908D02*
D03*
X226152Y34829D02*
D03*
X203500Y267173D02*
D03*
X226152Y46482D02*
D03*
Y86908D02*
D03*
D32*
X173000Y200319D02*
D03*
X36441Y132059D02*
D03*
X173000Y167256D02*
D03*
D53*
X176000Y27500D02*
Y42500D01*
X107500Y189038D02*
Y193905D01*
X48000Y34829D02*
X48036Y34792D01*
X48000Y75254D02*
X70498D01*
D54*
X187500Y33148D02*
Y63000D01*
X178421Y24069D02*
X187500Y33148D01*
X146673Y24069D02*
X178421D01*
X143500Y27242D02*
X146673Y24069D01*
X101623Y200394D02*
Y201890D01*
X92513Y211000D02*
X101623Y201890D01*
X52708Y210874D02*
X52834Y211000D01*
X92513D01*
X112648Y55148D02*
X112795Y55000D01*
X112648Y55148D02*
Y89852D01*
X112500Y90000D02*
X112648Y89852D01*
X195173Y278827D02*
X203500D01*
X195000Y279000D02*
X195173Y278827D01*
X100523Y55000D02*
X112795D01*
X173000Y200319D02*
X173037Y200356D01*
X181440D02*
X181477Y200394D01*
X173037Y200356D02*
X181440D01*
X181477Y200394D02*
X182210Y199661D01*
X173000Y167256D02*
X181402D01*
D55*
X23855Y46178D02*
X48000D01*
X48036Y34792D02*
X131500D01*
X208500Y81331D02*
Y98831D01*
X214577Y75254D02*
X226152D01*
X208500Y81331D02*
X214577Y75254D01*
X190740Y187836D02*
X206664D01*
X213866Y167087D02*
Y180634D01*
X206664Y187836D02*
X213866Y180634D01*
X254417Y78331D02*
X255500D01*
X246145Y86603D02*
X254417Y78331D01*
X226456Y86603D02*
X246145D01*
X133902Y177256D02*
X159882D01*
X193500Y51756D02*
Y98256D01*
Y51756D02*
X210427Y34829D01*
X226152D01*
X20000Y43406D02*
X21083D01*
X23855Y46178D01*
X34000Y86756D02*
X47848D01*
X24562D02*
X34000D01*
X21637Y83831D02*
X24562Y86756D01*
X47848D02*
X48000Y86908D01*
X20000Y83831D02*
X21637D01*
X239848Y46330D02*
X240000Y46178D01*
X240152Y46331D02*
X245500D01*
X253925Y37905D01*
X226304Y46330D02*
X239848D01*
X253925Y37905D02*
X255500D01*
X226152Y46482D02*
X226304Y46330D01*
X240000Y46178D02*
X240152Y46331D01*
X226152Y86908D02*
X226456Y86603D01*
X122173Y177331D02*
X122418Y177086D01*
D56*
X255500Y236831D02*
D03*
Y88331D02*
D03*
Y47905D02*
D03*
X20000Y73831D02*
D03*
Y33406D02*
D03*
X255500Y246831D02*
D03*
Y68331D02*
D03*
Y27905D02*
D03*
X20000Y93831D02*
D03*
Y53405D02*
D03*
X255500Y306858D02*
D03*
Y226831D02*
D03*
Y216831D02*
D03*
Y206831D02*
D03*
Y186831D02*
D03*
Y176831D02*
D03*
Y166831D02*
D03*
Y156831D02*
D03*
Y146831D02*
D03*
Y136831D02*
D03*
Y126831D02*
D03*
Y116831D02*
D03*
Y196831D02*
D03*
Y286858D02*
D03*
Y276858D02*
D03*
Y296858D02*
D03*
Y37905D02*
D03*
Y78331D02*
D03*
X20000Y83831D02*
D03*
Y43406D02*
D03*
D57*
Y114520D02*
D03*
Y108614D02*
D03*
Y132236D02*
D03*
Y120425D02*
D03*
Y126331D02*
D03*
D58*
X175000Y14000D02*
D03*
X160500D02*
D03*
X109500D02*
D03*
X95000D02*
D03*
X12750Y12500D02*
D03*
X262841Y325833D02*
D03*
Y12500D02*
D03*
D59*
X36500Y123500D02*
D03*
X44500D02*
D03*
X100718Y123409D02*
D03*
X65000Y123500D02*
D03*
X78000D02*
D03*
X100718Y116746D02*
D03*
X112937D02*
D03*
X124500D02*
D03*
X176000Y27500D02*
D03*
Y42500D02*
D03*
X175652Y53509D02*
D03*
X157500Y53500D02*
D03*
X135976Y70500D02*
D03*
X237500Y282256D02*
D03*
X247500Y191000D02*
D03*
Y182000D02*
D03*
X229500Y108331D02*
D03*
X240000Y69000D02*
D03*
X213500Y289000D02*
D03*
X203500Y200756D02*
D03*
X220500Y187000D02*
D03*
X203500Y167500D02*
D03*
X201500Y108331D02*
D03*
X173000Y187000D02*
D03*
X192500Y36000D02*
D03*
X171173Y35756D02*
D03*
X192440Y27351D02*
D03*
X150000Y187000D02*
D03*
X135000Y202209D02*
D03*
X107500Y193905D02*
D03*
X152000Y137000D02*
D03*
X134000Y152000D02*
D03*
X159882Y137000D02*
D03*
X74500Y202209D02*
D03*
Y189756D02*
D03*
X75000Y158331D02*
D03*
X65000D02*
D03*
X75000Y142331D02*
D03*
X65000D02*
D03*
Y111000D02*
D03*
X55000Y158322D02*
D03*
X55000Y142331D02*
D03*
X138055Y97522D02*
D03*
X138000Y108500D02*
D03*
X100000Y87000D02*
D03*
X81000Y105500D02*
D03*
X89500Y69500D02*
D03*
X44500Y101000D02*
D03*
X67500Y69128D02*
D03*
X74500D02*
D03*
Y62500D02*
D03*
X67500D02*
D03*
X74500Y50504D02*
D03*
X31500Y27500D02*
D03*
X36000Y20000D02*
D03*
X114500Y42756D02*
D03*
X107831Y78437D02*
D03*
X123000Y78500D02*
D03*
X35000Y101000D02*
D03*
X38000Y156000D02*
D03*
X173000Y126756D02*
D03*
X99000Y189256D02*
D03*
X159882Y118000D02*
D03*
X173000Y120000D02*
D03*
X99000Y177500D02*
D03*
X150500Y127000D02*
D03*
X215500Y104000D02*
D03*
X74500Y207000D02*
D03*
Y197000D02*
D03*
X26000Y172500D02*
D03*
X38000D02*
D03*
X216028Y84284D02*
D03*
D60*
X230500Y237000D02*
D03*
X201016Y236842D02*
D03*
X187016Y287331D02*
D03*
X173016Y236842D02*
D03*
Y287331D02*
D03*
X187016Y236842D02*
D03*
X224000Y140000D02*
D03*
Y134000D02*
D03*
X159882Y236500D02*
D03*
X112937Y142331D02*
D03*
X131500Y34756D02*
D03*
X142417Y267087D02*
D03*
X65000Y101000D02*
D03*
X44500Y111000D02*
D03*
X230500Y200500D02*
D03*
X255500Y108331D02*
D03*
Y260500D02*
D03*
X195000Y279000D02*
D03*
X201016Y226842D02*
D03*
X242500Y156831D02*
D03*
X224000Y157000D02*
D03*
X201500Y119000D02*
D03*
X198500Y156831D02*
D03*
Y177000D02*
D03*
X173016Y226842D02*
D03*
X187016D02*
D03*
X187000Y177272D02*
D03*
X114000Y217006D02*
D03*
Y237331D02*
D03*
X128000Y177256D02*
D03*
X187000Y156831D02*
D03*
X128000Y167256D02*
D03*
X187000Y98256D02*
D03*
Y91500D02*
D03*
X124339Y97745D02*
D03*
X112937D02*
D03*
X72000Y237331D02*
D03*
X93000D02*
D03*
Y217006D02*
D03*
X72000D02*
D03*
X42500Y248000D02*
D03*
X61500D02*
D03*
X33000Y251500D02*
D03*
X100718Y153256D02*
D03*
Y142331D02*
D03*
X88500D02*
D03*
Y153256D02*
D03*
X29500Y137500D02*
D03*
X80500Y90000D02*
D03*
X90000Y175000D02*
D03*
X143500Y27242D02*
D03*
X220500Y127150D02*
D03*
X208500Y98331D02*
D03*
X159882Y297173D02*
D03*
X124500Y141756D02*
D03*
X135000Y217006D02*
D03*
X237500Y147000D02*
D03*
X213866Y167087D02*
D03*
Y247087D02*
D03*
Y267087D02*
D03*
X159882Y177256D02*
D03*
Y257087D02*
D03*
Y277087D02*
D03*
X247500Y296756D02*
D03*
Y196831D02*
D03*
X193500Y98256D02*
D03*
X70500Y75256D02*
D03*
X237500Y276858D02*
D03*
Y186831D02*
D03*
X242500Y166831D02*
D03*
Y287331D02*
D03*
D61*
X173000Y89000D02*
D03*
X180500Y67000D02*
D03*
X52000Y270000D02*
D03*
X164500Y94500D02*
D03*
X155500Y41500D02*
D03*
X131500Y27242D02*
D03*
X36000Y62000D02*
D03*
X152500Y70500D02*
D03*
X202500Y60000D02*
D03*
X201500Y69500D02*
D03*
X187500Y63000D02*
D03*
D62*
X15000Y177000D02*
D03*
X242500Y55500D02*
D03*
X52708Y210874D02*
D03*
X211500Y49500D02*
D03*
X112500Y90000D02*
D03*
X201500Y126756D02*
D03*
D63*
X187000Y187836D02*
D03*
X183260D02*
D03*
X190740D02*
D03*
Y178825D02*
D03*
X183260D02*
D03*
D64*
X107500Y189038D02*
D03*
X103750Y177623D02*
D03*
X111250D02*
D03*
X111200Y189038D02*
D03*
X103800D02*
D03*
M02*
