G04*
G04 #@! TF.GenerationSoftware,Altium Limited,Altium Designer,26.1.1 (7)*
G04*
G04 Layer_Color=8388736*
%FSLAX25Y25*%
%MOIN*%
G70*
G04*
G04 #@! TF.SameCoordinates,E7F4FAF2-1386-437A-9EE8-D3B0163B0EA7*
G04*
G04*
G04 #@! TF.FilePolarity,Negative*
G04*
G01*
G75*
%ADD18R,0.07087X0.05140*%
%ADD22R,0.05140X0.07087*%
%ADD28R,0.08701X0.12795*%
%ADD33R,0.02959X0.05124*%
%ADD34R,0.03556X0.09855*%
%ADD35R,0.05131X0.08280*%
%ADD36R,0.08674X0.04816*%
%ADD37R,0.04619X0.07611*%
%ADD38R,0.04924X0.08074*%
%ADD39C,0.06706*%
G04:AMPARAMS|DCode=40|XSize=55.64mil|YSize=30.84mil|CornerRadius=6.85mil|HoleSize=0mil|Usage=FLASHONLY|Rotation=180.000|XOffset=0mil|YOffset=0mil|HoleType=Round|Shape=RoundedRectangle|*
%AMROUNDEDRECTD40*
21,1,0.05564,0.01713,0,0,180.0*
21,1,0.04193,0.03084,0,0,180.0*
1,1,0.01371,-0.02097,0.00856*
1,1,0.01371,0.02097,0.00856*
1,1,0.01371,0.02097,-0.00856*
1,1,0.01371,-0.02097,-0.00856*
%
%ADD40ROUNDEDRECTD40*%
%ADD41R,0.14580X0.08674*%
%ADD42R,0.07611X0.04619*%
%ADD43R,0.10249X0.09658*%
%ADD44R,0.08074X0.04924*%
%ADD45C,0.05721*%
%ADD46O,0.07690X0.06509*%
%ADD47O,0.05918X0.04737*%
%ADD48C,0.12611*%
%ADD49C,0.03162*%
%ADD50C,0.03753*%
%ADD51C,0.04737*%
%ADD52C,0.05918*%
D18*
X182500Y53523D02*
D03*
Y42477D02*
D03*
X242000Y237331D02*
D03*
X173000Y146853D02*
D03*
X187000D02*
D03*
X52000Y262854D02*
D03*
X15000Y161523D02*
D03*
X122500Y30808D02*
D03*
X82500Y41853D02*
D03*
X242000Y248376D02*
D03*
X52000Y251808D02*
D03*
X15000Y150477D02*
D03*
X187000Y135808D02*
D03*
X173000D02*
D03*
X82500Y30808D02*
D03*
X122500Y41853D02*
D03*
D22*
X173023Y66831D02*
D03*
X96977Y62331D02*
D03*
X108023D02*
D03*
X161977Y66831D02*
D03*
D28*
X56000Y72000D02*
D03*
Y53000D02*
D03*
D33*
X171240Y42300D02*
D03*
X163760D02*
D03*
X167500Y53914D02*
D03*
X171240D02*
D03*
X163760D02*
D03*
X167500Y42300D02*
D03*
D34*
X222823Y27279D02*
D03*
X216917D02*
D03*
X47917D02*
D03*
X53823D02*
D03*
D35*
X230500Y13500D02*
D03*
X209240D02*
D03*
X61500D02*
D03*
X40240D02*
D03*
D36*
X229441Y287087D02*
D03*
Y187087D02*
D03*
X215441Y237087D02*
D03*
Y137087D02*
D03*
X158307Y287087D02*
D03*
Y187087D02*
D03*
X144307Y237087D02*
D03*
Y137087D02*
D03*
X158307Y267087D02*
D03*
X144307Y157087D02*
D03*
X158307Y307087D02*
D03*
Y127087D02*
D03*
X215441Y117087D02*
D03*
X229441Y127087D02*
D03*
X144307Y297087D02*
D03*
Y217087D02*
D03*
X215441Y157087D02*
D03*
Y177087D02*
D03*
Y197087D02*
D03*
Y217087D02*
D03*
Y257087D02*
D03*
Y277087D02*
D03*
Y297087D02*
D03*
X144307Y117087D02*
D03*
X158307Y147087D02*
D03*
Y167087D02*
D03*
X144307Y177087D02*
D03*
Y197087D02*
D03*
X158307Y207087D02*
D03*
Y227087D02*
D03*
Y247087D02*
D03*
X144307Y257087D02*
D03*
Y277087D02*
D03*
X229441Y147087D02*
D03*
Y167087D02*
D03*
Y207087D02*
D03*
Y227087D02*
D03*
Y247087D02*
D03*
Y267087D02*
D03*
Y307087D02*
D03*
D37*
X182827Y27331D02*
D03*
X108023Y30331D02*
D03*
X152173Y27331D02*
D03*
X96369Y30331D02*
D03*
X163827Y27331D02*
D03*
X171173D02*
D03*
D38*
X90022Y182395D02*
D03*
X100022Y169195D02*
D03*
X70022Y182395D02*
D03*
X80022Y169195D02*
D03*
X50022Y182395D02*
D03*
X60022Y169195D02*
D03*
D39*
X112937Y130756D02*
D03*
X193500Y68756D02*
D03*
X242500Y104000D02*
D03*
Y112331D02*
D03*
X124500Y130756D02*
D03*
D40*
X97559Y46331D02*
D03*
X107441D02*
D03*
X97559Y42591D02*
D03*
Y50071D02*
D03*
X107441D02*
D03*
Y42591D02*
D03*
D41*
X144500Y14000D02*
D03*
X125500D02*
D03*
X191000D02*
D03*
X79000D02*
D03*
D42*
X82500Y61984D02*
D03*
X201000Y135504D02*
D03*
X52000Y243984D02*
D03*
X38000Y150173D02*
D03*
X26231D02*
D03*
X201000Y147158D02*
D03*
X122500Y61984D02*
D03*
Y50331D02*
D03*
X82500D02*
D03*
X38000Y161827D02*
D03*
X26231D02*
D03*
X52000Y232331D02*
D03*
D43*
X144500Y55000D02*
D03*
Y41000D02*
D03*
D44*
X33000Y242331D02*
D03*
Y202331D02*
D03*
X19800Y192331D02*
D03*
X33000Y222331D02*
D03*
X19800Y212331D02*
D03*
Y232331D02*
D03*
D45*
X38000Y178000D02*
D03*
X26000D02*
D03*
X173000Y200319D02*
D03*
X36441Y132059D02*
D03*
X173000Y167256D02*
D03*
D46*
X255500Y236831D02*
D03*
Y88331D02*
D03*
Y47905D02*
D03*
X20000Y73831D02*
D03*
Y33406D02*
D03*
X255500Y246831D02*
D03*
Y68331D02*
D03*
Y27905D02*
D03*
X20000Y93831D02*
D03*
Y53405D02*
D03*
X255500Y306858D02*
D03*
Y226831D02*
D03*
Y216831D02*
D03*
Y206831D02*
D03*
Y186831D02*
D03*
Y176831D02*
D03*
Y166831D02*
D03*
Y156831D02*
D03*
Y146831D02*
D03*
Y136831D02*
D03*
Y126831D02*
D03*
Y116831D02*
D03*
Y196831D02*
D03*
Y286858D02*
D03*
Y276858D02*
D03*
Y296858D02*
D03*
Y37905D02*
D03*
Y78331D02*
D03*
X20000Y83831D02*
D03*
Y43406D02*
D03*
D47*
Y114520D02*
D03*
Y108614D02*
D03*
Y132236D02*
D03*
Y120425D02*
D03*
Y126331D02*
D03*
D48*
X175000Y14000D02*
D03*
X160500D02*
D03*
X109500D02*
D03*
X95000D02*
D03*
X12750Y12500D02*
D03*
X262841Y325833D02*
D03*
Y12500D02*
D03*
D49*
X36500Y123500D02*
D03*
X44500D02*
D03*
X100718Y123409D02*
D03*
X65000Y123500D02*
D03*
X78000D02*
D03*
X100718Y116746D02*
D03*
X112937D02*
D03*
X124500D02*
D03*
X176000Y27500D02*
D03*
Y42500D02*
D03*
X175652Y53509D02*
D03*
X157500Y53500D02*
D03*
X135976Y70500D02*
D03*
X237500Y282256D02*
D03*
X247500Y191000D02*
D03*
Y182000D02*
D03*
X229500Y108331D02*
D03*
X240000Y69000D02*
D03*
X213500Y289000D02*
D03*
X203500Y200756D02*
D03*
X220500Y187000D02*
D03*
X203500Y167500D02*
D03*
X201500Y108331D02*
D03*
X173000Y187000D02*
D03*
X192500Y36000D02*
D03*
X171173Y35756D02*
D03*
X192440Y27351D02*
D03*
X150000Y187000D02*
D03*
X135000Y202209D02*
D03*
X107500Y193905D02*
D03*
X152000Y137000D02*
D03*
X134000Y152000D02*
D03*
X159882Y137000D02*
D03*
X74500Y202209D02*
D03*
Y189756D02*
D03*
X75000Y158331D02*
D03*
X65000D02*
D03*
X75000Y142331D02*
D03*
X65000D02*
D03*
Y111000D02*
D03*
X55000Y158322D02*
D03*
X55000Y142331D02*
D03*
X138055Y97522D02*
D03*
X138000Y108500D02*
D03*
X100000Y87000D02*
D03*
X81000Y105500D02*
D03*
X89500Y69500D02*
D03*
X44500Y101000D02*
D03*
X67500Y69128D02*
D03*
X74500D02*
D03*
Y62500D02*
D03*
X67500D02*
D03*
X74500Y50504D02*
D03*
X31500Y27500D02*
D03*
X36000Y20000D02*
D03*
X114500Y42756D02*
D03*
X107831Y78437D02*
D03*
X123000Y78500D02*
D03*
X35000Y101000D02*
D03*
X38000Y156000D02*
D03*
X173000Y126756D02*
D03*
X99000Y189256D02*
D03*
X159882Y118000D02*
D03*
X173000Y120000D02*
D03*
X99000Y177500D02*
D03*
X150500Y127000D02*
D03*
X215500Y104000D02*
D03*
X74500Y207000D02*
D03*
Y197000D02*
D03*
X26000Y172500D02*
D03*
X38000D02*
D03*
X216028Y84284D02*
D03*
D50*
X230500Y237000D02*
D03*
X201016Y236842D02*
D03*
X187016Y287331D02*
D03*
X173016Y236842D02*
D03*
Y287331D02*
D03*
X187016Y236842D02*
D03*
X224000Y140000D02*
D03*
Y134000D02*
D03*
X159882Y236500D02*
D03*
X112937Y142331D02*
D03*
X131500Y34756D02*
D03*
X142417Y267087D02*
D03*
X65000Y101000D02*
D03*
X44500Y111000D02*
D03*
X230500Y200500D02*
D03*
X255500Y108331D02*
D03*
Y260500D02*
D03*
X195000Y279000D02*
D03*
X201016Y226842D02*
D03*
X242500Y156831D02*
D03*
X224000Y157000D02*
D03*
X201500Y119000D02*
D03*
X198500Y156831D02*
D03*
Y177000D02*
D03*
X173016Y226842D02*
D03*
X187016D02*
D03*
X187000Y177272D02*
D03*
X114000Y217006D02*
D03*
Y237331D02*
D03*
X128000Y177256D02*
D03*
X187000Y156831D02*
D03*
X128000Y167256D02*
D03*
X187000Y98256D02*
D03*
Y91500D02*
D03*
X124339Y97745D02*
D03*
X112937D02*
D03*
X72000Y237331D02*
D03*
X93000D02*
D03*
Y217006D02*
D03*
X72000D02*
D03*
X42500Y248000D02*
D03*
X61500D02*
D03*
X33000Y251500D02*
D03*
X100718Y153256D02*
D03*
Y142331D02*
D03*
X88500D02*
D03*
Y153256D02*
D03*
X29500Y137500D02*
D03*
X80500Y90000D02*
D03*
X90000Y175000D02*
D03*
X143500Y27242D02*
D03*
X220500Y127150D02*
D03*
X208500Y98331D02*
D03*
X159882Y297173D02*
D03*
X124500Y141756D02*
D03*
X135000Y217006D02*
D03*
X237500Y147000D02*
D03*
X213866Y167087D02*
D03*
Y247087D02*
D03*
Y267087D02*
D03*
X159882Y177256D02*
D03*
Y257087D02*
D03*
Y277087D02*
D03*
X247500Y296756D02*
D03*
Y196831D02*
D03*
X193500Y98256D02*
D03*
X70500Y75256D02*
D03*
X237500Y276858D02*
D03*
Y186831D02*
D03*
X242500Y166831D02*
D03*
Y287331D02*
D03*
D51*
X173000Y89000D02*
D03*
X180500Y67000D02*
D03*
X52000Y270000D02*
D03*
X164500Y94500D02*
D03*
X155500Y41500D02*
D03*
X131500Y27242D02*
D03*
X36000Y62000D02*
D03*
X152500Y70500D02*
D03*
X202500Y60000D02*
D03*
X201500Y69500D02*
D03*
X187500Y63000D02*
D03*
D52*
X15000Y177000D02*
D03*
X242500Y55500D02*
D03*
X52708Y210874D02*
D03*
X211500Y49500D02*
D03*
X112500Y90000D02*
D03*
X201500Y126756D02*
D03*
M02*
