G04*
G04 #@! TF.GenerationSoftware,Altium Limited,Altium Designer,26.1.1 (7)*
G04*
G04 Layer_Physical_Order=3*
G04 Layer_Color=1382776*
%FSLAX25Y25*%
%MOIN*%
G70*
G04*
G04 #@! TF.SameCoordinates,E7F4FAF2-1386-437A-9EE8-D3B0163B0EA7*
G04*
G04*
G04 #@! TF.FilePolarity,Positive*
G04*
G01*
G75*
%ADD32C,0.04921*%
%ADD54C,0.02500*%
%ADD56O,0.06890X0.05709*%
%ADD57O,0.05118X0.03937*%
%ADD58C,0.11811*%
%ADD59C,0.02362*%
%ADD60C,0.02953*%
%ADD61C,0.03937*%
%ADD62C,0.05118*%
G36*
X274386Y22000D02*
X253000D01*
Y2256D01*
X23500D01*
Y21500D01*
X1204D01*
Y292917D01*
X51000D01*
Y275756D01*
X98500D01*
Y292917D01*
X274386D01*
Y22000D01*
D02*
G37*
%LPC*%
G36*
X213892Y290968D02*
X213108D01*
X212385Y290669D01*
X211831Y290115D01*
X211531Y289392D01*
Y288608D01*
X211831Y287885D01*
X212385Y287331D01*
X213108Y287032D01*
X213892D01*
X214615Y287331D01*
X215169Y287885D01*
X215469Y288608D01*
Y289392D01*
X215169Y290115D01*
X214615Y290669D01*
X213892Y290968D01*
D02*
G37*
G36*
X242950Y289595D02*
X242050D01*
X241218Y289250D01*
X240581Y288613D01*
X240236Y287781D01*
Y286880D01*
X240581Y286048D01*
X241218Y285412D01*
X242050Y285067D01*
X242950D01*
X243782Y285412D01*
X244419Y286048D01*
X244764Y286880D01*
Y287781D01*
X244419Y288613D01*
X243782Y289250D01*
X242950Y289595D01*
D02*
G37*
G36*
X187466D02*
X186565D01*
X185733Y289250D01*
X185097Y288613D01*
X184752Y287781D01*
Y286880D01*
X185097Y286048D01*
X185733Y285412D01*
X186565Y285067D01*
X187466D01*
X188298Y285412D01*
X188935Y286048D01*
X189279Y286880D01*
Y287781D01*
X188935Y288613D01*
X188298Y289250D01*
X187466Y289595D01*
D02*
G37*
G36*
X173466D02*
X172565D01*
X171733Y289250D01*
X171097Y288613D01*
X170752Y287781D01*
Y286880D01*
X171097Y286048D01*
X171733Y285412D01*
X172565Y285067D01*
X173466D01*
X174298Y285412D01*
X174935Y286048D01*
X175279Y286880D01*
Y287781D01*
X174935Y288613D01*
X174298Y289250D01*
X173466Y289595D01*
D02*
G37*
G36*
X256090Y290531D02*
X254909D01*
X253959Y290406D01*
X253073Y290039D01*
X252312Y289456D01*
X251728Y288695D01*
X251361Y287809D01*
X251236Y286858D01*
X251361Y285908D01*
X251728Y285022D01*
X252312Y284261D01*
X253073Y283677D01*
X253959Y283310D01*
X254909Y283185D01*
X256090D01*
X257041Y283310D01*
X257927Y283677D01*
X258688Y284261D01*
X259272Y285022D01*
X259639Y285908D01*
X259764Y286858D01*
X259639Y287809D01*
X259272Y288695D01*
X258688Y289456D01*
X257927Y290039D01*
X257041Y290406D01*
X256090Y290531D01*
D02*
G37*
G36*
X237892Y284224D02*
X237108D01*
X236385Y283925D01*
X235831Y283371D01*
X235531Y282647D01*
Y281864D01*
X235831Y281141D01*
X236385Y280587D01*
X237108Y280287D01*
X237892D01*
X238615Y280587D01*
X239169Y281141D01*
X239469Y281864D01*
Y282647D01*
X239169Y283371D01*
X238615Y283925D01*
X237892Y284224D01*
D02*
G37*
G36*
X160332Y279350D02*
X159432D01*
X158599Y279006D01*
X157963Y278369D01*
X157618Y277537D01*
Y276636D01*
X157963Y275804D01*
X158599Y275167D01*
X159432Y274823D01*
X160332D01*
X161164Y275167D01*
X161801Y275804D01*
X162146Y276636D01*
Y277537D01*
X161801Y278369D01*
X161164Y279006D01*
X160332Y279350D01*
D02*
G37*
G36*
X237950Y279122D02*
X237050D01*
X236218Y278777D01*
X235581Y278141D01*
X235236Y277309D01*
Y276408D01*
X235581Y275576D01*
X236218Y274939D01*
X237050Y274594D01*
X237950D01*
X238782Y274939D01*
X239419Y275576D01*
X239764Y276408D01*
Y277309D01*
X239419Y278141D01*
X238782Y278777D01*
X237950Y279122D01*
D02*
G37*
G36*
X256090Y280531D02*
X254909D01*
X253959Y280406D01*
X253073Y280039D01*
X252312Y279456D01*
X251728Y278695D01*
X251361Y277809D01*
X251236Y276858D01*
X251361Y275908D01*
X251728Y275022D01*
X252312Y274261D01*
X253073Y273677D01*
X253959Y273310D01*
X254909Y273185D01*
X256090D01*
X257041Y273310D01*
X257927Y273677D01*
X258688Y274261D01*
X259272Y275022D01*
X259639Y275908D01*
X259764Y276858D01*
X259639Y277809D01*
X259272Y278695D01*
X258688Y279456D01*
X257927Y280039D01*
X257041Y280406D01*
X256090Y280531D01*
D02*
G37*
G36*
X52363Y272756D02*
X51637D01*
X50936Y272568D01*
X50308Y272205D01*
X49795Y271692D01*
X49432Y271064D01*
X49244Y270363D01*
Y269637D01*
X49432Y268936D01*
X49795Y268308D01*
X50308Y267795D01*
X50936Y267432D01*
X51637Y267244D01*
X52363D01*
X53064Y267432D01*
X53692Y267795D01*
X54205Y268308D01*
X54568Y268936D01*
X54756Y269637D01*
Y270363D01*
X54568Y271064D01*
X54205Y271692D01*
X53692Y272205D01*
X53064Y272568D01*
X52363Y272756D01*
D02*
G37*
G36*
X214316Y269350D02*
X213416D01*
X212584Y269006D01*
X211947Y268369D01*
X211602Y267537D01*
Y266636D01*
X211947Y265804D01*
X212584Y265167D01*
X213416Y264823D01*
X214316D01*
X215148Y265167D01*
X215785Y265804D01*
X216130Y266636D01*
Y267537D01*
X215785Y268369D01*
X215148Y269006D01*
X214316Y269350D01*
D02*
G37*
G36*
X142868D02*
X141967D01*
X141135Y269006D01*
X140498Y268369D01*
X140154Y267537D01*
Y266636D01*
X140498Y265804D01*
X141135Y265167D01*
X141967Y264823D01*
X142868D01*
X143700Y265167D01*
X144336Y265804D01*
X144681Y266636D01*
Y267537D01*
X144336Y268369D01*
X143700Y269006D01*
X142868Y269350D01*
D02*
G37*
G36*
X160332Y259350D02*
X159432D01*
X158599Y259006D01*
X157963Y258369D01*
X157618Y257537D01*
Y256636D01*
X157963Y255804D01*
X158599Y255168D01*
X159432Y254823D01*
X160332D01*
X161164Y255168D01*
X161801Y255804D01*
X162146Y256636D01*
Y257537D01*
X161801Y258369D01*
X161164Y259006D01*
X160332Y259350D01*
D02*
G37*
G36*
X256500Y250664D02*
Y247831D01*
X259846D01*
X259846Y247837D01*
X259457Y248775D01*
X258840Y249580D01*
X258034Y250198D01*
X257097Y250586D01*
X256500Y250664D01*
D02*
G37*
G36*
X254500D02*
X253903Y250586D01*
X252966Y250198D01*
X252161Y249580D01*
X251543Y248775D01*
X251154Y247837D01*
X251153Y247831D01*
X254500D01*
Y250664D01*
D02*
G37*
G36*
X214316Y249350D02*
X213416D01*
X212584Y249006D01*
X211947Y248369D01*
X211602Y247537D01*
Y246636D01*
X211947Y245804D01*
X212584Y245167D01*
X213416Y244823D01*
X214316D01*
X215148Y245167D01*
X215785Y245804D01*
X216130Y246636D01*
Y247537D01*
X215785Y248369D01*
X215148Y249006D01*
X214316Y249350D01*
D02*
G37*
G36*
X259846Y245831D02*
X256500D01*
Y242997D01*
X257097Y243076D01*
X258034Y243464D01*
X258840Y244082D01*
X259457Y244887D01*
X259846Y245825D01*
X259846Y245831D01*
D02*
G37*
G36*
X254500D02*
X251153D01*
X251154Y245825D01*
X251543Y244887D01*
X252161Y244082D01*
X252966Y243464D01*
X253903Y243076D01*
X254500Y242997D01*
Y245831D01*
D02*
G37*
G36*
X230950Y239264D02*
X230050D01*
X229218Y238919D01*
X228581Y238282D01*
X228236Y237450D01*
Y236550D01*
X228581Y235718D01*
X229218Y235081D01*
X230050Y234736D01*
X230950D01*
X231782Y235081D01*
X232419Y235718D01*
X232764Y236550D01*
Y237450D01*
X232419Y238282D01*
X231782Y238919D01*
X230950Y239264D01*
D02*
G37*
G36*
X201466Y239106D02*
X200566D01*
X199733Y238762D01*
X199097Y238125D01*
X198752Y237293D01*
Y236392D01*
X199097Y235560D01*
X199733Y234923D01*
X200566Y234579D01*
X201466D01*
X202298Y234923D01*
X202935Y235560D01*
X203279Y236392D01*
Y237293D01*
X202935Y238125D01*
X202298Y238762D01*
X201466Y239106D01*
D02*
G37*
G36*
X187466D02*
X186565D01*
X185733Y238762D01*
X185097Y238125D01*
X184752Y237293D01*
Y236392D01*
X185097Y235560D01*
X185733Y234923D01*
X186565Y234579D01*
X187466D01*
X188298Y234923D01*
X188935Y235560D01*
X189279Y236392D01*
Y237293D01*
X188935Y238125D01*
X188298Y238762D01*
X187466Y239106D01*
D02*
G37*
G36*
X173466D02*
X172565D01*
X171733Y238762D01*
X171097Y238125D01*
X170752Y237293D01*
Y236392D01*
X171097Y235560D01*
X171733Y234923D01*
X172565Y234579D01*
X173466D01*
X174298Y234923D01*
X174935Y235560D01*
X175279Y236392D01*
Y237293D01*
X174935Y238125D01*
X174298Y238762D01*
X173466Y239106D01*
D02*
G37*
G36*
X160332Y238764D02*
X159432D01*
X158599Y238419D01*
X157963Y237782D01*
X157618Y236950D01*
Y236050D01*
X157963Y235218D01*
X158599Y234581D01*
X159432Y234236D01*
X160332D01*
X161164Y234581D01*
X161801Y235218D01*
X162146Y236050D01*
Y236950D01*
X161801Y237782D01*
X161164Y238419D01*
X160332Y238764D01*
D02*
G37*
G36*
X256090Y240504D02*
X254909D01*
X253959Y240379D01*
X253073Y240012D01*
X252312Y239428D01*
X251728Y238667D01*
X251361Y237781D01*
X251236Y236831D01*
X251361Y235880D01*
X251728Y234994D01*
X252312Y234233D01*
X253073Y233650D01*
X253959Y233283D01*
X254909Y233158D01*
X256090D01*
X257041Y233283D01*
X257927Y233650D01*
X258688Y234233D01*
X259272Y234994D01*
X259639Y235880D01*
X259764Y236831D01*
X259639Y237781D01*
X259272Y238667D01*
X258688Y239428D01*
X257927Y240012D01*
X257041Y240379D01*
X256090Y240504D01*
D02*
G37*
G36*
Y230504D02*
X254909D01*
X253959Y230379D01*
X253073Y230012D01*
X252312Y229428D01*
X251728Y228667D01*
X251361Y227781D01*
X251236Y226831D01*
X251361Y225880D01*
X251728Y224994D01*
X252312Y224233D01*
X253073Y223650D01*
X253959Y223283D01*
X254909Y223158D01*
X256090D01*
X257041Y223283D01*
X257927Y223650D01*
X258688Y224233D01*
X259272Y224994D01*
X259639Y225880D01*
X259764Y226831D01*
X259639Y227781D01*
X259272Y228667D01*
X258688Y229428D01*
X257927Y230012D01*
X257041Y230379D01*
X256090Y230504D01*
D02*
G37*
G36*
X135450Y219270D02*
X134550D01*
X133718Y218925D01*
X133081Y218288D01*
X132736Y217456D01*
Y216556D01*
X133081Y215724D01*
X133718Y215087D01*
X134550Y214742D01*
X135450D01*
X136282Y215087D01*
X136919Y215724D01*
X137264Y216556D01*
Y217456D01*
X136919Y218288D01*
X136282Y218925D01*
X135450Y219270D01*
D02*
G37*
G36*
X256090Y220504D02*
X254909D01*
X253959Y220379D01*
X253073Y220012D01*
X252312Y219428D01*
X251728Y218667D01*
X251361Y217781D01*
X251236Y216831D01*
X251361Y215880D01*
X251728Y214994D01*
X252312Y214233D01*
X253073Y213650D01*
X253959Y213283D01*
X254909Y213158D01*
X256090D01*
X257041Y213283D01*
X257927Y213650D01*
X258688Y214233D01*
X259272Y214994D01*
X259639Y215880D01*
X259764Y216831D01*
X259639Y217781D01*
X259272Y218667D01*
X258688Y219428D01*
X257927Y220012D01*
X257041Y220379D01*
X256090Y220504D01*
D02*
G37*
G36*
X53149Y214221D02*
X52268D01*
X51417Y213993D01*
X50654Y213552D01*
X50053Y212952D01*
X36769D01*
X35974Y212793D01*
X35300Y212343D01*
X8031Y185074D01*
X7581Y184400D01*
X7423Y183606D01*
X7423Y73500D01*
Y71500D01*
X7581Y70705D01*
X8031Y70031D01*
X17531Y60531D01*
X18205Y60081D01*
X19000Y59923D01*
X19000Y59923D01*
X31197D01*
Y29469D01*
X31108D01*
X30385Y29169D01*
X29831Y28615D01*
X29531Y27892D01*
Y27108D01*
X29831Y26385D01*
X30385Y25831D01*
X31108Y25532D01*
X31197D01*
Y16320D01*
X31258Y16012D01*
X31432Y15752D01*
X31693Y15578D01*
X32000Y15517D01*
X88202D01*
X88424Y15246D01*
X88307Y14659D01*
Y13341D01*
X88564Y12048D01*
X89069Y10830D01*
X89801Y9734D01*
X90733Y8801D01*
X91830Y8069D01*
X93048Y7564D01*
X94341Y7307D01*
X95659D01*
X96952Y7564D01*
X98170Y8069D01*
X99266Y8801D01*
X100199Y9734D01*
X100931Y10830D01*
X101436Y12048D01*
X101693Y13341D01*
Y14659D01*
X101576Y15246D01*
X101798Y15517D01*
X102702D01*
X102924Y15246D01*
X102807Y14659D01*
Y13341D01*
X103064Y12048D01*
X103569Y10830D01*
X104301Y9734D01*
X105234Y8801D01*
X106330Y8069D01*
X107548Y7564D01*
X108841Y7307D01*
X110159D01*
X111452Y7564D01*
X112670Y8069D01*
X113767Y8801D01*
X114699Y9734D01*
X115431Y10830D01*
X115936Y12048D01*
X116193Y13341D01*
Y14659D01*
X116076Y15246D01*
X116298Y15517D01*
X150472D01*
X150476Y15514D01*
X150784Y15453D01*
X153689D01*
X153911Y15182D01*
X153807Y14659D01*
Y13341D01*
X154064Y12048D01*
X154569Y10830D01*
X155301Y9734D01*
X156234Y8801D01*
X157330Y8069D01*
X158548Y7564D01*
X159841Y7307D01*
X161159D01*
X162452Y7564D01*
X163670Y8069D01*
X164767Y8801D01*
X165699Y9734D01*
X166431Y10830D01*
X166936Y12048D01*
X167193Y13341D01*
Y14659D01*
X167089Y15182D01*
X167311Y15453D01*
X168189D01*
X168411Y15182D01*
X168307Y14659D01*
Y13341D01*
X168564Y12048D01*
X169069Y10830D01*
X169801Y9734D01*
X170733Y8801D01*
X171830Y8069D01*
X173048Y7564D01*
X174341Y7307D01*
X175659D01*
X176952Y7564D01*
X178170Y8069D01*
X179267Y8801D01*
X180199Y9734D01*
X180931Y10830D01*
X181436Y12048D01*
X181693Y13341D01*
Y14659D01*
X181589Y15182D01*
X181811Y15453D01*
X246500D01*
X246807Y15514D01*
X247068Y15688D01*
X247242Y15949D01*
X247303Y16256D01*
Y59000D01*
X247242Y59307D01*
X247179Y59401D01*
X247242Y59496D01*
X247303Y59803D01*
Y85256D01*
X247242Y85563D01*
X247068Y85824D01*
X246807Y85998D01*
X246500Y86059D01*
X218071D01*
X217994Y86043D01*
X217915D01*
X217842Y86013D01*
X217764Y85998D01*
X217698Y85954D01*
X217625Y85923D01*
X217569Y85868D01*
X217504Y85824D01*
X217164Y85932D01*
X217143Y85953D01*
X216420Y86253D01*
X215637D01*
X214913Y85953D01*
X214892Y85932D01*
X214553Y85824D01*
X214487Y85868D01*
X214431Y85923D01*
X214358Y85954D01*
X214292Y85998D01*
X214215Y86013D01*
X214142Y86043D01*
X214063D01*
X213985Y86059D01*
X181803D01*
Y204758D01*
X181742Y205065D01*
X181568Y205326D01*
X181307Y205500D01*
X181000Y205561D01*
X87000D01*
X86693Y205500D01*
X86432Y205326D01*
X86258Y205065D01*
X86197Y204758D01*
Y170256D01*
X86258Y169949D01*
X86432Y169688D01*
X86693Y169514D01*
X87000Y169453D01*
X125923D01*
X126230Y169514D01*
X126490Y169688D01*
X126664Y169949D01*
X126725Y170256D01*
Y176356D01*
X126664Y176663D01*
X126539Y176965D01*
Y177547D01*
X126761Y178084D01*
X127172Y178494D01*
X127709Y178717D01*
X128291D01*
X128828Y178494D01*
X129238Y178084D01*
X129461Y177547D01*
Y176965D01*
X129336Y176663D01*
X129274Y176356D01*
Y170256D01*
X129336Y169949D01*
X129510Y169688D01*
X129770Y169514D01*
X130077Y169453D01*
X139197D01*
Y134136D01*
X38957D01*
X38435Y134658D01*
X37695Y135086D01*
X36869Y135307D01*
X36013D01*
X35187Y135086D01*
X34447Y134658D01*
X33842Y134053D01*
X33414Y133313D01*
X33193Y132487D01*
Y131631D01*
X33414Y130805D01*
X33842Y130065D01*
X34447Y129460D01*
X35187Y129032D01*
X36013Y128811D01*
X36869D01*
X37695Y129032D01*
X38435Y129460D01*
X38957Y129982D01*
X139197D01*
Y110514D01*
X138847Y110280D01*
X138392Y110468D01*
X137608D01*
X136885Y110169D01*
X136331Y109615D01*
X136031Y108892D01*
Y108108D01*
X136331Y107385D01*
X136885Y106831D01*
X137608Y106532D01*
X138392D01*
X138847Y106720D01*
X139197Y106486D01*
Y99559D01*
X138847Y99325D01*
X138447Y99491D01*
X137663D01*
X136940Y99191D01*
X136386Y98637D01*
X136087Y97914D01*
Y97131D01*
X136386Y96407D01*
X136940Y95854D01*
X137663Y95554D01*
X138447D01*
X138847Y95720D01*
X139197Y95486D01*
Y86059D01*
X102056D01*
X101861Y86350D01*
X101969Y86608D01*
Y87392D01*
X101669Y88115D01*
X101115Y88669D01*
X100392Y88968D01*
X99608D01*
X98885Y88669D01*
X98331Y88115D01*
X98032Y87392D01*
Y86608D01*
X98139Y86350D01*
X97944Y86059D01*
X32000D01*
X31693Y85998D01*
X31432Y85824D01*
X31258Y85563D01*
X31197Y85256D01*
Y64077D01*
X19861D01*
X11577Y72360D01*
Y73500D01*
X11577Y175542D01*
X11927Y175629D01*
X12322Y174945D01*
X12945Y174322D01*
X13708Y173882D01*
X14559Y173653D01*
X15441D01*
X16292Y173882D01*
X17055Y174322D01*
X17678Y174945D01*
X18118Y175708D01*
X18346Y176559D01*
Y177441D01*
X18118Y178292D01*
X17678Y179055D01*
X17055Y179678D01*
X16292Y180118D01*
X15441Y180347D01*
X14559D01*
X13708Y180118D01*
X12945Y179678D01*
X12322Y179055D01*
X11927Y178371D01*
X11577Y178458D01*
Y182745D01*
X37629Y208797D01*
X50053D01*
X50654Y208196D01*
X51417Y207756D01*
X52268Y207528D01*
X53149D01*
X54000Y207756D01*
X54763Y208196D01*
X55386Y208820D01*
X55827Y209583D01*
X56055Y210434D01*
Y211315D01*
X55827Y212166D01*
X55386Y212929D01*
X54763Y213552D01*
X54000Y213993D01*
X53149Y214221D01*
D02*
G37*
G36*
X74892Y208968D02*
X74108D01*
X73385Y208669D01*
X72831Y208115D01*
X72531Y207392D01*
Y206608D01*
X72831Y205885D01*
X73385Y205331D01*
X74108Y205031D01*
X74892D01*
X75615Y205331D01*
X76169Y205885D01*
X76468Y206608D01*
Y207392D01*
X76169Y208115D01*
X75615Y208669D01*
X74892Y208968D01*
D02*
G37*
G36*
X256090Y210504D02*
X254909D01*
X253959Y210379D01*
X253073Y210012D01*
X252312Y209428D01*
X251728Y208667D01*
X251361Y207781D01*
X251236Y206831D01*
X251361Y205880D01*
X251728Y204994D01*
X252312Y204233D01*
X253073Y203650D01*
X253959Y203283D01*
X254909Y203158D01*
X256090D01*
X257041Y203283D01*
X257927Y203650D01*
X258688Y204233D01*
X259272Y204994D01*
X259639Y205880D01*
X259764Y206831D01*
X259639Y207781D01*
X259272Y208667D01*
X258688Y209428D01*
X257927Y210012D01*
X257041Y210379D01*
X256090Y210504D01*
D02*
G37*
G36*
X74892Y204177D02*
X74108D01*
X73385Y203877D01*
X72831Y203324D01*
X72531Y202600D01*
Y201817D01*
X72831Y201094D01*
X73385Y200540D01*
X74108Y200240D01*
X74892D01*
X75615Y200540D01*
X76169Y201094D01*
X76468Y201817D01*
Y202600D01*
X76169Y203324D01*
X75615Y203877D01*
X74892Y204177D01*
D02*
G37*
G36*
X203892Y202724D02*
X203108D01*
X202385Y202425D01*
X201831Y201871D01*
X201532Y201148D01*
Y200364D01*
X201831Y199641D01*
X202385Y199087D01*
X203108Y198787D01*
X203892D01*
X204615Y199087D01*
X205169Y199641D01*
X205469Y200364D01*
Y201148D01*
X205169Y201871D01*
X204615Y202425D01*
X203892Y202724D01*
D02*
G37*
G36*
X74892Y198969D02*
X74108D01*
X73385Y198669D01*
X72831Y198115D01*
X72531Y197392D01*
Y196608D01*
X72831Y195885D01*
X73385Y195331D01*
X74108Y195031D01*
X74892D01*
X75615Y195331D01*
X76169Y195885D01*
X76468Y196608D01*
Y197392D01*
X76169Y198115D01*
X75615Y198669D01*
X74892Y198969D01*
D02*
G37*
G36*
X247950Y199094D02*
X247050D01*
X246218Y198750D01*
X245581Y198113D01*
X245236Y197281D01*
Y196380D01*
X245581Y195548D01*
X246218Y194912D01*
X247050Y194567D01*
X247950D01*
X248782Y194912D01*
X249419Y195548D01*
X249764Y196380D01*
Y197281D01*
X249419Y198113D01*
X248782Y198750D01*
X247950Y199094D01*
D02*
G37*
G36*
X256090Y200504D02*
X254909D01*
X253959Y200379D01*
X253073Y200012D01*
X252312Y199428D01*
X251728Y198667D01*
X251361Y197781D01*
X251236Y196831D01*
X251361Y195880D01*
X251728Y194994D01*
X252312Y194233D01*
X253073Y193650D01*
X253959Y193283D01*
X254909Y193158D01*
X256090D01*
X257041Y193283D01*
X257927Y193650D01*
X258688Y194233D01*
X259272Y194994D01*
X259639Y195880D01*
X259764Y196831D01*
X259639Y197781D01*
X259272Y198667D01*
X258688Y199428D01*
X257927Y200012D01*
X257041Y200379D01*
X256090Y200504D01*
D02*
G37*
G36*
X247892Y192968D02*
X247108D01*
X246385Y192669D01*
X245831Y192115D01*
X245532Y191392D01*
Y190608D01*
X245831Y189885D01*
X246385Y189331D01*
X247108Y189032D01*
X247892D01*
X248615Y189331D01*
X249169Y189885D01*
X249468Y190608D01*
Y191392D01*
X249169Y192115D01*
X248615Y192669D01*
X247892Y192968D01*
D02*
G37*
G36*
X74892Y191724D02*
X74108D01*
X73385Y191425D01*
X72831Y190871D01*
X72531Y190147D01*
Y189364D01*
X72831Y188641D01*
X73385Y188087D01*
X74108Y187787D01*
X74892D01*
X75615Y188087D01*
X76169Y188641D01*
X76468Y189364D01*
Y190147D01*
X76169Y190871D01*
X75615Y191425D01*
X74892Y191724D01*
D02*
G37*
G36*
X220892Y188969D02*
X220108D01*
X219385Y188669D01*
X218831Y188115D01*
X218531Y187392D01*
Y186608D01*
X218831Y185885D01*
X219385Y185331D01*
X220108Y185031D01*
X220892D01*
X221615Y185331D01*
X222169Y185885D01*
X222468Y186608D01*
Y187392D01*
X222169Y188115D01*
X221615Y188669D01*
X220892Y188969D01*
D02*
G37*
G36*
X237950Y189094D02*
X237050D01*
X236218Y188750D01*
X235581Y188113D01*
X235236Y187281D01*
Y186380D01*
X235581Y185548D01*
X236218Y184912D01*
X237050Y184567D01*
X237950D01*
X238782Y184912D01*
X239419Y185548D01*
X239764Y186380D01*
Y187281D01*
X239419Y188113D01*
X238782Y188750D01*
X237950Y189094D01*
D02*
G37*
G36*
X256090Y190504D02*
X254909D01*
X253959Y190379D01*
X253073Y190012D01*
X252312Y189428D01*
X251728Y188667D01*
X251361Y187781D01*
X251236Y186831D01*
X251361Y185880D01*
X251728Y184994D01*
X252312Y184233D01*
X253073Y183650D01*
X253959Y183283D01*
X254909Y183158D01*
X256090D01*
X257041Y183283D01*
X257927Y183650D01*
X258688Y184233D01*
X259272Y184994D01*
X259639Y185880D01*
X259764Y186831D01*
X259639Y187781D01*
X259272Y188667D01*
X258688Y189428D01*
X257927Y190012D01*
X257041Y190379D01*
X256090Y190504D01*
D02*
G37*
G36*
X247892Y183968D02*
X247108D01*
X246385Y183669D01*
X245831Y183115D01*
X245532Y182392D01*
Y181608D01*
X245831Y180885D01*
X246385Y180331D01*
X247108Y180032D01*
X247892D01*
X248615Y180331D01*
X249169Y180885D01*
X249468Y181608D01*
Y182392D01*
X249169Y183115D01*
X248615Y183669D01*
X247892Y183968D01*
D02*
G37*
G36*
X256090Y180504D02*
X254909D01*
X253959Y180379D01*
X253073Y180012D01*
X252312Y179428D01*
X251728Y178667D01*
X251361Y177781D01*
X251236Y176831D01*
X251361Y175880D01*
X251728Y174994D01*
X252312Y174233D01*
X253073Y173650D01*
X253959Y173283D01*
X254909Y173158D01*
X256090D01*
X257041Y173283D01*
X257927Y173650D01*
X258688Y174233D01*
X259272Y174994D01*
X259639Y175880D01*
X259764Y176831D01*
X259639Y177781D01*
X259272Y178667D01*
X258688Y179428D01*
X257927Y180012D01*
X257041Y180379D01*
X256090Y180504D01*
D02*
G37*
G36*
X38392Y174469D02*
X37608D01*
X36885Y174169D01*
X36331Y173615D01*
X36031Y172892D01*
Y172108D01*
X36331Y171385D01*
X36885Y170831D01*
X37608Y170531D01*
X38392D01*
X39115Y170831D01*
X39669Y171385D01*
X39968Y172108D01*
Y172892D01*
X39669Y173615D01*
X39115Y174169D01*
X38392Y174469D01*
D02*
G37*
G36*
X26392D02*
X25608D01*
X24885Y174169D01*
X24331Y173615D01*
X24032Y172892D01*
Y172108D01*
X24331Y171385D01*
X24885Y170831D01*
X25608Y170531D01*
X26392D01*
X27115Y170831D01*
X27669Y171385D01*
X27968Y172108D01*
Y172892D01*
X27669Y173615D01*
X27115Y174169D01*
X26392Y174469D01*
D02*
G37*
G36*
X203892Y169468D02*
X203108D01*
X202385Y169169D01*
X201831Y168615D01*
X201532Y167892D01*
Y167108D01*
X201831Y166385D01*
X202385Y165831D01*
X203108Y165532D01*
X203892D01*
X204615Y165831D01*
X205169Y166385D01*
X205469Y167108D01*
Y167892D01*
X205169Y168615D01*
X204615Y169169D01*
X203892Y169468D01*
D02*
G37*
G36*
X214316Y169350D02*
X213416D01*
X212584Y169006D01*
X211947Y168369D01*
X211602Y167537D01*
Y166636D01*
X211947Y165804D01*
X212584Y165167D01*
X213416Y164823D01*
X214316D01*
X215148Y165167D01*
X215785Y165804D01*
X216130Y166636D01*
Y167537D01*
X215785Y168369D01*
X215148Y169006D01*
X214316Y169350D01*
D02*
G37*
G36*
X242950Y169095D02*
X242050D01*
X241218Y168750D01*
X240581Y168113D01*
X240236Y167281D01*
Y166380D01*
X240581Y165548D01*
X241218Y164912D01*
X242050Y164567D01*
X242950D01*
X243782Y164912D01*
X244419Y165548D01*
X244764Y166380D01*
Y167281D01*
X244419Y168113D01*
X243782Y168750D01*
X242950Y169095D01*
D02*
G37*
G36*
X256090Y170504D02*
X254909D01*
X253959Y170379D01*
X253073Y170012D01*
X252312Y169428D01*
X251728Y168667D01*
X251361Y167781D01*
X251236Y166831D01*
X251361Y165880D01*
X251728Y164994D01*
X252312Y164233D01*
X253073Y163650D01*
X253959Y163283D01*
X254909Y163158D01*
X256090D01*
X257041Y163283D01*
X257927Y163650D01*
X258688Y164233D01*
X259272Y164994D01*
X259639Y165880D01*
X259764Y166831D01*
X259639Y167781D01*
X259272Y168667D01*
X258688Y169428D01*
X257927Y170012D01*
X257041Y170379D01*
X256090Y170504D01*
D02*
G37*
G36*
X75392Y160299D02*
X74608D01*
X73885Y160000D01*
X73331Y159446D01*
X73032Y158722D01*
Y157939D01*
X73331Y157216D01*
X73885Y156662D01*
X74608Y156362D01*
X75392D01*
X76115Y156662D01*
X76669Y157216D01*
X76968Y157939D01*
Y158722D01*
X76669Y159446D01*
X76115Y160000D01*
X75392Y160299D01*
D02*
G37*
G36*
X65392D02*
X64608D01*
X63885Y160000D01*
X63331Y159446D01*
X63032Y158722D01*
Y157939D01*
X63331Y157216D01*
X63885Y156662D01*
X64608Y156362D01*
X65392D01*
X66115Y156662D01*
X66669Y157216D01*
X66969Y157939D01*
Y158722D01*
X66669Y159446D01*
X66115Y160000D01*
X65392Y160299D01*
D02*
G37*
G36*
X55392Y160290D02*
X54609D01*
X53885Y159991D01*
X53332Y159437D01*
X53032Y158713D01*
Y157930D01*
X53332Y157207D01*
X53885Y156653D01*
X54609Y156353D01*
X55392D01*
X56115Y156653D01*
X56669Y157207D01*
X56969Y157930D01*
Y158713D01*
X56669Y159437D01*
X56115Y159991D01*
X55392Y160290D01*
D02*
G37*
G36*
X256090Y160504D02*
X254909D01*
X253959Y160379D01*
X253073Y160012D01*
X252312Y159428D01*
X251728Y158667D01*
X251361Y157781D01*
X251236Y156831D01*
X251361Y155880D01*
X251728Y154994D01*
X252312Y154233D01*
X253073Y153650D01*
X253959Y153283D01*
X254909Y153158D01*
X256090D01*
X257041Y153283D01*
X257927Y153650D01*
X258688Y154233D01*
X259272Y154994D01*
X259639Y155880D01*
X259764Y156831D01*
X259639Y157781D01*
X259272Y158667D01*
X258688Y159428D01*
X257927Y160012D01*
X257041Y160379D01*
X256090Y160504D01*
D02*
G37*
G36*
X134392Y153969D02*
X133608D01*
X132885Y153669D01*
X132331Y153115D01*
X132032Y152392D01*
Y151608D01*
X132331Y150885D01*
X132885Y150331D01*
X133608Y150031D01*
X134392D01*
X135115Y150331D01*
X135669Y150885D01*
X135968Y151608D01*
Y152392D01*
X135669Y153115D01*
X135115Y153669D01*
X134392Y153969D01*
D02*
G37*
G36*
X237950Y149264D02*
X237050D01*
X236218Y148919D01*
X235581Y148282D01*
X235236Y147450D01*
Y146550D01*
X235581Y145718D01*
X236218Y145081D01*
X237050Y144736D01*
X237950D01*
X238782Y145081D01*
X239419Y145718D01*
X239764Y146550D01*
Y147450D01*
X239419Y148282D01*
X238782Y148919D01*
X237950Y149264D01*
D02*
G37*
G36*
X256090Y150504D02*
X254909D01*
X253959Y150379D01*
X253073Y150012D01*
X252312Y149428D01*
X251728Y148667D01*
X251361Y147781D01*
X251236Y146831D01*
X251361Y145880D01*
X251728Y144994D01*
X252312Y144233D01*
X253073Y143650D01*
X253959Y143283D01*
X254909Y143158D01*
X256090D01*
X257041Y143283D01*
X257927Y143650D01*
X258688Y144233D01*
X259272Y144994D01*
X259639Y145880D01*
X259764Y146831D01*
X259639Y147781D01*
X259272Y148667D01*
X258688Y149428D01*
X257927Y150012D01*
X257041Y150379D01*
X256090Y150504D01*
D02*
G37*
G36*
X75392Y144299D02*
X74608D01*
X73885Y144000D01*
X73331Y143446D01*
X73032Y142722D01*
Y141939D01*
X73331Y141216D01*
X73885Y140662D01*
X74608Y140362D01*
X75392D01*
X76115Y140662D01*
X76669Y141216D01*
X76968Y141939D01*
Y142722D01*
X76669Y143446D01*
X76115Y144000D01*
X75392Y144299D01*
D02*
G37*
G36*
X65392D02*
X64608D01*
X63885Y144000D01*
X63331Y143446D01*
X63032Y142722D01*
Y141939D01*
X63331Y141216D01*
X63885Y140662D01*
X64608Y140362D01*
X65392D01*
X66115Y140662D01*
X66669Y141216D01*
X66969Y141939D01*
Y142722D01*
X66669Y143446D01*
X66115Y144000D01*
X65392Y144299D01*
D02*
G37*
G36*
X55392D02*
X54608D01*
X53885Y144000D01*
X53331Y143446D01*
X53031Y142722D01*
Y141939D01*
X53331Y141216D01*
X53885Y140662D01*
X54608Y140362D01*
X55392D01*
X56115Y140662D01*
X56669Y141216D01*
X56968Y141939D01*
Y142722D01*
X56669Y143446D01*
X56115Y144000D01*
X55392Y144299D01*
D02*
G37*
G36*
X113387Y144595D02*
X112487D01*
X111655Y144250D01*
X111018Y143613D01*
X110673Y142781D01*
Y141880D01*
X111018Y141048D01*
X111655Y140412D01*
X112487Y140067D01*
X113387D01*
X114219Y140412D01*
X114856Y141048D01*
X115201Y141880D01*
Y142781D01*
X114856Y143613D01*
X114219Y144250D01*
X113387Y144595D01*
D02*
G37*
G36*
X124950Y144020D02*
X124050D01*
X123218Y143675D01*
X122581Y143038D01*
X122236Y142206D01*
Y141306D01*
X122581Y140474D01*
X123218Y139837D01*
X124050Y139492D01*
X124950D01*
X125782Y139837D01*
X126419Y140474D01*
X126764Y141306D01*
Y142206D01*
X126419Y143038D01*
X125782Y143675D01*
X124950Y144020D01*
D02*
G37*
G36*
X224450Y142264D02*
X223550D01*
X222718Y141919D01*
X222081Y141282D01*
X221736Y140450D01*
Y139550D01*
X222081Y138718D01*
X222718Y138081D01*
X223550Y137736D01*
X224450D01*
X225282Y138081D01*
X225919Y138718D01*
X226264Y139550D01*
Y140450D01*
X225919Y141282D01*
X225282Y141919D01*
X224450Y142264D01*
D02*
G37*
G36*
X256090Y140504D02*
X254909D01*
X253959Y140379D01*
X253073Y140012D01*
X252312Y139428D01*
X251728Y138667D01*
X251361Y137781D01*
X251236Y136831D01*
X251361Y135880D01*
X251728Y134994D01*
X252312Y134233D01*
X253073Y133650D01*
X253959Y133283D01*
X254909Y133158D01*
X256090D01*
X257041Y133283D01*
X257927Y133650D01*
X258688Y134233D01*
X259272Y134994D01*
X259639Y135880D01*
X259764Y136831D01*
X259639Y137781D01*
X259272Y138667D01*
X258688Y139428D01*
X257927Y140012D01*
X257041Y140379D01*
X256090Y140504D01*
D02*
G37*
G36*
X224450Y136264D02*
X223550D01*
X222718Y135919D01*
X222081Y135282D01*
X221736Y134450D01*
Y133550D01*
X222081Y132718D01*
X222718Y132081D01*
X223550Y131736D01*
X224450D01*
X225282Y132081D01*
X225919Y132718D01*
X226264Y133550D01*
Y134450D01*
X225919Y135282D01*
X225282Y135919D01*
X224450Y136264D01*
D02*
G37*
G36*
X220950Y129414D02*
X220050D01*
X219218Y129069D01*
X218581Y128432D01*
X218236Y127600D01*
Y126700D01*
X218581Y125868D01*
X219218Y125231D01*
X220050Y124886D01*
X220950D01*
X221782Y125231D01*
X222419Y125868D01*
X222764Y126700D01*
Y127600D01*
X222419Y128432D01*
X221782Y129069D01*
X220950Y129414D01*
D02*
G37*
G36*
X256090Y130504D02*
X254909D01*
X253959Y130379D01*
X253073Y130012D01*
X252312Y129428D01*
X251728Y128667D01*
X251361Y127781D01*
X251236Y126831D01*
X251361Y125880D01*
X251728Y124994D01*
X252312Y124233D01*
X253073Y123650D01*
X253959Y123283D01*
X254909Y123158D01*
X256090D01*
X257041Y123283D01*
X257927Y123650D01*
X258688Y124233D01*
X259272Y124994D01*
X259639Y125880D01*
X259764Y126831D01*
X259639Y127781D01*
X259272Y128667D01*
X258688Y129428D01*
X257927Y130012D01*
X257041Y130379D01*
X256090Y130504D01*
D02*
G37*
G36*
X78392Y125469D02*
X77608D01*
X76885Y125169D01*
X76331Y124615D01*
X76032Y123892D01*
Y123108D01*
X76331Y122385D01*
X76885Y121831D01*
X77608Y121531D01*
X78392D01*
X79115Y121831D01*
X79669Y122385D01*
X79969Y123108D01*
Y123892D01*
X79669Y124615D01*
X79115Y125169D01*
X78392Y125469D01*
D02*
G37*
G36*
X65392D02*
X64608D01*
X63885Y125169D01*
X63331Y124615D01*
X63032Y123892D01*
Y123108D01*
X63331Y122385D01*
X63885Y121831D01*
X64608Y121531D01*
X65392D01*
X66115Y121831D01*
X66669Y122385D01*
X66969Y123108D01*
Y123892D01*
X66669Y124615D01*
X66115Y125169D01*
X65392Y125469D01*
D02*
G37*
G36*
X44892D02*
X44108D01*
X43385Y125169D01*
X42831Y124615D01*
X42531Y123892D01*
Y123108D01*
X42831Y122385D01*
X43385Y121831D01*
X44108Y121531D01*
X44892D01*
X45615Y121831D01*
X46169Y122385D01*
X46468Y123108D01*
Y123892D01*
X46169Y124615D01*
X45615Y125169D01*
X44892Y125469D01*
D02*
G37*
G36*
X36892D02*
X36108D01*
X35385Y125169D01*
X34831Y124615D01*
X34532Y123892D01*
Y123108D01*
X34831Y122385D01*
X35385Y121831D01*
X36108Y121531D01*
X36892D01*
X37615Y121831D01*
X38169Y122385D01*
X38469Y123108D01*
Y123892D01*
X38169Y124615D01*
X37615Y125169D01*
X36892Y125469D01*
D02*
G37*
G36*
X101110Y125378D02*
X100327D01*
X99603Y125078D01*
X99050Y124524D01*
X98750Y123801D01*
Y123018D01*
X99050Y122294D01*
X99603Y121741D01*
X100327Y121441D01*
X101110D01*
X101834Y121741D01*
X102387Y122294D01*
X102687Y123018D01*
Y123801D01*
X102387Y124524D01*
X101834Y125078D01*
X101110Y125378D01*
D02*
G37*
G36*
X256090Y120504D02*
X254909D01*
X253959Y120379D01*
X253073Y120012D01*
X252312Y119428D01*
X251728Y118667D01*
X251361Y117781D01*
X251236Y116831D01*
X251361Y115880D01*
X251728Y114994D01*
X252312Y114233D01*
X253073Y113650D01*
X253959Y113283D01*
X254909Y113158D01*
X256090D01*
X257041Y113283D01*
X257927Y113650D01*
X258688Y114233D01*
X259272Y114994D01*
X259639Y115880D01*
X259764Y116831D01*
X259639Y117781D01*
X259272Y118667D01*
X258688Y119428D01*
X257927Y120012D01*
X257041Y120379D01*
X256090Y120504D01*
D02*
G37*
G36*
X65392Y112969D02*
X64608D01*
X63885Y112669D01*
X63331Y112115D01*
X63032Y111392D01*
Y110608D01*
X63331Y109885D01*
X63885Y109331D01*
X64608Y109031D01*
X65392D01*
X66115Y109331D01*
X66669Y109885D01*
X66969Y110608D01*
Y111392D01*
X66669Y112115D01*
X66115Y112669D01*
X65392Y112969D01*
D02*
G37*
G36*
X229892Y110299D02*
X229108D01*
X228385Y110000D01*
X227831Y109446D01*
X227532Y108722D01*
Y107939D01*
X227831Y107216D01*
X228385Y106662D01*
X229108Y106362D01*
X229892D01*
X230615Y106662D01*
X231169Y107216D01*
X231469Y107939D01*
Y108722D01*
X231169Y109446D01*
X230615Y110000D01*
X229892Y110299D01*
D02*
G37*
G36*
X201892D02*
X201108D01*
X200385Y110000D01*
X199831Y109446D01*
X199531Y108722D01*
Y107939D01*
X199831Y107216D01*
X200385Y106662D01*
X201108Y106362D01*
X201892D01*
X202615Y106662D01*
X203169Y107216D01*
X203468Y107939D01*
Y108722D01*
X203169Y109446D01*
X202615Y110000D01*
X201892Y110299D01*
D02*
G37*
G36*
X20591Y135016D02*
X19410D01*
X18690Y134921D01*
X18020Y134643D01*
X17444Y134202D01*
X17002Y133626D01*
X16725Y132956D01*
X16630Y132236D01*
X16725Y131517D01*
X17002Y130846D01*
X17444Y130271D01*
X18020Y129829D01*
X18690Y129551D01*
X19409Y129456D01*
Y129110D01*
X18690Y129016D01*
X18020Y128738D01*
X17444Y128296D01*
X17002Y127721D01*
X16725Y127050D01*
X16630Y126331D01*
X16725Y125611D01*
X17002Y124941D01*
X17444Y124365D01*
X18020Y123923D01*
X18690Y123646D01*
X19409Y123551D01*
Y123205D01*
X18690Y123110D01*
X18020Y122833D01*
X17444Y122391D01*
X17002Y121815D01*
X16725Y121145D01*
X16630Y120425D01*
X16725Y119706D01*
X17002Y119035D01*
X17444Y118460D01*
X18020Y118018D01*
X18690Y117740D01*
X19409Y117646D01*
Y117299D01*
X18690Y117205D01*
X18020Y116927D01*
X17444Y116485D01*
X17002Y115910D01*
X16725Y115239D01*
X16630Y114520D01*
X16725Y113800D01*
X17002Y113130D01*
X17444Y112554D01*
X18020Y112112D01*
X18690Y111835D01*
X19409Y111740D01*
Y111394D01*
X18690Y111299D01*
X18020Y111021D01*
X17444Y110580D01*
X17002Y110004D01*
X16725Y109334D01*
X16630Y108614D01*
X16725Y107895D01*
X17002Y107224D01*
X17444Y106649D01*
X18020Y106207D01*
X18690Y105929D01*
X19410Y105834D01*
X20591D01*
X21310Y105929D01*
X21980Y106207D01*
X22556Y106649D01*
X22998Y107224D01*
X23276Y107895D01*
X23370Y108614D01*
X23276Y109334D01*
X22998Y110004D01*
X22556Y110580D01*
X21980Y111021D01*
X21310Y111299D01*
X20591Y111394D01*
Y111740D01*
X21310Y111835D01*
X21980Y112112D01*
X22556Y112554D01*
X22998Y113130D01*
X23276Y113800D01*
X23370Y114520D01*
X23276Y115239D01*
X22998Y115910D01*
X22556Y116485D01*
X21980Y116927D01*
X21310Y117205D01*
X20591Y117299D01*
Y117646D01*
X21310Y117740D01*
X21980Y118018D01*
X22556Y118460D01*
X22998Y119035D01*
X23276Y119706D01*
X23370Y120425D01*
X23276Y121145D01*
X22998Y121815D01*
X22556Y122391D01*
X21980Y122833D01*
X21310Y123110D01*
X20591Y123205D01*
Y123551D01*
X21310Y123646D01*
X21980Y123923D01*
X22556Y124365D01*
X22998Y124941D01*
X23276Y125611D01*
X23370Y126331D01*
X23276Y127050D01*
X22998Y127721D01*
X22556Y128296D01*
X21980Y128738D01*
X21310Y129016D01*
X20591Y129110D01*
Y129456D01*
X21310Y129551D01*
X21980Y129829D01*
X22556Y130271D01*
X22998Y130846D01*
X23276Y131517D01*
X23370Y132236D01*
X23276Y132956D01*
X22998Y133626D01*
X22556Y134202D01*
X21980Y134643D01*
X21310Y134921D01*
X20591Y135016D01*
D02*
G37*
G36*
X81392Y107468D02*
X80608D01*
X79885Y107169D01*
X79331Y106615D01*
X79031Y105892D01*
Y105108D01*
X79331Y104385D01*
X79885Y103831D01*
X80608Y103532D01*
X81392D01*
X82115Y103831D01*
X82669Y104385D01*
X82968Y105108D01*
Y105892D01*
X82669Y106615D01*
X82115Y107169D01*
X81392Y107468D01*
D02*
G37*
G36*
X215892Y105968D02*
X215108D01*
X214385Y105669D01*
X213831Y105115D01*
X213531Y104392D01*
Y103608D01*
X213831Y102885D01*
X214385Y102331D01*
X215108Y102032D01*
X215892D01*
X216615Y102331D01*
X217169Y102885D01*
X217469Y103608D01*
Y104392D01*
X217169Y105115D01*
X216615Y105669D01*
X215892Y105968D01*
D02*
G37*
G36*
X44892Y102969D02*
X44108D01*
X43385Y102669D01*
X42831Y102115D01*
X42531Y101392D01*
Y100608D01*
X42831Y99885D01*
X43385Y99331D01*
X44108Y99032D01*
X44892D01*
X45615Y99331D01*
X46169Y99885D01*
X46468Y100608D01*
Y101392D01*
X46169Y102115D01*
X45615Y102669D01*
X44892Y102969D01*
D02*
G37*
G36*
X208950Y100594D02*
X208050D01*
X207218Y100250D01*
X206581Y99613D01*
X206236Y98781D01*
Y97880D01*
X206581Y97048D01*
X207218Y96412D01*
X208050Y96067D01*
X208950D01*
X209782Y96412D01*
X210419Y97048D01*
X210764Y97880D01*
Y98781D01*
X210419Y99613D01*
X209782Y100250D01*
X208950Y100594D01*
D02*
G37*
G36*
X193950Y100520D02*
X193050D01*
X192218Y100175D01*
X191581Y99538D01*
X191236Y98706D01*
Y97806D01*
X191581Y96974D01*
X192218Y96337D01*
X193050Y95992D01*
X193950D01*
X194782Y96337D01*
X195419Y96974D01*
X195764Y97806D01*
Y98706D01*
X195419Y99538D01*
X194782Y100175D01*
X193950Y100520D01*
D02*
G37*
G36*
X21000Y97664D02*
Y94831D01*
X24347D01*
X24346Y94837D01*
X23957Y95775D01*
X23339Y96580D01*
X22534Y97198D01*
X21597Y97586D01*
X21000Y97664D01*
D02*
G37*
G36*
X19000D02*
X18403Y97586D01*
X17466Y97198D01*
X16660Y96580D01*
X16043Y95775D01*
X15654Y94837D01*
X15653Y94831D01*
X19000D01*
Y97664D01*
D02*
G37*
G36*
X24347Y92831D02*
X21000D01*
Y89997D01*
X21597Y90076D01*
X22534Y90464D01*
X23339Y91082D01*
X23957Y91887D01*
X24346Y92825D01*
X24347Y92831D01*
D02*
G37*
G36*
X19000D02*
X15653D01*
X15654Y92825D01*
X16043Y91887D01*
X16660Y91082D01*
X17466Y90464D01*
X18403Y90076D01*
X19000Y89997D01*
Y92831D01*
D02*
G37*
G36*
X256090Y92004D02*
X254909D01*
X253959Y91879D01*
X253073Y91512D01*
X252312Y90928D01*
X251728Y90167D01*
X251361Y89281D01*
X251236Y88331D01*
X251361Y87380D01*
X251728Y86494D01*
X252312Y85733D01*
X253073Y85150D01*
X253959Y84783D01*
X254909Y84658D01*
X256090D01*
X257041Y84783D01*
X257927Y85150D01*
X258688Y85733D01*
X259272Y86494D01*
X259639Y87380D01*
X259764Y88331D01*
X259639Y89281D01*
X259272Y90167D01*
X258688Y90928D01*
X257927Y91512D01*
X257041Y91879D01*
X256090Y92004D01*
D02*
G37*
G36*
X20591Y87504D02*
X19410D01*
X18459Y87379D01*
X17573Y87012D01*
X16812Y86428D01*
X16228Y85667D01*
X15861Y84781D01*
X15736Y83831D01*
X15861Y82880D01*
X16228Y81994D01*
X16812Y81233D01*
X17573Y80650D01*
X18459Y80283D01*
X19410Y80158D01*
X20591D01*
X21541Y80283D01*
X22427Y80650D01*
X23188Y81233D01*
X23772Y81994D01*
X24138Y82880D01*
X24264Y83831D01*
X24138Y84781D01*
X23772Y85667D01*
X23188Y86428D01*
X22427Y87012D01*
X21541Y87379D01*
X20591Y87504D01*
D02*
G37*
G36*
X256090Y82004D02*
X254909D01*
X253959Y81879D01*
X253073Y81512D01*
X252312Y80928D01*
X251728Y80167D01*
X251361Y79281D01*
X251236Y78331D01*
X251361Y77380D01*
X251728Y76494D01*
X252312Y75733D01*
X253073Y75150D01*
X253959Y74783D01*
X254909Y74658D01*
X256090D01*
X257041Y74783D01*
X257927Y75150D01*
X258688Y75733D01*
X259272Y76494D01*
X259639Y77380D01*
X259764Y78331D01*
X259639Y79281D01*
X259272Y80167D01*
X258688Y80928D01*
X257927Y81512D01*
X257041Y81879D01*
X256090Y82004D01*
D02*
G37*
G36*
X20591Y77504D02*
X19410D01*
X18459Y77379D01*
X17573Y77012D01*
X16812Y76428D01*
X16228Y75667D01*
X15861Y74781D01*
X15736Y73831D01*
X15861Y72880D01*
X16228Y71994D01*
X16812Y71233D01*
X17573Y70650D01*
X18459Y70283D01*
X19410Y70158D01*
X20591D01*
X21541Y70283D01*
X22427Y70650D01*
X23188Y71233D01*
X23772Y71994D01*
X24138Y72880D01*
X24264Y73831D01*
X24138Y74781D01*
X23772Y75667D01*
X23188Y76428D01*
X22427Y77012D01*
X21541Y77379D01*
X20591Y77504D01*
D02*
G37*
G36*
X256500Y72164D02*
Y69331D01*
X259846D01*
X259846Y69337D01*
X259457Y70275D01*
X258840Y71080D01*
X258034Y71697D01*
X257097Y72086D01*
X256500Y72164D01*
D02*
G37*
G36*
X254500D02*
X253903Y72086D01*
X252966Y71697D01*
X252161Y71080D01*
X251543Y70275D01*
X251154Y69337D01*
X251153Y69331D01*
X254500D01*
Y72164D01*
D02*
G37*
G36*
X259846Y67331D02*
X256500D01*
Y64497D01*
X257097Y64576D01*
X258034Y64964D01*
X258840Y65582D01*
X259457Y66387D01*
X259846Y67325D01*
X259846Y67331D01*
D02*
G37*
G36*
X254500D02*
X251153D01*
X251154Y67325D01*
X251543Y66387D01*
X252161Y65582D01*
X252966Y64964D01*
X253903Y64576D01*
X254500Y64497D01*
Y67331D01*
D02*
G37*
G36*
X21000Y57239D02*
Y54405D01*
X24347D01*
X24346Y54412D01*
X23957Y55349D01*
X23339Y56154D01*
X22534Y56772D01*
X21597Y57161D01*
X21000Y57239D01*
D02*
G37*
G36*
X19000D02*
X18403Y57161D01*
X17466Y56772D01*
X16660Y56154D01*
X16043Y55349D01*
X15654Y54412D01*
X15653Y54405D01*
X19000D01*
Y57239D01*
D02*
G37*
G36*
X24347Y52405D02*
X21000D01*
Y49572D01*
X21597Y49650D01*
X22534Y50039D01*
X23339Y50656D01*
X23957Y51462D01*
X24346Y52399D01*
X24347Y52405D01*
D02*
G37*
G36*
X19000D02*
X15653D01*
X15654Y52399D01*
X16043Y51462D01*
X16660Y50656D01*
X17466Y50039D01*
X18403Y49650D01*
X19000Y49572D01*
Y52405D01*
D02*
G37*
G36*
X256090Y51579D02*
X254909D01*
X253959Y51453D01*
X253073Y51086D01*
X252312Y50503D01*
X251728Y49742D01*
X251361Y48856D01*
X251236Y47905D01*
X251361Y46955D01*
X251728Y46069D01*
X252312Y45308D01*
X253073Y44724D01*
X253959Y44357D01*
X254909Y44232D01*
X256090D01*
X257041Y44357D01*
X257927Y44724D01*
X258688Y45308D01*
X259272Y46069D01*
X259639Y46955D01*
X259764Y47905D01*
X259639Y48856D01*
X259272Y49742D01*
X258688Y50503D01*
X257927Y51086D01*
X257041Y51453D01*
X256090Y51579D01*
D02*
G37*
G36*
X20591Y47079D02*
X19410D01*
X18459Y46953D01*
X17573Y46586D01*
X16812Y46003D01*
X16228Y45242D01*
X15861Y44356D01*
X15736Y43406D01*
X15861Y42455D01*
X16228Y41569D01*
X16812Y40808D01*
X17573Y40224D01*
X18459Y39858D01*
X19410Y39732D01*
X20591D01*
X21541Y39858D01*
X22427Y40224D01*
X23188Y40808D01*
X23772Y41569D01*
X24138Y42455D01*
X24264Y43406D01*
X24138Y44356D01*
X23772Y45242D01*
X23188Y46003D01*
X22427Y46586D01*
X21541Y46953D01*
X20591Y47079D01*
D02*
G37*
G36*
X256090Y41579D02*
X254909D01*
X253959Y41453D01*
X253073Y41087D01*
X252312Y40503D01*
X251728Y39742D01*
X251361Y38856D01*
X251236Y37905D01*
X251361Y36955D01*
X251728Y36069D01*
X252312Y35308D01*
X253073Y34724D01*
X253959Y34358D01*
X254909Y34232D01*
X256090D01*
X257041Y34358D01*
X257927Y34724D01*
X258688Y35308D01*
X259272Y36069D01*
X259639Y36955D01*
X259764Y37905D01*
X259639Y38856D01*
X259272Y39742D01*
X258688Y40503D01*
X257927Y41087D01*
X257041Y41453D01*
X256090Y41579D01*
D02*
G37*
G36*
X20591Y37079D02*
X19410D01*
X18459Y36953D01*
X17573Y36586D01*
X16812Y36003D01*
X16228Y35242D01*
X15861Y34356D01*
X15736Y33406D01*
X15861Y32455D01*
X16228Y31569D01*
X16812Y30808D01*
X17573Y30224D01*
X18459Y29858D01*
X19410Y29732D01*
X20591D01*
X21541Y29858D01*
X22427Y30224D01*
X23188Y30808D01*
X23772Y31569D01*
X24138Y32455D01*
X24264Y33406D01*
X24138Y34356D01*
X23772Y35242D01*
X23188Y36003D01*
X22427Y36586D01*
X21541Y36953D01*
X20591Y37079D01*
D02*
G37*
G36*
X256500Y31739D02*
Y28905D01*
X259846D01*
X259846Y28912D01*
X259457Y29849D01*
X258840Y30654D01*
X258034Y31272D01*
X257097Y31661D01*
X256500Y31739D01*
D02*
G37*
G36*
X254500D02*
X253903Y31661D01*
X252966Y31272D01*
X252161Y30654D01*
X251543Y29849D01*
X251154Y28912D01*
X251153Y28905D01*
X254500D01*
Y31739D01*
D02*
G37*
G36*
X259846Y26906D02*
X256500D01*
Y24072D01*
X257097Y24150D01*
X258034Y24539D01*
X258840Y25157D01*
X259457Y25962D01*
X259846Y26899D01*
X259846Y26906D01*
D02*
G37*
G36*
X254500D02*
X251153D01*
X251154Y26899D01*
X251543Y25962D01*
X252161Y25157D01*
X252966Y24539D01*
X253903Y24150D01*
X254500Y24072D01*
Y26906D01*
D02*
G37*
%LPD*%
G36*
X139197Y60000D02*
X139258Y59693D01*
X139432Y59432D01*
X139693Y59258D01*
X140000Y59197D01*
X150423D01*
X150730Y59258D01*
X150990Y59432D01*
X151164Y59693D01*
X151225Y60000D01*
Y68680D01*
X151225Y68680D01*
X151164Y68987D01*
X150990Y69248D01*
X150937Y69301D01*
X150680Y69746D01*
X150547Y70243D01*
Y70757D01*
X150680Y71254D01*
X150937Y71699D01*
X151301Y72063D01*
X151746Y72320D01*
X152150Y72428D01*
X152500Y72243D01*
Y59000D01*
X199915D01*
X199932Y58936D01*
X200295Y58308D01*
X200808Y57795D01*
X201436Y57432D01*
X202137Y57244D01*
X202863D01*
X203564Y57432D01*
X204192Y57795D01*
X204705Y58308D01*
X205068Y58936D01*
X205085Y59000D01*
X246500D01*
Y16256D01*
X181310D01*
X180931Y17170D01*
X180199Y18267D01*
X179267Y19199D01*
X178170Y19931D01*
X176952Y20436D01*
X175659Y20693D01*
X174341D01*
X173048Y20436D01*
X171830Y19931D01*
X170733Y19199D01*
X169801Y18267D01*
X169069Y17170D01*
X168690Y16256D01*
X166810D01*
X166431Y17170D01*
X165699Y18267D01*
X164767Y19199D01*
X163670Y19931D01*
X162452Y20436D01*
X161159Y20693D01*
X159841D01*
X158548Y20436D01*
X157330Y19931D01*
X156234Y19199D01*
X155301Y18267D01*
X154569Y17170D01*
X154190Y16256D01*
X150784D01*
Y16320D01*
X115784D01*
X115431Y17170D01*
X114699Y18267D01*
X113767Y19199D01*
X112670Y19931D01*
X111452Y20436D01*
X110159Y20693D01*
X108841D01*
X107548Y20436D01*
X106330Y19931D01*
X105234Y19199D01*
X104301Y18267D01*
X103569Y17170D01*
X103217Y16320D01*
X101284D01*
X100931Y17170D01*
X100199Y18267D01*
X99266Y19199D01*
X98170Y19931D01*
X96952Y20436D01*
X95659Y20693D01*
X94341D01*
X93048Y20436D01*
X91830Y19931D01*
X90733Y19199D01*
X89801Y18267D01*
X89069Y17170D01*
X88717Y16320D01*
X32000D01*
Y25576D01*
X32615Y25831D01*
X33169Y26385D01*
X33468Y27108D01*
Y27892D01*
X33169Y28615D01*
X32615Y29169D01*
X32000Y29424D01*
Y85256D01*
X99067D01*
X99608Y85031D01*
X100392D01*
X100933Y85256D01*
X139197D01*
Y60000D01*
D02*
G37*
G36*
X181000Y85256D02*
X213985D01*
X214179Y84965D01*
X214060Y84676D01*
Y83893D01*
X214359Y83169D01*
X214913Y82615D01*
X215637Y82316D01*
X216420D01*
X217143Y82615D01*
X217697Y83169D01*
X217997Y83893D01*
Y84676D01*
X217877Y84965D01*
X218071Y85256D01*
X246500D01*
Y59803D01*
X205085D01*
X205033Y59793D01*
X204980Y59796D01*
X204881Y59762D01*
X204778Y59742D01*
X204734Y59712D01*
X204684Y59695D01*
X204605Y59626D01*
X204518Y59568D01*
X204488Y59524D01*
X204448Y59489D01*
X204402Y59395D01*
X204344Y59307D01*
X204337Y59276D01*
X204063Y58801D01*
X203699Y58437D01*
X203254Y58180D01*
X202757Y58047D01*
X202243D01*
X201746Y58180D01*
X201301Y58437D01*
X200937Y58801D01*
X200663Y59276D01*
X200657Y59307D01*
X200598Y59395D01*
X200552Y59489D01*
X200512Y59524D01*
X200483Y59568D01*
X200395Y59626D01*
X200316Y59695D01*
X200266Y59712D01*
X200222Y59742D01*
X200119Y59762D01*
X200020Y59796D01*
X199967Y59793D01*
X199915Y59803D01*
X154577D01*
Y60000D01*
Y68680D01*
X154705Y68808D01*
X155068Y69436D01*
X155256Y70137D01*
Y70863D01*
X155068Y71564D01*
X154705Y72192D01*
X154192Y72705D01*
X153564Y73068D01*
X152863Y73256D01*
X152137D01*
X151436Y73068D01*
X150808Y72705D01*
X150295Y72192D01*
X149932Y71564D01*
X149744Y70863D01*
Y70137D01*
X149932Y69436D01*
X150295Y68808D01*
X150367Y68736D01*
D01*
X150423Y68680D01*
Y60000D01*
X140000D01*
Y60079D01*
Y85256D01*
Y97074D01*
X140024Y97131D01*
Y97914D01*
X140000Y97971D01*
Y170256D01*
X130077D01*
Y176356D01*
X130264Y176806D01*
Y177706D01*
X129919Y178538D01*
X129282Y179175D01*
X128450Y179520D01*
X127550D01*
X126718Y179175D01*
X126081Y178538D01*
X125736Y177706D01*
Y176806D01*
X125923Y176356D01*
Y170256D01*
X87000D01*
Y204758D01*
X181000D01*
Y85256D01*
D02*
G37*
%LPC*%
G36*
X70950Y77520D02*
X70050D01*
X69218Y77175D01*
X68581Y76538D01*
X68236Y75706D01*
Y74806D01*
X68581Y73974D01*
X69218Y73337D01*
X70050Y72992D01*
X70950D01*
X71782Y73337D01*
X72419Y73974D01*
X72764Y74806D01*
Y75706D01*
X72419Y76538D01*
X71782Y77175D01*
X70950Y77520D01*
D02*
G37*
G36*
X89892Y71469D02*
X89108D01*
X88385Y71169D01*
X87831Y70615D01*
X87532Y69892D01*
Y69108D01*
X87831Y68385D01*
X88385Y67831D01*
X89108Y67532D01*
X89892D01*
X90615Y67831D01*
X91169Y68385D01*
X91469Y69108D01*
Y69892D01*
X91169Y70615D01*
X90615Y71169D01*
X89892Y71469D01*
D02*
G37*
G36*
X74892Y71096D02*
X74108D01*
X73385Y70796D01*
X72831Y70243D01*
X72531Y69519D01*
Y68736D01*
X72831Y68012D01*
X73385Y67459D01*
X74108Y67159D01*
X74892D01*
X75615Y67459D01*
X76169Y68012D01*
X76468Y68736D01*
Y69519D01*
X76169Y70243D01*
X75615Y70796D01*
X74892Y71096D01*
D02*
G37*
G36*
X67892D02*
X67108D01*
X66385Y70796D01*
X65831Y70243D01*
X65531Y69519D01*
Y68736D01*
X65831Y68012D01*
X66385Y67459D01*
X67108Y67159D01*
X67892D01*
X68615Y67459D01*
X69169Y68012D01*
X69468Y68736D01*
Y69519D01*
X69169Y70243D01*
X68615Y70796D01*
X67892Y71096D01*
D02*
G37*
G36*
X74892Y64468D02*
X74108D01*
X73385Y64169D01*
X72831Y63615D01*
X72531Y62892D01*
Y62108D01*
X72831Y61385D01*
X73385Y60831D01*
X74108Y60532D01*
X74892D01*
X75615Y60831D01*
X76169Y61385D01*
X76468Y62108D01*
Y62892D01*
X76169Y63615D01*
X75615Y64169D01*
X74892Y64468D01*
D02*
G37*
G36*
X67892D02*
X67108D01*
X66385Y64169D01*
X65831Y63615D01*
X65531Y62892D01*
Y62108D01*
X65831Y61385D01*
X66385Y60831D01*
X67108Y60532D01*
X67892D01*
X68615Y60831D01*
X69169Y61385D01*
X69468Y62108D01*
Y62892D01*
X69169Y63615D01*
X68615Y64169D01*
X67892Y64468D01*
D02*
G37*
G36*
X176044Y55477D02*
X175261D01*
X174537Y55178D01*
X173983Y54624D01*
X173684Y53901D01*
Y53118D01*
X173983Y52394D01*
X174537Y51840D01*
X175261Y51540D01*
X176044D01*
X176767Y51840D01*
X177321Y52394D01*
X177621Y53118D01*
Y53901D01*
X177321Y54624D01*
X176767Y55178D01*
X176044Y55477D01*
D02*
G37*
G36*
X74892Y52472D02*
X74108D01*
X73385Y52173D01*
X72831Y51619D01*
X72531Y50896D01*
Y50112D01*
X72831Y49389D01*
X73385Y48835D01*
X74108Y48535D01*
X74892D01*
X75615Y48835D01*
X76169Y49389D01*
X76468Y50112D01*
Y50896D01*
X76169Y51619D01*
X75615Y52173D01*
X74892Y52472D01*
D02*
G37*
G36*
X176392Y44469D02*
X175608D01*
X174885Y44169D01*
X174331Y43615D01*
X174031Y42892D01*
Y42108D01*
X174331Y41385D01*
X174885Y40831D01*
X175608Y40532D01*
X176392D01*
X177115Y40831D01*
X177669Y41385D01*
X177969Y42108D01*
Y42892D01*
X177669Y43615D01*
X177115Y44169D01*
X176392Y44469D01*
D02*
G37*
G36*
X155863Y44256D02*
X155137D01*
X154436Y44068D01*
X153808Y43705D01*
X153295Y43192D01*
X152932Y42564D01*
X152744Y41863D01*
Y41137D01*
X152932Y40436D01*
X153295Y39808D01*
X153808Y39295D01*
X154436Y38932D01*
X155137Y38744D01*
X155863D01*
X156564Y38932D01*
X157192Y39295D01*
X157705Y39808D01*
X158068Y40436D01*
X158256Y41137D01*
Y41863D01*
X158068Y42564D01*
X157705Y43192D01*
X157192Y43705D01*
X156564Y44068D01*
X155863Y44256D01*
D02*
G37*
G36*
X192892Y37969D02*
X192108D01*
X191385Y37669D01*
X190831Y37115D01*
X190532Y36392D01*
Y35608D01*
X190831Y34885D01*
X191385Y34331D01*
X192108Y34032D01*
X192892D01*
X193615Y34331D01*
X194169Y34885D01*
X194468Y35608D01*
Y36392D01*
X194169Y37115D01*
X193615Y37669D01*
X192892Y37969D01*
D02*
G37*
G36*
X171565Y37724D02*
X170782D01*
X170058Y37425D01*
X169504Y36871D01*
X169205Y36147D01*
Y35364D01*
X169504Y34641D01*
X170058Y34087D01*
X170782Y33787D01*
X171565D01*
X172288Y34087D01*
X172842Y34641D01*
X173142Y35364D01*
Y36147D01*
X172842Y36871D01*
X172288Y37425D01*
X171565Y37724D01*
D02*
G37*
G36*
X131950Y37020D02*
X131050D01*
X130218Y36675D01*
X129581Y36038D01*
X129236Y35206D01*
Y34306D01*
X129581Y33474D01*
X130218Y32837D01*
X131050Y32492D01*
X131950D01*
X132782Y32837D01*
X133419Y33474D01*
X133764Y34306D01*
Y35206D01*
X133419Y36038D01*
X132782Y36675D01*
X131950Y37020D01*
D02*
G37*
G36*
X176392Y29469D02*
X175608D01*
X174885Y29169D01*
X174331Y28615D01*
X174031Y27892D01*
Y27108D01*
X174331Y26385D01*
X174885Y25831D01*
X175608Y25532D01*
X176392D01*
X177115Y25831D01*
X177669Y26385D01*
X177969Y27108D01*
Y27892D01*
X177669Y28615D01*
X177115Y29169D01*
X176392Y29469D01*
D02*
G37*
G36*
X192832Y29320D02*
X192049D01*
X191325Y29020D01*
X190771Y28466D01*
X190472Y27743D01*
Y26960D01*
X190771Y26236D01*
X191325Y25682D01*
X192049Y25383D01*
X192832D01*
X193555Y25682D01*
X194109Y26236D01*
X194409Y26960D01*
Y27743D01*
X194109Y28466D01*
X193555Y29020D01*
X192832Y29320D01*
D02*
G37*
G36*
X143950Y29506D02*
X143050D01*
X142218Y29161D01*
X141581Y28525D01*
X141236Y27692D01*
Y26792D01*
X141581Y25960D01*
X142218Y25323D01*
X143050Y24978D01*
X143950D01*
X144782Y25323D01*
X145419Y25960D01*
X145764Y26792D01*
Y27692D01*
X145419Y28525D01*
X144782Y29161D01*
X143950Y29506D01*
D02*
G37*
G36*
X131863Y29998D02*
X131137D01*
X130436Y29810D01*
X129808Y29447D01*
X129295Y28934D01*
X128932Y28306D01*
X128744Y27605D01*
Y26879D01*
X128932Y26178D01*
X129295Y25550D01*
X129808Y25037D01*
X130436Y24674D01*
X131137Y24486D01*
X131863D01*
X132564Y24674D01*
X133192Y25037D01*
X133705Y25550D01*
X134068Y26178D01*
X134256Y26879D01*
Y27605D01*
X134068Y28306D01*
X133705Y28934D01*
X133192Y29447D01*
X132564Y29810D01*
X131863Y29998D01*
D02*
G37*
G36*
X36392Y21969D02*
X35608D01*
X34885Y21669D01*
X34331Y21115D01*
X34032Y20392D01*
Y19608D01*
X34331Y18885D01*
X34885Y18331D01*
X35608Y18032D01*
X36392D01*
X37115Y18331D01*
X37669Y18885D01*
X37969Y19608D01*
Y20392D01*
X37669Y21115D01*
X37115Y21669D01*
X36392Y21969D01*
D02*
G37*
G36*
X135392Y204177D02*
X134608D01*
X133885Y203877D01*
X133331Y203324D01*
X133031Y202600D01*
Y201817D01*
X133331Y201094D01*
X133885Y200540D01*
X134608Y200240D01*
X135392D01*
X136115Y200540D01*
X136669Y201094D01*
X136969Y201817D01*
Y202600D01*
X136669Y203324D01*
X136115Y203877D01*
X135392Y204177D01*
D02*
G37*
G36*
X107892Y195874D02*
X107108D01*
X106385Y195574D01*
X105831Y195021D01*
X105532Y194297D01*
Y193514D01*
X105831Y192790D01*
X106385Y192237D01*
X107108Y191937D01*
X107892D01*
X108615Y192237D01*
X109169Y192790D01*
X109468Y193514D01*
Y194297D01*
X109169Y195021D01*
X108615Y195574D01*
X107892Y195874D01*
D02*
G37*
G36*
X173392Y188969D02*
X172608D01*
X171885Y188669D01*
X171331Y188115D01*
X171031Y187392D01*
Y186608D01*
X171331Y185885D01*
X171885Y185331D01*
X172608Y185031D01*
X173392D01*
X174115Y185331D01*
X174669Y185885D01*
X174969Y186608D01*
Y187392D01*
X174669Y188115D01*
X174115Y188669D01*
X173392Y188969D01*
D02*
G37*
G36*
X150392D02*
X149608D01*
X148885Y188669D01*
X148331Y188115D01*
X148031Y187392D01*
Y186608D01*
X148331Y185885D01*
X148885Y185331D01*
X149608Y185031D01*
X150392D01*
X151115Y185331D01*
X151669Y185885D01*
X151969Y186608D01*
Y187392D01*
X151669Y188115D01*
X151115Y188669D01*
X150392Y188969D01*
D02*
G37*
G36*
X160332Y179520D02*
X159432D01*
X158599Y179175D01*
X157963Y178538D01*
X157618Y177706D01*
Y176806D01*
X157963Y175974D01*
X158599Y175337D01*
X159432Y174992D01*
X160332D01*
X161164Y175337D01*
X161801Y175974D01*
X162146Y176806D01*
Y177706D01*
X161801Y178538D01*
X161164Y179175D01*
X160332Y179520D01*
D02*
G37*
G36*
X173428Y170504D02*
X172572D01*
X171746Y170283D01*
X171006Y169855D01*
X170401Y169250D01*
X169973Y168510D01*
X169752Y167683D01*
Y166828D01*
X169973Y166002D01*
X170401Y165262D01*
X171006Y164657D01*
X171746Y164229D01*
X172572Y164008D01*
X173428D01*
X174254Y164229D01*
X174994Y164657D01*
X175599Y165262D01*
X176027Y166002D01*
X176248Y166828D01*
Y167683D01*
X176027Y168510D01*
X175599Y169250D01*
X174994Y169855D01*
X174254Y170283D01*
X173428Y170504D01*
D02*
G37*
G36*
X160273Y138969D02*
X159490D01*
X158767Y138669D01*
X158213Y138115D01*
X157913Y137392D01*
Y136608D01*
X158213Y135885D01*
X158767Y135331D01*
X159490Y135031D01*
X160273D01*
X160997Y135331D01*
X161551Y135885D01*
X161850Y136608D01*
Y137392D01*
X161551Y138115D01*
X160997Y138669D01*
X160273Y138969D01*
D02*
G37*
G36*
X152392D02*
X151608D01*
X150885Y138669D01*
X150331Y138115D01*
X150031Y137392D01*
Y136608D01*
X150331Y135885D01*
X150885Y135331D01*
X151608Y135031D01*
X152392D01*
X153115Y135331D01*
X153669Y135885D01*
X153969Y136608D01*
Y137392D01*
X153669Y138115D01*
X153115Y138669D01*
X152392Y138969D01*
D02*
G37*
G36*
X164863Y97256D02*
X164137D01*
X163436Y97068D01*
X162808Y96705D01*
X162295Y96192D01*
X161932Y95564D01*
X161744Y94863D01*
Y94137D01*
X161932Y93436D01*
X162295Y92808D01*
X162808Y92295D01*
X163436Y91932D01*
X164137Y91744D01*
X164863D01*
X165564Y91932D01*
X166192Y92295D01*
X166705Y92808D01*
X167068Y93436D01*
X167256Y94137D01*
Y94863D01*
X167068Y95564D01*
X166705Y96192D01*
X166192Y96705D01*
X165564Y97068D01*
X164863Y97256D01*
D02*
G37*
G36*
X173363Y91756D02*
X172637D01*
X171936Y91568D01*
X171308Y91205D01*
X170795Y90692D01*
X170432Y90064D01*
X170244Y89363D01*
Y88637D01*
X170432Y87936D01*
X170795Y87308D01*
X171308Y86795D01*
X171936Y86432D01*
X172637Y86244D01*
X173363D01*
X174064Y86432D01*
X174692Y86795D01*
X175205Y87308D01*
X175568Y87936D01*
X175756Y88637D01*
Y89363D01*
X175568Y90064D01*
X175205Y90692D01*
X174692Y91205D01*
X174064Y91568D01*
X173363Y91756D01*
D02*
G37*
G36*
X240392Y70969D02*
X239608D01*
X238885Y70669D01*
X238331Y70115D01*
X238032Y69392D01*
Y68608D01*
X238331Y67885D01*
X238885Y67331D01*
X239608Y67032D01*
X240392D01*
X241115Y67331D01*
X241669Y67885D01*
X241968Y68608D01*
Y69392D01*
X241669Y70115D01*
X241115Y70669D01*
X240392Y70969D01*
D02*
G37*
G36*
X180863Y69756D02*
X180137D01*
X179436Y69568D01*
X178808Y69205D01*
X178295Y68692D01*
X177932Y68064D01*
X177744Y67363D01*
Y66637D01*
X177932Y65936D01*
X178295Y65308D01*
X178808Y64795D01*
X179436Y64432D01*
X180137Y64244D01*
X180863D01*
X181564Y64432D01*
X182192Y64795D01*
X182705Y65308D01*
X183068Y65936D01*
X183256Y66637D01*
Y67363D01*
X183068Y68064D01*
X182705Y68692D01*
X182192Y69205D01*
X181564Y69568D01*
X180863Y69756D01*
D02*
G37*
%LPD*%
D32*
X173000Y200319D02*
D03*
X36441Y132059D02*
D03*
X173000Y167256D02*
D03*
D54*
X152500Y58761D02*
Y70500D01*
X9500Y73500D02*
X9500Y183606D01*
X9500Y71500D02*
Y73500D01*
Y71500D02*
X19000Y62000D01*
X36000D01*
X9500Y183606D02*
X36769Y210874D01*
X52708D01*
X128000Y167256D02*
Y177256D01*
X36441Y132059D02*
X142941D01*
X167156Y76498D02*
X167431Y76223D01*
X166140Y76498D02*
X167156D01*
X166107Y76531D02*
X166140Y76498D01*
X163528Y76531D02*
X166107D01*
D56*
X255500Y236831D02*
D03*
Y88331D02*
D03*
Y47905D02*
D03*
X20000Y73831D02*
D03*
Y33406D02*
D03*
X255500Y246831D02*
D03*
Y68331D02*
D03*
Y27905D02*
D03*
X20000Y93831D02*
D03*
Y53405D02*
D03*
X255500Y306858D02*
D03*
Y226831D02*
D03*
Y216831D02*
D03*
Y206831D02*
D03*
Y186831D02*
D03*
Y176831D02*
D03*
Y166831D02*
D03*
Y156831D02*
D03*
Y146831D02*
D03*
Y136831D02*
D03*
Y126831D02*
D03*
Y116831D02*
D03*
Y196831D02*
D03*
Y286858D02*
D03*
Y276858D02*
D03*
Y296858D02*
D03*
Y37905D02*
D03*
Y78331D02*
D03*
X20000Y83831D02*
D03*
Y43406D02*
D03*
D57*
Y114520D02*
D03*
Y108614D02*
D03*
Y132236D02*
D03*
Y120425D02*
D03*
Y126331D02*
D03*
D58*
X175000Y14000D02*
D03*
X160500D02*
D03*
X109500D02*
D03*
X95000D02*
D03*
X12750Y12500D02*
D03*
X262841Y325833D02*
D03*
Y12500D02*
D03*
D59*
X36500Y123500D02*
D03*
X44500D02*
D03*
X100718Y123409D02*
D03*
X65000Y123500D02*
D03*
X78000D02*
D03*
X100718Y116746D02*
D03*
X112937D02*
D03*
X124500D02*
D03*
X176000Y27500D02*
D03*
Y42500D02*
D03*
X175652Y53509D02*
D03*
X157500Y53500D02*
D03*
X135976Y70500D02*
D03*
X237500Y282256D02*
D03*
X247500Y191000D02*
D03*
Y182000D02*
D03*
X229500Y108331D02*
D03*
X240000Y69000D02*
D03*
X213500Y289000D02*
D03*
X203500Y200756D02*
D03*
X220500Y187000D02*
D03*
X203500Y167500D02*
D03*
X201500Y108331D02*
D03*
X173000Y187000D02*
D03*
X192500Y36000D02*
D03*
X171173Y35756D02*
D03*
X192440Y27351D02*
D03*
X150000Y187000D02*
D03*
X135000Y202209D02*
D03*
X107500Y193905D02*
D03*
X152000Y137000D02*
D03*
X134000Y152000D02*
D03*
X159882Y137000D02*
D03*
X74500Y202209D02*
D03*
Y189756D02*
D03*
X75000Y158331D02*
D03*
X65000D02*
D03*
X75000Y142331D02*
D03*
X65000D02*
D03*
Y111000D02*
D03*
X55000Y158322D02*
D03*
X55000Y142331D02*
D03*
X138055Y97522D02*
D03*
X138000Y108500D02*
D03*
X100000Y87000D02*
D03*
X81000Y105500D02*
D03*
X89500Y69500D02*
D03*
X44500Y101000D02*
D03*
X67500Y69128D02*
D03*
X74500D02*
D03*
Y62500D02*
D03*
X67500D02*
D03*
X74500Y50504D02*
D03*
X31500Y27500D02*
D03*
X36000Y20000D02*
D03*
X114500Y42756D02*
D03*
X107831Y78437D02*
D03*
X123000Y78500D02*
D03*
X35000Y101000D02*
D03*
X38000Y156000D02*
D03*
X173000Y126756D02*
D03*
X99000Y189256D02*
D03*
X159882Y118000D02*
D03*
X173000Y120000D02*
D03*
X99000Y177500D02*
D03*
X150500Y127000D02*
D03*
X215500Y104000D02*
D03*
X74500Y207000D02*
D03*
Y197000D02*
D03*
X26000Y172500D02*
D03*
X38000D02*
D03*
X216028Y84284D02*
D03*
D60*
X230500Y237000D02*
D03*
X201016Y236842D02*
D03*
X187016Y287331D02*
D03*
X173016Y236842D02*
D03*
Y287331D02*
D03*
X187016Y236842D02*
D03*
X224000Y140000D02*
D03*
Y134000D02*
D03*
X159882Y236500D02*
D03*
X112937Y142331D02*
D03*
X131500Y34756D02*
D03*
X142417Y267087D02*
D03*
X65000Y101000D02*
D03*
X44500Y111000D02*
D03*
X230500Y200500D02*
D03*
X255500Y108331D02*
D03*
Y260500D02*
D03*
X195000Y279000D02*
D03*
X201016Y226842D02*
D03*
X242500Y156831D02*
D03*
X224000Y157000D02*
D03*
X201500Y119000D02*
D03*
X198500Y156831D02*
D03*
Y177000D02*
D03*
X173016Y226842D02*
D03*
X187016D02*
D03*
X187000Y177272D02*
D03*
X114000Y217006D02*
D03*
Y237331D02*
D03*
X128000Y177256D02*
D03*
X187000Y156831D02*
D03*
X128000Y167256D02*
D03*
X187000Y98256D02*
D03*
Y91500D02*
D03*
X124339Y97745D02*
D03*
X112937D02*
D03*
X72000Y237331D02*
D03*
X93000D02*
D03*
Y217006D02*
D03*
X72000D02*
D03*
X42500Y248000D02*
D03*
X61500D02*
D03*
X33000Y251500D02*
D03*
X100718Y153256D02*
D03*
Y142331D02*
D03*
X88500D02*
D03*
Y153256D02*
D03*
X29500Y137500D02*
D03*
X80500Y90000D02*
D03*
X90000Y175000D02*
D03*
X143500Y27242D02*
D03*
X220500Y127150D02*
D03*
X208500Y98331D02*
D03*
X159882Y297173D02*
D03*
X124500Y141756D02*
D03*
X135000Y217006D02*
D03*
X237500Y147000D02*
D03*
X213866Y167087D02*
D03*
Y247087D02*
D03*
Y267087D02*
D03*
X159882Y177256D02*
D03*
Y257087D02*
D03*
Y277087D02*
D03*
X247500Y296756D02*
D03*
Y196831D02*
D03*
X193500Y98256D02*
D03*
X70500Y75256D02*
D03*
X237500Y276858D02*
D03*
Y186831D02*
D03*
X242500Y166831D02*
D03*
Y287331D02*
D03*
D61*
X173000Y89000D02*
D03*
X180500Y67000D02*
D03*
X52000Y270000D02*
D03*
X164500Y94500D02*
D03*
X155500Y41500D02*
D03*
X131500Y27242D02*
D03*
X36000Y62000D02*
D03*
X152500Y70500D02*
D03*
X202500Y60000D02*
D03*
X201500Y69500D02*
D03*
X187500Y63000D02*
D03*
D62*
X15000Y177000D02*
D03*
X242500Y55500D02*
D03*
X52708Y210874D02*
D03*
X211500Y49500D02*
D03*
X112500Y90000D02*
D03*
X201500Y126756D02*
D03*
M02*
