G04*
G04 #@! TF.GenerationSoftware,Altium Limited,Altium Designer,26.1.1 (7)*
G04*
G04 Layer_Physical_Order=1*
G04 Layer_Color=255*
%FSLAX25Y25*%
%MOIN*%
G70*
G04*
G04 #@! TF.SameCoordinates,E7F4FAF2-1386-437A-9EE8-D3B0163B0EA7*
G04*
G04*
G04 #@! TF.FilePolarity,Positive*
G04*
G01*
G75*
%ADD12C,0.02000*%
%ADD17R,0.02559X0.04724*%
%ADD18R,0.07087X0.05140*%
%ADD19R,0.02756X0.09055*%
%ADD20R,0.04331X0.07480*%
%ADD21R,0.07874X0.04016*%
%ADD22R,0.05140X0.07087*%
%ADD23R,0.03819X0.06811*%
%ADD24R,0.04724X0.07874*%
%ADD25C,0.05906*%
G04:AMPARAMS|DCode=26|XSize=47.64mil|YSize=22.84mil|CornerRadius=2.85mil|HoleSize=0mil|Usage=FLASHONLY|Rotation=180.000|XOffset=0mil|YOffset=0mil|HoleType=Round|Shape=RoundedRectangle|*
%AMROUNDEDRECTD26*
21,1,0.04764,0.01713,0,0,180.0*
21,1,0.04193,0.02284,0,0,180.0*
1,1,0.00571,-0.02097,0.00856*
1,1,0.00571,0.02097,0.00856*
1,1,0.00571,0.02097,-0.00856*
1,1,0.00571,-0.02097,-0.00856*
%
%ADD26ROUNDEDRECTD26*%
%ADD27R,0.13780X0.07874*%
%ADD28R,0.08701X0.12795*%
%ADD29R,0.06811X0.03819*%
%ADD30R,0.09449X0.08858*%
%ADD31R,0.07874X0.04724*%
%ADD32C,0.04921*%
%ADD53C,0.01575*%
%ADD54C,0.02500*%
%ADD55C,0.01500*%
%ADD56O,0.06890X0.05709*%
%ADD57O,0.05118X0.03937*%
%ADD58C,0.11811*%
%ADD59C,0.02362*%
%ADD60C,0.02953*%
%ADD61C,0.03937*%
%ADD62C,0.05118*%
G36*
X233000Y290094D02*
X230441D01*
Y287087D01*
Y284079D01*
X233000D01*
Y269882D01*
X224716D01*
Y268909D01*
X215245D01*
X215148Y269006D01*
X214316Y269350D01*
X213416D01*
X212584Y269006D01*
X211947Y268369D01*
X211602Y267537D01*
Y266636D01*
X211947Y265804D01*
X212584Y265167D01*
X213416Y264823D01*
X214316D01*
X215148Y265167D01*
X215245Y265264D01*
X224716D01*
Y264291D01*
X233000D01*
Y249882D01*
X224716D01*
Y248909D01*
X215245D01*
X215148Y249006D01*
X214316Y249350D01*
X213416D01*
X212584Y249006D01*
X211947Y248369D01*
X211602Y247537D01*
Y246636D01*
X211947Y245804D01*
X212584Y245167D01*
X213416Y244823D01*
X214316D01*
X215148Y245167D01*
X215245Y245264D01*
X224716D01*
Y244291D01*
X233000D01*
Y242843D01*
X237854D01*
Y240901D01*
X237457D01*
Y238331D01*
X242000D01*
X246543D01*
Y240901D01*
X246146D01*
Y242843D01*
X269000D01*
Y227000D01*
X259741D01*
X259639Y227781D01*
X259272Y228667D01*
X258688Y229428D01*
X257927Y230012D01*
X257041Y230379D01*
X256090Y230504D01*
X254909D01*
X253959Y230379D01*
X253073Y230012D01*
X252312Y229428D01*
X251728Y228667D01*
X251670Y228526D01*
X234165D01*
Y229882D01*
X224716D01*
Y227000D01*
X203279D01*
Y227293D01*
X202935Y228125D01*
X202298Y228762D01*
X201466Y229106D01*
X200566D01*
X199733Y228762D01*
X199097Y228125D01*
X198752Y227293D01*
Y227000D01*
X189279D01*
Y227293D01*
X188935Y228125D01*
X188298Y228762D01*
X187466Y229106D01*
X186565D01*
X185733Y228762D01*
X185097Y228125D01*
X184752Y227293D01*
Y227000D01*
X175279D01*
Y227293D01*
X174935Y228125D01*
X174298Y228762D01*
X173466Y229106D01*
X172565D01*
X171733Y228762D01*
X171097Y228125D01*
X170752Y227293D01*
Y227000D01*
X163031D01*
Y229882D01*
X153583D01*
Y228654D01*
X140500D01*
Y234079D01*
X143307D01*
Y237087D01*
Y240094D01*
X140500D01*
Y242331D01*
Y245519D01*
X153583D01*
Y244291D01*
X163031D01*
Y249882D01*
X153583D01*
Y248654D01*
X140500D01*
Y254291D01*
X149031D01*
Y255519D01*
X158248D01*
X158599Y255168D01*
X159432Y254823D01*
X160332D01*
X161164Y255168D01*
X161801Y255804D01*
X162146Y256636D01*
Y257537D01*
X161801Y258369D01*
X161164Y259006D01*
X160332Y259350D01*
X159432D01*
X158599Y259006D01*
X158248Y258654D01*
X149031D01*
Y259882D01*
X140500D01*
Y265149D01*
X140962Y265340D01*
X141135Y265167D01*
X141967Y264823D01*
X142868D01*
X143700Y265167D01*
X144051Y265519D01*
X153583D01*
Y264291D01*
X163031D01*
Y269882D01*
X153583D01*
Y268654D01*
X144051D01*
X143700Y269006D01*
X142868Y269350D01*
X141967D01*
X141135Y269006D01*
X140962Y268833D01*
X140500Y269024D01*
Y274291D01*
X149031D01*
Y275519D01*
X158248D01*
X158599Y275167D01*
X159432Y274823D01*
X160332D01*
X161164Y275167D01*
X161801Y275804D01*
X162146Y276636D01*
Y277537D01*
X161801Y278369D01*
X161164Y279006D01*
X160332Y279350D01*
X159432D01*
X158599Y279006D01*
X158248Y278654D01*
X149031D01*
Y279882D01*
X140500D01*
Y292831D01*
X233000D01*
Y290094D01*
D02*
G37*
G36*
X274386Y22000D02*
X253000D01*
Y3000D01*
X240803D01*
Y50865D01*
X242091Y52153D01*
X242941D01*
X243792Y52382D01*
X244555Y52822D01*
X245178Y53445D01*
X245618Y54208D01*
X245847Y55059D01*
Y55941D01*
X245618Y56792D01*
X245178Y57555D01*
X244555Y58178D01*
X243792Y58618D01*
X242941Y58846D01*
X242059D01*
X241208Y58618D01*
X240445Y58178D01*
X239822Y57555D01*
X239382Y56792D01*
X239154Y55941D01*
Y55091D01*
X238865Y54803D01*
X207303D01*
Y82500D01*
X207481Y82717D01*
X214812D01*
X214913Y82615D01*
X215637Y82316D01*
X216420D01*
X217143Y82615D01*
X217697Y83169D01*
X217997Y83893D01*
Y84676D01*
X217697Y85399D01*
X217143Y85953D01*
X216420Y86253D01*
X215637D01*
X214913Y85953D01*
X214812Y85852D01*
X137528D01*
X136928Y85732D01*
X136539Y85472D01*
X136183Y85501D01*
X136081Y85548D01*
X136068Y85568D01*
X135807Y85742D01*
X135500Y85803D01*
X102014D01*
X101780Y86153D01*
X101969Y86608D01*
Y87392D01*
X101669Y88115D01*
X101115Y88669D01*
X100392Y88968D01*
X99608D01*
X98885Y88669D01*
X98331Y88115D01*
X98032Y87392D01*
Y86608D01*
X98139Y86350D01*
X97944Y86059D01*
X47744D01*
X47437Y85998D01*
X47176Y85824D01*
X47002Y85563D01*
X46941Y85256D01*
Y74175D01*
X46964Y74059D01*
X46976Y73942D01*
X46995Y73906D01*
X47002Y73867D01*
X47068Y73769D01*
X47124Y73665D01*
X47154Y73640D01*
X47176Y73607D01*
X47275Y73541D01*
X47366Y73467D01*
X47649Y73315D01*
X47641Y73274D01*
Y51666D01*
X47702Y51359D01*
X47876Y51099D01*
X48137Y50925D01*
X48444Y50864D01*
X50500D01*
X50512Y50866D01*
X50862Y50579D01*
Y45815D01*
X53923D01*
Y44060D01*
X54081Y43265D01*
X54531Y42591D01*
X57764Y39358D01*
X57630Y39035D01*
X16043D01*
X15735Y38974D01*
X15475Y38800D01*
X15301Y38539D01*
X15240Y38232D01*
Y35894D01*
X15245Y35868D01*
X15242Y35841D01*
X15276Y35715D01*
X15301Y35587D01*
X15316Y35564D01*
X15323Y35539D01*
X15402Y35435D01*
X15475Y35326D01*
X15497Y35311D01*
X15513Y35290D01*
X15627Y35225D01*
X15735Y35152D01*
X15762Y35147D01*
X15785Y35133D01*
X15802Y35127D01*
X16000Y34691D01*
X15861Y34356D01*
X15736Y33406D01*
X15861Y32455D01*
X16000Y32120D01*
X15802Y31683D01*
X15785Y31677D01*
X15762Y31664D01*
X15735Y31659D01*
X15627Y31586D01*
X15513Y31521D01*
X15497Y31500D01*
X15475Y31485D01*
X15402Y31376D01*
X15323Y31272D01*
X15316Y31247D01*
X15301Y31225D01*
X15276Y31096D01*
X15242Y30970D01*
X15245Y30943D01*
X15240Y30917D01*
Y21500D01*
X1204D01*
Y292917D01*
X51000D01*
Y275756D01*
X98500D01*
Y292917D01*
X139626D01*
X139697Y292831D01*
Y279882D01*
X139583D01*
Y274291D01*
X139697D01*
Y269024D01*
X139758Y268717D01*
X139932Y268456D01*
X140193Y268282D01*
X140338Y267982D01*
X140154Y267537D01*
Y266636D01*
X140338Y266192D01*
X140193Y265891D01*
X139932Y265717D01*
X139758Y265456D01*
X139697Y265149D01*
Y259882D01*
X139583D01*
Y254291D01*
X139697D01*
Y248654D01*
X68587D01*
X67987Y248535D01*
X67478Y248195D01*
X56729Y237446D01*
X56406Y237580D01*
Y241075D01*
Y242984D01*
X52000D01*
X47594D01*
Y241075D01*
Y234087D01*
X24524D01*
Y235480D01*
X15076D01*
Y229181D01*
X24524D01*
Y230952D01*
X47365D01*
Y228082D01*
X31892Y212608D01*
X31552Y212100D01*
X31433Y211500D01*
Y205480D01*
X28276D01*
Y199181D01*
X37724D01*
Y205480D01*
X34567D01*
Y210851D01*
X49236Y225519D01*
X153583D01*
Y224291D01*
X163031D01*
Y226197D01*
X170752D01*
X171059Y226258D01*
X171320Y226432D01*
X171494Y226693D01*
X171555Y227000D01*
Y227133D01*
X171777Y227670D01*
X172188Y228081D01*
X172725Y228304D01*
X173306D01*
X173843Y228081D01*
X174254Y227670D01*
X174477Y227133D01*
Y227000D01*
X174538Y226693D01*
X174712Y226432D01*
X174972Y226258D01*
X175279Y226197D01*
X184752D01*
X185059Y226258D01*
X185320Y226432D01*
X185494Y226693D01*
X185555Y227000D01*
Y227133D01*
X185777Y227670D01*
X186188Y228081D01*
X186725Y228304D01*
X187306D01*
X187843Y228081D01*
X188254Y227670D01*
X188477Y227133D01*
Y227000D01*
X188538Y226693D01*
X188712Y226432D01*
X188972Y226258D01*
X189279Y226197D01*
X198752D01*
X199059Y226258D01*
X199320Y226432D01*
X199494Y226693D01*
X199555Y227000D01*
Y227133D01*
X199777Y227670D01*
X200188Y228081D01*
X200725Y228304D01*
X201306D01*
X201843Y228081D01*
X202254Y227670D01*
X202477Y227133D01*
Y227000D01*
X202538Y226693D01*
X202712Y226432D01*
X202972Y226258D01*
X203279Y226197D01*
X224716D01*
Y224291D01*
X234165D01*
Y225391D01*
X251564D01*
X251728Y224994D01*
X252312Y224233D01*
X253073Y223650D01*
X253959Y223283D01*
X254909Y223158D01*
X256090D01*
X257041Y223283D01*
X257927Y223650D01*
X258688Y224233D01*
X259272Y224994D01*
X259639Y225880D01*
X259674Y226149D01*
X259741Y226197D01*
X269000D01*
X269307Y226258D01*
X269568Y226432D01*
X269742Y226693D01*
X269803Y227000D01*
Y242843D01*
X269742Y243150D01*
X269568Y243410D01*
X269307Y243584D01*
X269000Y243645D01*
X258815D01*
X258703Y243977D01*
X258840Y244082D01*
X259457Y244887D01*
X259846Y245825D01*
X259846Y245831D01*
X255500D01*
X251153D01*
X251154Y245825D01*
X251543Y244887D01*
X252161Y244082D01*
X252297Y243977D01*
X252185Y243645D01*
X246146D01*
Y244806D01*
X246543D01*
Y247376D01*
X242000D01*
X237457D01*
Y244806D01*
X237854D01*
Y243645D01*
X233803D01*
Y244291D01*
X234165D01*
Y249882D01*
X233803D01*
Y264291D01*
X234165D01*
Y269882D01*
X233803D01*
Y284079D01*
X233977Y284291D01*
X234165D01*
Y289882D01*
X233977D01*
X233803Y290094D01*
Y292831D01*
X233874Y292917D01*
X274386D01*
Y22000D01*
D02*
G37*
G36*
X139697Y242843D02*
Y240094D01*
X139709Y240036D01*
X139583Y239882D01*
X139583D01*
Y234291D01*
X139583D01*
X139709Y234138D01*
X139697Y234079D01*
Y228654D01*
X56650D01*
Y230781D01*
X56365Y231066D01*
X56193D01*
Y232476D01*
X69236Y245519D01*
X139697D01*
Y242843D01*
D02*
G37*
G36*
X206500Y45134D02*
X187043D01*
X186906Y45247D01*
Y49953D01*
X187043D01*
Y57093D01*
X184932D01*
Y57500D01*
X166000D01*
X165500Y58000D01*
X165500Y62287D01*
X165963Y62425D01*
X172205D01*
Y62500D01*
X176380D01*
Y65394D01*
X178245D01*
X178295Y65308D01*
X178808Y64795D01*
X179436Y64432D01*
X180137Y64244D01*
X180863D01*
X181564Y64432D01*
X182192Y64795D01*
X182705Y65308D01*
X183068Y65936D01*
X183256Y66637D01*
Y67363D01*
X183068Y68064D01*
X182705Y68692D01*
X182192Y69205D01*
X181564Y69568D01*
X180863Y69756D01*
X180137D01*
X179436Y69568D01*
X178808Y69205D01*
X178295Y68692D01*
X178245Y68606D01*
X176380D01*
Y71161D01*
X172205D01*
Y71236D01*
X165943D01*
X165500Y71736D01*
X165500Y82367D01*
X165945Y82500D01*
X184932Y82500D01*
D01*
X206500D01*
Y45134D01*
D02*
G37*
G36*
X135500Y84473D02*
X121392Y70364D01*
X121052Y69856D01*
X120932Y69256D01*
Y64681D01*
X118307D01*
Y60984D01*
X118095D01*
Y51756D01*
X117777Y51676D01*
X110327D01*
X110311Y51701D01*
X109956Y51938D01*
X109537Y52021D01*
X105344D01*
X104926Y51938D01*
X104571Y51701D01*
X104334Y51346D01*
X104251Y50927D01*
Y50831D01*
X100749D01*
Y50927D01*
X100666Y51346D01*
X100429Y51701D01*
X100074Y51938D01*
X99655Y52021D01*
X99500D01*
Y58000D01*
X100335D01*
Y58185D01*
X104453D01*
Y57787D01*
X107023D01*
Y62331D01*
Y66874D01*
X104453D01*
Y66477D01*
X100335D01*
Y66661D01*
X99500D01*
Y85000D01*
X135500D01*
Y84473D01*
D02*
G37*
G36*
X98500Y66874D02*
X97977D01*
Y62331D01*
Y57787D01*
X98500D01*
Y52021D01*
X95463D01*
X95044Y51938D01*
X94689Y51701D01*
X94673Y51676D01*
X87223D01*
X86905Y51756D01*
Y59075D01*
Y60984D01*
X82500D01*
Y61984D01*
X81500D01*
Y64894D01*
X78095D01*
X78000Y65205D01*
Y47500D01*
X85843D01*
Y45424D01*
X83500D01*
Y41853D01*
X82500D01*
Y40854D01*
X77957D01*
Y39000D01*
X63998D01*
X59850Y43148D01*
Y45815D01*
X61138D01*
Y50579D01*
X61488Y50866D01*
X61500Y50864D01*
X63556D01*
X63863Y50925D01*
X64124Y51099D01*
X64298Y51359D01*
X64359Y51666D01*
Y66000D01*
Y73274D01*
X64298Y73582D01*
X64124Y73842D01*
X63863Y74016D01*
X63556Y74077D01*
X61500D01*
X61350Y74200D01*
Y79398D01*
X57000D01*
Y72000D01*
X55000D01*
Y79398D01*
X50650D01*
Y74200D01*
X50500Y74077D01*
X48444D01*
X48137Y74016D01*
X48094Y73988D01*
X47744Y74175D01*
Y85256D01*
X98500D01*
Y66874D01*
D02*
G37*
G36*
X178169Y53523D02*
X178094D01*
Y47807D01*
X173309D01*
Y56686D01*
X178169D01*
Y53523D01*
D02*
G37*
G36*
X164697Y82367D02*
X164697Y71374D01*
X162977D01*
Y66831D01*
Y62287D01*
X164697D01*
X164697Y57500D01*
X164514Y57276D01*
X161480D01*
Y57276D01*
Y54914D01*
X163760D01*
Y53914D01*
X164760D01*
Y50552D01*
X165500D01*
Y50331D01*
X170000D01*
Y50552D01*
X170240D01*
Y53914D01*
X172240D01*
Y50552D01*
X172506D01*
Y47831D01*
X165421D01*
X165252Y47662D01*
X150080Y47734D01*
Y47831D01*
Y49571D01*
X150224D01*
Y50331D01*
Y54000D01*
X144500D01*
X138776D01*
Y49571D01*
X138844D01*
Y48036D01*
X138596Y47789D01*
X127000Y47844D01*
Y50831D01*
X126693D01*
Y51756D01*
X126906D01*
Y60984D01*
X126693D01*
Y64681D01*
X124067D01*
Y68607D01*
X135177Y79716D01*
D01*
X138177Y82717D01*
X164437D01*
X164697Y82367D01*
D02*
G37*
G36*
X161693Y45000D02*
Y39150D01*
X161693D01*
X161723Y38800D01*
X160745Y37822D01*
X150255D01*
X150012Y38065D01*
Y45000D01*
X161693Y45000D01*
D02*
G37*
G36*
X118000Y35559D02*
X111274D01*
X111251Y35554D01*
X111228Y35557D01*
X111171Y35554D01*
X110916Y35794D01*
Y48256D01*
X118000D01*
Y35559D01*
D02*
G37*
G36*
X94387Y44150D02*
X94252Y43948D01*
X94181Y43591D01*
X97559D01*
Y42591D01*
X98559D01*
Y40424D01*
X99655D01*
X99729Y40438D01*
X100000Y40216D01*
Y38436D01*
X97564D01*
X96949Y38314D01*
X96428Y37966D01*
X96428Y37966D01*
X95234Y36772D01*
X94886Y36251D01*
X94764Y35636D01*
X94764Y35636D01*
Y34524D01*
X93672D01*
Y28256D01*
Y26138D01*
X94000D01*
Y20625D01*
X93048Y20436D01*
X91830Y19931D01*
X90733Y19199D01*
X89801Y18267D01*
X89069Y17170D01*
X88564Y15952D01*
X88307Y14659D01*
Y13341D01*
X88564Y12048D01*
X89069Y10830D01*
X89801Y9734D01*
X90733Y8801D01*
X91830Y8069D01*
X93048Y7564D01*
X94000Y7375D01*
Y3000D01*
X60000D01*
Y8973D01*
X64453D01*
Y18027D01*
X60000D01*
Y41405D01*
X60323Y41539D01*
X63430Y38432D01*
X63691Y38258D01*
X63998Y38197D01*
X77957D01*
X78000Y38162D01*
Y34378D01*
X77957D01*
Y34190D01*
Y31808D01*
X78095D01*
Y31625D01*
X82500D01*
X86905D01*
Y31808D01*
X87043D01*
Y33919D01*
Y34378D01*
X86905D01*
Y40854D01*
X86831D01*
Y44161D01*
X87169Y44500D01*
X94199D01*
X94387Y44150D01*
D02*
G37*
G36*
X59197Y37925D02*
Y29577D01*
X55988D01*
Y32594D01*
X51657D01*
Y32000D01*
X50295D01*
Y32807D01*
X48917D01*
Y27279D01*
Y21752D01*
X50295D01*
Y22500D01*
X51657D01*
Y21965D01*
X55988D01*
Y25423D01*
X59197D01*
Y18027D01*
X58547D01*
Y8973D01*
X59197D01*
Y3000D01*
X23500D01*
Y21500D01*
X16043D01*
Y30917D01*
X16374Y31030D01*
X16660Y30656D01*
X17466Y30039D01*
X18403Y29650D01*
X19000Y29572D01*
Y33406D01*
Y37239D01*
X18403Y37161D01*
X17466Y36772D01*
X16660Y36154D01*
X16374Y35781D01*
X16043Y35894D01*
Y38232D01*
X58890D01*
X59197Y37925D01*
D02*
G37*
G36*
X138043Y46988D02*
D01*
X138592Y46986D01*
X138600Y46979D01*
X138844Y46692D01*
Y45000D01*
X138988D01*
Y35783D01*
X147139D01*
X148211Y34711D01*
X148211Y34711D01*
X148803Y34316D01*
X149500Y34178D01*
X149500Y34178D01*
X161500D01*
X161500Y34178D01*
X162197Y34316D01*
X162789Y34711D01*
X165049Y36971D01*
X165049Y36971D01*
X165444Y37562D01*
X165582Y38260D01*
X165582Y38260D01*
Y38938D01*
X166500D01*
Y42300D01*
X168500D01*
Y38938D01*
X169780D01*
Y39150D01*
X173307D01*
Y40894D01*
X174822D01*
X174885Y40831D01*
X175608Y40532D01*
X176392D01*
X177115Y40831D01*
X177607Y41323D01*
X177957Y41235D01*
Y38907D01*
X181500D01*
Y42477D01*
X182500D01*
Y43477D01*
X187043D01*
Y44331D01*
X206500D01*
Y23331D01*
X185736D01*
Y26331D01*
X182827D01*
Y27331D01*
X181827D01*
Y31736D01*
X181000D01*
Y31756D01*
X166000D01*
Y31524D01*
X162402D01*
Y31736D01*
X153173D01*
Y31524D01*
X149476D01*
Y30500D01*
Y29320D01*
X144401D01*
X143950Y29506D01*
X143050D01*
X142218Y29161D01*
X141581Y28525D01*
X141236Y27692D01*
Y26792D01*
X141581Y25960D01*
X142218Y25323D01*
X143050Y24978D01*
X143950D01*
X144401Y25165D01*
X149476D01*
Y23138D01*
X153173D01*
Y22925D01*
X162402D01*
Y23138D01*
X166500D01*
X166500Y17697D01*
X166150Y17591D01*
X165699Y18267D01*
X164767Y19199D01*
X163670Y19931D01*
X162452Y20436D01*
X161159Y20693D01*
X159841D01*
X158548Y20436D01*
X157330Y19931D01*
X156234Y19199D01*
X155301Y18267D01*
X154569Y17170D01*
X154064Y15952D01*
X153807Y14659D01*
Y13341D01*
X154064Y12048D01*
X154569Y10830D01*
X155301Y9734D01*
X156234Y8801D01*
X157330Y8069D01*
X158548Y7564D01*
X159841Y7307D01*
X161159D01*
X162452Y7564D01*
X163670Y8069D01*
X164767Y8801D01*
X165699Y9734D01*
X166150Y10409D01*
X166500Y10303D01*
X166500Y3000D01*
X95153Y3000D01*
X94803Y3000D01*
Y7307D01*
X95659D01*
X96952Y7564D01*
X98170Y8069D01*
X99266Y8801D01*
X100199Y9734D01*
X100931Y10830D01*
X101436Y12048D01*
X101693Y13341D01*
Y14659D01*
X101436Y15952D01*
X100931Y17170D01*
X100199Y18267D01*
X99266Y19199D01*
X98170Y19931D01*
X96952Y20436D01*
X95659Y20693D01*
X94803D01*
Y26138D01*
X97369D01*
Y25925D01*
X107023D01*
Y30331D01*
X108023D01*
Y31331D01*
X110932D01*
Y34736D01*
X111274Y34756D01*
X118354D01*
Y34378D01*
X117957D01*
Y31808D01*
X122500D01*
Y30808D01*
X123500D01*
Y27238D01*
X127043D01*
Y28500D01*
Y46793D01*
X127291Y47039D01*
X138043Y46988D01*
D02*
G37*
G36*
X240000Y3000D02*
X169000D01*
Y10303D01*
X169350Y10409D01*
X169801Y9734D01*
X170733Y8801D01*
X171830Y8069D01*
X173048Y7564D01*
X174341Y7307D01*
X175659D01*
X176952Y7564D01*
X178170Y8069D01*
X179267Y8801D01*
X180199Y9734D01*
X180931Y10830D01*
X181436Y12048D01*
X181693Y13341D01*
Y14659D01*
X181436Y15952D01*
X180931Y17170D01*
X180199Y18267D01*
X179267Y19199D01*
X178170Y19931D01*
X176952Y20436D01*
X175659Y20693D01*
X174341D01*
X173048Y20436D01*
X171830Y19931D01*
X170733Y19199D01*
X169801Y18267D01*
X169350Y17591D01*
X169000Y17697D01*
Y22858D01*
X169248Y23105D01*
X172173Y23091D01*
Y22925D01*
X181402D01*
Y22925D01*
X181523Y23046D01*
X184993Y23029D01*
X184994Y23023D01*
X185169Y22763D01*
X185429Y22589D01*
X185736Y22528D01*
X206500D01*
X206807Y22589D01*
X207068Y22763D01*
X207131Y22858D01*
X207174Y22922D01*
X207242Y23023D01*
X207303Y23331D01*
Y24702D01*
X214752D01*
Y21965D01*
X219083D01*
Y22750D01*
X220445D01*
Y21752D01*
X221823D01*
Y27279D01*
X222823D01*
D01*
X221823D01*
Y32807D01*
X220445D01*
Y32250D01*
X219083D01*
Y32594D01*
X214752D01*
Y28857D01*
X207303D01*
Y44331D01*
X207242Y44638D01*
X207179Y44732D01*
X207242Y44826D01*
X207303Y45134D01*
Y54000D01*
X240000D01*
Y3000D01*
D02*
G37*
%LPC*%
G36*
X163244Y290094D02*
X159307D01*
Y288087D01*
X163244D01*
Y290094D01*
D02*
G37*
G36*
X157307D02*
X153370D01*
Y288087D01*
X157307D01*
Y290094D01*
D02*
G37*
G36*
X228441D02*
X224504D01*
Y288087D01*
X228441D01*
Y290094D01*
D02*
G37*
G36*
Y286087D02*
X224504D01*
Y284079D01*
X228441D01*
Y286087D01*
D02*
G37*
G36*
X163244D02*
X159307D01*
Y284079D01*
X163244D01*
Y286087D01*
D02*
G37*
G36*
X157307D02*
X153370D01*
Y284079D01*
X157307D01*
Y286087D01*
D02*
G37*
G36*
X195450Y281264D02*
X194550D01*
X193718Y280919D01*
X193081Y280282D01*
X192736Y279450D01*
Y278550D01*
X193081Y277718D01*
X193718Y277081D01*
X194550Y276736D01*
X195450D01*
X196282Y277081D01*
X196919Y277718D01*
X197264Y278550D01*
Y279450D01*
X196919Y280282D01*
X196282Y280919D01*
X195450Y281264D01*
D02*
G37*
G36*
X220165Y279882D02*
X210717D01*
Y274291D01*
X220165D01*
Y279882D01*
D02*
G37*
G36*
Y259882D02*
X210717D01*
Y254291D01*
X220165D01*
Y259882D01*
D02*
G37*
G36*
X220378Y240094D02*
X216441D01*
Y238087D01*
X220378D01*
Y240094D01*
D02*
G37*
G36*
X149244D02*
X145307D01*
Y238087D01*
X149244D01*
Y240094D01*
D02*
G37*
G36*
X214441D02*
X210504D01*
Y238087D01*
X214441D01*
Y240094D01*
D02*
G37*
G36*
X256500Y240664D02*
Y237831D01*
X259846D01*
X259846Y237837D01*
X259457Y238774D01*
X258840Y239580D01*
X258034Y240197D01*
X257097Y240586D01*
X256500Y240664D01*
D02*
G37*
G36*
X254500D02*
X253903Y240586D01*
X252966Y240197D01*
X252161Y239580D01*
X251543Y238774D01*
X251154Y237837D01*
X251153Y237831D01*
X254500D01*
Y240664D01*
D02*
G37*
G36*
X220378Y236087D02*
X216441D01*
Y234079D01*
X220378D01*
Y236087D01*
D02*
G37*
G36*
X214441D02*
X210504D01*
Y234079D01*
X214441D01*
Y236087D01*
D02*
G37*
G36*
X149244D02*
X145307D01*
Y234079D01*
X149244D01*
Y236087D01*
D02*
G37*
G36*
X246543Y236331D02*
X243000D01*
Y233761D01*
X246543D01*
Y236331D01*
D02*
G37*
G36*
X241000D02*
X237457D01*
Y233761D01*
X241000D01*
Y236331D01*
D02*
G37*
G36*
X259846Y235831D02*
X256500D01*
Y232997D01*
X257097Y233076D01*
X258034Y233464D01*
X258840Y234082D01*
X259457Y234887D01*
X259846Y235824D01*
X259846Y235831D01*
D02*
G37*
G36*
X254500D02*
X251153D01*
X251154Y235824D01*
X251543Y234887D01*
X252161Y234082D01*
X252966Y233464D01*
X253903Y233076D01*
X254500Y232997D01*
Y235831D01*
D02*
G37*
G36*
X242950Y289595D02*
X242050D01*
X241218Y289250D01*
X240581Y288613D01*
X240236Y287781D01*
Y286880D01*
X240581Y286048D01*
X241218Y285412D01*
X242050Y285067D01*
X242950D01*
X243782Y285412D01*
X244419Y286048D01*
X244764Y286880D01*
Y287781D01*
X244419Y288613D01*
X243782Y289250D01*
X242950Y289595D01*
D02*
G37*
G36*
X256090Y290531D02*
X254909D01*
X253959Y290406D01*
X253073Y290039D01*
X252312Y289456D01*
X251728Y288695D01*
X251361Y287809D01*
X251236Y286858D01*
X251361Y285908D01*
X251728Y285022D01*
X252312Y284261D01*
X253073Y283677D01*
X253959Y283310D01*
X254909Y283185D01*
X256090D01*
X257041Y283310D01*
X257927Y283677D01*
X258688Y284261D01*
X259272Y285022D01*
X259639Y285908D01*
X259764Y286858D01*
X259639Y287809D01*
X259272Y288695D01*
X258688Y289456D01*
X257927Y290039D01*
X257041Y290406D01*
X256090Y290531D01*
D02*
G37*
G36*
X237892Y284224D02*
X237108D01*
X236385Y283925D01*
X235831Y283371D01*
X235531Y282647D01*
Y281864D01*
X235831Y281141D01*
X236385Y280587D01*
X237108Y280287D01*
X237892D01*
X238615Y280587D01*
X239169Y281141D01*
X239469Y281864D01*
Y282647D01*
X239169Y283371D01*
X238615Y283925D01*
X237892Y284224D01*
D02*
G37*
G36*
X237950Y279122D02*
X237050D01*
X236218Y278777D01*
X235581Y278141D01*
X235236Y277309D01*
Y276408D01*
X235581Y275576D01*
X236218Y274939D01*
X237050Y274594D01*
X237950D01*
X238782Y274939D01*
X239419Y275576D01*
X239764Y276408D01*
Y277309D01*
X239419Y278141D01*
X238782Y278777D01*
X237950Y279122D01*
D02*
G37*
G36*
X256090Y280531D02*
X254909D01*
X253959Y280406D01*
X253073Y280039D01*
X252312Y279456D01*
X251728Y278695D01*
X251361Y277809D01*
X251236Y276858D01*
X251361Y275908D01*
X251728Y275022D01*
X252312Y274261D01*
X253073Y273677D01*
X253959Y273310D01*
X254909Y273185D01*
X256090D01*
X257041Y273310D01*
X257927Y273677D01*
X258688Y274261D01*
X259272Y275022D01*
X259639Y275908D01*
X259764Y276858D01*
X259639Y277809D01*
X259272Y278695D01*
X258688Y279456D01*
X257927Y280039D01*
X257041Y280406D01*
X256090Y280531D01*
D02*
G37*
G36*
X52363Y272756D02*
X51637D01*
X50936Y272568D01*
X50308Y272205D01*
X49795Y271692D01*
X49432Y271064D01*
X49244Y270363D01*
Y269637D01*
X49432Y268936D01*
X49795Y268308D01*
X49923Y268180D01*
Y266211D01*
X47669D01*
Y259496D01*
X47854D01*
Y255378D01*
X47457D01*
Y252808D01*
X52000D01*
X56543D01*
Y255378D01*
X56146D01*
Y259496D01*
X56331D01*
Y266211D01*
X54077D01*
Y268180D01*
X54205Y268308D01*
X54568Y268936D01*
X54756Y269637D01*
Y270363D01*
X54568Y271064D01*
X54205Y271692D01*
X53692Y272205D01*
X53064Y272568D01*
X52363Y272756D01*
D02*
G37*
G36*
X246543Y251946D02*
X243000D01*
Y249376D01*
X246543D01*
Y251946D01*
D02*
G37*
G36*
X241000D02*
X237457D01*
Y249376D01*
X241000D01*
Y251946D01*
D02*
G37*
G36*
X56543Y250808D02*
X53000D01*
Y248238D01*
X56543D01*
Y250808D01*
D02*
G37*
G36*
X51000D02*
X47457D01*
Y248238D01*
X51000D01*
Y250808D01*
D02*
G37*
G36*
X256500Y250664D02*
Y247831D01*
X259846D01*
X259846Y247837D01*
X259457Y248775D01*
X258840Y249580D01*
X258034Y250198D01*
X257097Y250586D01*
X256500Y250664D01*
D02*
G37*
G36*
X254500D02*
X253903Y250586D01*
X252966Y250198D01*
X252161Y249580D01*
X251543Y248775D01*
X251154Y247837D01*
X251153Y247831D01*
X254500D01*
Y250664D01*
D02*
G37*
G36*
X56406Y246894D02*
X53000D01*
Y244984D01*
X56406D01*
Y246894D01*
D02*
G37*
G36*
X51000D02*
X47594D01*
Y244984D01*
X51000D01*
Y246894D01*
D02*
G37*
G36*
X37937Y245693D02*
X34000D01*
Y243331D01*
X37937D01*
Y245693D01*
D02*
G37*
G36*
X32000D02*
X28063D01*
Y243331D01*
X32000D01*
Y245693D01*
D02*
G37*
G36*
X37937Y241331D02*
X34000D01*
Y238968D01*
X37937D01*
Y241331D01*
D02*
G37*
G36*
X32000D02*
X28063D01*
Y238968D01*
X32000D01*
Y241331D01*
D02*
G37*
G36*
X37724Y225480D02*
X28276D01*
Y219181D01*
X37724D01*
Y225480D01*
D02*
G37*
G36*
X256090Y220504D02*
X254909D01*
X253959Y220379D01*
X253073Y220012D01*
X252312Y219428D01*
X251728Y218667D01*
X251723Y218654D01*
X220165D01*
Y219882D01*
X210717D01*
Y214291D01*
X220165D01*
Y215519D01*
X251511D01*
X251728Y214994D01*
X252312Y214233D01*
X253073Y213650D01*
X253959Y213283D01*
X254909Y213158D01*
X256090D01*
X257041Y213283D01*
X257927Y213650D01*
X258688Y214233D01*
X259272Y214994D01*
X259639Y215880D01*
X259764Y216831D01*
X259639Y217781D01*
X259272Y218667D01*
X258688Y219428D01*
X257927Y220012D01*
X257041Y220379D01*
X256090Y220504D01*
D02*
G37*
G36*
X149031Y219882D02*
X139583D01*
Y218614D01*
X136594D01*
X136282Y218925D01*
X135450Y219270D01*
X134550D01*
X133718Y218925D01*
X133081Y218288D01*
X132736Y217456D01*
Y216556D01*
X133081Y215724D01*
X133718Y215087D01*
X134550Y214742D01*
X135450D01*
X136282Y215087D01*
X136674Y215479D01*
X139583D01*
Y214291D01*
X149031D01*
Y219882D01*
D02*
G37*
G36*
X24524Y215480D02*
X15076D01*
Y209181D01*
X24524D01*
Y215480D01*
D02*
G37*
G36*
X163031Y209882D02*
X153583D01*
Y208909D01*
X75035D01*
X74892Y208968D01*
X74108D01*
X73965Y208909D01*
X68256D01*
X68256Y208909D01*
X67558Y208770D01*
X66967Y208375D01*
X66967Y208375D01*
X48711Y190119D01*
X48316Y189528D01*
X48178Y188831D01*
X48178Y188831D01*
Y187120D01*
X46872D01*
Y177671D01*
X48187D01*
Y131255D01*
X45456Y128524D01*
X37149D01*
X37103Y128874D01*
X37695Y129032D01*
X38435Y129460D01*
X39040Y130065D01*
X39468Y130805D01*
X39689Y131631D01*
Y132487D01*
X39468Y133313D01*
X39040Y134053D01*
X38435Y134658D01*
X37695Y135086D01*
X36869Y135307D01*
X36013D01*
X35187Y135086D01*
X34447Y134658D01*
X34013Y134225D01*
X22526D01*
X21980Y134643D01*
X21310Y134921D01*
X20591Y135016D01*
X20158D01*
X17077Y138097D01*
Y147120D01*
X19331D01*
Y153835D01*
X19146D01*
Y158165D01*
X19331D01*
Y164880D01*
X17077D01*
Y174345D01*
X17678Y174945D01*
X18118Y175708D01*
X18346Y176559D01*
Y177441D01*
X18118Y178292D01*
X17678Y179055D01*
X17055Y179678D01*
X16292Y180118D01*
X15441Y180347D01*
X14559D01*
X13708Y180118D01*
X12945Y179678D01*
X12322Y179055D01*
X11882Y178292D01*
X11654Y177441D01*
Y176559D01*
X11882Y175708D01*
X12322Y174945D01*
X12923Y174345D01*
Y164880D01*
X10669D01*
Y158165D01*
X10854D01*
Y153835D01*
X10669D01*
Y147120D01*
X12923D01*
Y137236D01*
X13081Y136441D01*
X13531Y135767D01*
X16680Y132618D01*
X16630Y132236D01*
X16725Y131517D01*
X17002Y130846D01*
X17444Y130271D01*
X18020Y129829D01*
X18690Y129551D01*
X19409Y129456D01*
Y129110D01*
X18690Y129016D01*
X18020Y128738D01*
X17444Y128296D01*
X17002Y127721D01*
X16725Y127050D01*
X16630Y126331D01*
X16725Y125611D01*
X17002Y124941D01*
X17444Y124365D01*
X18020Y123923D01*
X18690Y123646D01*
X19409Y123551D01*
Y123205D01*
X18690Y123110D01*
X18020Y122833D01*
X17444Y122391D01*
X17002Y121815D01*
X16725Y121145D01*
X16630Y120425D01*
X16725Y119706D01*
X17002Y119035D01*
X17444Y118460D01*
X18020Y118018D01*
X18690Y117740D01*
X19409Y117646D01*
Y117299D01*
X18690Y117205D01*
X18020Y116927D01*
X17444Y116485D01*
X17002Y115910D01*
X16725Y115239D01*
X16630Y114520D01*
X16725Y113800D01*
X17002Y113130D01*
X17444Y112554D01*
X18020Y112112D01*
X18690Y111835D01*
X19409Y111740D01*
Y111394D01*
X18690Y111299D01*
X18020Y111021D01*
X17444Y110580D01*
X17002Y110004D01*
X16725Y109334D01*
X16630Y108614D01*
X16725Y107895D01*
X17002Y107224D01*
X17444Y106649D01*
X18020Y106207D01*
X18690Y105929D01*
X19410Y105834D01*
X20591D01*
X21310Y105929D01*
X21980Y106207D01*
X22556Y106649D01*
X22998Y107224D01*
X23276Y107895D01*
X23370Y108614D01*
X23276Y109334D01*
X22998Y110004D01*
X22556Y110580D01*
X21980Y111021D01*
X21310Y111299D01*
X20591Y111394D01*
Y111740D01*
X21310Y111835D01*
X21980Y112112D01*
X22556Y112554D01*
X22998Y113130D01*
X23276Y113800D01*
X23370Y114520D01*
X23276Y115239D01*
X22998Y115910D01*
X22556Y116485D01*
X21980Y116927D01*
X21310Y117205D01*
X20591Y117299D01*
Y117646D01*
X21310Y117740D01*
X21980Y118018D01*
X22556Y118460D01*
X22666Y118603D01*
X52425D01*
X52425Y118603D01*
X53123Y118742D01*
X53503Y118996D01*
X53966Y118933D01*
X53967Y118932D01*
X54227Y118758D01*
X54535Y118697D01*
X71500D01*
X71807Y118758D01*
X72068Y118932D01*
X72099Y118979D01*
X72540Y119034D01*
X88862Y102711D01*
X88862Y102711D01*
X89453Y102316D01*
X90151Y102178D01*
X90151Y102178D01*
X214756D01*
X215108Y102032D01*
X215892D01*
X216244Y102178D01*
X239233D01*
X239507Y101704D01*
X240203Y101007D01*
X241056Y100515D01*
X242008Y100260D01*
X242992D01*
X243944Y100515D01*
X244796Y101007D01*
X245493Y101704D01*
X245985Y102556D01*
X246240Y103508D01*
Y104492D01*
X245985Y105444D01*
X245493Y106297D01*
X244796Y106993D01*
X243944Y107485D01*
X243287Y107661D01*
X243303Y107740D01*
Y108591D01*
X243287Y108669D01*
X243944Y108845D01*
X244796Y109338D01*
X245493Y110034D01*
X245985Y110887D01*
X246240Y111838D01*
Y112823D01*
X245985Y113774D01*
X245493Y114627D01*
X244796Y115324D01*
X243944Y115816D01*
X242992Y116071D01*
X242008D01*
X241056Y115816D01*
X240203Y115324D01*
X239507Y114627D01*
X239234Y114155D01*
X231263D01*
Y124291D01*
X234165D01*
Y129460D01*
X234242Y129575D01*
X234303Y129882D01*
Y144291D01*
X234242Y144599D01*
X234165Y144713D01*
Y145476D01*
X235823D01*
X236218Y145081D01*
X237050Y144736D01*
X237950D01*
X238782Y145081D01*
X239419Y145718D01*
X239764Y146550D01*
Y147450D01*
X239419Y148282D01*
X238782Y148919D01*
X237950Y149264D01*
X237050D01*
X236218Y148919D01*
X235909Y148611D01*
X234165D01*
Y149882D01*
X224716D01*
Y148690D01*
X205193D01*
Y149854D01*
X196807D01*
Y146158D01*
X196595D01*
Y136929D01*
Y136504D01*
X201000D01*
X205405D01*
Y136929D01*
Y145554D01*
X210697D01*
Y140094D01*
X210735Y139904D01*
X210717Y139882D01*
X210717D01*
Y134291D01*
X210717D01*
X210735Y134269D01*
X210697Y134079D01*
Y130000D01*
Y128419D01*
Y119882D01*
X210717Y119785D01*
Y114291D01*
X210423Y114155D01*
X191303D01*
Y132238D01*
X191274Y132382D01*
X191331Y132450D01*
X191331D01*
Y136625D01*
X191405D01*
Y145853D01*
X191331D01*
Y150211D01*
X191331D01*
X191274Y150280D01*
X191303Y150424D01*
Y153331D01*
X191242Y153638D01*
X191068Y153898D01*
X190807Y154072D01*
X190500Y154133D01*
X149244D01*
Y156087D01*
X144307D01*
X139370D01*
Y154079D01*
X139632D01*
X139819Y153729D01*
X139758Y153638D01*
X139697Y153331D01*
Y140094D01*
X139709Y140036D01*
X139583Y139882D01*
X139583D01*
Y134291D01*
X139583D01*
X139709Y134138D01*
X139697Y134079D01*
Y130331D01*
X139758Y130024D01*
X139821Y129929D01*
X139758Y129835D01*
X139697Y129528D01*
Y119882D01*
X139583D01*
Y114291D01*
X139289Y114155D01*
X95753D01*
X81845Y128063D01*
Y164471D01*
X83172D01*
Y172028D01*
X86660D01*
X86967Y172089D01*
X87227Y172263D01*
X87402Y172523D01*
X87448Y172756D01*
X89502D01*
X89550Y172736D01*
X90450D01*
X90498Y172756D01*
X92712D01*
X92758Y172523D01*
X92932Y172263D01*
X93193Y172089D01*
X93500Y172028D01*
X96660D01*
Y170195D01*
X103384D01*
Y172028D01*
X110500D01*
X110807Y172089D01*
X111068Y172263D01*
X111242Y172523D01*
X111303Y172831D01*
Y195264D01*
X139583D01*
Y194291D01*
X140000D01*
Y193000D01*
X145365D01*
X145504Y192831D01*
Y181331D01*
X145565Y181024D01*
X145739Y180763D01*
X146000Y180589D01*
X146000Y180589D01*
Y179882D01*
X139583D01*
Y174291D01*
X149031D01*
Y175604D01*
X158333D01*
X158599Y175337D01*
X159432Y174992D01*
X160332D01*
X161164Y175337D01*
X161801Y175974D01*
X162146Y176806D01*
Y177706D01*
X161801Y178538D01*
X161637Y178702D01*
X161500Y179000D01*
X161500D01*
X161500Y179000D01*
Y180528D01*
X210680D01*
Y179000D01*
X210717D01*
Y174291D01*
X220165D01*
Y175391D01*
X251564D01*
X251728Y174994D01*
X252312Y174233D01*
X253073Y173650D01*
X253959Y173283D01*
X254909Y173158D01*
X256090D01*
X257041Y173283D01*
X257927Y173650D01*
X258688Y174233D01*
X259272Y174994D01*
X259639Y175880D01*
X259764Y176831D01*
X259639Y177781D01*
X259272Y178667D01*
X258688Y179428D01*
X257927Y180012D01*
X257041Y180379D01*
X256268Y180481D01*
X256211Y180561D01*
X256124Y180848D01*
X256242Y181024D01*
X256303Y181331D01*
Y183158D01*
X256325Y183188D01*
X257041Y183283D01*
X257927Y183650D01*
X258688Y184233D01*
X259272Y184994D01*
X259639Y185880D01*
X259764Y186831D01*
X259639Y187781D01*
X259272Y188667D01*
X258688Y189428D01*
X257927Y190012D01*
X257041Y190379D01*
X256325Y190473D01*
X256303Y190504D01*
Y192831D01*
X256302Y192832D01*
X256575Y193221D01*
X257041Y193283D01*
X257927Y193650D01*
X258688Y194233D01*
X259272Y194994D01*
X259639Y195880D01*
X259764Y196831D01*
X259639Y197781D01*
X259272Y198667D01*
X258688Y199428D01*
X257927Y200012D01*
X257041Y200379D01*
X256090Y200504D01*
X254909D01*
X253959Y200379D01*
X253073Y200012D01*
X252312Y199428D01*
X251728Y198667D01*
X251361Y197781D01*
X251236Y196831D01*
X251361Y195880D01*
X251728Y194994D01*
X252312Y194233D01*
X252638Y193983D01*
X252519Y193633D01*
X220325D01*
Y195000D01*
X220165D01*
Y199882D01*
X210717D01*
Y195000D01*
X210675D01*
Y193633D01*
X149000D01*
Y194291D01*
X149031D01*
Y199372D01*
X149167Y199575D01*
X149228Y199882D01*
Y205264D01*
X153583D01*
Y204291D01*
X163031D01*
Y209882D01*
D02*
G37*
G36*
X256090Y210504D02*
X254909D01*
X253959Y210379D01*
X253073Y210012D01*
X252312Y209428D01*
X251728Y208667D01*
X251670Y208526D01*
X234165D01*
Y209882D01*
X224716D01*
Y204291D01*
X234165D01*
Y205391D01*
X251564D01*
X251728Y204994D01*
X252312Y204233D01*
X253073Y203650D01*
X253959Y203283D01*
X254909Y203158D01*
X256090D01*
X257041Y203283D01*
X257927Y203650D01*
X258688Y204233D01*
X259272Y204994D01*
X259639Y205880D01*
X259764Y206831D01*
X259639Y207781D01*
X259272Y208667D01*
X258688Y209428D01*
X257927Y210012D01*
X257041Y210379D01*
X256090Y210504D01*
D02*
G37*
G36*
X53149Y214221D02*
X52268D01*
X51417Y213993D01*
X50654Y213552D01*
X50030Y212929D01*
X49590Y212166D01*
X49362Y211315D01*
Y210434D01*
X49590Y209583D01*
X50030Y208820D01*
X50654Y208196D01*
X51417Y207756D01*
X52268Y207528D01*
X53149D01*
X54000Y207756D01*
X54763Y208196D01*
X55386Y208820D01*
X55827Y209583D01*
X56055Y210434D01*
Y211315D01*
X55827Y212166D01*
X55386Y212929D01*
X54763Y213552D01*
X54000Y213993D01*
X53149Y214221D01*
D02*
G37*
G36*
X203892Y202724D02*
X203108D01*
X202385Y202425D01*
X201831Y201871D01*
X201532Y201148D01*
Y200364D01*
X201831Y199641D01*
X202385Y199087D01*
X203108Y198787D01*
X203892D01*
X204615Y199087D01*
X205169Y199641D01*
X205469Y200364D01*
Y201148D01*
X205169Y201871D01*
X204615Y202425D01*
X203892Y202724D01*
D02*
G37*
G36*
X173428Y203567D02*
X172572D01*
X171746Y203346D01*
X171006Y202918D01*
X170401Y202313D01*
X169973Y201573D01*
X169752Y200746D01*
Y199891D01*
X169973Y199065D01*
X170401Y198325D01*
X171006Y197720D01*
X171746Y197292D01*
X172572Y197071D01*
X173428D01*
X174254Y197292D01*
X174994Y197720D01*
X175599Y198325D01*
X176027Y199065D01*
X176248Y199891D01*
Y200746D01*
X176027Y201573D01*
X175599Y202313D01*
X174994Y202918D01*
X174254Y203346D01*
X173428Y203567D01*
D02*
G37*
G36*
X247950Y199094D02*
X247050D01*
X246218Y198750D01*
X245581Y198113D01*
X245236Y197281D01*
Y196380D01*
X245581Y195548D01*
X246218Y194912D01*
X247050Y194567D01*
X247950D01*
X248782Y194912D01*
X249419Y195548D01*
X249764Y196380D01*
Y197281D01*
X249419Y198113D01*
X248782Y198750D01*
X247950Y199094D01*
D02*
G37*
G36*
X24524Y195480D02*
X15076D01*
Y189181D01*
X24524D01*
Y195480D01*
D02*
G37*
G36*
X173428Y170504D02*
X172572D01*
X171746Y170283D01*
X171006Y169855D01*
X170401Y169250D01*
X170400Y169249D01*
X163031D01*
Y169882D01*
X153583D01*
Y164291D01*
X163031D01*
Y165094D01*
X170569D01*
X171006Y164657D01*
X171746Y164229D01*
X172572Y164008D01*
X173428D01*
X174254Y164229D01*
X174994Y164657D01*
X175599Y165262D01*
X176027Y166002D01*
X176248Y166828D01*
Y167683D01*
X176027Y168510D01*
X175599Y169250D01*
X174994Y169855D01*
X174254Y170283D01*
X173428Y170504D01*
D02*
G37*
G36*
X234165Y169882D02*
X224716D01*
Y168654D01*
X215500D01*
X215148Y169006D01*
X214316Y169350D01*
X213416D01*
X212584Y169006D01*
X211947Y168369D01*
X211602Y167537D01*
Y166636D01*
X211947Y165804D01*
X212584Y165167D01*
X213416Y164823D01*
X214316D01*
X215148Y165167D01*
X215500Y165519D01*
X224716D01*
Y164291D01*
X234165D01*
Y169882D01*
D02*
G37*
G36*
X203892Y169468D02*
X203108D01*
X202385Y169169D01*
X201831Y168615D01*
X201532Y167892D01*
Y167108D01*
X201831Y166385D01*
X202385Y165831D01*
X203108Y165532D01*
X203892D01*
X204615Y165831D01*
X205169Y166385D01*
X205469Y167108D01*
Y167892D01*
X205169Y168615D01*
X204615Y169169D01*
X203892Y169468D01*
D02*
G37*
G36*
X242950Y169095D02*
X242050D01*
X241218Y168750D01*
X240581Y168113D01*
X240236Y167281D01*
Y166380D01*
X240581Y165548D01*
X241218Y164912D01*
X242050Y164567D01*
X242950D01*
X243782Y164912D01*
X244419Y165548D01*
X244764Y166380D01*
Y167281D01*
X244419Y168113D01*
X243782Y168750D01*
X242950Y169095D01*
D02*
G37*
G36*
X103384Y168195D02*
X101022D01*
Y164258D01*
X103384D01*
Y168195D01*
D02*
G37*
G36*
X99022D02*
X96660D01*
Y164258D01*
X99022D01*
Y168195D01*
D02*
G37*
G36*
X256090Y170504D02*
X254909D01*
X253959Y170379D01*
X253073Y170012D01*
X252312Y169428D01*
X251728Y168667D01*
X251361Y167781D01*
X251236Y166831D01*
X251361Y165880D01*
X251728Y164994D01*
X252312Y164233D01*
X253073Y163650D01*
X253959Y163283D01*
X254909Y163158D01*
X256090D01*
X257041Y163283D01*
X257927Y163650D01*
X258688Y164233D01*
X259272Y164994D01*
X259639Y165880D01*
X259764Y166831D01*
X259639Y167781D01*
X259272Y168667D01*
X258688Y169428D01*
X257927Y170012D01*
X257041Y170379D01*
X256090Y170504D01*
D02*
G37*
G36*
X38428Y181248D02*
X37572D01*
X36746Y181027D01*
X36006Y180599D01*
X35401Y179994D01*
X34973Y179254D01*
X34752Y178428D01*
Y177572D01*
X34973Y176746D01*
X35401Y176006D01*
X36006Y175401D01*
X36178Y175302D01*
Y173244D01*
X36031Y172892D01*
Y172108D01*
X36178Y171756D01*
Y164524D01*
X33807D01*
Y159130D01*
X42193D01*
Y164524D01*
X39822D01*
Y171756D01*
X39968Y172108D01*
Y172892D01*
X39822Y173244D01*
Y175302D01*
X39994Y175401D01*
X40599Y176006D01*
X41027Y176746D01*
X41248Y177572D01*
Y178428D01*
X41027Y179254D01*
X40599Y179994D01*
X39994Y180599D01*
X39254Y181027D01*
X38428Y181248D01*
D02*
G37*
G36*
X26428D02*
X25572D01*
X24746Y181027D01*
X24006Y180599D01*
X23401Y179994D01*
X22973Y179254D01*
X22752Y178428D01*
Y177572D01*
X22973Y176746D01*
X23401Y176006D01*
X24006Y175401D01*
X24178Y175302D01*
Y173244D01*
X24032Y172892D01*
Y172108D01*
X24178Y171756D01*
Y164524D01*
X22038D01*
Y159130D01*
X30424D01*
Y164524D01*
X27822D01*
Y171756D01*
X27968Y172108D01*
Y172892D01*
X27822Y173244D01*
Y175302D01*
X27994Y175401D01*
X28599Y176006D01*
X29027Y176746D01*
X29248Y177572D01*
Y178428D01*
X29027Y179254D01*
X28599Y179994D01*
X27994Y180599D01*
X27254Y181027D01*
X26428Y181248D01*
D02*
G37*
G36*
X149244Y160094D02*
X145307D01*
Y158087D01*
X149244D01*
Y160094D01*
D02*
G37*
G36*
X143307D02*
X139370D01*
Y158087D01*
X143307D01*
Y160094D01*
D02*
G37*
G36*
X220165Y159882D02*
X210717D01*
Y154291D01*
X220165D01*
Y159882D01*
D02*
G37*
G36*
X256090Y160504D02*
X254909D01*
X253959Y160379D01*
X253073Y160012D01*
X252312Y159428D01*
X251728Y158667D01*
X251361Y157781D01*
X251236Y156831D01*
X251361Y155880D01*
X251728Y154994D01*
X252312Y154233D01*
X253073Y153650D01*
X253959Y153283D01*
X254909Y153158D01*
X256090D01*
X257041Y153283D01*
X257927Y153650D01*
X258688Y154233D01*
X259272Y154994D01*
X259639Y155880D01*
X259764Y156831D01*
X259639Y157781D01*
X259272Y158667D01*
X258688Y159428D01*
X257927Y160012D01*
X257041Y160379D01*
X256090Y160504D01*
D02*
G37*
G36*
X42406Y153083D02*
X39000D01*
Y151173D01*
X42406D01*
Y153083D01*
D02*
G37*
G36*
X30637D02*
X27231D01*
Y151173D01*
X30637D01*
Y153083D01*
D02*
G37*
G36*
X37000D02*
X33595D01*
Y151173D01*
X37000D01*
Y153083D01*
D02*
G37*
G36*
X25231D02*
X21826D01*
Y151173D01*
X25231D01*
Y153083D01*
D02*
G37*
G36*
X134392Y153969D02*
X133608D01*
X132885Y153669D01*
X132331Y153115D01*
X132032Y152392D01*
Y151608D01*
X132331Y150885D01*
X132885Y150331D01*
X133608Y150031D01*
X134392D01*
X135115Y150331D01*
X135669Y150885D01*
X135968Y151608D01*
Y152392D01*
X135669Y153115D01*
X135115Y153669D01*
X134392Y153969D01*
D02*
G37*
G36*
X42406Y149173D02*
X39000D01*
Y147264D01*
X42406D01*
Y149173D01*
D02*
G37*
G36*
X37000D02*
X33595D01*
Y147264D01*
X37000D01*
Y149173D01*
D02*
G37*
G36*
X30637D02*
X27231D01*
Y147264D01*
X30637D01*
Y149173D01*
D02*
G37*
G36*
X25231D02*
X21826D01*
Y147264D01*
X25231D01*
Y149173D01*
D02*
G37*
G36*
X256090Y150504D02*
X254909D01*
X253959Y150379D01*
X253073Y150012D01*
X252312Y149428D01*
X251728Y148667D01*
X251361Y147781D01*
X251236Y146831D01*
X251361Y145880D01*
X251728Y144994D01*
X252312Y144233D01*
X253073Y143650D01*
X253959Y143283D01*
X254909Y143158D01*
X256090D01*
X257041Y143283D01*
X257927Y143650D01*
X258688Y144233D01*
X259272Y144994D01*
X259639Y145880D01*
X259764Y146831D01*
X259639Y147781D01*
X259272Y148667D01*
X258688Y149428D01*
X257927Y150012D01*
X257041Y150379D01*
X256090Y150504D01*
D02*
G37*
G36*
Y140504D02*
X254909D01*
X253959Y140379D01*
X253073Y140012D01*
X252312Y139428D01*
X251728Y138667D01*
X251361Y137781D01*
X251236Y136831D01*
X251361Y135880D01*
X251728Y134994D01*
X252312Y134233D01*
X253073Y133650D01*
X253959Y133283D01*
X254909Y133158D01*
X256090D01*
X257041Y133283D01*
X257927Y133650D01*
X258688Y134233D01*
X259272Y134994D01*
X259639Y135880D01*
X259764Y136831D01*
X259639Y137781D01*
X259272Y138667D01*
X258688Y139428D01*
X257927Y140012D01*
X257041Y140379D01*
X256090Y140504D01*
D02*
G37*
G36*
X205405Y134504D02*
X202000D01*
Y132595D01*
X205405D01*
Y134504D01*
D02*
G37*
G36*
X200000D02*
X196595D01*
Y132595D01*
X200000D01*
Y134504D01*
D02*
G37*
G36*
X124950Y144020D02*
X124050D01*
X123218Y143675D01*
X122581Y143038D01*
X122236Y142206D01*
Y141306D01*
X122581Y140474D01*
X122933Y140122D01*
Y134170D01*
X122204Y133749D01*
X121507Y133052D01*
X121015Y132200D01*
X120760Y131248D01*
Y130263D01*
X121015Y129312D01*
X121507Y128459D01*
X122204Y127763D01*
X123056Y127271D01*
X124008Y127016D01*
X124992D01*
X125944Y127271D01*
X126796Y127763D01*
X127493Y128459D01*
X127985Y129312D01*
X128240Y130263D01*
Y131248D01*
X127985Y132200D01*
X127493Y133052D01*
X126796Y133749D01*
X126067Y134170D01*
Y140122D01*
X126419Y140474D01*
X126764Y141306D01*
Y142206D01*
X126419Y143038D01*
X125782Y143675D01*
X124950Y144020D01*
D02*
G37*
G36*
X113387Y144595D02*
X112487D01*
X111655Y144250D01*
X111018Y143613D01*
X110673Y142781D01*
Y141880D01*
X111018Y141048D01*
X111331Y140735D01*
Y134148D01*
X110641Y133749D01*
X109944Y133052D01*
X109452Y132200D01*
X109197Y131248D01*
Y130263D01*
X109452Y129312D01*
X109944Y128459D01*
X110641Y127763D01*
X111493Y127271D01*
X112445Y127016D01*
X113429D01*
X114381Y127271D01*
X115234Y127763D01*
X115930Y128459D01*
X116422Y129312D01*
X116677Y130263D01*
Y131248D01*
X116422Y132200D01*
X115930Y133052D01*
X115234Y133749D01*
X114543Y134148D01*
Y140735D01*
X114856Y141048D01*
X115201Y141880D01*
Y142781D01*
X114856Y143613D01*
X114219Y144250D01*
X113387Y144595D01*
D02*
G37*
G36*
X256090Y130504D02*
X254909D01*
X253959Y130379D01*
X253073Y130012D01*
X252312Y129428D01*
X251728Y128667D01*
X251361Y127781D01*
X251236Y126831D01*
X251361Y125880D01*
X251728Y124994D01*
X252312Y124233D01*
X253073Y123650D01*
X253959Y123283D01*
X254909Y123158D01*
X256090D01*
X257041Y123283D01*
X257927Y123650D01*
X258688Y124233D01*
X259272Y124994D01*
X259639Y125880D01*
X259764Y126831D01*
X259639Y127781D01*
X259272Y128667D01*
X258688Y129428D01*
X257927Y130012D01*
X257041Y130379D01*
X256090Y130504D01*
D02*
G37*
G36*
X101110Y125378D02*
X100327D01*
X99603Y125078D01*
X99050Y124524D01*
X98750Y123801D01*
Y123018D01*
X99050Y122294D01*
X99603Y121741D01*
X100327Y121441D01*
X101110D01*
X101834Y121741D01*
X102387Y122294D01*
X102687Y123018D01*
Y123801D01*
X102387Y124524D01*
X101834Y125078D01*
X101110Y125378D01*
D02*
G37*
G36*
X256090Y120504D02*
X254909D01*
X253959Y120379D01*
X253073Y120012D01*
X252312Y119428D01*
X251728Y118667D01*
X251361Y117781D01*
X251236Y116831D01*
X251361Y115880D01*
X251728Y114994D01*
X252312Y114233D01*
X253073Y113650D01*
X253959Y113283D01*
X254909Y113158D01*
X256090D01*
X257041Y113283D01*
X257927Y113650D01*
X258688Y114233D01*
X259272Y114994D01*
X259639Y115880D01*
X259764Y116831D01*
X259639Y117781D01*
X259272Y118667D01*
X258688Y119428D01*
X257927Y120012D01*
X257041Y120379D01*
X256090Y120504D01*
D02*
G37*
G36*
X65392Y112969D02*
X64608D01*
X63885Y112669D01*
X63331Y112115D01*
X63032Y111392D01*
Y110608D01*
X63331Y109885D01*
X63885Y109331D01*
X64608Y109031D01*
X65392D01*
X66115Y109331D01*
X66669Y109885D01*
X66969Y110608D01*
Y111392D01*
X66669Y112115D01*
X66115Y112669D01*
X65392Y112969D01*
D02*
G37*
G36*
X81392Y107468D02*
X80608D01*
X79885Y107169D01*
X79331Y106615D01*
X79031Y105892D01*
Y105108D01*
X79331Y104385D01*
X79885Y103831D01*
X80608Y103532D01*
X81392D01*
X82115Y103831D01*
X82669Y104385D01*
X82968Y105108D01*
Y105892D01*
X82669Y106615D01*
X82115Y107169D01*
X81392Y107468D01*
D02*
G37*
G36*
X44892Y102969D02*
X44108D01*
X43385Y102669D01*
X42831Y102115D01*
X42531Y101392D01*
Y100608D01*
X42831Y99885D01*
X43385Y99331D01*
X44108Y99032D01*
X44892D01*
X45615Y99331D01*
X46169Y99885D01*
X46468Y100608D01*
Y101392D01*
X46169Y102115D01*
X45615Y102669D01*
X44892Y102969D01*
D02*
G37*
G36*
X208950Y100594D02*
X208050D01*
X207218Y100250D01*
X206581Y99613D01*
X206236Y98781D01*
Y97880D01*
X206581Y97048D01*
X207218Y96412D01*
X208050Y96067D01*
X208950D01*
X209782Y96412D01*
X210419Y97048D01*
X210764Y97880D01*
Y98781D01*
X210419Y99613D01*
X209782Y100250D01*
X208950Y100594D01*
D02*
G37*
G36*
X193950Y100520D02*
X193050D01*
X192218Y100175D01*
X191581Y99538D01*
X191236Y98706D01*
Y97806D01*
X191581Y96974D01*
X192218Y96337D01*
X193050Y95992D01*
X193950D01*
X194782Y96337D01*
X195419Y96974D01*
X195764Y97806D01*
Y98706D01*
X195419Y99538D01*
X194782Y100175D01*
X193950Y100520D01*
D02*
G37*
G36*
X138447Y99491D02*
X137663D01*
X136940Y99191D01*
X136386Y98637D01*
X136087Y97914D01*
Y97131D01*
X136386Y96407D01*
X136940Y95854D01*
X137663Y95554D01*
X138447D01*
X139170Y95854D01*
X139724Y96407D01*
X140024Y97131D01*
Y97914D01*
X139724Y98637D01*
X139170Y99191D01*
X138447Y99491D01*
D02*
G37*
G36*
X21000Y97664D02*
Y94831D01*
X24347D01*
X24346Y94837D01*
X23957Y95775D01*
X23339Y96580D01*
X22534Y97198D01*
X21597Y97586D01*
X21000Y97664D01*
D02*
G37*
G36*
X19000D02*
X18403Y97586D01*
X17466Y97198D01*
X16660Y96580D01*
X16043Y95775D01*
X15654Y94837D01*
X15653Y94831D01*
X19000D01*
Y97664D01*
D02*
G37*
G36*
X164863Y97256D02*
X164137D01*
X163436Y97068D01*
X162808Y96705D01*
X162295Y96192D01*
X161932Y95564D01*
X161744Y94863D01*
Y94137D01*
X161932Y93436D01*
X162295Y92808D01*
X162808Y92295D01*
X163436Y91932D01*
X164137Y91744D01*
X164863D01*
X165564Y91932D01*
X166192Y92295D01*
X166705Y92808D01*
X167068Y93436D01*
X167256Y94137D01*
Y94863D01*
X167068Y95564D01*
X166705Y96192D01*
X166192Y96705D01*
X165564Y97068D01*
X164863Y97256D01*
D02*
G37*
G36*
X24347Y92831D02*
X21000D01*
Y89997D01*
X21597Y90076D01*
X22534Y90464D01*
X23339Y91082D01*
X23957Y91887D01*
X24346Y92825D01*
X24347Y92831D01*
D02*
G37*
G36*
X19000D02*
X15653D01*
X15654Y92825D01*
X16043Y91887D01*
X16660Y91082D01*
X17466Y90464D01*
X18403Y90076D01*
X19000Y89997D01*
Y92831D01*
D02*
G37*
G36*
X173363Y91756D02*
X172637D01*
X171936Y91568D01*
X171308Y91205D01*
X170795Y90692D01*
X170432Y90064D01*
X170244Y89363D01*
Y88637D01*
X170432Y87936D01*
X170795Y87308D01*
X171308Y86795D01*
X171936Y86432D01*
X172637Y86244D01*
X173363D01*
X174064Y86432D01*
X174692Y86795D01*
X175205Y87308D01*
X175568Y87936D01*
X175756Y88637D01*
Y89363D01*
X175568Y90064D01*
X175205Y90692D01*
X174692Y91205D01*
X174064Y91568D01*
X173363Y91756D01*
D02*
G37*
G36*
X256090Y92004D02*
X254909D01*
X253959Y91879D01*
X253073Y91512D01*
X252312Y90928D01*
X251728Y90167D01*
X251361Y89281D01*
X251236Y88331D01*
X251361Y87380D01*
X251728Y86494D01*
X252312Y85733D01*
X253073Y85150D01*
X253959Y84783D01*
X254909Y84658D01*
X256090D01*
X257041Y84783D01*
X257927Y85150D01*
X258688Y85733D01*
X259272Y86494D01*
X259639Y87380D01*
X259764Y88331D01*
X259639Y89281D01*
X259272Y90167D01*
X258688Y90928D01*
X257927Y91512D01*
X257041Y91879D01*
X256090Y92004D01*
D02*
G37*
G36*
X20591Y87504D02*
X19410D01*
X18459Y87379D01*
X17573Y87012D01*
X16812Y86428D01*
X16228Y85667D01*
X15861Y84781D01*
X15736Y83831D01*
X15861Y82880D01*
X16228Y81994D01*
X16812Y81233D01*
X17573Y80650D01*
X18459Y80283D01*
X19410Y80158D01*
X20591D01*
X21541Y80283D01*
X22427Y80650D01*
X23188Y81233D01*
X23772Y81994D01*
X24138Y82880D01*
X24264Y83831D01*
X24138Y84781D01*
X23772Y85667D01*
X23188Y86428D01*
X22427Y87012D01*
X21541Y87379D01*
X20591Y87504D01*
D02*
G37*
G36*
X256090Y82004D02*
X254909D01*
X253959Y81879D01*
X253073Y81512D01*
X252312Y80928D01*
X251728Y80167D01*
X251361Y79281D01*
X251236Y78331D01*
X251361Y77380D01*
X251728Y76494D01*
X252312Y75733D01*
X253073Y75150D01*
X253959Y74783D01*
X254909Y74658D01*
X256090D01*
X257041Y74783D01*
X257927Y75150D01*
X258688Y75733D01*
X259272Y76494D01*
X259639Y77380D01*
X259764Y78331D01*
X259639Y79281D01*
X259272Y80167D01*
X258688Y80928D01*
X257927Y81512D01*
X257041Y81879D01*
X256090Y82004D01*
D02*
G37*
G36*
X20591Y77504D02*
X19410D01*
X18459Y77379D01*
X17573Y77012D01*
X16812Y76428D01*
X16228Y75667D01*
X15861Y74781D01*
X15736Y73831D01*
X15861Y72880D01*
X16228Y71994D01*
X16812Y71233D01*
X17573Y70650D01*
X18459Y70283D01*
X19410Y70158D01*
X20591D01*
X21541Y70283D01*
X22427Y70650D01*
X23188Y71233D01*
X23772Y71994D01*
X24138Y72880D01*
X24264Y73831D01*
X24138Y74781D01*
X23772Y75667D01*
X23188Y76428D01*
X22427Y77012D01*
X21541Y77379D01*
X20591Y77504D01*
D02*
G37*
G36*
X256500Y72164D02*
Y69331D01*
X259846D01*
X259846Y69337D01*
X259457Y70275D01*
X258840Y71080D01*
X258034Y71697D01*
X257097Y72086D01*
X256500Y72164D01*
D02*
G37*
G36*
X254500D02*
X253903Y72086D01*
X252966Y71697D01*
X252161Y71080D01*
X251543Y70275D01*
X251154Y69337D01*
X251153Y69331D01*
X254500D01*
Y72164D01*
D02*
G37*
G36*
X240392Y70969D02*
X239608D01*
X238885Y70669D01*
X238331Y70115D01*
X238032Y69392D01*
Y68608D01*
X238331Y67885D01*
X238885Y67331D01*
X239608Y67032D01*
X240392D01*
X241115Y67331D01*
X241669Y67885D01*
X241968Y68608D01*
Y69392D01*
X241669Y70115D01*
X241115Y70669D01*
X240392Y70969D01*
D02*
G37*
G36*
X259846Y67331D02*
X256500D01*
Y64497D01*
X257097Y64576D01*
X258034Y64964D01*
X258840Y65582D01*
X259457Y66387D01*
X259846Y67325D01*
X259846Y67331D01*
D02*
G37*
G36*
X254500D02*
X251153D01*
X251154Y67325D01*
X251543Y66387D01*
X252161Y65582D01*
X252966Y64964D01*
X253903Y64576D01*
X254500Y64497D01*
Y67331D01*
D02*
G37*
G36*
X36363Y64756D02*
X35637D01*
X34936Y64568D01*
X34308Y64205D01*
X33795Y63692D01*
X33432Y63064D01*
X33244Y62363D01*
Y61637D01*
X33432Y60936D01*
X33795Y60308D01*
X34308Y59795D01*
X34936Y59432D01*
X35637Y59244D01*
X36363D01*
X37064Y59432D01*
X37692Y59795D01*
X38205Y60308D01*
X38568Y60936D01*
X38756Y61637D01*
Y62363D01*
X38568Y63064D01*
X38205Y63692D01*
X37692Y64205D01*
X37064Y64568D01*
X36363Y64756D01*
D02*
G37*
G36*
X21000Y57239D02*
Y54405D01*
X24347D01*
X24346Y54412D01*
X23957Y55349D01*
X23339Y56154D01*
X22534Y56772D01*
X21597Y57161D01*
X21000Y57239D01*
D02*
G37*
G36*
X19000D02*
X18403Y57161D01*
X17466Y56772D01*
X16660Y56154D01*
X16043Y55349D01*
X15654Y54412D01*
X15653Y54405D01*
X19000D01*
Y57239D01*
D02*
G37*
G36*
X24347Y52405D02*
X21000D01*
Y49572D01*
X21597Y49650D01*
X22534Y50039D01*
X23339Y50656D01*
X23957Y51462D01*
X24346Y52399D01*
X24347Y52405D01*
D02*
G37*
G36*
X19000D02*
X15653D01*
X15654Y52399D01*
X16043Y51462D01*
X16660Y50656D01*
X17466Y50039D01*
X18403Y49650D01*
X19000Y49572D01*
Y52405D01*
D02*
G37*
G36*
X256090Y51579D02*
X254909D01*
X253959Y51453D01*
X253073Y51086D01*
X252312Y50503D01*
X251728Y49742D01*
X251361Y48856D01*
X251236Y47905D01*
X251361Y46955D01*
X251728Y46069D01*
X252312Y45308D01*
X253073Y44724D01*
X253959Y44357D01*
X254909Y44232D01*
X256090D01*
X257041Y44357D01*
X257927Y44724D01*
X258688Y45308D01*
X259272Y46069D01*
X259639Y46955D01*
X259764Y47905D01*
X259639Y48856D01*
X259272Y49742D01*
X258688Y50503D01*
X257927Y51086D01*
X257041Y51453D01*
X256090Y51579D01*
D02*
G37*
G36*
X20591Y47079D02*
X19410D01*
X18459Y46953D01*
X17573Y46586D01*
X16812Y46003D01*
X16228Y45242D01*
X15861Y44356D01*
X15736Y43406D01*
X15861Y42455D01*
X16228Y41569D01*
X16812Y40808D01*
X17573Y40224D01*
X18459Y39858D01*
X19410Y39732D01*
X20591D01*
X21541Y39858D01*
X22427Y40224D01*
X23188Y40808D01*
X23772Y41569D01*
X24138Y42455D01*
X24264Y43406D01*
X24138Y44356D01*
X23772Y45242D01*
X23188Y46003D01*
X22427Y46586D01*
X21541Y46953D01*
X20591Y47079D01*
D02*
G37*
G36*
X256090Y41579D02*
X254909D01*
X253959Y41453D01*
X253073Y41087D01*
X252312Y40503D01*
X251728Y39742D01*
X251361Y38856D01*
X251236Y37905D01*
X251361Y36955D01*
X251728Y36069D01*
X252312Y35308D01*
X253073Y34724D01*
X253959Y34358D01*
X254909Y34232D01*
X256090D01*
X257041Y34358D01*
X257927Y34724D01*
X258688Y35308D01*
X259272Y36069D01*
X259639Y36955D01*
X259764Y37905D01*
X259639Y38856D01*
X259272Y39742D01*
X258688Y40503D01*
X257927Y41087D01*
X257041Y41453D01*
X256090Y41579D01*
D02*
G37*
G36*
X256500Y31739D02*
Y28905D01*
X259846D01*
X259846Y28912D01*
X259457Y29849D01*
X258840Y30654D01*
X258034Y31272D01*
X257097Y31661D01*
X256500Y31739D01*
D02*
G37*
G36*
X254500D02*
X253903Y31661D01*
X252966Y31272D01*
X252161Y30654D01*
X251543Y29849D01*
X251154Y28912D01*
X251153Y28905D01*
X254500D01*
Y31739D01*
D02*
G37*
G36*
X259846Y26906D02*
X256500D01*
Y24072D01*
X257097Y24150D01*
X258034Y24539D01*
X258840Y25157D01*
X259457Y25962D01*
X259846Y26899D01*
X259846Y26906D01*
D02*
G37*
G36*
X254500D02*
X251153D01*
X251154Y26899D01*
X251543Y25962D01*
X252161Y25157D01*
X252966Y24539D01*
X253903Y24150D01*
X254500Y24072D01*
Y26906D01*
D02*
G37*
%LPD*%
G36*
X148425Y199882D02*
X139583D01*
Y198909D01*
X75035D01*
X74892Y198969D01*
X74108D01*
X73756Y198822D01*
X70000D01*
X69303Y198684D01*
X68711Y198289D01*
X68711Y198289D01*
X58930Y188507D01*
X58733Y188311D01*
X58338Y187720D01*
X58200Y187022D01*
X58200Y187022D01*
Y173920D01*
X56872D01*
Y164471D01*
X58200D01*
Y128777D01*
X51670Y122248D01*
X22666D01*
X22556Y122391D01*
X21980Y122833D01*
X21310Y123110D01*
X20591Y123205D01*
Y123551D01*
X21310Y123646D01*
X21980Y123923D01*
X22556Y124365D01*
X22950Y124879D01*
X46211D01*
X46211Y124879D01*
X46908Y125018D01*
X47499Y125413D01*
X51298Y129211D01*
X51298Y129211D01*
X51693Y129803D01*
X51832Y130500D01*
X51832Y130500D01*
Y177671D01*
X53172D01*
Y187120D01*
X51822D01*
Y187331D01*
Y188076D01*
X52577Y188831D01*
X69011Y205264D01*
X73547D01*
X74108Y205031D01*
X74892D01*
X75453Y205264D01*
X148425D01*
Y199882D01*
D02*
G37*
G36*
X110500Y172831D02*
X103172D01*
Y173920D01*
X96873D01*
Y172831D01*
X93500D01*
Y177342D01*
X93384Y177458D01*
Y181395D01*
X86660D01*
Y177458D01*
Y172831D01*
X83172D01*
Y173920D01*
X76872D01*
Y172831D01*
Y164471D01*
X78200D01*
Y127309D01*
X78200Y127309D01*
X78338Y126611D01*
X78733Y126020D01*
X93709Y111044D01*
X93709Y111044D01*
X94301Y110649D01*
X94998Y110510D01*
X229441D01*
X229441Y110510D01*
X229441Y110510D01*
X239232D01*
X239507Y110034D01*
X240203Y109338D01*
X241056Y108845D01*
X242008Y108591D01*
X242500D01*
Y107740D01*
X242008D01*
X241056Y107485D01*
X240203Y106993D01*
X239507Y106297D01*
X239233Y105822D01*
X216244D01*
X215892Y105968D01*
X215108D01*
X214756Y105822D01*
X90906D01*
X71845Y124884D01*
Y177671D01*
X73172D01*
Y187120D01*
X66873D01*
Y177671D01*
X68200D01*
Y124129D01*
X68200Y124129D01*
X68338Y123431D01*
X68733Y122840D01*
X71500Y120074D01*
X71577Y119996D01*
X71599Y119941D01*
X71632Y119763D01*
X71500Y119608D01*
Y119500D01*
X54535D01*
X54401Y119823D01*
X54511Y119934D01*
D01*
X61311Y126733D01*
X61311Y126733D01*
X61706Y127325D01*
X61844Y128022D01*
X61844Y128022D01*
Y132912D01*
Y164471D01*
X63172D01*
Y173920D01*
X61844D01*
Y186267D01*
X62408Y186831D01*
X63231Y187654D01*
X70755Y195178D01*
X73756D01*
X74108Y195031D01*
X74892D01*
X75453Y195264D01*
X110500D01*
Y172831D01*
D02*
G37*
G36*
X255500Y190504D02*
X254909D01*
X253959Y190379D01*
X253073Y190012D01*
X252312Y189428D01*
X251728Y188667D01*
X251361Y187781D01*
X251236Y186831D01*
X251361Y185880D01*
X251728Y184994D01*
X252312Y184233D01*
X253073Y183650D01*
X253959Y183283D01*
X254909Y183158D01*
X255500D01*
Y181331D01*
X255481D01*
X255457Y181294D01*
X255442Y181257D01*
X255417Y181227D01*
X255382Y181114D01*
X255337Y181004D01*
Y180965D01*
X255325Y180928D01*
X255334Y180834D01*
X255004Y180504D01*
X254909D01*
X253959Y180379D01*
X253073Y180012D01*
X252312Y179428D01*
X251728Y178667D01*
X251670Y178526D01*
X220165D01*
Y179882D01*
X219500D01*
Y181000D01*
Y181331D01*
X146307D01*
Y192831D01*
X255500D01*
Y190504D01*
D02*
G37*
G36*
X190500Y150424D02*
X188000D01*
Y146853D01*
X187000D01*
Y145853D01*
X182457D01*
Y144083D01*
X177543D01*
Y145853D01*
X173000D01*
X168457D01*
Y144083D01*
Y143283D01*
X168500D01*
Y130331D01*
X140500D01*
Y134079D01*
X143307D01*
Y137087D01*
Y140094D01*
X140500D01*
Y153331D01*
X190500D01*
Y150424D01*
D02*
G37*
G36*
X182457Y136808D02*
X182595D01*
Y136625D01*
X187000D01*
Y135808D01*
X188000D01*
Y132238D01*
X190500D01*
Y114155D01*
X149475D01*
X149031Y114291D01*
Y119882D01*
X140500D01*
Y129528D01*
X153370D01*
Y128087D01*
X158307D01*
X163244D01*
Y129528D01*
X168500D01*
X168807Y129589D01*
X169068Y129763D01*
X169242Y130024D01*
X169303Y130331D01*
Y132238D01*
X172000D01*
Y135808D01*
X173000D01*
Y136808D01*
X177543D01*
Y138331D01*
X182457D01*
Y136808D01*
D02*
G37*
G36*
X224716Y144291D02*
X233500D01*
Y129882D01*
X224716D01*
Y128419D01*
Y124291D01*
X227619D01*
Y114155D01*
X220459D01*
X220165Y114291D01*
Y117305D01*
X221789Y118928D01*
X221789Y118928D01*
X222184Y119519D01*
X222322Y120217D01*
X222322Y120217D01*
Y125771D01*
X222419Y125868D01*
X222764Y126700D01*
Y127600D01*
X222425Y128419D01*
X222419Y128432D01*
X221782Y129069D01*
X220950Y129414D01*
X220050D01*
X219218Y129069D01*
X218581Y128432D01*
X218575Y128419D01*
X218236Y127600D01*
Y126700D01*
X218581Y125868D01*
X218678Y125771D01*
Y120971D01*
X217623Y119917D01*
X216449D01*
X216449Y119917D01*
X216273Y119882D01*
X211500D01*
Y128419D01*
Y134079D01*
X214441D01*
Y137087D01*
Y140094D01*
X211500D01*
Y145554D01*
X224716D01*
Y144291D01*
D02*
G37*
%LPC*%
G36*
X99392Y191224D02*
X98608D01*
X97885Y190925D01*
X97331Y190371D01*
X97031Y189647D01*
Y188864D01*
X97331Y188141D01*
X97885Y187587D01*
X98608Y187287D01*
X99392D01*
X100115Y187587D01*
X100669Y188141D01*
X100969Y188864D01*
Y189647D01*
X100669Y190371D01*
X100115Y190925D01*
X99392Y191224D01*
D02*
G37*
G36*
X93384Y187332D02*
X91022D01*
Y183395D01*
X93384D01*
Y187332D01*
D02*
G37*
G36*
X89022D02*
X86660D01*
Y183395D01*
X89022D01*
Y187332D01*
D02*
G37*
G36*
X99392Y179469D02*
X98608D01*
X97885Y179169D01*
X97331Y178615D01*
X97031Y177892D01*
Y177108D01*
X97331Y176385D01*
X97885Y175831D01*
X98608Y175531D01*
X99392D01*
X100115Y175831D01*
X100669Y176385D01*
X100969Y177108D01*
Y177892D01*
X100669Y178615D01*
X100115Y179169D01*
X99392Y179469D01*
D02*
G37*
G36*
X234378Y190094D02*
X230441D01*
Y188087D01*
X234378D01*
Y190094D01*
D02*
G37*
G36*
X163244D02*
X159307D01*
Y188087D01*
X163244D01*
Y190094D01*
D02*
G37*
G36*
X228441D02*
X224504D01*
Y188087D01*
X228441D01*
Y190094D01*
D02*
G37*
G36*
X157307D02*
X153370D01*
Y188087D01*
X157307D01*
Y190094D01*
D02*
G37*
G36*
X237950Y189094D02*
X237050D01*
X236218Y188750D01*
X235581Y188113D01*
X235236Y187281D01*
Y186380D01*
X235581Y185548D01*
X236218Y184912D01*
X237050Y184567D01*
X237950D01*
X238782Y184912D01*
X239419Y185548D01*
X239764Y186380D01*
Y187281D01*
X239419Y188113D01*
X238782Y188750D01*
X237950Y189094D01*
D02*
G37*
G36*
X234378Y186087D02*
X230441D01*
Y184079D01*
X234378D01*
Y186087D01*
D02*
G37*
G36*
X228441D02*
X224504D01*
Y184079D01*
X228441D01*
Y186087D01*
D02*
G37*
G36*
X163244D02*
X159307D01*
Y184079D01*
X163244D01*
Y186087D01*
D02*
G37*
G36*
X157307D02*
X153370D01*
Y184079D01*
X157307D01*
Y186087D01*
D02*
G37*
G36*
X177543Y150424D02*
X174000D01*
Y147854D01*
X177543D01*
Y150424D01*
D02*
G37*
G36*
X186000D02*
X182457D01*
Y147854D01*
X186000D01*
Y150424D01*
D02*
G37*
G36*
X172000D02*
X168457D01*
Y147854D01*
X172000D01*
Y150424D01*
D02*
G37*
G36*
X163031Y149882D02*
X153583D01*
Y144291D01*
X163031D01*
Y149882D01*
D02*
G37*
G36*
X149244Y140094D02*
X145307D01*
Y138087D01*
X149244D01*
Y140094D01*
D02*
G37*
G36*
Y136087D02*
X145307D01*
Y134079D01*
X149244D01*
Y136087D01*
D02*
G37*
G36*
X186000Y134808D02*
X182457D01*
Y132238D01*
X186000D01*
Y134808D01*
D02*
G37*
G36*
X177543D02*
X174000D01*
Y132238D01*
X177543D01*
Y134808D01*
D02*
G37*
G36*
X163244Y126087D02*
X159307D01*
Y124079D01*
X163244D01*
Y126087D01*
D02*
G37*
G36*
X157307D02*
X153370D01*
Y124079D01*
X157307D01*
Y126087D01*
D02*
G37*
G36*
X220378Y140094D02*
X216441D01*
Y138087D01*
X220378D01*
Y140094D01*
D02*
G37*
G36*
Y136087D02*
X216441D01*
Y134079D01*
X220378D01*
Y136087D01*
D02*
G37*
G36*
X194500Y72580D02*
Y69756D01*
X197324D01*
X197183Y70282D01*
X196663Y71183D01*
X195927Y71919D01*
X195026Y72439D01*
X194500Y72580D01*
D02*
G37*
G36*
X192500D02*
X191974Y72439D01*
X191073Y71919D01*
X190337Y71183D01*
X189817Y70282D01*
X189676Y69756D01*
X192500D01*
Y72580D01*
D02*
G37*
G36*
X197324Y67756D02*
X194500D01*
Y64932D01*
X195026Y65073D01*
X195927Y65593D01*
X196663Y66329D01*
X197183Y67230D01*
X197324Y67756D01*
D02*
G37*
G36*
X192500D02*
X189676D01*
X189817Y67230D01*
X190337Y66329D01*
X191073Y65593D01*
X191974Y65073D01*
X192500Y64932D01*
Y67756D01*
D02*
G37*
G36*
X111593Y66874D02*
X109023D01*
Y63331D01*
X111593D01*
Y66874D01*
D02*
G37*
G36*
Y61331D02*
X109023D01*
Y57787D01*
X111593D01*
Y61331D01*
D02*
G37*
G36*
X70950Y77520D02*
X70050D01*
X69218Y77175D01*
X68581Y76538D01*
X68236Y75706D01*
Y74806D01*
X68581Y73974D01*
X69218Y73337D01*
X70050Y72992D01*
X70950D01*
X71782Y73337D01*
X72419Y73974D01*
X72764Y74806D01*
Y75706D01*
X72419Y76538D01*
X71782Y77175D01*
X70950Y77520D01*
D02*
G37*
G36*
X95977Y66874D02*
X93407D01*
Y66000D01*
Y63331D01*
X95977D01*
Y66874D01*
D02*
G37*
G36*
X83500Y64894D02*
Y62984D01*
X86905D01*
Y64894D01*
X83500D01*
D02*
G37*
G36*
X95977Y61331D02*
X93407D01*
Y57787D01*
X95977D01*
Y61331D01*
D02*
G37*
G36*
X81500Y45424D02*
X77957D01*
Y42854D01*
X81500D01*
Y45424D01*
D02*
G37*
G36*
X160977Y71374D02*
X158407D01*
Y67831D01*
X160977D01*
Y71374D01*
D02*
G37*
G36*
Y65831D02*
X158407D01*
Y62287D01*
X160977D01*
Y65831D01*
D02*
G37*
G36*
X150224Y60429D02*
X145500D01*
Y56000D01*
X150224D01*
Y60429D01*
D02*
G37*
G36*
X143500D02*
X138776D01*
Y56000D01*
X143500D01*
Y60429D01*
D02*
G37*
G36*
X162760Y52914D02*
X161480D01*
Y50552D01*
X162760D01*
Y52914D01*
D02*
G37*
G36*
X96559Y41591D02*
X94181D01*
X94252Y41233D01*
X94536Y40808D01*
X94961Y40523D01*
X95463Y40424D01*
X96559D01*
Y41591D01*
D02*
G37*
G36*
X87043Y29808D02*
X83500D01*
Y27238D01*
X87043D01*
Y28256D01*
Y29808D01*
D02*
G37*
G36*
X81500D02*
X77957D01*
Y27238D01*
X81500D01*
Y29808D01*
D02*
G37*
G36*
X86890Y18937D02*
X80000D01*
Y15000D01*
X86890D01*
Y18937D01*
D02*
G37*
G36*
X78000D02*
X71110D01*
Y15000D01*
X78000D01*
Y18937D01*
D02*
G37*
G36*
X86890Y13000D02*
X80000D01*
Y9063D01*
X86890D01*
Y13000D01*
D02*
G37*
G36*
X78000D02*
X71110D01*
Y9063D01*
X78000D01*
Y13000D01*
D02*
G37*
G36*
X21000Y37239D02*
Y34405D01*
X24347D01*
X24346Y34412D01*
X23957Y35349D01*
X23339Y36154D01*
X22534Y36772D01*
X21597Y37161D01*
X21000Y37239D01*
D02*
G37*
G36*
X24347Y32405D02*
X21000D01*
Y29572D01*
X21597Y29650D01*
X22534Y30039D01*
X23339Y30656D01*
X23957Y31462D01*
X24346Y32399D01*
X24347Y32405D01*
D02*
G37*
G36*
X46917Y32807D02*
X45539D01*
Y28280D01*
X46917D01*
Y32807D01*
D02*
G37*
G36*
Y26280D02*
X45539D01*
Y21752D01*
X46917D01*
Y26280D01*
D02*
G37*
G36*
X43193Y18027D02*
X37287D01*
Y8973D01*
X43193D01*
Y18027D01*
D02*
G37*
G36*
X187043Y41477D02*
X183500D01*
Y38907D01*
X187043D01*
Y41477D01*
D02*
G37*
G36*
X131950Y37020D02*
X131050D01*
X130218Y36675D01*
X129581Y36038D01*
X129236Y35206D01*
Y34306D01*
X129581Y33474D01*
X130218Y32837D01*
X131050Y32492D01*
X131950D01*
X132782Y32837D01*
X133419Y33474D01*
X133764Y34306D01*
Y35206D01*
X133419Y36038D01*
X132782Y36675D01*
X131950Y37020D01*
D02*
G37*
G36*
X185736Y31736D02*
X183827D01*
Y28331D01*
X185736D01*
Y31736D01*
D02*
G37*
G36*
X121500Y29808D02*
X117957D01*
Y27238D01*
X121500D01*
Y29808D01*
D02*
G37*
G36*
X110932Y29331D02*
X109023D01*
Y25925D01*
X110932D01*
Y29331D01*
D02*
G37*
G36*
X133390Y18937D02*
X126500D01*
Y15000D01*
X133390D01*
Y18937D01*
D02*
G37*
G36*
X152390D02*
X145500D01*
Y15000D01*
X152390D01*
Y18937D01*
D02*
G37*
G36*
X143500D02*
X136610D01*
Y15000D01*
X143500D01*
Y18937D01*
D02*
G37*
G36*
X124500D02*
X117610D01*
Y15000D01*
X124500D01*
Y18937D01*
D02*
G37*
G36*
X152390Y13000D02*
X145500D01*
Y9063D01*
X152390D01*
Y13000D01*
D02*
G37*
G36*
X143500D02*
X136610D01*
Y9063D01*
X143500D01*
Y13000D01*
D02*
G37*
G36*
X133390D02*
X126500D01*
Y9063D01*
X133390D01*
Y13000D01*
D02*
G37*
G36*
X124500D02*
X117610D01*
Y9063D01*
X124500D01*
Y13000D01*
D02*
G37*
G36*
X110159Y20693D02*
X108841D01*
X107548Y20436D01*
X106330Y19931D01*
X105234Y19199D01*
X104301Y18267D01*
X103569Y17170D01*
X103064Y15952D01*
X102807Y14659D01*
Y13341D01*
X103064Y12048D01*
X103569Y10830D01*
X104301Y9734D01*
X105234Y8801D01*
X106330Y8069D01*
X107548Y7564D01*
X108841Y7307D01*
X110159D01*
X111452Y7564D01*
X112670Y8069D01*
X113767Y8801D01*
X114699Y9734D01*
X115431Y10830D01*
X115936Y12048D01*
X116193Y13341D01*
Y14659D01*
X115936Y15952D01*
X115431Y17170D01*
X114699Y18267D01*
X113767Y19199D01*
X112670Y19931D01*
X111452Y20436D01*
X110159Y20693D01*
D02*
G37*
G36*
X225201Y32807D02*
X223823D01*
Y28280D01*
X225201D01*
Y32807D01*
D02*
G37*
G36*
Y26280D02*
X223823D01*
Y21752D01*
X225201D01*
Y26280D01*
D02*
G37*
G36*
X198890Y18937D02*
X192000D01*
Y15000D01*
X198890D01*
Y18937D01*
D02*
G37*
G36*
X190000D02*
X183110D01*
Y15000D01*
X190000D01*
Y18937D01*
D02*
G37*
G36*
X198890Y13000D02*
X192000D01*
Y9063D01*
X198890D01*
Y13000D01*
D02*
G37*
G36*
X190000D02*
X183110D01*
Y9063D01*
X190000D01*
Y13000D01*
D02*
G37*
G36*
X233453Y18027D02*
X227547D01*
Y8973D01*
X233453D01*
Y18027D01*
D02*
G37*
G36*
X212193D02*
X206287D01*
Y8973D01*
X212193D01*
Y18027D01*
D02*
G37*
%LPD*%
D12*
X52425Y120425D02*
X60022Y128022D01*
X20000Y120425D02*
X52425D01*
X144795Y41000D02*
X148224Y37571D01*
Y37276D02*
X149500Y36000D01*
X161500D01*
X144500Y41000D02*
X144795D01*
X148224Y37276D02*
Y37571D01*
X182500Y53523D02*
Y59000D01*
X161500Y36000D02*
X163760Y38260D01*
Y42300D01*
X84500Y46331D02*
X97559D01*
X90151Y104000D02*
X215500D01*
X70022Y124129D02*
Y182395D01*
Y124129D02*
X90151Y104000D01*
X215441Y117087D02*
X216449Y118095D01*
X218378D01*
X220500Y120217D01*
Y127150D01*
X215500Y104000D02*
X242500D01*
X229441Y112333D02*
Y127087D01*
X80022Y127309D02*
X94998Y112333D01*
X229441D01*
X80022Y127309D02*
Y169195D01*
X229441Y112333D02*
X242498D01*
X229441D02*
X229441Y112333D01*
X46211Y126701D02*
X50010Y130500D01*
X20371Y126701D02*
X46211D01*
X20000Y126331D02*
X20371Y126701D01*
X60022Y128022D02*
Y169195D01*
X68256Y207087D02*
X158307D01*
X50010Y130500D02*
Y182383D01*
X229528Y307000D02*
X244000D01*
X247500Y296756D02*
Y303500D01*
X244000Y307000D02*
X247500Y303500D01*
X229441Y307087D02*
X229528Y307000D01*
X60022Y169195D02*
Y187022D01*
X70000Y197000D01*
X74500D01*
Y197087D02*
X144307D01*
X38000Y172500D02*
Y178000D01*
X26000Y172500D02*
Y178000D01*
X50000Y182395D02*
Y188831D01*
X68256Y207087D01*
X213866Y247087D02*
X229441D01*
X213866Y267087D02*
X229441D01*
X26000Y162058D02*
Y172500D01*
X38000Y161827D02*
Y172500D01*
X26000Y162058D02*
X26231Y161827D01*
X50000Y182395D02*
X50009Y182387D01*
D17*
X171240Y42300D02*
D03*
X163760D02*
D03*
X167500Y53914D02*
D03*
X171240D02*
D03*
X163760D02*
D03*
X167500Y42300D02*
D03*
D18*
X182500Y53523D02*
D03*
Y42477D02*
D03*
X242000Y237331D02*
D03*
X173000Y146853D02*
D03*
X187000D02*
D03*
X52000Y262854D02*
D03*
X15000Y161523D02*
D03*
X122500Y30808D02*
D03*
X82500Y41853D02*
D03*
X242000Y248376D02*
D03*
X52000Y251808D02*
D03*
X15000Y150477D02*
D03*
X187000Y135808D02*
D03*
X173000D02*
D03*
X82500Y30808D02*
D03*
X122500Y41853D02*
D03*
D19*
X222823Y27279D02*
D03*
X216917D02*
D03*
X47917D02*
D03*
X53823D02*
D03*
D20*
X230500Y13500D02*
D03*
X209240D02*
D03*
X61500D02*
D03*
X40240D02*
D03*
D21*
X229441Y287087D02*
D03*
Y187087D02*
D03*
X215441Y237087D02*
D03*
Y137087D02*
D03*
X158307Y287087D02*
D03*
Y187087D02*
D03*
X144307Y237087D02*
D03*
Y137087D02*
D03*
X158307Y267087D02*
D03*
X144307Y157087D02*
D03*
X158307Y307087D02*
D03*
Y127087D02*
D03*
X215441Y117087D02*
D03*
X229441Y127087D02*
D03*
X144307Y297087D02*
D03*
Y217087D02*
D03*
X215441Y157087D02*
D03*
Y177087D02*
D03*
Y197087D02*
D03*
Y217087D02*
D03*
Y257087D02*
D03*
Y277087D02*
D03*
Y297087D02*
D03*
X144307Y117087D02*
D03*
X158307Y147087D02*
D03*
Y167087D02*
D03*
X144307Y177087D02*
D03*
Y197087D02*
D03*
X158307Y207087D02*
D03*
Y227087D02*
D03*
Y247087D02*
D03*
X144307Y257087D02*
D03*
Y277087D02*
D03*
X229441Y147087D02*
D03*
Y167087D02*
D03*
Y207087D02*
D03*
Y227087D02*
D03*
Y247087D02*
D03*
Y267087D02*
D03*
Y307087D02*
D03*
D22*
X173023Y66831D02*
D03*
X96977Y62331D02*
D03*
X108023D02*
D03*
X161977Y66831D02*
D03*
D23*
X182827Y27331D02*
D03*
X108023Y30331D02*
D03*
X152173Y27331D02*
D03*
X96369Y30331D02*
D03*
X163827Y27331D02*
D03*
X171173D02*
D03*
D24*
X90022Y182395D02*
D03*
X100022Y169195D02*
D03*
X70022Y182395D02*
D03*
X80022Y169195D02*
D03*
X50022Y182395D02*
D03*
X60022Y169195D02*
D03*
D25*
X112937Y130756D02*
D03*
X193500Y68756D02*
D03*
X242500Y104000D02*
D03*
Y112331D02*
D03*
X124500Y130756D02*
D03*
D26*
X97559Y46331D02*
D03*
X107441D02*
D03*
X97559Y42591D02*
D03*
Y50071D02*
D03*
X107441D02*
D03*
Y42591D02*
D03*
D27*
X144500Y14000D02*
D03*
X125500D02*
D03*
X191000D02*
D03*
X79000D02*
D03*
D28*
X56000Y72000D02*
D03*
Y53000D02*
D03*
D29*
X82500Y61984D02*
D03*
X201000Y135504D02*
D03*
X52000Y243984D02*
D03*
X38000Y150173D02*
D03*
X26231D02*
D03*
X201000Y147158D02*
D03*
X122500Y61984D02*
D03*
Y50331D02*
D03*
X82500D02*
D03*
X38000Y161827D02*
D03*
X26231D02*
D03*
X52000Y232331D02*
D03*
D30*
X144500Y55000D02*
D03*
Y41000D02*
D03*
D31*
X33000Y242331D02*
D03*
Y202331D02*
D03*
X19800Y192331D02*
D03*
X33000Y222331D02*
D03*
X19800Y212331D02*
D03*
Y232331D02*
D03*
D32*
X38000Y178000D02*
D03*
X26000D02*
D03*
X173000Y200319D02*
D03*
X36441Y132059D02*
D03*
X173000Y167256D02*
D03*
D53*
X106000Y36831D02*
X107441Y38272D01*
Y42591D01*
X97564Y36831D02*
X106000D01*
X96369Y30331D02*
Y35636D01*
X97564Y36831D01*
X171343Y27500D02*
X176000D01*
X171440Y42500D02*
X176000D01*
X171240Y42300D02*
X171440Y42500D01*
X163827Y27331D02*
X171173D01*
X171343Y27500D01*
X173192Y67000D02*
X180500D01*
X173023Y66831D02*
X173192Y67000D01*
X112937Y130756D02*
Y142331D01*
X122500Y41853D02*
Y50331D01*
X122240Y50071D02*
X122500Y50331D01*
X107441Y50071D02*
X122240D01*
X82500Y50331D02*
X82760Y50071D01*
X97559D01*
D54*
X202720Y26779D02*
X216917D01*
X52000Y262854D02*
Y270000D01*
X15000Y161523D02*
Y177000D01*
X103500Y46331D02*
X107441D01*
X102500Y47331D02*
Y55331D01*
Y47331D02*
X103500Y46331D01*
X107441D02*
X113925D01*
X236748Y49748D02*
X242500Y55500D01*
X53951Y27500D02*
X63500D01*
X53823Y27372D02*
X53951Y27500D01*
X53823Y27279D02*
Y27372D01*
X56000Y44060D02*
Y53000D01*
X167500Y53638D02*
Y59831D01*
X19798Y132236D02*
X20000D01*
X19135Y132900D02*
X19798Y132236D01*
X19135Y132900D02*
Y133102D01*
X15000Y137236D02*
X19135Y133102D01*
X15000Y137236D02*
Y150477D01*
X20000Y132236D02*
X20089Y132148D01*
X143500Y27242D02*
X152085D01*
X152173Y27331D01*
X20089Y132148D02*
X36352D01*
X36441Y132059D01*
X56000Y44060D02*
X64000Y36060D01*
X172915Y167171D02*
X173000Y167256D01*
X158392Y167171D02*
X172915D01*
X158307Y167087D02*
X158392Y167171D01*
D55*
X142417Y267087D02*
X158307D01*
X159114Y267043D02*
X159158Y267087D01*
X158307Y307087D02*
X160236D01*
X254909Y306858D02*
X255500D01*
X167150Y314000D02*
X247768D01*
X160236Y307087D02*
X167150Y314000D01*
X247768D02*
X254909Y306858D01*
X143000Y297000D02*
X143087Y297087D01*
X144307D02*
X159795D01*
X124657Y131599D02*
Y133344D01*
X124500Y133501D02*
X124657Y133344D01*
X124500Y130756D02*
X124657Y131599D01*
X124500Y133501D02*
Y141756D01*
X144267Y217046D02*
X144307Y217087D01*
X135040Y217046D02*
X144267D01*
X135000Y217006D02*
X135040Y217046D01*
X215441Y217087D02*
X254424D01*
X255180Y216331D01*
X256000D02*
X257000Y217331D01*
X255180Y216331D02*
X256000D01*
X137528Y84284D02*
X216028D01*
X122500Y69256D02*
X137528Y84284D01*
X33000Y211500D02*
X48587Y227087D01*
X33000Y202331D02*
Y211500D01*
X48587Y227087D02*
X158307D01*
X52909Y233240D02*
X54740D01*
X68587Y247087D01*
X52000Y232331D02*
X52909Y233240D01*
X68587Y247087D02*
X158307D01*
X229484Y147043D02*
X237957D01*
X201500Y147158D02*
X201535Y147122D01*
X237957Y147043D02*
X238000Y147000D01*
X229405Y147122D02*
X229484Y147043D01*
X201535Y147122D02*
X229405D01*
X213866Y167087D02*
X229441D01*
X255372Y206959D02*
X255500Y206831D01*
X229569Y206959D02*
X255372D01*
X229441Y207087D02*
X229569Y206959D01*
X255372Y226959D02*
X255500Y226831D01*
X229569Y226959D02*
X255372D01*
X229441Y227087D02*
X229569Y226959D01*
X144307Y177087D02*
X144392Y177171D01*
X159797D01*
X159882Y177256D01*
X143992Y257087D02*
X159882D01*
X144307Y277087D02*
X159882D01*
X122500Y61984D02*
Y69256D01*
X19800Y232331D02*
X19989Y232520D01*
X52000D01*
X215441Y176959D02*
X257372D01*
X257500Y176831D01*
D56*
X255500Y236831D02*
D03*
Y88331D02*
D03*
Y47905D02*
D03*
X20000Y73831D02*
D03*
Y33406D02*
D03*
X255500Y246831D02*
D03*
Y68331D02*
D03*
Y27905D02*
D03*
X20000Y93831D02*
D03*
Y53405D02*
D03*
X255500Y306858D02*
D03*
Y226831D02*
D03*
Y216831D02*
D03*
Y206831D02*
D03*
Y186831D02*
D03*
Y176831D02*
D03*
Y166831D02*
D03*
Y156831D02*
D03*
Y146831D02*
D03*
Y136831D02*
D03*
Y126831D02*
D03*
Y116831D02*
D03*
Y196831D02*
D03*
Y286858D02*
D03*
Y276858D02*
D03*
Y296858D02*
D03*
Y37905D02*
D03*
Y78331D02*
D03*
X20000Y83831D02*
D03*
Y43406D02*
D03*
D57*
Y114520D02*
D03*
Y108614D02*
D03*
Y132236D02*
D03*
Y120425D02*
D03*
Y126331D02*
D03*
D58*
X175000Y14000D02*
D03*
X160500D02*
D03*
X109500D02*
D03*
X95000D02*
D03*
X12750Y12500D02*
D03*
X262841Y325833D02*
D03*
Y12500D02*
D03*
D59*
X36500Y123500D02*
D03*
X44500D02*
D03*
X100718Y123409D02*
D03*
X65000Y123500D02*
D03*
X78000D02*
D03*
X100718Y116746D02*
D03*
X112937D02*
D03*
X124500D02*
D03*
X176000Y27500D02*
D03*
Y42500D02*
D03*
X175652Y53509D02*
D03*
X157500Y53500D02*
D03*
X135976Y70500D02*
D03*
X237500Y282256D02*
D03*
X247500Y191000D02*
D03*
Y182000D02*
D03*
X229500Y108331D02*
D03*
X240000Y69000D02*
D03*
X213500Y289000D02*
D03*
X203500Y200756D02*
D03*
X220500Y187000D02*
D03*
X203500Y167500D02*
D03*
X201500Y108331D02*
D03*
X173000Y187000D02*
D03*
X192500Y36000D02*
D03*
X171173Y35756D02*
D03*
X192440Y27351D02*
D03*
X150000Y187000D02*
D03*
X135000Y202209D02*
D03*
X107500Y193905D02*
D03*
X152000Y137000D02*
D03*
X134000Y152000D02*
D03*
X159882Y137000D02*
D03*
X74500Y202209D02*
D03*
Y189756D02*
D03*
X75000Y158331D02*
D03*
X65000D02*
D03*
X75000Y142331D02*
D03*
X65000D02*
D03*
Y111000D02*
D03*
X55000Y158322D02*
D03*
X55000Y142331D02*
D03*
X138055Y97522D02*
D03*
X138000Y108500D02*
D03*
X100000Y87000D02*
D03*
X81000Y105500D02*
D03*
X89500Y69500D02*
D03*
X44500Y101000D02*
D03*
X67500Y69128D02*
D03*
X74500D02*
D03*
Y62500D02*
D03*
X67500D02*
D03*
X74500Y50504D02*
D03*
X31500Y27500D02*
D03*
X36000Y20000D02*
D03*
X114500Y42756D02*
D03*
X107831Y78437D02*
D03*
X123000Y78500D02*
D03*
X35000Y101000D02*
D03*
X38000Y156000D02*
D03*
X173000Y126756D02*
D03*
X99000Y189256D02*
D03*
X159882Y118000D02*
D03*
X173000Y120000D02*
D03*
X99000Y177500D02*
D03*
X150500Y127000D02*
D03*
X215500Y104000D02*
D03*
X74500Y207000D02*
D03*
Y197000D02*
D03*
X26000Y172500D02*
D03*
X38000D02*
D03*
X216028Y84284D02*
D03*
D60*
X230500Y237000D02*
D03*
X201016Y236842D02*
D03*
X187016Y287331D02*
D03*
X173016Y236842D02*
D03*
Y287331D02*
D03*
X187016Y236842D02*
D03*
X224000Y140000D02*
D03*
Y134000D02*
D03*
X159882Y236500D02*
D03*
X112937Y142331D02*
D03*
X131500Y34756D02*
D03*
X142417Y267087D02*
D03*
X65000Y101000D02*
D03*
X44500Y111000D02*
D03*
X230500Y200500D02*
D03*
X255500Y108331D02*
D03*
Y260500D02*
D03*
X195000Y279000D02*
D03*
X201016Y226842D02*
D03*
X242500Y156831D02*
D03*
X224000Y157000D02*
D03*
X201500Y119000D02*
D03*
X198500Y156831D02*
D03*
Y177000D02*
D03*
X173016Y226842D02*
D03*
X187016D02*
D03*
X187000Y177272D02*
D03*
X114000Y217006D02*
D03*
Y237331D02*
D03*
X128000Y177256D02*
D03*
X187000Y156831D02*
D03*
X128000Y167256D02*
D03*
X187000Y98256D02*
D03*
Y91500D02*
D03*
X124339Y97745D02*
D03*
X112937D02*
D03*
X72000Y237331D02*
D03*
X93000D02*
D03*
Y217006D02*
D03*
X72000D02*
D03*
X42500Y248000D02*
D03*
X61500D02*
D03*
X33000Y251500D02*
D03*
X100718Y153256D02*
D03*
Y142331D02*
D03*
X88500D02*
D03*
Y153256D02*
D03*
X29500Y137500D02*
D03*
X80500Y90000D02*
D03*
X90000Y175000D02*
D03*
X143500Y27242D02*
D03*
X220500Y127150D02*
D03*
X208500Y98331D02*
D03*
X159882Y297173D02*
D03*
X124500Y141756D02*
D03*
X135000Y217006D02*
D03*
X237500Y147000D02*
D03*
X213866Y167087D02*
D03*
Y247087D02*
D03*
Y267087D02*
D03*
X159882Y177256D02*
D03*
Y257087D02*
D03*
Y277087D02*
D03*
X247500Y296756D02*
D03*
Y196831D02*
D03*
X193500Y98256D02*
D03*
X70500Y75256D02*
D03*
X237500Y276858D02*
D03*
Y186831D02*
D03*
X242500Y166831D02*
D03*
Y287331D02*
D03*
D61*
X173000Y89000D02*
D03*
X180500Y67000D02*
D03*
X52000Y270000D02*
D03*
X164500Y94500D02*
D03*
X155500Y41500D02*
D03*
X131500Y27242D02*
D03*
X36000Y62000D02*
D03*
X152500Y70500D02*
D03*
X202500Y60000D02*
D03*
X201500Y69500D02*
D03*
X187500Y63000D02*
D03*
D62*
X15000Y177000D02*
D03*
X242500Y55500D02*
D03*
X52708Y210874D02*
D03*
X211500Y49500D02*
D03*
X112500Y90000D02*
D03*
X201500Y126756D02*
D03*
M02*
