M48
;Layer_Color=9474304
;FILE_FORMAT=2:5
INCH
;TYPE=PLATED
T01F00S00C0.01181
T02F00S00C0.01575
T03F00S00C0.01968
T04F00S00C0.02559
T05F00S00C0.02756
T06F00S00C0.02900
T07F00S00C0.03740
%
T01
X0176000Y0173169
X0171173Y0181425
X0176000Y0188169
X0175652Y0199178
X0157500Y0199169
X0192500Y0181669
X0192440Y0173021
X0216028Y0229953
X0215500Y0249669
X0229500Y0254000
X0201500
X0173000Y0265669
X0173000Y0272425
X0159882Y0263669
Y0282669
X0240000Y0214669
X0135976Y0216169
X0123000Y0224169
X0107831Y0224106
X0100000Y0232669
X0089500Y0215169
X0074500Y0214797
Y0208169
X0067500
Y0214797
X0074500Y0196173
X0114500Y0188425
X0112937Y0262416
X0124500
X0138000Y0254169
X0138055Y0243192
X0150500Y0272669
X0152000Y0282669
X0134000Y0297669
X0100718Y0269079
Y0262416
X0078000Y0269169
X0065000
Y0256669
X0081000Y0251169
X0044500Y0246669
X0035000
X0036500Y0269169
X0044500
X0055000Y0288000
X0065000
X0075000
Y0304000
X0065000
X0055000Y0303991
X0038000Y0301669
X0031500Y0173169
X0036000Y0165669
X0038000Y0318169
X0026000
X0074500Y0335425
Y0342669
Y0347878
Y0352669
X0099000Y0334925
Y0323169
X0107500Y0339575
X0135000Y0347878
X0150000Y0332669
X0173000
X0203500Y0346425
X0220500Y0332669
X0247500Y0336669
Y0327669
X0203500Y0313169
X0213500Y0434669
X0237500Y0427925
T02
X0187000Y0237169
Y0243925
X0193500
X0208500Y0244000
X0201500Y0264669
X0220500Y0272819
X0224000Y0279669
Y0285669
Y0302669
X0242500Y0302500
X0237500Y0292669
X0198500Y0302500
X0187000
X0255500Y0254000
X0124339Y0243414
X0112937
X0080500Y0235669
X0070500Y0220925
X0065000Y0246669
X0044500Y0256669
X0029500Y0283169
X0088500Y0288000
Y0298925
X0100718
Y0288000
X0112937
X0124500Y0287425
X0131500Y0180425
X0143500Y0172912
X0128000Y0312925
Y0322925
X0090000Y0320669
X0093000Y0362675
Y0383000
X0114000
Y0362675
X0135000
X0142417Y0412756
X0061500Y0393669
X0042500
X0033000Y0397169
X0072000Y0383000
Y0362675
X0159882Y0382169
X0173016Y0382512
Y0372512
X0187016
Y0382512
X0201016
Y0372512
X0213866Y0392756
Y0412756
X0195000Y0424669
X0187016Y0433000
X0173016
X0159882Y0442842
Y0422756
Y0402756
Y0322925
X0187000Y0322941
X0198500Y0322669
X0213866Y0312756
X0242500Y0312500
X0237500Y0332500
X0247500Y0342500
X0230500Y0346169
Y0382669
X0237500Y0422528
X0242500Y0433000
X0247500Y0442425
X0255500Y0406169
T03
X0180500Y0212669
X0187500Y0208669
X0202500Y0205669
X0201500Y0215169
X0173000Y0234669
X0164500Y0240169
X0152500Y0216169
X0155500Y0187169
X0131500Y0172912
X0036000Y0207669
X0052000Y0415669
T04
X0211500Y0195169
X0242500Y0201169
X0201500Y0272425
X0112500Y0235669
X0052708Y0356544
X0015000Y0322669
T05
X0036441Y0277728
X0173000Y0312925
Y0345988
T06
X0020000Y0254283
Y0260189
Y0266094
Y0272000
Y0277906
T07
X0255500Y0173575
Y0183575
Y0193575
Y0214000
Y0224000
Y0234000
Y0262500
Y0272500
Y0282500
Y0292500
Y0302500
X0020000Y0239500
Y0229500
Y0219500
Y0199075
Y0189075
Y0179075
X0255500Y0312500
Y0322500
Y0332500
Y0342500
Y0352500
Y0362500
Y0372500
Y0382500
Y0392500
Y0422528
Y0432528
Y0442528
Y0452528
M30
