<?xml version="1.0" encoding="UTF-8"?>
<svg id="Ebene_2" data-name="Ebene 2" xmlns="http://www.w3.org/2000/svg" viewBox="0 0 479.72 105.18">
  <defs>
    <style>
      .cls-1 {
        fill: #ea9729;
      }

      .cls-2 {
        fill: #2d2e83;
      }
    </style>
  </defs>
  <g id="Ebene_1-2" data-name="Ebene 1">
    <g>
      <g>
        <path class="cls-2" d="M158.94,70.58h-26.54l-5.06,12.25h-13.55l25.47-57.15h13.06l25.56,57.15h-13.88l-5.06-12.25ZM154.78,60.54l-9.06-21.88-9.06,21.88h18.13Z"/>
        <path class="cls-2" d="M181.39,25.67c0-4,3.18-7.1,7.92-7.1s7.92,2.94,7.92,6.86c0,4.25-3.18,7.35-7.92,7.35s-7.92-3.1-7.92-7.1ZM182.94,38.9h12.74v43.93h-12.74v-43.93Z"/>
        <path class="cls-2" d="M234.79,38.25v11.76c-1.06-.08-1.88-.16-2.86-.16-7.02,0-11.68,3.84-11.68,12.25v20.74h-12.74v-43.93h12.17v5.8c3.1-4.25,8.33-6.45,15.1-6.45Z"/>
        <path class="cls-2" d="M238.46,77.19l4.49-9.96c4.82,3.51,12,5.96,18.86,5.96,7.84,0,11.02-2.61,11.02-6.12,0-10.7-33.23-3.35-33.23-24.58,0-9.72,7.84-17.8,24.09-17.8,7.18,0,14.53,1.71,19.84,5.06l-4.08,10.04c-5.31-3.02-10.78-4.49-15.84-4.49-7.84,0-10.86,2.94-10.86,6.53,0,10.53,33.23,3.27,33.23,24.25,0,9.55-7.92,17.72-24.25,17.72-9.06,0-18.21-2.69-23.27-6.61Z"/>
        <path class="cls-2" d="M290.87,60.86c0-13.23,10.21-22.62,24.49-22.62,9.23,0,16.49,4,19.68,11.19l-9.88,5.31c-2.37-4.16-5.88-6.04-9.88-6.04-6.45,0-11.51,4.49-11.51,12.17s5.06,12.17,11.51,12.17c4,0,7.51-1.8,9.88-6.04l9.88,5.39c-3.18,7.02-10.45,11.1-19.68,11.1-14.29,0-24.49-9.39-24.49-22.62Z"/>
        <path class="cls-2" d="M338.55,60.86c0-13.23,10.21-22.62,24.17-22.62s24.09,9.39,24.09,22.62-10.12,22.62-24.09,22.62-24.17-9.39-24.17-22.62ZM373.91,60.86c0-7.59-4.82-12.17-11.19-12.17s-11.27,4.57-11.27,12.17,4.9,12.17,11.27,12.17,11.19-4.57,11.19-12.17Z"/>
        <path class="cls-2" d="M439.55,38.9v43.93h-12.08v-5.23c-3.35,3.84-8.25,5.88-13.63,5.88-11.02,0-18.78-6.2-18.78-19.76v-24.82h12.74v22.94c0,7.35,3.27,10.61,8.9,10.61s10.12-3.76,10.12-11.84v-21.72h12.74Z"/>
        <path class="cls-2" d="M479.72,80.7c-2.61,1.88-6.45,2.78-10.37,2.78-10.37,0-16.41-5.31-16.41-15.76v-18.04h-6.78v-9.8h6.78v-10.7h12.74v10.7h10.94v9.8h-10.94v17.88c0,3.76,2.04,5.8,5.47,5.8,1.88,0,3.76-.57,5.14-1.63l3.43,8.98Z"/>
      </g>
      <path class="cls-1" d="M37.7,66.59c4.31-1.5,8.17-3.88,12.15-6.06,1.09-.6,2.2-1.16,3.32-1.67,1.07,2.05,2.12,4.11,3.16,6.18-5.4,4.08-8.9,10.55-8.9,17.83,0,12.31,10.01,22.32,22.32,22.32s22.32-10.01,22.32-22.32-10.01-22.32-22.32-22.32c-1.98,0-3.9.26-5.73.75-.89-1.79-1.8-3.56-2.71-5.34.83-.22,1.67-.42,2.52-.6,9.76-2,19.81-.74,28.97,3.07,2.16.9,4.69-.97,5.27-2.99.71-2.46-.87-4.39-2.99-5.27-9.81-4.08-20.56-5.19-31.04-3.52-2.31.37-4.59.9-6.83,1.56-1.04-1.92-2.08-3.83-3.15-5.74,7.38-2.45,15-4.08,22.75-3.57,6.26.41,12.28,3.95,18.58,3.11,5.02-.67,8.8-4.21,10.65-8.82,4.35-10.87-3.55-20.51-12.45-25.86-8.4-5.05-23.64-11.51-32.33-3.62-4.54,4.13-4.31,10.81-.82,15.51,4.25,5.71,11.36,6.63,17.98,7.08,5.51.38,5.49-8.2,0-8.58-3.33-.23-12.92-.81-12.1-6.33.66-4.45,9.53-2.22,12.09-1.49,7.51,2.14,23.01,9.16,19.92,19.42-1.69,5.6-6.34,4.22-10.86,2.91-5.83-1.7-11.88-2.32-17.94-1.78-6.81.6-13.35,2.31-19.75,4.53-2.18-3.75-4.41-7.49-6.69-11.18-2.9-4.68-10.32-.38-7.41,4.33,2.04,3.28,4.01,6.6,5.97,9.93-2.55,1.03-5.08,2.11-7.59,3.19-2.14.92-2.58,4.03-1.54,5.87,1.26,2.21,3.75,2.45,5.87,1.54,2.47-1.06,4.99-2.13,7.53-3.16,1.08,1.92,2.15,3.85,3.2,5.79-.14.07-.29.13-.43.2-4.48,2.14-8.58,5.2-13.29,6.85-10.4,3.65-20.68.85-30.71-2.43-1.55-.51-3.12-.95-4.71-1.32.16,3.09.53,6.12,1.11,9.08,2.9.93,5.69,2.03,8.12,2.76,9.01,2.69,19.48,3.3,28.48.18ZM60.06,72.65c2.08,4.34,4.11,8.72,6.05,13.12,2.23,5.04,9.62.68,7.41-4.33-1.86-4.21-3.79-8.38-5.77-12.52.65-.09,1.32-.16,2-.16,7.77,0,14.09,6.32,14.09,14.09s-6.32,14.09-14.09,14.09-14.09-6.32-14.09-14.09c0-4.02,1.7-7.64,4.4-10.21Z"/>
    </g>
  </g>
</svg>