<?xml version="1.0" encoding="UTF-8"?>
<svg id="Ebene_2" data-name="Ebene 2" xmlns="http://www.w3.org/2000/svg" viewBox="0 0 1224.32 190.37">
  <defs>
    <style>
      .cls-1 {
        fill: #2d2e83;
      }
    </style>
  </defs>
  <g id="Ebene_1-2" data-name="Ebene 1">
    <g>
      <g>
        <path class="cls-1" d="M282.89,89h-38.68l-7.38,17.85h-19.75l37.13-83.3h19.04l37.25,83.3h-20.23l-7.38-17.85ZM276.82,74.36l-13.21-31.89-13.21,31.89h26.42Z"/>
        <path class="cls-1" d="M315.61,23.55c0-5.83,4.64-10.35,11.54-10.35s11.54,4.28,11.54,10c0,6.19-4.64,10.71-11.54,10.71s-11.54-4.52-11.54-10.35ZM317.87,42.83h18.56v64.02h-18.56V42.83Z"/>
        <path class="cls-1" d="M393.44,41.88v17.14c-1.55-.12-2.74-.24-4.17-.24-10.23,0-17.02,5.59-17.02,17.85v30.23h-18.56V42.83h17.73v8.45c4.52-6.19,12.14-9.4,22.02-9.4Z"/>
        <path class="cls-1" d="M398.79,98.64l6.54-14.52c7.02,5.12,17.49,8.69,27.49,8.69,11.42,0,16.07-3.81,16.07-8.92,0-15.59-48.43-4.88-48.43-35.82,0-14.16,11.42-25.94,35.11-25.94,10.47,0,21.18,2.5,28.92,7.38l-5.95,14.64c-7.73-4.4-15.71-6.54-23.09-6.54-11.42,0-15.83,4.29-15.83,9.52,0,15.35,48.43,4.76,48.43,35.34,0,13.92-11.54,25.82-35.34,25.82-13.21,0-26.54-3.93-33.92-9.64Z"/>
        <path class="cls-1" d="M475.19,74.84c0-19.28,14.88-32.96,35.7-32.96,13.45,0,24.04,5.83,28.68,16.3l-14.4,7.74c-3.45-6.07-8.57-8.81-14.4-8.81-9.4,0-16.78,6.54-16.78,17.73s7.38,17.73,16.78,17.73c5.83,0,10.95-2.62,14.4-8.81l14.4,7.85c-4.64,10.23-15.23,16.19-28.68,16.19-20.83,0-35.7-13.69-35.7-32.96Z"/>
        <path class="cls-1" d="M544.69,74.84c0-19.28,14.88-32.96,35.22-32.96s35.11,13.68,35.11,32.96-14.76,32.96-35.11,32.96-35.22-13.69-35.22-32.96ZM596.21,74.84c0-11.07-7.02-17.73-16.3-17.73s-16.42,6.66-16.42,17.73,7.14,17.73,16.42,17.73,16.3-6.66,16.3-17.73Z"/>
        <path class="cls-1" d="M691.89,42.83v64.02h-17.61v-7.62c-4.88,5.59-12.02,8.57-19.87,8.57-16.07,0-27.37-9.04-27.37-28.8v-36.18h18.56v33.44c0,10.71,4.76,15.47,12.97,15.47s14.76-5.47,14.76-17.26v-31.65h18.56Z"/>
        <path class="cls-1" d="M750.44,103.76c-3.81,2.74-9.4,4.05-15.11,4.05-15.11,0-23.92-7.74-23.92-22.97v-26.3h-9.88v-14.28h9.88v-15.59h18.56v15.59h15.95v14.28h-15.95v26.06c0,5.47,2.98,8.45,7.97,8.45,2.74,0,5.47-.83,7.5-2.38l5,13.09Z"/>
      </g>
      <g>
        <path class="cls-1" d="M243.92,160.5h-15.4l-2.94,7.11h-7.87l14.78-33.17h7.58l14.83,33.17h-8.05l-2.94-7.11ZM241.51,154.67l-5.26-12.7-5.26,12.7h10.52Z"/>
        <path class="cls-1" d="M256.95,134.44c0-2.32,1.85-4.12,4.6-4.12s4.6,1.71,4.6,3.98c0,2.46-1.85,4.26-4.6,4.26s-4.6-1.8-4.6-4.12ZM257.85,142.12h7.39v25.49h-7.39v-25.49Z"/>
        <path class="cls-1" d="M287.93,141.74v6.82c-.62-.05-1.09-.09-1.66-.09-4.07,0-6.77,2.23-6.77,7.11v12.03h-7.39v-25.49h7.06v3.36c1.8-2.46,4.83-3.74,8.76-3.74Z"/>
        <path class="cls-1" d="M331.8,142.12v34.68h-7.39v-11.89c-1.85,2.08-4.5,3.08-7.63,3.08-7.2,0-12.74-5.12-12.74-13.12s5.54-13.12,12.74-13.12c3.41,0,6.11,1.09,7.96,3.32v-2.94h7.06ZM324.55,154.86c0-4.41-2.84-7.06-6.49-7.06s-6.54,2.65-6.54,7.06,2.84,7.06,6.54,7.06,6.49-2.65,6.49-7.06Z"/>
        <path class="cls-1" d="M364.3,142.12v25.49h-7.01v-3.03c-1.94,2.23-4.79,3.41-7.91,3.41-6.4,0-10.9-3.6-10.9-11.47v-14.4h7.39v13.31c0,4.26,1.9,6.16,5.16,6.16s5.88-2.18,5.88-6.87v-12.6h7.39Z"/>
        <path class="cls-1" d="M393.72,153.06v14.54h-6.92v-3.17c-1.37,2.32-4.03,3.55-7.77,3.55-5.97,0-9.52-3.32-9.52-7.72s3.17-7.63,10.94-7.63h5.88c0-3.17-1.89-5.02-5.88-5.02-2.7,0-5.5.9-7.34,2.37l-2.65-5.16c2.8-1.99,6.92-3.08,10.99-3.08,7.77,0,12.27,3.6,12.27,11.32ZM386.33,159.55v-2.61h-5.07c-3.46,0-4.55,1.28-4.55,2.98,0,1.85,1.56,3.08,4.17,3.08,2.46,0,4.6-1.14,5.45-3.46Z"/>
        <path class="cls-1" d="M400.4,132.45h7.39v35.16h-7.39v-35.16Z"/>
        <path class="cls-1" d="M413.76,134.44c0-2.32,1.85-4.12,4.6-4.12s4.6,1.71,4.6,3.98c0,2.46-1.85,4.26-4.6,4.26s-4.6-1.8-4.6-4.12ZM414.66,142.12h7.39v25.49h-7.39v-25.49Z"/>
        <path class="cls-1" d="M445.36,166.37c-1.52,1.09-3.74,1.61-6.02,1.61-6.02,0-9.52-3.08-9.52-9.14v-10.47h-3.93v-5.69h3.93v-6.21h7.39v6.21h6.35v5.69h-6.35v10.38c0,2.18,1.18,3.36,3.17,3.36,1.09,0,2.18-.33,2.98-.95l1.99,5.21Z"/>
        <path class="cls-1" d="M474.35,142.12l-11.51,27.05c-2.46,6.16-5.97,8.01-10.57,8.01-2.61,0-5.45-.85-7.11-2.32l2.7-5.26c1.14.99,2.7,1.61,4.17,1.61,2.04,0,3.17-.9,4.17-3.17l.09-.24-11.04-25.68h7.63l7.15,17.29,7.2-17.29h7.11Z"/>
        <path class="cls-1" d="M533.85,153.01v14.59h-7.39v-13.46c0-4.12-1.85-6.02-4.83-6.02-3.32,0-5.64,2.13-5.64,6.68v12.79h-7.39v-13.46c0-4.12-1.75-6.02-4.83-6.02-3.27,0-5.59,2.13-5.59,6.68v12.79h-7.39v-25.49h7.06v2.94c1.9-2.18,4.74-3.32,8.01-3.32,3.55,0,6.59,1.37,8.39,4.17,2.04-2.61,5.35-4.17,9.19-4.17,6.06,0,10.42,3.51,10.42,11.28Z"/>
        <path class="cls-1" d="M565.59,156.95h-19.28c.71,3.17,3.41,5.12,7.3,5.12,2.7,0,4.64-.81,6.4-2.46l3.93,4.26c-2.37,2.7-5.92,4.12-10.52,4.12-8.81,0-14.55-5.54-14.55-13.12s5.83-13.12,13.6-13.12,13.27,5.02,13.27,13.22c0,.57-.09,1.37-.14,1.99ZM546.21,152.63h12.56c-.52-3.22-2.94-5.31-6.25-5.31s-5.78,2.04-6.3,5.31Z"/>
        <path class="cls-1" d="M592.5,153.06v14.54h-6.92v-3.17c-1.37,2.32-4.03,3.55-7.77,3.55-5.97,0-9.52-3.32-9.52-7.72s3.17-7.63,10.94-7.63h5.88c0-3.17-1.9-5.02-5.88-5.02-2.7,0-5.5.9-7.34,2.37l-2.65-5.16c2.8-1.99,6.92-3.08,10.99-3.08,7.77,0,12.27,3.6,12.27,11.32ZM585.11,159.55v-2.61h-5.07c-3.46,0-4.55,1.28-4.55,2.98,0,1.85,1.56,3.08,4.17,3.08,2.46,0,4.6-1.14,5.45-3.46Z"/>
        <path class="cls-1" d="M596.71,165.24l2.46-5.31c2.27,1.47,5.73,2.46,8.86,2.46,3.41,0,4.69-.9,4.69-2.32,0-4.17-15.4.09-15.4-10.09,0-4.83,4.36-8.24,11.8-8.24,3.51,0,7.39.81,9.81,2.23l-2.46,5.26c-2.51-1.42-5.02-1.9-7.34-1.9-3.32,0-4.74,1.04-4.74,2.37,0,4.36,15.4.14,15.4,10.19,0,4.74-4.41,8.1-12.03,8.1-4.31,0-8.67-1.18-11.04-2.75Z"/>
        <path class="cls-1" d="M650.01,142.12v25.49h-7.01v-3.03c-1.94,2.23-4.79,3.41-7.91,3.41-6.4,0-10.9-3.6-10.9-11.47v-14.4h7.39v13.31c0,4.26,1.9,6.16,5.16,6.16s5.88-2.18,5.88-6.87v-12.6h7.39Z"/>
        <path class="cls-1" d="M672.7,141.74v6.82c-.62-.05-1.09-.09-1.66-.09-4.07,0-6.77,2.23-6.77,7.11v12.03h-7.39v-25.49h7.06v3.36c1.8-2.46,4.83-3.74,8.76-3.74Z"/>
        <path class="cls-1" d="M676.21,134.44c0-2.32,1.85-4.12,4.6-4.12s4.6,1.71,4.6,3.98c0,2.46-1.85,4.26-4.6,4.26s-4.6-1.8-4.6-4.12ZM677.11,142.12h7.39v25.49h-7.39v-25.49Z"/>
        <path class="cls-1" d="M717.43,153.01v14.59h-7.39v-13.46c0-4.12-1.89-6.02-5.16-6.02-3.55,0-6.11,2.18-6.11,6.87v12.6h-7.39v-25.49h7.06v2.98c1.99-2.18,4.97-3.36,8.43-3.36,6.02,0,10.57,3.51,10.57,11.28Z"/>
        <path class="cls-1" d="M750.68,142.12v21.23c0,9.48-5.12,13.83-14.31,13.83-4.83,0-9.52-1.18-12.51-3.51l2.94-5.31c2.18,1.75,5.73,2.89,9,2.89,5.21,0,7.49-2.37,7.49-6.96v-1.09c-1.94,2.13-4.74,3.17-8.05,3.17-7.06,0-12.75-4.88-12.75-12.32s5.69-12.32,12.75-12.32c3.55,0,6.49,1.18,8.43,3.65v-3.27h7.01ZM743.39,154.06c0-3.74-2.8-6.25-6.68-6.25s-6.73,2.51-6.73,6.25,2.84,6.25,6.73,6.25,6.68-2.51,6.68-6.25Z"/>
        <path class="cls-1" d="M796.92,132.45v35.16h-7.06v-2.94c-1.85,2.23-4.55,3.32-7.96,3.32-7.2,0-12.74-5.12-12.74-13.12s5.54-13.12,12.74-13.12c3.13,0,5.78,1,7.63,3.08v-12.37h7.39ZM789.67,154.86c0-4.41-2.84-7.06-6.49-7.06s-6.54,2.65-6.54,7.06,2.84,7.06,6.54,7.06,6.49-2.65,6.49-7.06Z"/>
        <path class="cls-1" d="M828.56,156.95h-19.28c.71,3.17,3.41,5.12,7.3,5.12,2.7,0,4.64-.81,6.4-2.46l3.93,4.26c-2.37,2.7-5.92,4.12-10.52,4.12-8.81,0-14.54-5.54-14.54-13.12s5.83-13.12,13.6-13.12,13.27,5.02,13.27,13.22c0,.57-.09,1.37-.14,1.99ZM809.18,152.63h12.56c-.52-3.22-2.94-5.31-6.25-5.31s-5.78,2.04-6.3,5.31Z"/>
        <path class="cls-1" d="M858.46,142.12l-10.75,25.49h-7.63l-10.71-25.49h7.63l7.06,17.34,7.3-17.34h7.11Z"/>
        <path class="cls-1" d="M860.59,134.44c0-2.32,1.85-4.12,4.6-4.12s4.6,1.71,4.6,3.98c0,2.46-1.85,4.26-4.6,4.26s-4.6-1.8-4.6-4.12ZM861.49,142.12h7.39v25.49h-7.39v-25.49Z"/>
        <path class="cls-1" d="M873.85,154.86c0-7.67,5.92-13.12,14.21-13.12,5.35,0,9.57,2.32,11.42,6.49l-5.73,3.08c-1.37-2.42-3.41-3.51-5.73-3.51-3.74,0-6.68,2.61-6.68,7.06s2.94,7.06,6.68,7.06c2.32,0,4.36-1.04,5.73-3.51l5.73,3.13c-1.85,4.07-6.06,6.44-11.42,6.44-8.29,0-14.21-5.45-14.21-13.12Z"/>
        <path class="cls-1" d="M928.24,156.95h-19.28c.71,3.17,3.41,5.12,7.3,5.12,2.7,0,4.64-.81,6.4-2.46l3.93,4.26c-2.37,2.7-5.92,4.12-10.52,4.12-8.81,0-14.55-5.54-14.55-13.12s5.83-13.12,13.6-13.12,13.27,5.02,13.27,13.22c0,.57-.09,1.37-.14,1.99ZM908.86,152.63h12.56c-.52-3.22-2.94-5.31-6.25-5.31s-5.78,2.04-6.3,5.31Z"/>
        <path class="cls-1" d="M954.81,142.68h6.54v5.69h-6.35v19.24h-7.39v-19.24h-3.93v-5.69h3.93v-1.14c0-5.73,3.51-9.48,9.85-9.48,2.08,0,4.26.43,5.64,1.37l-1.94,5.35c-.8-.57-1.85-.9-2.98-.9-2.18,0-3.36,1.18-3.36,3.7v1.09Z"/>
        <path class="cls-1" d="M962.82,154.86c0-7.67,5.92-13.12,14.02-13.12s13.98,5.45,13.98,13.12-5.88,13.12-13.98,13.12-14.02-5.45-14.02-13.12ZM983.33,154.86c0-4.41-2.8-7.06-6.49-7.06s-6.54,2.65-6.54,7.06,2.84,7.06,6.54,7.06,6.49-2.65,6.49-7.06Z"/>
        <path class="cls-1" d="M1011.57,141.74v6.82c-.62-.05-1.09-.09-1.66-.09-4.07,0-6.77,2.23-6.77,7.11v12.03h-7.39v-25.49h7.06v3.36c1.8-2.46,4.83-3.74,8.76-3.74Z"/>
        <path class="cls-1" d="M1057.33,154.86c0,8.01-5.54,13.12-12.7,13.12-3.41,0-6.16-1.09-8.01-3.32v2.94h-7.06v-35.16h7.39v12.37c1.89-2.08,4.5-3.08,7.67-3.08,7.15,0,12.7,5.12,12.7,13.12ZM1049.85,154.86c0-4.41-2.8-7.06-6.49-7.06s-6.49,2.65-6.49,7.06,2.79,7.06,6.49,7.06,6.49-2.65,6.49-7.06Z"/>
        <path class="cls-1" d="M1061.35,134.44c0-2.32,1.85-4.12,4.6-4.12s4.6,1.71,4.6,3.98c0,2.46-1.85,4.26-4.6,4.26s-4.6-1.8-4.6-4.12ZM1062.26,142.12h7.39v25.49h-7.39v-25.49Z"/>
        <path class="cls-1" d="M1074.62,154.86c0-7.67,5.92-13.12,14.21-13.12,5.35,0,9.57,2.32,11.42,6.49l-5.73,3.08c-1.37-2.42-3.41-3.51-5.73-3.51-3.74,0-6.68,2.61-6.68,7.06s2.94,7.06,6.68,7.06c2.32,0,4.36-1.04,5.73-3.51l5.73,3.13c-1.85,4.07-6.06,6.44-11.42,6.44-8.29,0-14.21-5.45-14.21-13.12Z"/>
        <path class="cls-1" d="M1129.43,142.12l-11.51,27.05c-2.46,6.16-5.97,8.01-10.57,8.01-2.61,0-5.45-.85-7.11-2.32l2.7-5.26c1.14.99,2.7,1.61,4.17,1.61,2.04,0,3.17-.9,4.17-3.17l.09-.24-11.04-25.68h7.63l7.15,17.29,7.2-17.29h7.11Z"/>
        <path class="cls-1" d="M1129.86,154.86c0-7.67,5.92-13.12,14.21-13.12,5.35,0,9.57,2.32,11.42,6.49l-5.73,3.08c-1.37-2.42-3.41-3.51-5.73-3.51-3.74,0-6.68,2.61-6.68,7.06s2.94,7.06,6.68,7.06c2.32,0,4.36-1.04,5.73-3.51l5.73,3.13c-1.85,4.07-6.06,6.44-11.42,6.44-8.29,0-14.21-5.45-14.21-13.12Z"/>
        <path class="cls-1" d="M1159.56,132.45h7.39v35.16h-7.39v-35.16Z"/>
        <path class="cls-1" d="M1198.65,156.95h-19.28c.71,3.17,3.41,5.12,7.3,5.12,2.7,0,4.64-.81,6.4-2.46l3.93,4.26c-2.37,2.7-5.92,4.12-10.52,4.12-8.81,0-14.55-5.54-14.55-13.12s5.83-13.12,13.6-13.12,13.27,5.02,13.27,13.22c0,.57-.09,1.37-.14,1.99ZM1179.27,152.63h12.56c-.52-3.22-2.94-5.31-6.25-5.31s-5.78,2.04-6.3,5.31Z"/>
        <path class="cls-1" d="M1201.25,165.24l2.46-5.31c2.27,1.47,5.73,2.46,8.86,2.46,3.41,0,4.69-.9,4.69-2.32,0-4.17-15.4.09-15.4-10.09,0-4.83,4.36-8.24,11.8-8.24,3.51,0,7.39.81,9.81,2.23l-2.46,5.26c-2.51-1.42-5.02-1.9-7.34-1.9-3.32,0-4.74,1.04-4.74,2.37,0,4.36,15.4.14,15.4,10.19,0,4.74-4.41,8.1-12.03,8.1-4.31,0-8.67-1.18-11.04-2.75Z"/>
      </g>
      <g>
        <path class="cls-1" d="M830,42.82l-41.16,64.03h-6.59l-15.64-64.03h6.95l13.45,55.53,35.86-55.53h7.13Z"/>
        <path class="cls-1" d="M832.38,101h34.76l-1.19,5.85h-45.01l1.01-4.67,32.02-25.98c9.24-7.41,11.89-12.08,11.89-17.75,0-6.31-4.3-10.34-13.81-10.34-6.68,0-13.17,2.65-17.66,7.32l-4.57-3.93c5.21-5.76,13.81-9.24,23.14-9.24,12.81,0,19.67,6.22,19.67,15.37,0,7.23-3.2,13.63-14.09,22.41l-26.16,20.95Z"/>
        <path class="cls-1" d="M876.02,102.55c0-3.02,2.38-5.21,5.12-5.21s4.67,2.01,4.67,4.76c0,3.02-2.38,5.21-5.03,5.21s-4.76-2.1-4.76-4.76Z"/>
        <path class="cls-1" d="M890.75,84.26c0-21.77,12.26-41.99,32.02-41.99,13.08,0,20.86,8.6,20.86,23.14,0,21.77-12.26,41.99-32.02,41.99-13.08,0-20.86-8.6-20.86-23.14ZM936.94,65.5c0-11.16-5.49-17.2-14.73-17.2-15.83,0-24.79,19.39-24.79,35.86,0,11.16,5.49,17.2,14.73,17.2,15.83,0,24.79-19.39,24.79-35.86Z"/>
      </g>
    </g>
    <g>
      <path class="cls-1" d="M95.19,0C42.62,0,0,42.62,0,95.19c0,1.65.04,3.3.13,4.93,2.31.53,4.61,1.19,6.86,1.93,14.62,4.78,29.6,8.86,44.76,3.54,6.86-2.41,12.83-6.86,19.36-9.99.21-.1.42-.19.63-.29-1.54-2.83-3.1-5.64-4.67-8.44-3.71,1.5-7.38,3.06-10.98,4.61-3.08,1.32-6.71.98-8.55-2.24-1.52-2.67-.88-7.21,2.24-8.55,3.67-1.58,7.36-3.14,11.07-4.65-2.85-4.86-5.73-9.69-8.7-14.48-4.25-6.86,6.56-13.13,10.79-6.31,3.34,5.38,6.57,10.82,9.76,16.29,9.32-3.24,18.87-5.73,28.79-6.61,8.83-.78,17.65.13,26.15,2.6,6.59,1.92,13.37,3.93,15.83-4.24,4.51-14.95-18.08-25.18-29.03-28.3-3.73-1.06-16.67-4.31-17.63,2.17-1.2,8.05,12.79,8.9,17.64,9.23,8,.55,8.03,13.05,0,12.5-9.64-.66-20.02-2-26.21-10.32-5.09-6.84-5.43-16.58,1.19-22.6,12.66-11.5,34.88-2.09,47.12,5.27,12.97,7.8,24.48,21.85,18.14,37.69-2.69,6.72-8.2,11.88-15.52,12.86-9.18,1.23-17.97-3.94-27.09-4.53-11.29-.73-22.4,1.63-33.15,5.21,1.55,2.78,3.08,5.57,4.58,8.36,3.26-.97,6.58-1.74,9.95-2.28,15.27-2.44,30.94-.82,45.24,5.12,3.1,1.29,5.39,4.11,4.37,7.69-.85,2.95-4.55,5.67-7.69,4.37-13.35-5.55-27.99-7.39-42.23-4.47-1.24.25-2.46.55-3.68.87,1.33,2.59,2.65,5.18,3.95,7.78,2.67-.71,5.46-1.09,8.35-1.09,17.94,0,32.54,14.6,32.54,32.54s-14.6,32.54-32.54,32.54-32.54-14.6-32.54-32.54c0-10.61,5.1-20.04,12.98-25.98-1.51-3.01-3.05-6.01-4.6-9-1.64.75-3.25,1.57-4.84,2.44-5.8,3.18-11.42,6.65-17.7,8.83-13.11,4.55-28.37,3.67-41.51-.26-3.54-1.06-7.6-2.66-11.83-4.02,8.48,43.88,47.09,77.02,93.45,77.02,52.57,0,95.19-42.62,95.19-95.19S147.75,0,95.19,0Z"/>
      <path class="cls-1" d="M96.49,145.6c-2.84-6.43-5.79-12.8-8.82-19.13-3.94,3.74-6.42,9.02-6.42,14.88,0,11.33,9.21,20.54,20.54,20.54s20.54-9.21,20.54-20.54-9.21-20.54-20.54-20.54c-.99,0-1.96.09-2.91.23,2.88,6.04,5.7,12.12,8.41,18.25,3.22,7.3-7.55,13.65-10.79,6.31Z"/>
    </g>
  </g>
</svg>