G04*
G04 #@! TF.GenerationSoftware,Altium Limited,Altium Designer,24.1.2 (44)*
G04*
G04 Layer_Color=8388736*
%FSLAX44Y44*%
%MOMM*%
G71*
G04*
G04 #@! TF.SameCoordinates,937086DB-3430-4752-8DE8-575BD122750B*
G04*
G04*
G04 #@! TF.FilePolarity,Negative*
G04*
G01*
G75*
%ADD16C,2.2260*%
%ADD17C,0.8260*%
%ADD18O,2.5760X1.6760*%
%ADD19C,0.7760*%
D16*
X278780Y365760D02*
D03*
Y391160D02*
D03*
Y416560D02*
D03*
Y441960D02*
D03*
Y467360D02*
D03*
Y492760D02*
D03*
X360680Y327660D02*
D03*
X386080D02*
D03*
X411480D02*
D03*
X436880D02*
D03*
X462280D02*
D03*
X335280D02*
D03*
X640080Y632460D02*
D03*
X665480D02*
D03*
X614680D02*
D03*
X589280D02*
D03*
X89700Y50800D02*
D03*
X114700D02*
D03*
X64700D02*
D03*
X39700D02*
D03*
X139700D02*
D03*
X164700D02*
D03*
X189700D02*
D03*
X214700D02*
D03*
X795020Y520700D02*
D03*
Y495300D02*
D03*
Y469900D02*
D03*
Y444500D02*
D03*
Y419100D02*
D03*
Y393700D02*
D03*
Y368300D02*
D03*
Y342900D02*
D03*
X566420D02*
D03*
Y368300D02*
D03*
Y393700D02*
D03*
Y419100D02*
D03*
Y444500D02*
D03*
Y469900D02*
D03*
Y495300D02*
D03*
Y520700D02*
D03*
X679048Y31750D02*
D03*
X724048D02*
D03*
X666498Y56650D02*
D03*
X736598D02*
D03*
X568918Y31750D02*
D03*
X613918D02*
D03*
X556368Y56650D02*
D03*
X626468D02*
D03*
X39600Y137920D02*
D03*
X217400D02*
D03*
X39600Y620520D02*
D03*
Y595120D02*
D03*
Y544320D02*
D03*
Y518920D02*
D03*
Y493520D02*
D03*
Y468120D02*
D03*
Y417320D02*
D03*
Y391920D02*
D03*
Y366520D02*
D03*
Y341120D02*
D03*
Y290320D02*
D03*
Y264920D02*
D03*
Y239520D02*
D03*
Y214120D02*
D03*
Y163320D02*
D03*
Y569720D02*
D03*
Y442720D02*
D03*
Y315720D02*
D03*
Y188720D02*
D03*
X217400Y620520D02*
D03*
Y569720D02*
D03*
Y595120D02*
D03*
Y544320D02*
D03*
Y518920D02*
D03*
Y493520D02*
D03*
Y468120D02*
D03*
Y417320D02*
D03*
Y391920D02*
D03*
Y366520D02*
D03*
Y341120D02*
D03*
Y290320D02*
D03*
Y264920D02*
D03*
Y239520D02*
D03*
Y214120D02*
D03*
Y163320D02*
D03*
Y442720D02*
D03*
Y315720D02*
D03*
Y188720D02*
D03*
X360680Y289560D02*
D03*
X533400Y182880D02*
D03*
Y129540D02*
D03*
X508000Y104140D02*
D03*
X533400D02*
D03*
X508000Y129540D02*
D03*
X693420Y281940D02*
D03*
X668020D02*
D03*
X642620D02*
D03*
X617220D02*
D03*
X591820D02*
D03*
X566420D02*
D03*
Y104140D02*
D03*
X591820D02*
D03*
X617220D02*
D03*
X642620D02*
D03*
X668020D02*
D03*
X693420D02*
D03*
X464600Y240000D02*
D03*
X429600D02*
D03*
X324600D02*
D03*
X359600D02*
D03*
X508000Y182302D02*
D03*
X386080Y289560D02*
D03*
D17*
X270000Y115000D02*
D03*
X280000Y570800D02*
D03*
X800000Y635000D02*
D03*
Y50000D02*
D03*
D18*
X464600Y15000D02*
D03*
X324600D02*
D03*
D19*
X293370Y100330D02*
D03*
X795020Y147320D02*
D03*
Y157480D02*
D03*
X784860Y147320D02*
D03*
Y157480D02*
D03*
X251460Y391160D02*
D03*
M02*
