G04*
G04 #@! TF.GenerationSoftware,Altium Limited,Altium Designer,24.1.2 (44)*
G04*
G04 Layer_Color=16711935*
%FSLAX44Y44*%
%MOMM*%
G71*
G04*
G04 #@! TF.SameCoordinates,937086DB-3430-4752-8DE8-575BD122750B*
G04*
G04*
G04 #@! TF.FilePolarity,Negative*
G04*
G01*
G75*
%ADD16C,2.2260*%
%ADD17C,0.8260*%
%ADD18O,2.5760X1.6760*%
%ADD19C,0.7760*%
%ADD30R,1.1760X1.7760*%
%ADD31R,2.4890X5.4100*%
%ADD32R,0.7770X1.0760*%
%ADD33R,1.2860X0.6560*%
%ADD34R,1.7760X1.1760*%
G36*
X514805Y282100D02*
X521807D01*
Y292100D01*
X514805D01*
Y282100D01*
D02*
G37*
D16*
X278780Y365760D02*
D03*
Y391160D02*
D03*
Y416560D02*
D03*
Y441960D02*
D03*
Y467360D02*
D03*
Y492760D02*
D03*
X360680Y327660D02*
D03*
X386080D02*
D03*
X411480D02*
D03*
X436880D02*
D03*
X462280D02*
D03*
X335280D02*
D03*
X640080Y632460D02*
D03*
X665480D02*
D03*
X614680D02*
D03*
X589280D02*
D03*
X89700Y50800D02*
D03*
X114700D02*
D03*
X64700D02*
D03*
X39700D02*
D03*
X139700D02*
D03*
X164700D02*
D03*
X189700D02*
D03*
X214700D02*
D03*
X795020Y520700D02*
D03*
Y495300D02*
D03*
Y469900D02*
D03*
Y444500D02*
D03*
Y419100D02*
D03*
Y393700D02*
D03*
Y368300D02*
D03*
Y342900D02*
D03*
X566420D02*
D03*
Y368300D02*
D03*
Y393700D02*
D03*
Y419100D02*
D03*
Y444500D02*
D03*
Y469900D02*
D03*
Y495300D02*
D03*
Y520700D02*
D03*
X679048Y31750D02*
D03*
X724048D02*
D03*
X666498Y56650D02*
D03*
X736598D02*
D03*
X568918Y31750D02*
D03*
X613918D02*
D03*
X556368Y56650D02*
D03*
X626468D02*
D03*
X39600Y137920D02*
D03*
X217400D02*
D03*
X39600Y620520D02*
D03*
Y595120D02*
D03*
Y544320D02*
D03*
Y518920D02*
D03*
Y493520D02*
D03*
Y468120D02*
D03*
Y417320D02*
D03*
Y391920D02*
D03*
Y366520D02*
D03*
Y341120D02*
D03*
Y290320D02*
D03*
Y264920D02*
D03*
Y239520D02*
D03*
Y214120D02*
D03*
Y163320D02*
D03*
Y569720D02*
D03*
Y442720D02*
D03*
Y315720D02*
D03*
Y188720D02*
D03*
X217400Y620520D02*
D03*
Y569720D02*
D03*
Y595120D02*
D03*
Y544320D02*
D03*
Y518920D02*
D03*
Y493520D02*
D03*
Y468120D02*
D03*
Y417320D02*
D03*
Y391920D02*
D03*
Y366520D02*
D03*
Y341120D02*
D03*
Y290320D02*
D03*
Y264920D02*
D03*
Y239520D02*
D03*
Y214120D02*
D03*
Y163320D02*
D03*
Y442720D02*
D03*
Y315720D02*
D03*
Y188720D02*
D03*
X360680Y289560D02*
D03*
X533400Y182880D02*
D03*
Y129540D02*
D03*
X508000Y104140D02*
D03*
X533400D02*
D03*
X508000Y129540D02*
D03*
X693420Y281940D02*
D03*
X668020D02*
D03*
X642620D02*
D03*
X617220D02*
D03*
X591820D02*
D03*
X566420D02*
D03*
Y104140D02*
D03*
X591820D02*
D03*
X617220D02*
D03*
X642620D02*
D03*
X668020D02*
D03*
X693420D02*
D03*
X464600Y240000D02*
D03*
X429600D02*
D03*
X324600D02*
D03*
X359600D02*
D03*
X508000Y182302D02*
D03*
X386080Y289560D02*
D03*
D17*
X270000Y115000D02*
D03*
X280000Y570800D02*
D03*
X800000Y635000D02*
D03*
Y50000D02*
D03*
D18*
X464600Y15000D02*
D03*
X324600D02*
D03*
D19*
X293370Y100330D02*
D03*
X795020Y147320D02*
D03*
Y157480D02*
D03*
X784860Y147320D02*
D03*
Y157480D02*
D03*
X251460Y391160D02*
D03*
D30*
X529120Y213360D02*
D03*
X502120D02*
D03*
X744690Y151130D02*
D03*
X771690D02*
D03*
X438620Y104140D02*
D03*
X465620D02*
D03*
X438620Y129540D02*
D03*
X465620D02*
D03*
X563480Y602380D02*
D03*
X590480D02*
D03*
X531660Y342900D02*
D03*
X504660D02*
D03*
Y312420D02*
D03*
X531660D02*
D03*
X694220Y251460D02*
D03*
X667220D02*
D03*
X694220Y134620D02*
D03*
X667220D02*
D03*
X694220Y162560D02*
D03*
X667220D02*
D03*
X694220Y190500D02*
D03*
X667220D02*
D03*
D31*
X733430Y270510D02*
D03*
X805810D02*
D03*
D32*
X518044Y247100D02*
D03*
X503301Y247099D02*
D03*
X533306D02*
D03*
X503298Y287099D02*
D03*
X533285Y287100D02*
D03*
X518299D02*
D03*
D33*
X782320Y199390D02*
D03*
Y189890D02*
D03*
Y180390D02*
D03*
X757220D02*
D03*
Y189890D02*
D03*
Y199390D02*
D03*
D34*
X720090Y202730D02*
D03*
Y175730D02*
D03*
X401320Y179540D02*
D03*
Y206540D02*
D03*
X429260D02*
D03*
Y179540D02*
D03*
M02*
