<?xml version="1.0" encoding="UTF-8"?>
<svg id="Ebene_2" data-name="Ebene 2" xmlns="http://www.w3.org/2000/svg" viewBox="0 0 190.37 190.37">
  <defs>
    <style>
      .cls-1 {
        fill: #2d2e83;
      }
    </style>
  </defs>
  <g id="Ebene_1-2" data-name="Ebene 1">
    <g>
      <path class="cls-1" d="M95.19,0C42.62,0,0,42.62,0,95.19c0,1.65.04,3.3.13,4.93,2.31.53,4.61,1.19,6.86,1.93,14.62,4.78,29.6,8.86,44.76,3.54,6.86-2.41,12.83-6.86,19.36-9.99.21-.1.42-.19.63-.29-1.54-2.83-3.1-5.64-4.67-8.44-3.71,1.5-7.38,3.06-10.98,4.61-3.08,1.32-6.71.98-8.55-2.24-1.52-2.67-.88-7.21,2.24-8.55,3.67-1.58,7.36-3.14,11.07-4.65-2.85-4.86-5.73-9.69-8.7-14.48-4.25-6.86,6.56-13.13,10.79-6.31,3.34,5.38,6.57,10.82,9.76,16.29,9.32-3.24,18.87-5.73,28.79-6.61,8.83-.78,17.65.13,26.15,2.6,6.59,1.92,13.37,3.93,15.83-4.24,4.51-14.95-18.08-25.18-29.03-28.3-3.73-1.06-16.67-4.31-17.63,2.17-1.2,8.05,12.79,8.9,17.64,9.23,8,.55,8.03,13.05,0,12.5-9.64-.66-20.02-2-26.21-10.32-5.09-6.84-5.43-16.58,1.19-22.6,12.66-11.5,34.88-2.09,47.12,5.27,12.97,7.8,24.48,21.85,18.14,37.69-2.69,6.72-8.2,11.88-15.52,12.86-9.18,1.23-17.97-3.94-27.09-4.53-11.29-.73-22.4,1.63-33.15,5.21,1.55,2.78,3.08,5.57,4.58,8.36,3.26-.97,6.58-1.74,9.95-2.28,15.27-2.44,30.94-.82,45.24,5.12,3.1,1.29,5.39,4.11,4.37,7.69-.85,2.95-4.55,5.67-7.69,4.37-13.35-5.55-27.99-7.39-42.23-4.47-1.24.25-2.46.55-3.68.87,1.33,2.59,2.65,5.18,3.95,7.78,2.67-.71,5.46-1.09,8.35-1.09,17.94,0,32.54,14.6,32.54,32.54s-14.6,32.54-32.54,32.54-32.54-14.6-32.54-32.54c0-10.61,5.1-20.04,12.98-25.98-1.51-3.01-3.05-6.01-4.6-9-1.64.75-3.25,1.57-4.84,2.44-5.8,3.18-11.42,6.65-17.7,8.83-13.11,4.55-28.37,3.67-41.51-.26-3.54-1.06-7.6-2.66-11.83-4.02,8.48,43.88,47.09,77.02,93.45,77.02,52.57,0,95.19-42.62,95.19-95.19S147.75,0,95.19,0Z"/>
      <path class="cls-1" d="M96.49,145.6c-2.84-6.43-5.79-12.8-8.82-19.13-3.94,3.74-6.42,9.02-6.42,14.88,0,11.33,9.21,20.54,20.54,20.54s20.54-9.21,20.54-20.54-9.21-20.54-20.54-20.54c-.99,0-1.96.09-2.91.23,2.88,6.04,5.7,12.12,8.41,18.25,3.22,7.3-7.55,13.65-10.79,6.31Z"/>
    </g>
  </g>
</svg>